G75*
%MOIN*%
%OFA0B0*%
%FSLAX25Y25*%
%IPPOS*%
%LPD*%
%AMOC8*
5,1,8,0,0,1.08239X$1,22.5*
%
%ADD10C,0.01600*%
%ADD11C,0.06800*%
%ADD12OC8,0.07100*%
%ADD13C,0.07100*%
%ADD14R,0.07900X0.05200*%
%ADD15R,0.07200X0.09400*%
%ADD16R,0.12600X0.30300*%
%ADD17R,0.08600X0.03000*%
%ADD18R,0.05918X0.06706*%
%ADD19R,0.06706X0.05918*%
%ADD20C,0.07850*%
%ADD21OC8,0.06800*%
%ADD22C,0.04762*%
D10*
X0008250Y0001800D02*
X0008250Y0119910D01*
X0132266Y0119910D01*
X0132266Y0001800D01*
X0008250Y0001800D01*
D11*
X0011500Y0016800D02*
X0017500Y0016800D01*
X0017500Y0026800D02*
X0011500Y0026800D01*
X0011500Y0036800D02*
X0017500Y0036800D01*
X0017500Y0046800D02*
X0011500Y0046800D01*
X0011500Y0056800D02*
X0017500Y0056800D01*
X0017500Y0066800D02*
X0011500Y0066800D01*
X0011500Y0076800D02*
X0017500Y0076800D01*
X0017500Y0086800D02*
X0011500Y0086800D01*
X0122750Y0086800D02*
X0128750Y0086800D01*
X0128750Y0076800D02*
X0122750Y0076800D01*
X0122750Y0066800D02*
X0128750Y0066800D01*
X0128750Y0056800D02*
X0122750Y0056800D01*
X0122750Y0046800D02*
X0128750Y0046800D01*
X0128750Y0036800D02*
X0122750Y0036800D01*
X0122750Y0026800D02*
X0128750Y0026800D01*
X0128750Y0016800D02*
X0122750Y0016800D01*
D12*
X0033250Y0021800D03*
X0030750Y0101800D03*
D13*
X0040750Y0101800D03*
X0043250Y0021800D03*
D14*
X0054500Y0069650D03*
X0054500Y0081450D03*
D15*
X0110750Y0069100D03*
X0110750Y0054500D03*
D16*
X0093100Y0031800D03*
X0073400Y0031800D03*
D17*
X0066050Y0059300D03*
X0066050Y0064300D03*
X0066050Y0069300D03*
X0066050Y0074300D03*
X0085450Y0074300D03*
X0085450Y0069300D03*
X0085450Y0064300D03*
X0085450Y0059300D03*
D18*
X0051990Y0054300D03*
X0044510Y0054300D03*
X0034490Y0054300D03*
X0027010Y0054300D03*
D19*
X0099500Y0060560D03*
X0099500Y0068040D03*
D20*
X0080750Y0098275D02*
X0080750Y0105325D01*
X0060750Y0105325D02*
X0060750Y0098275D01*
D21*
X0103250Y0101800D03*
X0113250Y0101800D03*
X0113250Y0111800D03*
X0103250Y0111800D03*
D22*
X0110750Y0079300D03*
X0073250Y0069300D03*
X0053250Y0046800D03*
M02*
