G75*
%MOIN*%
%OFA0B0*%
%FSLAX25Y25*%
%IPPOS*%
%LPD*%
%AMOC8*
5,1,8,0,0,1.08239X$1,22.5*
%
%ADD10C,0.01600*%
%ADD11R,0.04724X0.04000*%
%ADD12R,0.01575X0.06890*%
%ADD13R,0.10000X0.10000*%
%ADD14C,0.00000*%
%ADD15C,0.06000*%
%ADD16R,0.05906X0.05118*%
%ADD17R,0.05118X0.05906*%
%ADD18R,0.02362X0.06693*%
%ADD19C,0.03962*%
%ADD20C,0.01200*%
%ADD21C,0.01000*%
D10*
X0008250Y0005000D02*
X0008250Y0123110D01*
X0132266Y0123110D01*
X0132266Y0005000D01*
X0008250Y0005000D01*
X0022000Y0014360D02*
X0022000Y0085000D01*
X0017000Y0090000D01*
X0014500Y0090000D01*
X0022398Y0097714D02*
X0037000Y0097714D01*
X0037000Y0099312D02*
X0020799Y0099312D01*
X0020411Y0099700D02*
X0018614Y0099700D01*
X0017779Y0100536D01*
X0016462Y0101081D01*
X0015038Y0101081D01*
X0013850Y0100589D01*
X0013850Y0117510D01*
X0037000Y0117510D01*
X0037000Y0093750D01*
X0050485Y0093750D01*
X0050351Y0093615D01*
X0050351Y0092400D01*
X0049664Y0092400D01*
X0049029Y0093036D01*
X0047712Y0093581D01*
X0046288Y0093581D01*
X0044971Y0093036D01*
X0043964Y0092029D01*
X0043419Y0090712D01*
X0043419Y0089288D01*
X0043964Y0087971D01*
X0044971Y0086964D01*
X0046288Y0086419D01*
X0047712Y0086419D01*
X0049029Y0086964D01*
X0049664Y0087600D01*
X0050351Y0087600D01*
X0050351Y0086384D01*
X0051288Y0085447D01*
X0057732Y0085447D01*
X0058250Y0085966D01*
X0058768Y0085447D01*
X0059790Y0085447D01*
X0059790Y0084553D01*
X0058768Y0084553D01*
X0058250Y0084034D01*
X0057732Y0084553D01*
X0051288Y0084553D01*
X0050351Y0083615D01*
X0050351Y0082400D01*
X0049664Y0082400D01*
X0049029Y0083036D01*
X0047712Y0083581D01*
X0046288Y0083581D01*
X0044971Y0083036D01*
X0043964Y0082029D01*
X0043419Y0080712D01*
X0043419Y0079288D01*
X0043964Y0077971D01*
X0044971Y0076964D01*
X0045539Y0076729D01*
X0044589Y0075779D01*
X0044534Y0075645D01*
X0043875Y0074986D01*
X0042911Y0075950D01*
X0042803Y0075950D01*
X0042803Y0076962D01*
X0041865Y0077899D01*
X0034634Y0077899D01*
X0033697Y0076962D01*
X0033697Y0070518D01*
X0034216Y0070000D01*
X0033697Y0069482D01*
X0033697Y0063038D01*
X0034634Y0062101D01*
X0035365Y0062101D01*
X0032977Y0059713D01*
X0032779Y0059911D01*
X0031462Y0060456D01*
X0030038Y0060456D01*
X0028721Y0059911D01*
X0027714Y0058904D01*
X0027169Y0057587D01*
X0027169Y0056163D01*
X0027714Y0054846D01*
X0028721Y0053839D01*
X0030038Y0053294D01*
X0031462Y0053294D01*
X0032779Y0053839D01*
X0033614Y0054675D01*
X0034161Y0054675D01*
X0035450Y0055964D01*
X0040450Y0060964D01*
X0040450Y0062101D01*
X0041675Y0062101D01*
X0041675Y0056526D01*
X0039298Y0054149D01*
X0034634Y0054149D01*
X0033697Y0053212D01*
X0033697Y0046768D01*
X0034216Y0046250D01*
X0033697Y0045732D01*
X0033697Y0043450D01*
X0033614Y0043450D01*
X0032779Y0044286D01*
X0031462Y0044831D01*
X0030038Y0044831D01*
X0028721Y0044286D01*
X0027714Y0043279D01*
X0027169Y0041962D01*
X0027169Y0040538D01*
X0027714Y0039221D01*
X0028721Y0038214D01*
X0030038Y0037669D01*
X0031462Y0037669D01*
X0032779Y0038214D01*
X0033614Y0039050D01*
X0033935Y0039050D01*
X0034634Y0038351D01*
X0041865Y0038351D01*
X0042803Y0039288D01*
X0042803Y0045732D01*
X0042284Y0046250D01*
X0042803Y0046768D01*
X0042803Y0051432D01*
X0044786Y0053415D01*
X0046075Y0054704D01*
X0046075Y0070516D01*
X0046913Y0070169D01*
X0048337Y0070169D01*
X0048497Y0070235D01*
X0048497Y0067970D01*
X0052770Y0067970D01*
X0052770Y0067011D01*
X0048497Y0067011D01*
X0048497Y0064694D01*
X0048620Y0064236D01*
X0048857Y0063826D01*
X0049074Y0063609D01*
X0048697Y0063232D01*
X0048697Y0056788D01*
X0049634Y0055851D01*
X0055824Y0055851D01*
X0055641Y0055775D01*
X0054015Y0054149D01*
X0049634Y0054149D01*
X0048697Y0053212D01*
X0048697Y0046768D01*
X0049074Y0046391D01*
X0048857Y0046174D01*
X0048620Y0045764D01*
X0048497Y0045306D01*
X0048497Y0042989D01*
X0052770Y0042989D01*
X0052770Y0042030D01*
X0048497Y0042030D01*
X0048497Y0039714D01*
X0048620Y0039256D01*
X0048857Y0038846D01*
X0049192Y0038510D01*
X0049602Y0038273D01*
X0050060Y0038151D01*
X0052770Y0038151D01*
X0052770Y0042030D01*
X0053730Y0042030D01*
X0053730Y0042989D01*
X0058003Y0042989D01*
X0058003Y0045306D01*
X0057880Y0045764D01*
X0057643Y0046174D01*
X0057426Y0046391D01*
X0057803Y0046768D01*
X0057803Y0051149D01*
X0057994Y0051340D01*
X0060115Y0051340D01*
X0060115Y0051077D01*
X0061052Y0050140D01*
X0067102Y0050140D01*
X0068039Y0051077D01*
X0068039Y0051577D01*
X0068350Y0051706D01*
X0068461Y0051817D01*
X0068461Y0047337D01*
X0069398Y0046400D01*
X0070968Y0046400D01*
X0070968Y0027860D01*
X0064748Y0027860D01*
X0064614Y0027937D01*
X0064156Y0028060D01*
X0063976Y0028060D01*
X0062593Y0029444D01*
X0060069Y0030489D01*
X0057337Y0030489D01*
X0054813Y0029444D01*
X0052881Y0027512D01*
X0051836Y0024988D01*
X0051836Y0022256D01*
X0052881Y0019732D01*
X0054121Y0018493D01*
X0053966Y0018493D01*
X0053966Y0012074D01*
X0060385Y0012074D01*
X0060385Y0016886D01*
X0062064Y0017582D01*
X0062108Y0017570D01*
X0063132Y0017570D01*
X0064156Y0017570D01*
X0064614Y0017693D01*
X0064748Y0017770D01*
X0073981Y0017770D01*
X0076115Y0016886D01*
X0076115Y0012074D01*
X0082534Y0012074D01*
X0082534Y0011312D01*
X0076115Y0011312D01*
X0076115Y0010600D01*
X0060385Y0010600D01*
X0060385Y0011312D01*
X0053966Y0011312D01*
X0053966Y0012074D01*
X0053204Y0012074D01*
X0053204Y0018493D01*
X0048348Y0018493D01*
X0047890Y0018370D01*
X0047479Y0018133D01*
X0047144Y0017798D01*
X0046907Y0017388D01*
X0046785Y0016930D01*
X0046785Y0012074D01*
X0053203Y0012074D01*
X0053203Y0011312D01*
X0046785Y0011312D01*
X0046785Y0010600D01*
X0043121Y0010600D01*
X0043121Y0013583D01*
X0042998Y0014041D01*
X0042761Y0014452D01*
X0042426Y0014787D01*
X0042016Y0015024D01*
X0041558Y0015146D01*
X0040140Y0015146D01*
X0040140Y0010600D01*
X0040140Y0010600D01*
X0040140Y0015146D01*
X0038722Y0015146D01*
X0038264Y0015024D01*
X0037853Y0014787D01*
X0037518Y0014452D01*
X0037281Y0014041D01*
X0037159Y0013583D01*
X0037159Y0010600D01*
X0029141Y0010600D01*
X0029141Y0014009D01*
X0028787Y0014364D01*
X0029029Y0014464D01*
X0030036Y0015471D01*
X0030581Y0016788D01*
X0030581Y0018212D01*
X0030036Y0019529D01*
X0029029Y0020536D01*
X0027712Y0021081D01*
X0026700Y0021081D01*
X0026700Y0093411D01*
X0025411Y0094700D01*
X0020411Y0099700D01*
X0016874Y0100911D02*
X0037000Y0100911D01*
X0037000Y0102509D02*
X0013850Y0102509D01*
X0013850Y0100911D02*
X0014626Y0100911D01*
X0013850Y0104108D02*
X0037000Y0104108D01*
X0037000Y0105706D02*
X0013850Y0105706D01*
X0013850Y0107305D02*
X0037000Y0107305D01*
X0037000Y0108903D02*
X0013850Y0108903D01*
X0013850Y0110502D02*
X0037000Y0110502D01*
X0037000Y0112100D02*
X0013850Y0112100D01*
X0013850Y0113699D02*
X0037000Y0113699D01*
X0037000Y0115297D02*
X0013850Y0115297D01*
X0013850Y0116896D02*
X0037000Y0116896D01*
X0037000Y0096115D02*
X0023996Y0096115D01*
X0025595Y0094517D02*
X0037000Y0094517D01*
X0043670Y0091320D02*
X0026700Y0091320D01*
X0026700Y0092918D02*
X0044854Y0092918D01*
X0043419Y0089721D02*
X0026700Y0089721D01*
X0026700Y0088123D02*
X0043901Y0088123D01*
X0046034Y0086524D02*
X0026700Y0086524D01*
X0026700Y0084926D02*
X0059790Y0084926D01*
X0064190Y0084926D02*
X0071111Y0084926D01*
X0070919Y0084462D02*
X0070919Y0083038D01*
X0071464Y0081721D01*
X0072471Y0080714D01*
X0073788Y0080169D01*
X0075212Y0080169D01*
X0076529Y0080714D01*
X0077536Y0081721D01*
X0078081Y0083038D01*
X0078081Y0084220D01*
X0079796Y0085935D01*
X0104185Y0085935D01*
X0104185Y0080803D01*
X0103163Y0080803D01*
X0102226Y0079865D01*
X0102226Y0072634D01*
X0103163Y0071697D01*
X0104185Y0071697D01*
X0104185Y0071428D01*
X0103163Y0071428D01*
X0102226Y0070490D01*
X0102226Y0063259D01*
X0103163Y0062322D01*
X0104185Y0062322D01*
X0104185Y0062053D01*
X0103163Y0062053D01*
X0102226Y0061115D01*
X0102226Y0053884D01*
X0103163Y0052947D01*
X0108766Y0052947D01*
X0107471Y0052411D01*
X0106464Y0051404D01*
X0105919Y0050087D01*
X0105919Y0048663D01*
X0106464Y0047346D01*
X0107471Y0046339D01*
X0108788Y0045794D01*
X0110212Y0045794D01*
X0111529Y0046339D01*
X0112536Y0047346D01*
X0113081Y0048663D01*
X0113081Y0049986D01*
X0115965Y0052870D01*
X0115965Y0052947D01*
X0117087Y0052947D01*
X0118024Y0053884D01*
X0118024Y0061115D01*
X0117087Y0062053D01*
X0110643Y0062053D01*
X0110125Y0061534D01*
X0109607Y0062053D01*
X0108585Y0062053D01*
X0108585Y0062322D01*
X0109607Y0062322D01*
X0110125Y0062841D01*
X0110643Y0062322D01*
X0117087Y0062322D01*
X0118024Y0063259D01*
X0118024Y0064615D01*
X0119442Y0063197D01*
X0118850Y0062606D01*
X0118150Y0060915D01*
X0118150Y0059085D01*
X0118850Y0057394D01*
X0120144Y0056100D01*
X0121835Y0055400D01*
X0126666Y0055400D01*
X0126666Y0054600D01*
X0121835Y0054600D01*
X0120144Y0053900D01*
X0118850Y0052606D01*
X0118150Y0050915D01*
X0118150Y0050370D01*
X0115505Y0047725D01*
X0114275Y0046495D01*
X0114275Y0032120D01*
X0110505Y0028350D01*
X0103630Y0028350D01*
X0100505Y0025225D01*
X0099275Y0023995D01*
X0099275Y0014705D01*
X0098579Y0014009D01*
X0098579Y0010600D01*
X0089715Y0010600D01*
X0089715Y0011312D01*
X0083297Y0011312D01*
X0083297Y0012074D01*
X0089715Y0012074D01*
X0089715Y0016930D01*
X0089593Y0017388D01*
X0089356Y0017798D01*
X0089021Y0018133D01*
X0088610Y0018370D01*
X0088152Y0018493D01*
X0083296Y0018493D01*
X0083296Y0012074D01*
X0082534Y0012074D01*
X0082534Y0018493D01*
X0082379Y0018493D01*
X0083619Y0019732D01*
X0084664Y0022256D01*
X0084664Y0024988D01*
X0083619Y0027512D01*
X0081687Y0029444D01*
X0079163Y0030489D01*
X0076431Y0030489D01*
X0075768Y0030214D01*
X0075768Y0046720D01*
X0076385Y0047337D01*
X0076385Y0047600D01*
X0076836Y0047600D01*
X0077471Y0046964D01*
X0078697Y0046456D01*
X0078697Y0040518D01*
X0079074Y0040141D01*
X0078857Y0039924D01*
X0078620Y0039514D01*
X0078497Y0039056D01*
X0078497Y0036739D01*
X0082770Y0036739D01*
X0082770Y0035780D01*
X0078497Y0035780D01*
X0078497Y0033464D01*
X0078620Y0033006D01*
X0078857Y0032596D01*
X0079192Y0032260D01*
X0079602Y0032023D01*
X0080060Y0031901D01*
X0082770Y0031901D01*
X0082770Y0035780D01*
X0083730Y0035780D01*
X0083730Y0036739D01*
X0088003Y0036739D01*
X0088003Y0039056D01*
X0087880Y0039514D01*
X0087643Y0039924D01*
X0087426Y0040141D01*
X0087803Y0040518D01*
X0087803Y0041640D01*
X0092860Y0041640D01*
X0093889Y0042669D01*
X0095212Y0042669D01*
X0096529Y0043214D01*
X0097536Y0044221D01*
X0098081Y0045538D01*
X0098081Y0046962D01*
X0097536Y0048279D01*
X0096529Y0049286D01*
X0095212Y0049831D01*
X0093788Y0049831D01*
X0092471Y0049286D01*
X0091464Y0048279D01*
X0090919Y0046962D01*
X0090919Y0045840D01*
X0087803Y0045840D01*
X0087803Y0046962D01*
X0086865Y0047899D01*
X0082464Y0047899D01*
X0082536Y0047971D01*
X0083081Y0049288D01*
X0083081Y0050712D01*
X0082536Y0052029D01*
X0082165Y0052400D01*
X0083024Y0053259D01*
X0083024Y0060490D01*
X0082265Y0061250D01*
X0083024Y0062009D01*
X0083024Y0063525D01*
X0084036Y0063525D01*
X0084971Y0062589D01*
X0086288Y0062044D01*
X0087712Y0062044D01*
X0089029Y0062589D01*
X0090036Y0063596D01*
X0090581Y0064913D01*
X0090581Y0066337D01*
X0090036Y0067654D01*
X0089029Y0068661D01*
X0087712Y0069206D01*
X0086288Y0069206D01*
X0084971Y0068661D01*
X0084036Y0067725D01*
X0083024Y0067725D01*
X0083024Y0069240D01*
X0082265Y0070000D01*
X0083024Y0070759D01*
X0083024Y0072275D01*
X0084036Y0072275D01*
X0084971Y0071339D01*
X0086288Y0070794D01*
X0087712Y0070794D01*
X0089029Y0071339D01*
X0090036Y0072346D01*
X0090581Y0073663D01*
X0090581Y0075087D01*
X0090036Y0076404D01*
X0089029Y0077411D01*
X0087712Y0077956D01*
X0086288Y0077956D01*
X0084971Y0077411D01*
X0084036Y0076475D01*
X0083024Y0076475D01*
X0083024Y0077990D01*
X0082087Y0078928D01*
X0075643Y0078928D01*
X0075125Y0078409D01*
X0074607Y0078928D01*
X0068163Y0078928D01*
X0067226Y0077990D01*
X0067226Y0075850D01*
X0065975Y0075850D01*
X0065975Y0076210D01*
X0066149Y0076384D01*
X0066149Y0083615D01*
X0065212Y0084553D01*
X0064190Y0084553D01*
X0064190Y0085447D01*
X0065212Y0085447D01*
X0066149Y0086384D01*
X0066149Y0093615D01*
X0066015Y0093750D01*
X0103250Y0093750D01*
X0103250Y0117510D01*
X0126666Y0117510D01*
X0126666Y0094600D01*
X0121835Y0094600D01*
X0120144Y0093900D01*
X0118850Y0092606D01*
X0118150Y0090915D01*
X0118150Y0089085D01*
X0118850Y0087394D01*
X0120144Y0086100D01*
X0121835Y0085400D01*
X0126666Y0085400D01*
X0126666Y0084600D01*
X0121835Y0084600D01*
X0120144Y0083900D01*
X0118850Y0082606D01*
X0118150Y0080915D01*
X0118150Y0079085D01*
X0118413Y0078450D01*
X0118024Y0078450D01*
X0118024Y0079865D01*
X0117087Y0080803D01*
X0110643Y0080803D01*
X0110125Y0080284D01*
X0109607Y0080803D01*
X0108585Y0080803D01*
X0108585Y0087224D01*
X0114030Y0092669D01*
X0115212Y0092669D01*
X0116529Y0093214D01*
X0117536Y0094221D01*
X0118081Y0095538D01*
X0118081Y0096962D01*
X0117536Y0098279D01*
X0116529Y0099286D01*
X0115212Y0099831D01*
X0113788Y0099831D01*
X0112471Y0099286D01*
X0111464Y0098279D01*
X0110919Y0096962D01*
X0110919Y0095780D01*
X0105474Y0090335D01*
X0077974Y0090335D01*
X0074970Y0087331D01*
X0073788Y0087331D01*
X0072471Y0086786D01*
X0071464Y0085779D01*
X0070919Y0084462D01*
X0070919Y0083327D02*
X0066149Y0083327D01*
X0066149Y0081729D02*
X0071461Y0081729D01*
X0075003Y0078532D02*
X0075247Y0078532D01*
X0077539Y0081729D02*
X0104185Y0081729D01*
X0102490Y0080130D02*
X0066149Y0080130D01*
X0066149Y0078532D02*
X0067767Y0078532D01*
X0067226Y0076933D02*
X0066149Y0076933D01*
X0061775Y0075447D02*
X0061775Y0062964D01*
X0061220Y0062410D01*
X0057803Y0062410D01*
X0057803Y0063232D01*
X0057426Y0063609D01*
X0057643Y0063826D01*
X0057880Y0064236D01*
X0058003Y0064694D01*
X0058003Y0067011D01*
X0053730Y0067011D01*
X0053730Y0067970D01*
X0058003Y0067970D01*
X0058003Y0070286D01*
X0057880Y0070744D01*
X0057643Y0071154D01*
X0057308Y0071490D01*
X0056898Y0071727D01*
X0056440Y0071849D01*
X0053730Y0071849D01*
X0053730Y0067970D01*
X0052770Y0067970D01*
X0052770Y0071849D01*
X0050714Y0071849D01*
X0051206Y0073038D01*
X0051206Y0074462D01*
X0050661Y0075779D01*
X0049654Y0076786D01*
X0049086Y0077021D01*
X0049664Y0077600D01*
X0050351Y0077600D01*
X0050351Y0076384D01*
X0051288Y0075447D01*
X0057732Y0075447D01*
X0058250Y0075966D01*
X0058768Y0075447D01*
X0061775Y0075447D01*
X0061775Y0075334D02*
X0050845Y0075334D01*
X0051206Y0073736D02*
X0061775Y0073736D01*
X0061775Y0072137D02*
X0050833Y0072137D01*
X0052770Y0070539D02*
X0053730Y0070539D01*
X0053730Y0068940D02*
X0052770Y0068940D01*
X0052770Y0067342D02*
X0046075Y0067342D01*
X0046075Y0068940D02*
X0048497Y0068940D01*
X0048497Y0065743D02*
X0046075Y0065743D01*
X0046075Y0064145D02*
X0048673Y0064145D01*
X0048697Y0062546D02*
X0046075Y0062546D01*
X0046075Y0060948D02*
X0048697Y0060948D01*
X0048697Y0059349D02*
X0046075Y0059349D01*
X0046075Y0057751D02*
X0048697Y0057751D01*
X0049333Y0056152D02*
X0046075Y0056152D01*
X0045925Y0054554D02*
X0054420Y0054554D01*
X0057000Y0053740D02*
X0053250Y0049990D01*
X0048697Y0049758D02*
X0042803Y0049758D01*
X0042803Y0048160D02*
X0048697Y0048160D01*
X0048904Y0046561D02*
X0042596Y0046561D01*
X0042803Y0044963D02*
X0048497Y0044963D01*
X0048497Y0043364D02*
X0042803Y0043364D01*
X0042803Y0041766D02*
X0048497Y0041766D01*
X0048497Y0040167D02*
X0042803Y0040167D01*
X0042083Y0038569D02*
X0049134Y0038569D01*
X0052770Y0038569D02*
X0053730Y0038569D01*
X0053730Y0038151D02*
X0056440Y0038151D01*
X0056898Y0038273D01*
X0057308Y0038510D01*
X0057643Y0038846D01*
X0057880Y0039256D01*
X0058003Y0039714D01*
X0058003Y0042030D01*
X0053730Y0042030D01*
X0053730Y0038151D01*
X0053730Y0040167D02*
X0052770Y0040167D01*
X0052770Y0041766D02*
X0053730Y0041766D01*
X0058003Y0041766D02*
X0070968Y0041766D01*
X0070968Y0043364D02*
X0068000Y0043364D01*
X0068116Y0043565D02*
X0068239Y0044023D01*
X0068239Y0046060D01*
X0064277Y0046060D01*
X0064277Y0046460D01*
X0068239Y0046460D01*
X0068239Y0048497D01*
X0068116Y0048955D01*
X0067879Y0049365D01*
X0067544Y0049700D01*
X0067134Y0049937D01*
X0066676Y0050060D01*
X0064277Y0050060D01*
X0064277Y0046460D01*
X0063877Y0046460D01*
X0063877Y0050060D01*
X0061478Y0050060D01*
X0061020Y0049937D01*
X0060609Y0049700D01*
X0060274Y0049365D01*
X0060037Y0048955D01*
X0059915Y0048497D01*
X0059915Y0046460D01*
X0063877Y0046460D01*
X0063877Y0046060D01*
X0064277Y0046060D01*
X0064277Y0042460D01*
X0066676Y0042460D01*
X0067134Y0042583D01*
X0067544Y0042819D01*
X0067879Y0043155D01*
X0068116Y0043565D01*
X0068239Y0044963D02*
X0070968Y0044963D01*
X0069237Y0046561D02*
X0068239Y0046561D01*
X0068239Y0048160D02*
X0068461Y0048160D01*
X0068461Y0049758D02*
X0067444Y0049758D01*
X0068039Y0051357D02*
X0068461Y0051357D01*
X0066990Y0053740D02*
X0070125Y0056875D01*
X0071385Y0056875D01*
X0066990Y0053740D02*
X0064077Y0053740D01*
X0064077Y0059798D01*
X0063865Y0060010D01*
X0053250Y0060010D01*
X0057803Y0062546D02*
X0061357Y0062546D01*
X0061775Y0064145D02*
X0057827Y0064145D01*
X0058003Y0065743D02*
X0061775Y0065743D01*
X0061775Y0067342D02*
X0053730Y0067342D01*
X0058003Y0068940D02*
X0061775Y0068940D01*
X0061775Y0070539D02*
X0057935Y0070539D01*
X0050351Y0076933D02*
X0049298Y0076933D01*
X0047000Y0080000D02*
X0054510Y0080000D01*
X0050351Y0083327D02*
X0048326Y0083327D01*
X0045674Y0083327D02*
X0026700Y0083327D01*
X0026700Y0081729D02*
X0043840Y0081729D01*
X0043419Y0080130D02*
X0026700Y0080130D01*
X0026700Y0078532D02*
X0043732Y0078532D01*
X0042803Y0076933D02*
X0045046Y0076933D01*
X0044223Y0075334D02*
X0043527Y0075334D01*
X0033697Y0075334D02*
X0026700Y0075334D01*
X0026700Y0073736D02*
X0033697Y0073736D01*
X0033697Y0072137D02*
X0026700Y0072137D01*
X0026700Y0070539D02*
X0033697Y0070539D01*
X0033697Y0068940D02*
X0026700Y0068940D01*
X0026700Y0067342D02*
X0033697Y0067342D01*
X0033697Y0065743D02*
X0026700Y0065743D01*
X0026700Y0064145D02*
X0033697Y0064145D01*
X0034189Y0062546D02*
X0026700Y0062546D01*
X0026700Y0060948D02*
X0034212Y0060948D01*
X0037237Y0057751D02*
X0041675Y0057751D01*
X0041301Y0056152D02*
X0035639Y0056152D01*
X0033493Y0054554D02*
X0039702Y0054554D01*
X0042803Y0051357D02*
X0048697Y0051357D01*
X0048697Y0052955D02*
X0044326Y0052955D01*
X0041675Y0059349D02*
X0038836Y0059349D01*
X0040434Y0060948D02*
X0041675Y0060948D01*
X0033697Y0052955D02*
X0026700Y0052955D01*
X0026700Y0051357D02*
X0033697Y0051357D01*
X0033697Y0049758D02*
X0026700Y0049758D01*
X0026700Y0048160D02*
X0033697Y0048160D01*
X0033904Y0046561D02*
X0026700Y0046561D01*
X0026700Y0044963D02*
X0033697Y0044963D01*
X0027800Y0043364D02*
X0026700Y0043364D01*
X0026700Y0041766D02*
X0027169Y0041766D01*
X0027322Y0040167D02*
X0026700Y0040167D01*
X0026700Y0038569D02*
X0028367Y0038569D01*
X0026700Y0036970D02*
X0070968Y0036970D01*
X0070968Y0035372D02*
X0026700Y0035372D01*
X0026700Y0033773D02*
X0070968Y0033773D01*
X0070968Y0032175D02*
X0026700Y0032175D01*
X0026700Y0030576D02*
X0070968Y0030576D01*
X0070968Y0028978D02*
X0063058Y0028978D01*
X0063250Y0030000D02*
X0064077Y0030827D01*
X0064077Y0046260D01*
X0063877Y0046060D02*
X0063877Y0042460D01*
X0061478Y0042460D01*
X0061020Y0042583D01*
X0060609Y0042819D01*
X0060274Y0043155D01*
X0060037Y0043565D01*
X0059915Y0044023D01*
X0059915Y0046060D01*
X0063877Y0046060D01*
X0063877Y0046561D02*
X0064277Y0046561D01*
X0064277Y0044963D02*
X0063877Y0044963D01*
X0063877Y0043364D02*
X0064277Y0043364D01*
X0060153Y0043364D02*
X0058003Y0043364D01*
X0058003Y0044963D02*
X0059915Y0044963D01*
X0059915Y0046561D02*
X0057596Y0046561D01*
X0057803Y0048160D02*
X0059915Y0048160D01*
X0060710Y0049758D02*
X0057803Y0049758D01*
X0057000Y0053740D02*
X0064077Y0053740D01*
X0063250Y0054567D02*
X0062817Y0054567D01*
X0063877Y0049758D02*
X0064277Y0049758D01*
X0064277Y0048160D02*
X0063877Y0048160D01*
X0072423Y0050000D02*
X0073368Y0049055D01*
X0073368Y0022815D01*
X0076115Y0016190D02*
X0060385Y0016190D01*
X0060385Y0014591D02*
X0076115Y0014591D01*
X0076115Y0012993D02*
X0060385Y0012993D01*
X0063132Y0017570D02*
X0063132Y0018340D01*
X0063132Y0017570D01*
X0063132Y0017788D02*
X0063132Y0017788D01*
X0063132Y0018340D02*
X0063132Y0018340D01*
X0063132Y0022815D02*
X0063250Y0022933D01*
X0063250Y0030000D01*
X0054347Y0028978D02*
X0026700Y0028978D01*
X0026700Y0027379D02*
X0052826Y0027379D01*
X0052164Y0025781D02*
X0026700Y0025781D01*
X0026700Y0024182D02*
X0051836Y0024182D01*
X0051836Y0022584D02*
X0026700Y0022584D01*
X0027944Y0020985D02*
X0052362Y0020985D01*
X0053227Y0019387D02*
X0030095Y0019387D01*
X0030581Y0017788D02*
X0047138Y0017788D01*
X0046785Y0016190D02*
X0030333Y0016190D01*
X0029155Y0014591D02*
X0037658Y0014591D01*
X0037159Y0012993D02*
X0029141Y0012993D01*
X0029141Y0011394D02*
X0037159Y0011394D01*
X0040140Y0011394D02*
X0040140Y0011394D01*
X0040140Y0012993D02*
X0040140Y0012993D01*
X0040140Y0014591D02*
X0040140Y0014591D01*
X0042622Y0014591D02*
X0046785Y0014591D01*
X0046785Y0012993D02*
X0043121Y0012993D01*
X0043121Y0011394D02*
X0053203Y0011394D01*
X0053966Y0011394D02*
X0082534Y0011394D01*
X0083297Y0011394D02*
X0098579Y0011394D01*
X0098579Y0012993D02*
X0089715Y0012993D01*
X0089715Y0014591D02*
X0099161Y0014591D01*
X0099275Y0016190D02*
X0089715Y0016190D01*
X0089362Y0017788D02*
X0099275Y0017788D01*
X0099275Y0019387D02*
X0083273Y0019387D01*
X0083296Y0017788D02*
X0082534Y0017788D01*
X0082534Y0016190D02*
X0083296Y0016190D01*
X0083296Y0014591D02*
X0082534Y0014591D01*
X0082534Y0012993D02*
X0083296Y0012993D01*
X0084138Y0020985D02*
X0099275Y0020985D01*
X0099275Y0022584D02*
X0084664Y0022584D01*
X0084664Y0024182D02*
X0099462Y0024182D01*
X0101061Y0025781D02*
X0084336Y0025781D01*
X0083674Y0027379D02*
X0102659Y0027379D01*
X0105370Y0024150D02*
X0103475Y0022255D01*
X0103475Y0014676D01*
X0104141Y0014009D01*
X0104141Y0012200D01*
X0104161Y0012200D01*
X0105450Y0010911D01*
X0105450Y0010600D01*
X0112159Y0010600D01*
X0112159Y0013583D01*
X0112281Y0014041D01*
X0112518Y0014452D01*
X0112853Y0014787D01*
X0113264Y0015024D01*
X0113722Y0015146D01*
X0115140Y0015146D01*
X0115140Y0010600D01*
X0115140Y0010600D01*
X0115140Y0015146D01*
X0116558Y0015146D01*
X0117016Y0015024D01*
X0117426Y0014787D01*
X0117761Y0014452D01*
X0117998Y0014041D01*
X0118121Y0013583D01*
X0118121Y0010600D01*
X0126666Y0010600D01*
X0126666Y0015200D01*
X0125950Y0015200D01*
X0125950Y0019800D01*
X0125550Y0019800D01*
X0125550Y0015200D01*
X0122372Y0015200D01*
X0121626Y0015318D01*
X0120907Y0015552D01*
X0120234Y0015895D01*
X0119623Y0016339D01*
X0119089Y0016873D01*
X0118645Y0017484D01*
X0118302Y0018157D01*
X0118068Y0018876D01*
X0117950Y0019622D01*
X0117950Y0019800D01*
X0125550Y0019800D01*
X0125550Y0020200D01*
X0125550Y0024800D01*
X0122372Y0024800D01*
X0121626Y0024682D01*
X0120907Y0024448D01*
X0120234Y0024105D01*
X0119623Y0023661D01*
X0119089Y0023127D01*
X0118645Y0022516D01*
X0118302Y0021843D01*
X0118068Y0021124D01*
X0117950Y0020378D01*
X0117950Y0020200D01*
X0125550Y0020200D01*
X0125950Y0020200D01*
X0125950Y0024800D01*
X0126666Y0024800D01*
X0126666Y0025400D01*
X0121835Y0025400D01*
X0120144Y0026100D01*
X0118850Y0027394D01*
X0118150Y0029085D01*
X0118150Y0030055D01*
X0113475Y0025380D01*
X0112245Y0024150D01*
X0105370Y0024150D01*
X0103803Y0022584D02*
X0118694Y0022584D01*
X0118046Y0020985D02*
X0103475Y0020985D01*
X0103475Y0019387D02*
X0117987Y0019387D01*
X0118490Y0017788D02*
X0103475Y0017788D01*
X0103475Y0016190D02*
X0119828Y0016190D01*
X0117622Y0014591D02*
X0126666Y0014591D01*
X0126666Y0012993D02*
X0118121Y0012993D01*
X0118121Y0011394D02*
X0126666Y0011394D01*
X0125950Y0016190D02*
X0125550Y0016190D01*
X0125550Y0017788D02*
X0125950Y0017788D01*
X0125950Y0019387D02*
X0125550Y0019387D01*
X0125550Y0020985D02*
X0125950Y0020985D01*
X0125950Y0022584D02*
X0125550Y0022584D01*
X0125550Y0024182D02*
X0125950Y0024182D01*
X0120916Y0025781D02*
X0113875Y0025781D01*
X0112277Y0024182D02*
X0120385Y0024182D01*
X0118865Y0027379D02*
X0115474Y0027379D01*
X0117073Y0028978D02*
X0118194Y0028978D01*
X0114275Y0032175D02*
X0087159Y0032175D01*
X0087308Y0032260D02*
X0087643Y0032596D01*
X0087880Y0033006D01*
X0088003Y0033464D01*
X0088003Y0035780D01*
X0083730Y0035780D01*
X0083730Y0031901D01*
X0086440Y0031901D01*
X0086898Y0032023D01*
X0087308Y0032260D01*
X0088003Y0033773D02*
X0114275Y0033773D01*
X0114275Y0035372D02*
X0088003Y0035372D01*
X0088003Y0036970D02*
X0114275Y0036970D01*
X0114275Y0038569D02*
X0088003Y0038569D01*
X0087452Y0040167D02*
X0114275Y0040167D01*
X0114275Y0041766D02*
X0092986Y0041766D01*
X0096679Y0043364D02*
X0114275Y0043364D01*
X0114275Y0044963D02*
X0097843Y0044963D01*
X0098081Y0046561D02*
X0107249Y0046561D01*
X0106127Y0048160D02*
X0097585Y0048160D01*
X0095388Y0049758D02*
X0105919Y0049758D01*
X0106445Y0051357D02*
X0082814Y0051357D01*
X0082720Y0052955D02*
X0103155Y0052955D01*
X0102226Y0054554D02*
X0083024Y0054554D01*
X0083024Y0056152D02*
X0102226Y0056152D01*
X0102226Y0057751D02*
X0083024Y0057751D01*
X0083024Y0059349D02*
X0102226Y0059349D01*
X0102226Y0060948D02*
X0082567Y0060948D01*
X0083024Y0062546D02*
X0085074Y0062546D01*
X0088925Y0062546D02*
X0102939Y0062546D01*
X0102226Y0064145D02*
X0090263Y0064145D01*
X0090581Y0065743D02*
X0102226Y0065743D01*
X0102226Y0067342D02*
X0090165Y0067342D01*
X0088354Y0068940D02*
X0102226Y0068940D01*
X0102274Y0070539D02*
X0082804Y0070539D01*
X0083024Y0068940D02*
X0085646Y0068940D01*
X0084173Y0072137D02*
X0083024Y0072137D01*
X0083024Y0076933D02*
X0084494Y0076933D01*
X0082483Y0078532D02*
X0102226Y0078532D01*
X0102226Y0076933D02*
X0089506Y0076933D01*
X0090479Y0075334D02*
X0102226Y0075334D01*
X0102226Y0073736D02*
X0090581Y0073736D01*
X0089827Y0072137D02*
X0102723Y0072137D01*
X0108585Y0081729D02*
X0118487Y0081729D01*
X0118150Y0080130D02*
X0117760Y0080130D01*
X0118024Y0078532D02*
X0118379Y0078532D01*
X0119572Y0083327D02*
X0108585Y0083327D01*
X0108585Y0084926D02*
X0126666Y0084926D01*
X0119721Y0086524D02*
X0108585Y0086524D01*
X0109484Y0088123D02*
X0118549Y0088123D01*
X0118150Y0089721D02*
X0111082Y0089721D01*
X0112681Y0091320D02*
X0118318Y0091320D01*
X0119163Y0092918D02*
X0115814Y0092918D01*
X0117658Y0094517D02*
X0121634Y0094517D01*
X0118081Y0096115D02*
X0126666Y0096115D01*
X0126666Y0097714D02*
X0117770Y0097714D01*
X0116465Y0099312D02*
X0126666Y0099312D01*
X0126666Y0100911D02*
X0103250Y0100911D01*
X0103250Y0102509D02*
X0126666Y0102509D01*
X0126666Y0104108D02*
X0103250Y0104108D01*
X0103250Y0105706D02*
X0126666Y0105706D01*
X0126666Y0107305D02*
X0103250Y0107305D01*
X0103250Y0108903D02*
X0126666Y0108903D01*
X0126666Y0110502D02*
X0103250Y0110502D01*
X0103250Y0112100D02*
X0126666Y0112100D01*
X0126666Y0113699D02*
X0103250Y0113699D01*
X0103250Y0115297D02*
X0126666Y0115297D01*
X0126666Y0116896D02*
X0103250Y0116896D01*
X0103250Y0099312D02*
X0112535Y0099312D01*
X0111230Y0097714D02*
X0103250Y0097714D01*
X0103250Y0096115D02*
X0110919Y0096115D01*
X0109655Y0094517D02*
X0103250Y0094517D01*
X0106458Y0091320D02*
X0066149Y0091320D01*
X0066149Y0092918D02*
X0108057Y0092918D01*
X0104185Y0084926D02*
X0078787Y0084926D01*
X0078081Y0083327D02*
X0104185Y0083327D01*
X0118024Y0064145D02*
X0118494Y0064145D01*
X0118826Y0062546D02*
X0117311Y0062546D01*
X0118024Y0060948D02*
X0118164Y0060948D01*
X0118150Y0059349D02*
X0118024Y0059349D01*
X0118024Y0057751D02*
X0118703Y0057751D01*
X0118024Y0056152D02*
X0120092Y0056152D01*
X0121724Y0054554D02*
X0118024Y0054554D01*
X0117095Y0052955D02*
X0119200Y0052955D01*
X0118333Y0051357D02*
X0114452Y0051357D01*
X0113081Y0049758D02*
X0117538Y0049758D01*
X0115940Y0048160D02*
X0112873Y0048160D01*
X0111751Y0046561D02*
X0114341Y0046561D01*
X0115505Y0047725D02*
X0115505Y0047725D01*
X0110419Y0062546D02*
X0109831Y0062546D01*
X0093612Y0049758D02*
X0083081Y0049758D01*
X0082614Y0048160D02*
X0091415Y0048160D01*
X0090919Y0046561D02*
X0087803Y0046561D01*
X0079500Y0050000D02*
X0079500Y0056240D01*
X0078865Y0056875D01*
X0079500Y0050000D02*
X0072423Y0050000D01*
X0075768Y0046561D02*
X0078444Y0046561D01*
X0078697Y0044963D02*
X0075768Y0044963D01*
X0075768Y0043364D02*
X0078697Y0043364D01*
X0078697Y0041766D02*
X0075768Y0041766D01*
X0075768Y0040167D02*
X0079048Y0040167D01*
X0078497Y0038569D02*
X0075768Y0038569D01*
X0075768Y0036970D02*
X0078497Y0036970D01*
X0078497Y0035372D02*
X0075768Y0035372D01*
X0075768Y0033773D02*
X0078497Y0033773D01*
X0079340Y0032175D02*
X0075768Y0032175D01*
X0075768Y0030576D02*
X0112731Y0030576D01*
X0111133Y0028978D02*
X0082153Y0028978D01*
X0082770Y0032175D02*
X0083730Y0032175D01*
X0083730Y0033773D02*
X0082770Y0033773D01*
X0082770Y0035372D02*
X0083730Y0035372D01*
X0070968Y0038569D02*
X0057366Y0038569D01*
X0058003Y0040167D02*
X0070968Y0040167D01*
X0053966Y0017788D02*
X0053204Y0017788D01*
X0053204Y0016190D02*
X0053966Y0016190D01*
X0053966Y0014591D02*
X0053204Y0014591D01*
X0053204Y0012993D02*
X0053966Y0012993D01*
X0026360Y0010000D02*
X0022000Y0014360D01*
X0033133Y0038569D02*
X0034417Y0038569D01*
X0028007Y0054554D02*
X0026700Y0054554D01*
X0026700Y0056152D02*
X0027173Y0056152D01*
X0027237Y0057751D02*
X0026700Y0057751D01*
X0026700Y0059349D02*
X0028160Y0059349D01*
X0026700Y0076933D02*
X0033697Y0076933D01*
X0047966Y0086524D02*
X0050351Y0086524D01*
X0047000Y0090000D02*
X0054510Y0090000D01*
X0050351Y0092918D02*
X0049146Y0092918D01*
X0066149Y0089721D02*
X0077360Y0089721D01*
X0075761Y0088123D02*
X0066149Y0088123D01*
X0066149Y0086524D02*
X0072210Y0086524D01*
X0103559Y0014591D02*
X0112658Y0014591D01*
X0112159Y0012993D02*
X0104141Y0012993D01*
X0104967Y0011394D02*
X0112159Y0011394D01*
X0115140Y0011394D02*
X0115140Y0011394D01*
X0115140Y0012993D02*
X0115140Y0012993D01*
X0115140Y0014591D02*
X0115140Y0014591D01*
D11*
X0072423Y0050000D03*
X0064077Y0046260D03*
X0064077Y0053740D03*
D12*
X0063132Y0022815D03*
X0065691Y0022815D03*
X0068250Y0022815D03*
X0070809Y0022815D03*
X0073368Y0022815D03*
D13*
X0082915Y0011693D03*
X0053585Y0011693D03*
D14*
X0056636Y0023622D02*
X0056638Y0023713D01*
X0056644Y0023803D01*
X0056654Y0023894D01*
X0056668Y0023983D01*
X0056686Y0024072D01*
X0056707Y0024161D01*
X0056733Y0024248D01*
X0056762Y0024334D01*
X0056796Y0024418D01*
X0056832Y0024501D01*
X0056873Y0024583D01*
X0056917Y0024662D01*
X0056964Y0024740D01*
X0057015Y0024815D01*
X0057069Y0024888D01*
X0057126Y0024958D01*
X0057186Y0025026D01*
X0057249Y0025092D01*
X0057315Y0025154D01*
X0057384Y0025213D01*
X0057455Y0025270D01*
X0057529Y0025323D01*
X0057605Y0025373D01*
X0057683Y0025420D01*
X0057763Y0025463D01*
X0057844Y0025502D01*
X0057928Y0025538D01*
X0058013Y0025570D01*
X0058099Y0025599D01*
X0058186Y0025623D01*
X0058275Y0025644D01*
X0058364Y0025661D01*
X0058454Y0025674D01*
X0058544Y0025683D01*
X0058635Y0025688D01*
X0058726Y0025689D01*
X0058816Y0025686D01*
X0058907Y0025679D01*
X0058997Y0025668D01*
X0059087Y0025653D01*
X0059176Y0025634D01*
X0059264Y0025612D01*
X0059350Y0025585D01*
X0059436Y0025555D01*
X0059520Y0025521D01*
X0059603Y0025483D01*
X0059684Y0025442D01*
X0059763Y0025397D01*
X0059840Y0025348D01*
X0059914Y0025297D01*
X0059987Y0025242D01*
X0060057Y0025184D01*
X0060124Y0025123D01*
X0060188Y0025059D01*
X0060250Y0024993D01*
X0060309Y0024923D01*
X0060364Y0024852D01*
X0060417Y0024777D01*
X0060466Y0024701D01*
X0060512Y0024623D01*
X0060554Y0024542D01*
X0060593Y0024460D01*
X0060628Y0024376D01*
X0060659Y0024291D01*
X0060686Y0024204D01*
X0060710Y0024117D01*
X0060730Y0024028D01*
X0060746Y0023939D01*
X0060758Y0023849D01*
X0060766Y0023758D01*
X0060770Y0023667D01*
X0060770Y0023577D01*
X0060766Y0023486D01*
X0060758Y0023395D01*
X0060746Y0023305D01*
X0060730Y0023216D01*
X0060710Y0023127D01*
X0060686Y0023040D01*
X0060659Y0022953D01*
X0060628Y0022868D01*
X0060593Y0022784D01*
X0060554Y0022702D01*
X0060512Y0022621D01*
X0060466Y0022543D01*
X0060417Y0022467D01*
X0060364Y0022392D01*
X0060309Y0022321D01*
X0060250Y0022251D01*
X0060188Y0022185D01*
X0060124Y0022121D01*
X0060057Y0022060D01*
X0059987Y0022002D01*
X0059914Y0021947D01*
X0059840Y0021896D01*
X0059763Y0021847D01*
X0059684Y0021802D01*
X0059603Y0021761D01*
X0059520Y0021723D01*
X0059436Y0021689D01*
X0059350Y0021659D01*
X0059264Y0021632D01*
X0059176Y0021610D01*
X0059087Y0021591D01*
X0058997Y0021576D01*
X0058907Y0021565D01*
X0058816Y0021558D01*
X0058726Y0021555D01*
X0058635Y0021556D01*
X0058544Y0021561D01*
X0058454Y0021570D01*
X0058364Y0021583D01*
X0058275Y0021600D01*
X0058186Y0021621D01*
X0058099Y0021645D01*
X0058013Y0021674D01*
X0057928Y0021706D01*
X0057844Y0021742D01*
X0057763Y0021781D01*
X0057683Y0021824D01*
X0057605Y0021871D01*
X0057529Y0021921D01*
X0057455Y0021974D01*
X0057384Y0022031D01*
X0057315Y0022090D01*
X0057249Y0022152D01*
X0057186Y0022218D01*
X0057126Y0022286D01*
X0057069Y0022356D01*
X0057015Y0022429D01*
X0056964Y0022504D01*
X0056917Y0022582D01*
X0056873Y0022661D01*
X0056832Y0022743D01*
X0056796Y0022826D01*
X0056762Y0022910D01*
X0056733Y0022996D01*
X0056707Y0023083D01*
X0056686Y0023172D01*
X0056668Y0023261D01*
X0056654Y0023350D01*
X0056644Y0023441D01*
X0056638Y0023531D01*
X0056636Y0023622D01*
X0075730Y0023622D02*
X0075732Y0023713D01*
X0075738Y0023803D01*
X0075748Y0023894D01*
X0075762Y0023983D01*
X0075780Y0024072D01*
X0075801Y0024161D01*
X0075827Y0024248D01*
X0075856Y0024334D01*
X0075890Y0024418D01*
X0075926Y0024501D01*
X0075967Y0024583D01*
X0076011Y0024662D01*
X0076058Y0024740D01*
X0076109Y0024815D01*
X0076163Y0024888D01*
X0076220Y0024958D01*
X0076280Y0025026D01*
X0076343Y0025092D01*
X0076409Y0025154D01*
X0076478Y0025213D01*
X0076549Y0025270D01*
X0076623Y0025323D01*
X0076699Y0025373D01*
X0076777Y0025420D01*
X0076857Y0025463D01*
X0076938Y0025502D01*
X0077022Y0025538D01*
X0077107Y0025570D01*
X0077193Y0025599D01*
X0077280Y0025623D01*
X0077369Y0025644D01*
X0077458Y0025661D01*
X0077548Y0025674D01*
X0077638Y0025683D01*
X0077729Y0025688D01*
X0077820Y0025689D01*
X0077910Y0025686D01*
X0078001Y0025679D01*
X0078091Y0025668D01*
X0078181Y0025653D01*
X0078270Y0025634D01*
X0078358Y0025612D01*
X0078444Y0025585D01*
X0078530Y0025555D01*
X0078614Y0025521D01*
X0078697Y0025483D01*
X0078778Y0025442D01*
X0078857Y0025397D01*
X0078934Y0025348D01*
X0079008Y0025297D01*
X0079081Y0025242D01*
X0079151Y0025184D01*
X0079218Y0025123D01*
X0079282Y0025059D01*
X0079344Y0024993D01*
X0079403Y0024923D01*
X0079458Y0024852D01*
X0079511Y0024777D01*
X0079560Y0024701D01*
X0079606Y0024623D01*
X0079648Y0024542D01*
X0079687Y0024460D01*
X0079722Y0024376D01*
X0079753Y0024291D01*
X0079780Y0024204D01*
X0079804Y0024117D01*
X0079824Y0024028D01*
X0079840Y0023939D01*
X0079852Y0023849D01*
X0079860Y0023758D01*
X0079864Y0023667D01*
X0079864Y0023577D01*
X0079860Y0023486D01*
X0079852Y0023395D01*
X0079840Y0023305D01*
X0079824Y0023216D01*
X0079804Y0023127D01*
X0079780Y0023040D01*
X0079753Y0022953D01*
X0079722Y0022868D01*
X0079687Y0022784D01*
X0079648Y0022702D01*
X0079606Y0022621D01*
X0079560Y0022543D01*
X0079511Y0022467D01*
X0079458Y0022392D01*
X0079403Y0022321D01*
X0079344Y0022251D01*
X0079282Y0022185D01*
X0079218Y0022121D01*
X0079151Y0022060D01*
X0079081Y0022002D01*
X0079008Y0021947D01*
X0078934Y0021896D01*
X0078857Y0021847D01*
X0078778Y0021802D01*
X0078697Y0021761D01*
X0078614Y0021723D01*
X0078530Y0021689D01*
X0078444Y0021659D01*
X0078358Y0021632D01*
X0078270Y0021610D01*
X0078181Y0021591D01*
X0078091Y0021576D01*
X0078001Y0021565D01*
X0077910Y0021558D01*
X0077820Y0021555D01*
X0077729Y0021556D01*
X0077638Y0021561D01*
X0077548Y0021570D01*
X0077458Y0021583D01*
X0077369Y0021600D01*
X0077280Y0021621D01*
X0077193Y0021645D01*
X0077107Y0021674D01*
X0077022Y0021706D01*
X0076938Y0021742D01*
X0076857Y0021781D01*
X0076777Y0021824D01*
X0076699Y0021871D01*
X0076623Y0021921D01*
X0076549Y0021974D01*
X0076478Y0022031D01*
X0076409Y0022090D01*
X0076343Y0022152D01*
X0076280Y0022218D01*
X0076220Y0022286D01*
X0076163Y0022356D01*
X0076109Y0022429D01*
X0076058Y0022504D01*
X0076011Y0022582D01*
X0075967Y0022661D01*
X0075926Y0022743D01*
X0075890Y0022826D01*
X0075856Y0022910D01*
X0075827Y0022996D01*
X0075801Y0023083D01*
X0075780Y0023172D01*
X0075762Y0023261D01*
X0075748Y0023350D01*
X0075738Y0023441D01*
X0075732Y0023531D01*
X0075730Y0023622D01*
D15*
X0122750Y0020000D02*
X0128750Y0020000D01*
X0128750Y0030000D02*
X0122750Y0030000D01*
X0122750Y0040000D02*
X0128750Y0040000D01*
X0128750Y0050000D02*
X0122750Y0050000D01*
X0122750Y0060000D02*
X0128750Y0060000D01*
X0128750Y0070000D02*
X0122750Y0070000D01*
X0122750Y0080000D02*
X0128750Y0080000D01*
X0128750Y0090000D02*
X0122750Y0090000D01*
X0017500Y0090000D02*
X0011500Y0090000D01*
X0011500Y0080000D02*
X0017500Y0080000D01*
X0017500Y0070000D02*
X0011500Y0070000D01*
X0011500Y0060000D02*
X0017500Y0060000D01*
X0017500Y0050000D02*
X0011500Y0050000D01*
X0011500Y0040000D02*
X0017500Y0040000D01*
X0017500Y0030000D02*
X0011500Y0030000D01*
X0011500Y0020000D02*
X0017500Y0020000D01*
D16*
X0038250Y0042510D03*
X0038250Y0049990D03*
X0053250Y0049990D03*
X0053250Y0042510D03*
X0053250Y0060010D03*
X0053250Y0067490D03*
X0038250Y0066260D03*
X0038250Y0073740D03*
X0083250Y0043740D03*
X0083250Y0036260D03*
D17*
X0078865Y0056875D03*
X0071385Y0056875D03*
X0071385Y0065625D03*
X0078865Y0065625D03*
X0078865Y0074375D03*
X0071385Y0074375D03*
X0061990Y0080000D03*
X0054510Y0080000D03*
X0054510Y0090000D03*
X0061990Y0090000D03*
X0106385Y0076250D03*
X0113865Y0076250D03*
X0113865Y0066875D03*
X0106385Y0066875D03*
X0106385Y0057500D03*
X0113865Y0057500D03*
D18*
X0115140Y0010000D03*
X0101360Y0010000D03*
X0040140Y0010000D03*
X0026360Y0010000D03*
D19*
X0027000Y0017500D03*
X0030750Y0022500D03*
X0030750Y0041250D03*
X0030750Y0056875D03*
X0047625Y0073750D03*
X0047000Y0080000D03*
X0047000Y0090000D03*
X0025750Y0103750D03*
X0015750Y0097500D03*
X0063875Y0060000D03*
X0079500Y0050000D03*
X0094500Y0046250D03*
X0109500Y0049375D03*
X0109500Y0037500D03*
X0125250Y0050000D03*
X0089500Y0022500D03*
X0087000Y0065625D03*
X0087000Y0074375D03*
X0074500Y0083750D03*
X0114500Y0096250D03*
X0120750Y0103750D03*
D20*
X0114500Y0096250D02*
X0106385Y0088135D01*
X0078885Y0088135D01*
X0074500Y0083750D01*
X0063250Y0078740D02*
X0061990Y0080000D01*
X0061990Y0090000D01*
X0071385Y0074375D02*
X0070760Y0073750D01*
X0047625Y0073750D02*
X0045750Y0073750D01*
X0043875Y0071875D01*
X0042000Y0073750D01*
X0038260Y0073750D01*
X0038250Y0073740D01*
X0043875Y0071875D02*
X0043875Y0055615D01*
X0038250Y0049990D01*
X0038250Y0042510D02*
X0036990Y0041250D01*
X0030750Y0041250D01*
X0030750Y0056875D02*
X0033250Y0056875D01*
X0038250Y0061875D01*
X0038250Y0066260D01*
X0024500Y0092500D02*
X0024500Y0020000D01*
X0027000Y0017500D01*
X0101360Y0010000D02*
X0103250Y0010000D01*
X0106385Y0057500D02*
X0106385Y0066875D01*
X0106385Y0076250D01*
X0106385Y0088135D01*
X0113250Y0095000D02*
X0114500Y0096250D01*
X0113865Y0076250D02*
X0119500Y0076250D01*
X0125750Y0070000D01*
X0119490Y0066260D02*
X0125750Y0060000D01*
X0118875Y0066875D01*
X0113865Y0066875D01*
X0024500Y0092500D02*
X0019500Y0097500D01*
X0015750Y0097500D01*
D21*
X0063250Y0078740D02*
X0063875Y0078115D01*
X0063875Y0073750D01*
X0070760Y0073750D01*
X0063875Y0073750D02*
X0063875Y0066250D01*
X0070760Y0066250D01*
X0071385Y0065625D01*
X0063875Y0066250D02*
X0063875Y0060000D01*
X0063875Y0053942D02*
X0064077Y0053740D01*
X0078865Y0065625D02*
X0087000Y0065625D01*
X0087000Y0074375D02*
X0078865Y0074375D01*
X0109500Y0049375D02*
X0113865Y0053740D01*
X0113865Y0057500D01*
X0120750Y0050000D02*
X0116375Y0045625D01*
X0116375Y0031250D01*
X0111375Y0026250D01*
X0104500Y0026250D01*
X0101375Y0023125D01*
X0101375Y0010015D01*
X0101360Y0010000D01*
X0091990Y0043740D02*
X0083250Y0043740D01*
X0091990Y0043740D02*
X0094500Y0046250D01*
X0120750Y0050000D02*
X0125250Y0050000D01*
M02*
