G75*
%MOIN*%
%OFA0B0*%
%FSLAX25Y25*%
%IPPOS*%
%LPD*%
%AMOC8*
5,1,8,0,0,1.08239X$1,22.5*
%
%ADD10C,0.01600*%
%ADD11C,0.00500*%
%ADD12C,0.00600*%
%ADD13C,0.00300*%
%ADD14C,0.00400*%
D10*
X0008250Y0001800D02*
X0008250Y0119910D01*
X0132266Y0119910D01*
X0132266Y0001800D01*
X0008250Y0001800D01*
D11*
X0021997Y0014946D02*
X0022747Y0014946D01*
X0023498Y0015697D01*
X0023498Y0017198D01*
X0024249Y0017949D01*
X0024999Y0017949D01*
X0025750Y0017198D01*
X0025750Y0015697D01*
X0024999Y0014946D01*
X0024249Y0014946D01*
X0023498Y0015697D01*
X0023498Y0017198D02*
X0022747Y0017949D01*
X0021997Y0017949D01*
X0021246Y0017198D01*
X0021246Y0015697D01*
X0021997Y0014946D01*
X0032292Y0014053D02*
X0032292Y0011051D01*
X0033043Y0010300D01*
X0034544Y0010300D01*
X0035295Y0011051D01*
X0036896Y0010300D02*
X0039899Y0010300D01*
X0038397Y0010300D02*
X0038397Y0014804D01*
X0036896Y0013303D01*
X0035295Y0014053D02*
X0034544Y0014804D01*
X0033043Y0014804D01*
X0032292Y0014053D01*
X0024999Y0078238D02*
X0025750Y0078989D01*
X0025750Y0080490D01*
X0024999Y0081241D01*
X0024249Y0081241D01*
X0023498Y0080490D01*
X0023498Y0078989D01*
X0022747Y0078238D01*
X0021997Y0078238D01*
X0021246Y0078989D01*
X0021246Y0080490D01*
X0021997Y0081241D01*
X0021246Y0082842D02*
X0024249Y0082842D01*
X0025750Y0084343D01*
X0024249Y0085845D01*
X0021246Y0085845D01*
X0022747Y0087446D02*
X0021246Y0088947D01*
X0025750Y0088947D01*
X0025750Y0087446D02*
X0025750Y0090449D01*
X0031042Y0091051D02*
X0031793Y0090300D01*
X0033294Y0090300D01*
X0034045Y0091051D01*
X0035646Y0091051D02*
X0036397Y0090300D01*
X0037898Y0090300D01*
X0038649Y0091051D01*
X0038649Y0091801D01*
X0037898Y0092552D01*
X0037147Y0092552D01*
X0037898Y0092552D02*
X0038649Y0093303D01*
X0038649Y0094053D01*
X0037898Y0094804D01*
X0036397Y0094804D01*
X0035646Y0094053D01*
X0034045Y0094053D02*
X0033294Y0094804D01*
X0031793Y0094804D01*
X0031042Y0094053D01*
X0031042Y0091051D01*
X0015500Y0096385D02*
X0013665Y0098220D01*
X0009995Y0098220D01*
X0010913Y0100075D02*
X0014583Y0100075D01*
X0015500Y0100992D01*
X0015500Y0102827D01*
X0014583Y0103745D01*
X0014583Y0105599D02*
X0015500Y0106517D01*
X0015500Y0108352D01*
X0014583Y0109269D01*
X0014583Y0105599D02*
X0010913Y0105599D01*
X0009995Y0106517D01*
X0009995Y0108352D01*
X0010913Y0109269D01*
X0010913Y0103745D02*
X0009995Y0102827D01*
X0009995Y0100992D01*
X0010913Y0100075D01*
X0015500Y0096385D02*
X0013665Y0094550D01*
X0009995Y0094550D01*
X0007750Y0087449D02*
X0007750Y0084446D01*
X0007750Y0085947D02*
X0003246Y0085947D01*
X0004747Y0084446D01*
X0056000Y0089051D02*
X0057501Y0087550D01*
X0059003Y0089051D01*
X0059003Y0092054D01*
X0060604Y0091303D02*
X0060604Y0088301D01*
X0061355Y0087550D01*
X0062856Y0087550D01*
X0063606Y0088301D01*
X0065208Y0088301D02*
X0065958Y0087550D01*
X0067460Y0087550D01*
X0068210Y0088301D01*
X0065208Y0088301D02*
X0065208Y0091303D01*
X0065958Y0092054D01*
X0067460Y0092054D01*
X0068210Y0091303D01*
X0063606Y0091303D02*
X0062856Y0092054D01*
X0061355Y0092054D01*
X0060604Y0091303D01*
X0056000Y0092054D02*
X0056000Y0089051D01*
X0114496Y0085947D02*
X0119000Y0085947D01*
X0119000Y0084446D02*
X0119000Y0087449D01*
X0115997Y0084446D02*
X0114496Y0085947D01*
X0124995Y0095467D02*
X0125913Y0094550D01*
X0129583Y0094550D01*
X0130500Y0095467D01*
X0130500Y0097302D01*
X0129583Y0098220D01*
X0127748Y0098220D01*
X0127748Y0096385D01*
X0125913Y0098220D02*
X0124995Y0097302D01*
X0124995Y0095467D01*
X0124995Y0100075D02*
X0130500Y0103745D01*
X0124995Y0103745D01*
X0124995Y0105599D02*
X0124995Y0108352D01*
X0125913Y0109269D01*
X0129583Y0109269D01*
X0130500Y0108352D01*
X0130500Y0105599D01*
X0124995Y0105599D01*
X0124995Y0100075D02*
X0130500Y0100075D01*
X0133247Y0090449D02*
X0132496Y0089698D01*
X0132496Y0088197D01*
X0133247Y0087446D01*
X0132496Y0085845D02*
X0135499Y0085845D01*
X0137000Y0084343D01*
X0135499Y0082842D01*
X0132496Y0082842D01*
X0133247Y0081241D02*
X0132496Y0080490D01*
X0132496Y0078989D01*
X0133247Y0078238D01*
X0133997Y0078238D01*
X0134748Y0078989D01*
X0134748Y0080490D01*
X0135499Y0081241D01*
X0136249Y0081241D01*
X0137000Y0080490D01*
X0137000Y0078989D01*
X0136249Y0078238D01*
X0137000Y0087446D02*
X0133997Y0090449D01*
X0133247Y0090449D01*
X0137000Y0090449D02*
X0137000Y0087446D01*
X0136249Y0017949D02*
X0135499Y0017949D01*
X0134748Y0017198D01*
X0134748Y0015697D01*
X0133997Y0014946D01*
X0133247Y0014946D01*
X0132496Y0015697D01*
X0132496Y0017198D01*
X0133247Y0017949D01*
X0133997Y0017949D01*
X0134748Y0017198D01*
X0134748Y0015697D02*
X0135499Y0014946D01*
X0136249Y0014946D01*
X0137000Y0015697D01*
X0137000Y0017198D01*
X0136249Y0017949D01*
D12*
X0130750Y0019300D02*
X0130750Y0014300D01*
X0128250Y0011800D01*
X0123250Y0011800D01*
X0120750Y0014300D01*
X0120750Y0019300D01*
X0123250Y0021800D01*
X0120750Y0024300D01*
X0120750Y0029300D01*
X0123250Y0031800D01*
X0120750Y0034300D01*
X0120750Y0039300D01*
X0123250Y0041800D01*
X0120750Y0044300D01*
X0120750Y0049300D01*
X0123250Y0051800D01*
X0120750Y0054300D01*
X0120750Y0059300D01*
X0123250Y0061800D01*
X0120750Y0064300D01*
X0120750Y0069300D01*
X0123250Y0071800D01*
X0120750Y0074300D01*
X0120750Y0079300D01*
X0123250Y0081800D01*
X0120750Y0084300D01*
X0120750Y0089300D01*
X0123250Y0091800D01*
X0128250Y0091800D01*
X0130750Y0089300D01*
X0130750Y0084300D01*
X0128250Y0081800D01*
X0130750Y0079300D01*
X0130750Y0074300D01*
X0128250Y0071800D01*
X0130750Y0069300D01*
X0130750Y0064300D01*
X0128250Y0061800D01*
X0130750Y0059300D01*
X0130750Y0054300D01*
X0128250Y0051800D01*
X0130750Y0049300D01*
X0130750Y0044300D01*
X0128250Y0041800D01*
X0130750Y0039300D01*
X0130750Y0034300D01*
X0128250Y0031800D01*
X0130750Y0029300D01*
X0130750Y0024300D01*
X0128250Y0021800D01*
X0130750Y0019300D01*
X0099250Y0017400D02*
X0067250Y0017400D01*
X0067250Y0046200D01*
X0099250Y0046200D01*
X0099250Y0017400D01*
X0085850Y0017400D02*
X0080650Y0017400D01*
X0050250Y0021800D02*
X0047250Y0021800D01*
X0048750Y0023300D02*
X0048750Y0020300D01*
X0024750Y0021800D02*
X0024754Y0022131D01*
X0024766Y0022462D01*
X0024787Y0022793D01*
X0024815Y0023123D01*
X0024852Y0023453D01*
X0024896Y0023781D01*
X0024949Y0024108D01*
X0025009Y0024434D01*
X0025078Y0024758D01*
X0025155Y0025080D01*
X0025239Y0025401D01*
X0025331Y0025719D01*
X0025431Y0026035D01*
X0025539Y0026348D01*
X0025655Y0026659D01*
X0025778Y0026966D01*
X0025908Y0027271D01*
X0026046Y0027572D01*
X0026191Y0027870D01*
X0026344Y0028164D01*
X0026504Y0028454D01*
X0026671Y0028740D01*
X0026844Y0029022D01*
X0027025Y0029300D01*
X0027213Y0029573D01*
X0027407Y0029842D01*
X0027607Y0030106D01*
X0027814Y0030364D01*
X0028028Y0030618D01*
X0028247Y0030866D01*
X0028473Y0031109D01*
X0028704Y0031346D01*
X0028941Y0031577D01*
X0029184Y0031803D01*
X0029432Y0032022D01*
X0029686Y0032236D01*
X0029944Y0032443D01*
X0030208Y0032643D01*
X0030477Y0032837D01*
X0030750Y0033025D01*
X0031028Y0033206D01*
X0031310Y0033379D01*
X0031596Y0033546D01*
X0031886Y0033706D01*
X0032180Y0033859D01*
X0032478Y0034004D01*
X0032779Y0034142D01*
X0033084Y0034272D01*
X0033391Y0034395D01*
X0033702Y0034511D01*
X0034015Y0034619D01*
X0034331Y0034719D01*
X0034649Y0034811D01*
X0034970Y0034895D01*
X0035292Y0034972D01*
X0035616Y0035041D01*
X0035942Y0035101D01*
X0036269Y0035154D01*
X0036597Y0035198D01*
X0036927Y0035235D01*
X0037257Y0035263D01*
X0037588Y0035284D01*
X0037919Y0035296D01*
X0038250Y0035300D01*
X0038581Y0035296D01*
X0038912Y0035284D01*
X0039243Y0035263D01*
X0039573Y0035235D01*
X0039903Y0035198D01*
X0040231Y0035154D01*
X0040558Y0035101D01*
X0040884Y0035041D01*
X0041208Y0034972D01*
X0041530Y0034895D01*
X0041851Y0034811D01*
X0042169Y0034719D01*
X0042485Y0034619D01*
X0042798Y0034511D01*
X0043109Y0034395D01*
X0043416Y0034272D01*
X0043721Y0034142D01*
X0044022Y0034004D01*
X0044320Y0033859D01*
X0044614Y0033706D01*
X0044904Y0033546D01*
X0045190Y0033379D01*
X0045472Y0033206D01*
X0045750Y0033025D01*
X0046023Y0032837D01*
X0046292Y0032643D01*
X0046556Y0032443D01*
X0046814Y0032236D01*
X0047068Y0032022D01*
X0047316Y0031803D01*
X0047559Y0031577D01*
X0047796Y0031346D01*
X0048027Y0031109D01*
X0048253Y0030866D01*
X0048472Y0030618D01*
X0048686Y0030364D01*
X0048893Y0030106D01*
X0049093Y0029842D01*
X0049287Y0029573D01*
X0049475Y0029300D01*
X0049656Y0029022D01*
X0049829Y0028740D01*
X0049996Y0028454D01*
X0050156Y0028164D01*
X0050309Y0027870D01*
X0050454Y0027572D01*
X0050592Y0027271D01*
X0050722Y0026966D01*
X0050845Y0026659D01*
X0050961Y0026348D01*
X0051069Y0026035D01*
X0051169Y0025719D01*
X0051261Y0025401D01*
X0051345Y0025080D01*
X0051422Y0024758D01*
X0051491Y0024434D01*
X0051551Y0024108D01*
X0051604Y0023781D01*
X0051648Y0023453D01*
X0051685Y0023123D01*
X0051713Y0022793D01*
X0051734Y0022462D01*
X0051746Y0022131D01*
X0051750Y0021800D01*
X0051746Y0021469D01*
X0051734Y0021138D01*
X0051713Y0020807D01*
X0051685Y0020477D01*
X0051648Y0020147D01*
X0051604Y0019819D01*
X0051551Y0019492D01*
X0051491Y0019166D01*
X0051422Y0018842D01*
X0051345Y0018520D01*
X0051261Y0018199D01*
X0051169Y0017881D01*
X0051069Y0017565D01*
X0050961Y0017252D01*
X0050845Y0016941D01*
X0050722Y0016634D01*
X0050592Y0016329D01*
X0050454Y0016028D01*
X0050309Y0015730D01*
X0050156Y0015436D01*
X0049996Y0015146D01*
X0049829Y0014860D01*
X0049656Y0014578D01*
X0049475Y0014300D01*
X0049287Y0014027D01*
X0049093Y0013758D01*
X0048893Y0013494D01*
X0048686Y0013236D01*
X0048472Y0012982D01*
X0048253Y0012734D01*
X0048027Y0012491D01*
X0047796Y0012254D01*
X0047559Y0012023D01*
X0047316Y0011797D01*
X0047068Y0011578D01*
X0046814Y0011364D01*
X0046556Y0011157D01*
X0046292Y0010957D01*
X0046023Y0010763D01*
X0045750Y0010575D01*
X0045472Y0010394D01*
X0045190Y0010221D01*
X0044904Y0010054D01*
X0044614Y0009894D01*
X0044320Y0009741D01*
X0044022Y0009596D01*
X0043721Y0009458D01*
X0043416Y0009328D01*
X0043109Y0009205D01*
X0042798Y0009089D01*
X0042485Y0008981D01*
X0042169Y0008881D01*
X0041851Y0008789D01*
X0041530Y0008705D01*
X0041208Y0008628D01*
X0040884Y0008559D01*
X0040558Y0008499D01*
X0040231Y0008446D01*
X0039903Y0008402D01*
X0039573Y0008365D01*
X0039243Y0008337D01*
X0038912Y0008316D01*
X0038581Y0008304D01*
X0038250Y0008300D01*
X0037919Y0008304D01*
X0037588Y0008316D01*
X0037257Y0008337D01*
X0036927Y0008365D01*
X0036597Y0008402D01*
X0036269Y0008446D01*
X0035942Y0008499D01*
X0035616Y0008559D01*
X0035292Y0008628D01*
X0034970Y0008705D01*
X0034649Y0008789D01*
X0034331Y0008881D01*
X0034015Y0008981D01*
X0033702Y0009089D01*
X0033391Y0009205D01*
X0033084Y0009328D01*
X0032779Y0009458D01*
X0032478Y0009596D01*
X0032180Y0009741D01*
X0031886Y0009894D01*
X0031596Y0010054D01*
X0031310Y0010221D01*
X0031028Y0010394D01*
X0030750Y0010575D01*
X0030477Y0010763D01*
X0030208Y0010957D01*
X0029944Y0011157D01*
X0029686Y0011364D01*
X0029432Y0011578D01*
X0029184Y0011797D01*
X0028941Y0012023D01*
X0028704Y0012254D01*
X0028473Y0012491D01*
X0028247Y0012734D01*
X0028028Y0012982D01*
X0027814Y0013236D01*
X0027607Y0013494D01*
X0027407Y0013758D01*
X0027213Y0014027D01*
X0027025Y0014300D01*
X0026844Y0014578D01*
X0026671Y0014860D01*
X0026504Y0015146D01*
X0026344Y0015436D01*
X0026191Y0015730D01*
X0026046Y0016028D01*
X0025908Y0016329D01*
X0025778Y0016634D01*
X0025655Y0016941D01*
X0025539Y0017252D01*
X0025431Y0017565D01*
X0025331Y0017881D01*
X0025239Y0018199D01*
X0025155Y0018520D01*
X0025078Y0018842D01*
X0025009Y0019166D01*
X0024949Y0019492D01*
X0024896Y0019819D01*
X0024852Y0020147D01*
X0024815Y0020477D01*
X0024787Y0020807D01*
X0024766Y0021138D01*
X0024754Y0021469D01*
X0024750Y0021800D01*
X0019500Y0019300D02*
X0017000Y0021800D01*
X0019500Y0024300D01*
X0019500Y0029300D01*
X0017000Y0031800D01*
X0019500Y0034300D01*
X0019500Y0039300D01*
X0017000Y0041800D01*
X0019500Y0044300D01*
X0019500Y0049300D01*
X0017000Y0051800D01*
X0019500Y0054300D01*
X0019500Y0059300D01*
X0017000Y0061800D01*
X0019500Y0064300D01*
X0019500Y0069300D01*
X0017000Y0071800D01*
X0019500Y0074300D01*
X0019500Y0079300D01*
X0017000Y0081800D01*
X0019500Y0084300D01*
X0019500Y0089300D01*
X0017000Y0091800D01*
X0012000Y0091800D01*
X0009500Y0089300D01*
X0009500Y0084300D01*
X0012000Y0081800D01*
X0009500Y0079300D01*
X0009500Y0074300D01*
X0012000Y0071800D01*
X0009500Y0069300D01*
X0009500Y0064300D01*
X0012000Y0061800D01*
X0009500Y0059300D01*
X0009500Y0054300D01*
X0012000Y0051800D01*
X0009500Y0049300D01*
X0009500Y0044300D01*
X0012000Y0041800D01*
X0009500Y0039300D01*
X0009500Y0034300D01*
X0012000Y0031800D01*
X0009500Y0029300D01*
X0009500Y0024300D01*
X0012000Y0021800D01*
X0009500Y0019300D01*
X0009500Y0014300D01*
X0012000Y0011800D01*
X0017000Y0011800D01*
X0019500Y0014300D01*
X0019500Y0019300D01*
X0063550Y0058300D02*
X0067950Y0058300D01*
X0067950Y0060300D01*
X0063550Y0060300D01*
X0063550Y0058300D01*
X0067950Y0057000D02*
X0083550Y0057000D01*
X0083550Y0076600D01*
X0067950Y0076600D01*
X0067950Y0057000D01*
X0070350Y0057000D02*
X0081150Y0057000D01*
X0083550Y0058300D02*
X0083550Y0060300D01*
X0087950Y0060300D01*
X0087950Y0058300D01*
X0083550Y0058300D01*
X0083550Y0063300D02*
X0087950Y0063300D01*
X0087950Y0065300D01*
X0083550Y0065300D01*
X0083550Y0063300D01*
X0083550Y0068300D02*
X0087950Y0068300D01*
X0087950Y0070300D01*
X0083550Y0070300D01*
X0083550Y0068300D01*
X0083550Y0073300D02*
X0087950Y0073300D01*
X0087950Y0075300D01*
X0083550Y0075300D01*
X0083550Y0073300D01*
X0081150Y0076600D02*
X0070350Y0076600D01*
X0067950Y0075300D02*
X0063550Y0075300D01*
X0063550Y0073300D01*
X0067950Y0073300D01*
X0067950Y0075300D01*
X0067950Y0070300D02*
X0063550Y0070300D01*
X0063550Y0068300D01*
X0067950Y0068300D01*
X0067950Y0070300D01*
X0067950Y0065300D02*
X0063550Y0065300D01*
X0063550Y0063300D01*
X0067950Y0063300D01*
X0067950Y0065300D01*
X0058100Y0068850D02*
X0050900Y0068850D01*
X0050900Y0082250D01*
X0058100Y0082250D01*
X0058100Y0068850D01*
X0058100Y0071850D01*
X0050900Y0071850D01*
X0050900Y0068850D01*
X0058100Y0068850D01*
X0058100Y0073150D02*
X0058100Y0077950D01*
X0058100Y0079250D02*
X0058000Y0082250D01*
X0050900Y0082250D01*
X0050900Y0079250D01*
X0058100Y0079250D01*
X0050900Y0077950D02*
X0050900Y0073150D01*
X0050750Y0085300D02*
X0050750Y0094800D01*
X0057250Y0094800D01*
X0050750Y0094800D02*
X0050750Y0120800D01*
X0050750Y0121800D01*
X0090750Y0121800D01*
X0090750Y0120800D01*
X0090750Y0094800D01*
X0084250Y0094800D01*
X0090750Y0094800D02*
X0090750Y0085300D01*
X0050750Y0085300D01*
X0064250Y0094800D02*
X0077250Y0094800D01*
X0078750Y0115500D02*
X0078752Y0115589D01*
X0078758Y0115678D01*
X0078768Y0115767D01*
X0078782Y0115855D01*
X0078799Y0115942D01*
X0078821Y0116028D01*
X0078847Y0116114D01*
X0078876Y0116198D01*
X0078909Y0116281D01*
X0078945Y0116362D01*
X0078986Y0116442D01*
X0079029Y0116519D01*
X0079076Y0116595D01*
X0079127Y0116668D01*
X0079180Y0116739D01*
X0079237Y0116808D01*
X0079297Y0116874D01*
X0079360Y0116938D01*
X0079425Y0116998D01*
X0079493Y0117056D01*
X0079564Y0117110D01*
X0079637Y0117161D01*
X0079712Y0117209D01*
X0079789Y0117254D01*
X0079868Y0117295D01*
X0079949Y0117332D01*
X0080031Y0117366D01*
X0080115Y0117397D01*
X0080200Y0117423D01*
X0080286Y0117446D01*
X0080373Y0117464D01*
X0080461Y0117479D01*
X0080550Y0117490D01*
X0080639Y0117497D01*
X0080728Y0117500D01*
X0080817Y0117499D01*
X0080906Y0117494D01*
X0080994Y0117485D01*
X0081083Y0117472D01*
X0081170Y0117455D01*
X0081257Y0117435D01*
X0081343Y0117410D01*
X0081427Y0117382D01*
X0081510Y0117350D01*
X0081592Y0117314D01*
X0081672Y0117275D01*
X0081750Y0117232D01*
X0081826Y0117186D01*
X0081900Y0117136D01*
X0081972Y0117083D01*
X0082041Y0117027D01*
X0082108Y0116968D01*
X0082172Y0116906D01*
X0082233Y0116842D01*
X0082292Y0116774D01*
X0082347Y0116704D01*
X0082399Y0116632D01*
X0082448Y0116557D01*
X0082493Y0116481D01*
X0082535Y0116402D01*
X0082573Y0116322D01*
X0082608Y0116240D01*
X0082639Y0116156D01*
X0082667Y0116071D01*
X0082690Y0115985D01*
X0082710Y0115898D01*
X0082726Y0115811D01*
X0082738Y0115722D01*
X0082746Y0115634D01*
X0082750Y0115545D01*
X0082750Y0115455D01*
X0082746Y0115366D01*
X0082738Y0115278D01*
X0082726Y0115189D01*
X0082710Y0115102D01*
X0082690Y0115015D01*
X0082667Y0114929D01*
X0082639Y0114844D01*
X0082608Y0114760D01*
X0082573Y0114678D01*
X0082535Y0114598D01*
X0082493Y0114519D01*
X0082448Y0114443D01*
X0082399Y0114368D01*
X0082347Y0114296D01*
X0082292Y0114226D01*
X0082233Y0114158D01*
X0082172Y0114094D01*
X0082108Y0114032D01*
X0082041Y0113973D01*
X0081972Y0113917D01*
X0081900Y0113864D01*
X0081826Y0113814D01*
X0081750Y0113768D01*
X0081672Y0113725D01*
X0081592Y0113686D01*
X0081510Y0113650D01*
X0081427Y0113618D01*
X0081343Y0113590D01*
X0081257Y0113565D01*
X0081170Y0113545D01*
X0081083Y0113528D01*
X0080994Y0113515D01*
X0080906Y0113506D01*
X0080817Y0113501D01*
X0080728Y0113500D01*
X0080639Y0113503D01*
X0080550Y0113510D01*
X0080461Y0113521D01*
X0080373Y0113536D01*
X0080286Y0113554D01*
X0080200Y0113577D01*
X0080115Y0113603D01*
X0080031Y0113634D01*
X0079949Y0113668D01*
X0079868Y0113705D01*
X0079789Y0113746D01*
X0079712Y0113791D01*
X0079637Y0113839D01*
X0079564Y0113890D01*
X0079493Y0113944D01*
X0079425Y0114002D01*
X0079360Y0114062D01*
X0079297Y0114126D01*
X0079237Y0114192D01*
X0079180Y0114261D01*
X0079127Y0114332D01*
X0079076Y0114405D01*
X0079029Y0114481D01*
X0078986Y0114558D01*
X0078945Y0114638D01*
X0078909Y0114719D01*
X0078876Y0114802D01*
X0078847Y0114886D01*
X0078821Y0114972D01*
X0078799Y0115058D01*
X0078782Y0115145D01*
X0078768Y0115233D01*
X0078758Y0115322D01*
X0078752Y0115411D01*
X0078750Y0115500D01*
X0090750Y0120800D02*
X0050750Y0120800D01*
X0058750Y0115500D02*
X0058752Y0115589D01*
X0058758Y0115678D01*
X0058768Y0115767D01*
X0058782Y0115855D01*
X0058799Y0115942D01*
X0058821Y0116028D01*
X0058847Y0116114D01*
X0058876Y0116198D01*
X0058909Y0116281D01*
X0058945Y0116362D01*
X0058986Y0116442D01*
X0059029Y0116519D01*
X0059076Y0116595D01*
X0059127Y0116668D01*
X0059180Y0116739D01*
X0059237Y0116808D01*
X0059297Y0116874D01*
X0059360Y0116938D01*
X0059425Y0116998D01*
X0059493Y0117056D01*
X0059564Y0117110D01*
X0059637Y0117161D01*
X0059712Y0117209D01*
X0059789Y0117254D01*
X0059868Y0117295D01*
X0059949Y0117332D01*
X0060031Y0117366D01*
X0060115Y0117397D01*
X0060200Y0117423D01*
X0060286Y0117446D01*
X0060373Y0117464D01*
X0060461Y0117479D01*
X0060550Y0117490D01*
X0060639Y0117497D01*
X0060728Y0117500D01*
X0060817Y0117499D01*
X0060906Y0117494D01*
X0060994Y0117485D01*
X0061083Y0117472D01*
X0061170Y0117455D01*
X0061257Y0117435D01*
X0061343Y0117410D01*
X0061427Y0117382D01*
X0061510Y0117350D01*
X0061592Y0117314D01*
X0061672Y0117275D01*
X0061750Y0117232D01*
X0061826Y0117186D01*
X0061900Y0117136D01*
X0061972Y0117083D01*
X0062041Y0117027D01*
X0062108Y0116968D01*
X0062172Y0116906D01*
X0062233Y0116842D01*
X0062292Y0116774D01*
X0062347Y0116704D01*
X0062399Y0116632D01*
X0062448Y0116557D01*
X0062493Y0116481D01*
X0062535Y0116402D01*
X0062573Y0116322D01*
X0062608Y0116240D01*
X0062639Y0116156D01*
X0062667Y0116071D01*
X0062690Y0115985D01*
X0062710Y0115898D01*
X0062726Y0115811D01*
X0062738Y0115722D01*
X0062746Y0115634D01*
X0062750Y0115545D01*
X0062750Y0115455D01*
X0062746Y0115366D01*
X0062738Y0115278D01*
X0062726Y0115189D01*
X0062710Y0115102D01*
X0062690Y0115015D01*
X0062667Y0114929D01*
X0062639Y0114844D01*
X0062608Y0114760D01*
X0062573Y0114678D01*
X0062535Y0114598D01*
X0062493Y0114519D01*
X0062448Y0114443D01*
X0062399Y0114368D01*
X0062347Y0114296D01*
X0062292Y0114226D01*
X0062233Y0114158D01*
X0062172Y0114094D01*
X0062108Y0114032D01*
X0062041Y0113973D01*
X0061972Y0113917D01*
X0061900Y0113864D01*
X0061826Y0113814D01*
X0061750Y0113768D01*
X0061672Y0113725D01*
X0061592Y0113686D01*
X0061510Y0113650D01*
X0061427Y0113618D01*
X0061343Y0113590D01*
X0061257Y0113565D01*
X0061170Y0113545D01*
X0061083Y0113528D01*
X0060994Y0113515D01*
X0060906Y0113506D01*
X0060817Y0113501D01*
X0060728Y0113500D01*
X0060639Y0113503D01*
X0060550Y0113510D01*
X0060461Y0113521D01*
X0060373Y0113536D01*
X0060286Y0113554D01*
X0060200Y0113577D01*
X0060115Y0113603D01*
X0060031Y0113634D01*
X0059949Y0113668D01*
X0059868Y0113705D01*
X0059789Y0113746D01*
X0059712Y0113791D01*
X0059637Y0113839D01*
X0059564Y0113890D01*
X0059493Y0113944D01*
X0059425Y0114002D01*
X0059360Y0114062D01*
X0059297Y0114126D01*
X0059237Y0114192D01*
X0059180Y0114261D01*
X0059127Y0114332D01*
X0059076Y0114405D01*
X0059029Y0114481D01*
X0058986Y0114558D01*
X0058945Y0114638D01*
X0058909Y0114719D01*
X0058876Y0114802D01*
X0058847Y0114886D01*
X0058821Y0114972D01*
X0058799Y0115058D01*
X0058782Y0115145D01*
X0058768Y0115233D01*
X0058758Y0115322D01*
X0058752Y0115411D01*
X0058750Y0115500D01*
X0046250Y0103300D02*
X0046250Y0100300D01*
X0047750Y0101800D02*
X0044750Y0101800D01*
X0022250Y0101800D02*
X0022254Y0102131D01*
X0022266Y0102462D01*
X0022287Y0102793D01*
X0022315Y0103123D01*
X0022352Y0103453D01*
X0022396Y0103781D01*
X0022449Y0104108D01*
X0022509Y0104434D01*
X0022578Y0104758D01*
X0022655Y0105080D01*
X0022739Y0105401D01*
X0022831Y0105719D01*
X0022931Y0106035D01*
X0023039Y0106348D01*
X0023155Y0106659D01*
X0023278Y0106966D01*
X0023408Y0107271D01*
X0023546Y0107572D01*
X0023691Y0107870D01*
X0023844Y0108164D01*
X0024004Y0108454D01*
X0024171Y0108740D01*
X0024344Y0109022D01*
X0024525Y0109300D01*
X0024713Y0109573D01*
X0024907Y0109842D01*
X0025107Y0110106D01*
X0025314Y0110364D01*
X0025528Y0110618D01*
X0025747Y0110866D01*
X0025973Y0111109D01*
X0026204Y0111346D01*
X0026441Y0111577D01*
X0026684Y0111803D01*
X0026932Y0112022D01*
X0027186Y0112236D01*
X0027444Y0112443D01*
X0027708Y0112643D01*
X0027977Y0112837D01*
X0028250Y0113025D01*
X0028528Y0113206D01*
X0028810Y0113379D01*
X0029096Y0113546D01*
X0029386Y0113706D01*
X0029680Y0113859D01*
X0029978Y0114004D01*
X0030279Y0114142D01*
X0030584Y0114272D01*
X0030891Y0114395D01*
X0031202Y0114511D01*
X0031515Y0114619D01*
X0031831Y0114719D01*
X0032149Y0114811D01*
X0032470Y0114895D01*
X0032792Y0114972D01*
X0033116Y0115041D01*
X0033442Y0115101D01*
X0033769Y0115154D01*
X0034097Y0115198D01*
X0034427Y0115235D01*
X0034757Y0115263D01*
X0035088Y0115284D01*
X0035419Y0115296D01*
X0035750Y0115300D01*
X0036081Y0115296D01*
X0036412Y0115284D01*
X0036743Y0115263D01*
X0037073Y0115235D01*
X0037403Y0115198D01*
X0037731Y0115154D01*
X0038058Y0115101D01*
X0038384Y0115041D01*
X0038708Y0114972D01*
X0039030Y0114895D01*
X0039351Y0114811D01*
X0039669Y0114719D01*
X0039985Y0114619D01*
X0040298Y0114511D01*
X0040609Y0114395D01*
X0040916Y0114272D01*
X0041221Y0114142D01*
X0041522Y0114004D01*
X0041820Y0113859D01*
X0042114Y0113706D01*
X0042404Y0113546D01*
X0042690Y0113379D01*
X0042972Y0113206D01*
X0043250Y0113025D01*
X0043523Y0112837D01*
X0043792Y0112643D01*
X0044056Y0112443D01*
X0044314Y0112236D01*
X0044568Y0112022D01*
X0044816Y0111803D01*
X0045059Y0111577D01*
X0045296Y0111346D01*
X0045527Y0111109D01*
X0045753Y0110866D01*
X0045972Y0110618D01*
X0046186Y0110364D01*
X0046393Y0110106D01*
X0046593Y0109842D01*
X0046787Y0109573D01*
X0046975Y0109300D01*
X0047156Y0109022D01*
X0047329Y0108740D01*
X0047496Y0108454D01*
X0047656Y0108164D01*
X0047809Y0107870D01*
X0047954Y0107572D01*
X0048092Y0107271D01*
X0048222Y0106966D01*
X0048345Y0106659D01*
X0048461Y0106348D01*
X0048569Y0106035D01*
X0048669Y0105719D01*
X0048761Y0105401D01*
X0048845Y0105080D01*
X0048922Y0104758D01*
X0048991Y0104434D01*
X0049051Y0104108D01*
X0049104Y0103781D01*
X0049148Y0103453D01*
X0049185Y0103123D01*
X0049213Y0102793D01*
X0049234Y0102462D01*
X0049246Y0102131D01*
X0049250Y0101800D01*
X0049246Y0101469D01*
X0049234Y0101138D01*
X0049213Y0100807D01*
X0049185Y0100477D01*
X0049148Y0100147D01*
X0049104Y0099819D01*
X0049051Y0099492D01*
X0048991Y0099166D01*
X0048922Y0098842D01*
X0048845Y0098520D01*
X0048761Y0098199D01*
X0048669Y0097881D01*
X0048569Y0097565D01*
X0048461Y0097252D01*
X0048345Y0096941D01*
X0048222Y0096634D01*
X0048092Y0096329D01*
X0047954Y0096028D01*
X0047809Y0095730D01*
X0047656Y0095436D01*
X0047496Y0095146D01*
X0047329Y0094860D01*
X0047156Y0094578D01*
X0046975Y0094300D01*
X0046787Y0094027D01*
X0046593Y0093758D01*
X0046393Y0093494D01*
X0046186Y0093236D01*
X0045972Y0092982D01*
X0045753Y0092734D01*
X0045527Y0092491D01*
X0045296Y0092254D01*
X0045059Y0092023D01*
X0044816Y0091797D01*
X0044568Y0091578D01*
X0044314Y0091364D01*
X0044056Y0091157D01*
X0043792Y0090957D01*
X0043523Y0090763D01*
X0043250Y0090575D01*
X0042972Y0090394D01*
X0042690Y0090221D01*
X0042404Y0090054D01*
X0042114Y0089894D01*
X0041820Y0089741D01*
X0041522Y0089596D01*
X0041221Y0089458D01*
X0040916Y0089328D01*
X0040609Y0089205D01*
X0040298Y0089089D01*
X0039985Y0088981D01*
X0039669Y0088881D01*
X0039351Y0088789D01*
X0039030Y0088705D01*
X0038708Y0088628D01*
X0038384Y0088559D01*
X0038058Y0088499D01*
X0037731Y0088446D01*
X0037403Y0088402D01*
X0037073Y0088365D01*
X0036743Y0088337D01*
X0036412Y0088316D01*
X0036081Y0088304D01*
X0035750Y0088300D01*
X0035419Y0088304D01*
X0035088Y0088316D01*
X0034757Y0088337D01*
X0034427Y0088365D01*
X0034097Y0088402D01*
X0033769Y0088446D01*
X0033442Y0088499D01*
X0033116Y0088559D01*
X0032792Y0088628D01*
X0032470Y0088705D01*
X0032149Y0088789D01*
X0031831Y0088881D01*
X0031515Y0088981D01*
X0031202Y0089089D01*
X0030891Y0089205D01*
X0030584Y0089328D01*
X0030279Y0089458D01*
X0029978Y0089596D01*
X0029680Y0089741D01*
X0029386Y0089894D01*
X0029096Y0090054D01*
X0028810Y0090221D01*
X0028528Y0090394D01*
X0028250Y0090575D01*
X0027977Y0090763D01*
X0027708Y0090957D01*
X0027444Y0091157D01*
X0027186Y0091364D01*
X0026932Y0091578D01*
X0026684Y0091797D01*
X0026441Y0092023D01*
X0026204Y0092254D01*
X0025973Y0092491D01*
X0025747Y0092734D01*
X0025528Y0092982D01*
X0025314Y0093236D01*
X0025107Y0093494D01*
X0024907Y0093758D01*
X0024713Y0094027D01*
X0024525Y0094300D01*
X0024344Y0094578D01*
X0024171Y0094860D01*
X0024004Y0095146D01*
X0023844Y0095436D01*
X0023691Y0095730D01*
X0023546Y0096028D01*
X0023408Y0096329D01*
X0023278Y0096634D01*
X0023155Y0096941D01*
X0023039Y0097252D01*
X0022931Y0097565D01*
X0022831Y0097881D01*
X0022739Y0098199D01*
X0022655Y0098520D01*
X0022578Y0098842D01*
X0022509Y0099166D01*
X0022449Y0099492D01*
X0022396Y0099819D01*
X0022352Y0100147D01*
X0022315Y0100477D01*
X0022287Y0100807D01*
X0022266Y0101138D01*
X0022254Y0101469D01*
X0022250Y0101800D01*
X0074550Y0056900D02*
X0074549Y0056969D01*
X0074552Y0057037D01*
X0074559Y0057105D01*
X0074570Y0057173D01*
X0074585Y0057240D01*
X0074603Y0057306D01*
X0074625Y0057371D01*
X0074651Y0057435D01*
X0074681Y0057497D01*
X0074713Y0057557D01*
X0074750Y0057615D01*
X0074789Y0057671D01*
X0074832Y0057725D01*
X0074878Y0057776D01*
X0074926Y0057824D01*
X0074978Y0057870D01*
X0075031Y0057912D01*
X0075088Y0057952D01*
X0075146Y0057988D01*
X0075206Y0058021D01*
X0075268Y0058050D01*
X0075332Y0058076D01*
X0075397Y0058098D01*
X0075463Y0058116D01*
X0075530Y0058131D01*
X0075597Y0058141D01*
X0075666Y0058148D01*
X0075734Y0058151D01*
X0075803Y0058150D01*
X0075871Y0058145D01*
X0075939Y0058136D01*
X0076007Y0058123D01*
X0076073Y0058107D01*
X0076139Y0058086D01*
X0076203Y0058062D01*
X0076266Y0058035D01*
X0076327Y0058003D01*
X0076386Y0057969D01*
X0076443Y0057931D01*
X0076498Y0057890D01*
X0076550Y0057845D01*
X0076600Y0057798D01*
X0076647Y0057748D01*
X0076691Y0057696D01*
X0076732Y0057641D01*
X0076770Y0057584D01*
X0076805Y0057524D01*
X0076836Y0057463D01*
X0076863Y0057400D01*
X0076887Y0057336D01*
X0076907Y0057270D01*
X0076924Y0057204D01*
X0076936Y0057136D01*
X0076945Y0057068D01*
X0076950Y0057000D01*
X0076945Y0057068D01*
X0076936Y0057136D01*
X0076924Y0057204D01*
X0076907Y0057270D01*
X0076887Y0057336D01*
X0076863Y0057400D01*
X0076836Y0057463D01*
X0076805Y0057524D01*
X0076770Y0057584D01*
X0076732Y0057641D01*
X0076691Y0057696D01*
X0076647Y0057748D01*
X0076600Y0057798D01*
X0076550Y0057845D01*
X0076498Y0057890D01*
X0076443Y0057931D01*
X0076386Y0057969D01*
X0076327Y0058003D01*
X0076266Y0058035D01*
X0076203Y0058062D01*
X0076139Y0058086D01*
X0076073Y0058107D01*
X0076007Y0058123D01*
X0075939Y0058136D01*
X0075871Y0058145D01*
X0075803Y0058150D01*
X0075734Y0058151D01*
X0075666Y0058148D01*
X0075597Y0058141D01*
X0075530Y0058131D01*
X0075463Y0058116D01*
X0075397Y0058098D01*
X0075332Y0058076D01*
X0075268Y0058050D01*
X0075206Y0058021D01*
X0075146Y0057988D01*
X0075088Y0057952D01*
X0075031Y0057912D01*
X0074978Y0057870D01*
X0074926Y0057824D01*
X0074878Y0057776D01*
X0074832Y0057725D01*
X0074789Y0057671D01*
X0074750Y0057615D01*
X0074713Y0057557D01*
X0074681Y0057497D01*
X0074651Y0057435D01*
X0074625Y0057371D01*
X0074603Y0057306D01*
X0074585Y0057240D01*
X0074570Y0057173D01*
X0074559Y0057105D01*
X0074552Y0057037D01*
X0074549Y0056969D01*
X0074550Y0056900D01*
X0080650Y0046200D02*
X0085850Y0046200D01*
X0104950Y0052800D02*
X0106250Y0052800D01*
X0104950Y0052800D02*
X0104950Y0070800D01*
X0106250Y0070800D01*
X0104950Y0070800D02*
X0104950Y0052800D01*
X0116550Y0052800D01*
X0116550Y0070800D01*
X0115250Y0070800D01*
X0113950Y0070800D02*
X0113950Y0072800D01*
X0107550Y0072800D01*
X0107550Y0070800D01*
X0113950Y0070800D01*
X0116550Y0070800D02*
X0104950Y0070800D01*
X0110750Y0064400D02*
X0110750Y0060400D01*
X0111250Y0063400D01*
X0110750Y0060400D01*
X0111750Y0063400D01*
X0110750Y0060400D01*
X0112250Y0063400D01*
X0110750Y0060400D01*
X0112750Y0063400D01*
X0110750Y0060400D01*
X0113250Y0063400D01*
X0108250Y0063400D01*
X0110750Y0060400D01*
X0110250Y0063400D01*
X0110750Y0060400D01*
X0109750Y0063400D01*
X0110750Y0060400D01*
X0109250Y0063400D01*
X0110750Y0060400D01*
X0108750Y0063400D01*
X0110750Y0060400D01*
X0113250Y0060400D01*
X0110750Y0060400D01*
X0108250Y0060400D01*
X0110750Y0060400D01*
X0110750Y0059400D01*
X0110750Y0060400D01*
X0110750Y0063900D01*
X0108250Y0063400D02*
X0113250Y0063400D01*
X0110750Y0060400D01*
X0108250Y0063400D01*
X0104950Y0055600D02*
X0107850Y0052800D01*
X0107550Y0052800D01*
X0107550Y0050800D01*
X0113950Y0050800D01*
X0113950Y0052800D01*
X0113650Y0052800D01*
X0116550Y0055600D01*
X0116550Y0052800D02*
X0115250Y0052800D01*
X0116550Y0052800D02*
X0116550Y0070800D01*
X0113650Y0052800D02*
X0107850Y0052800D01*
D13*
X0111850Y0048390D02*
X0111850Y0045254D01*
X0111066Y0043786D02*
X0107930Y0043786D01*
X0107146Y0043002D01*
X0107146Y0040650D01*
X0111850Y0040650D01*
X0111850Y0043002D01*
X0111066Y0043786D01*
X0108714Y0045254D02*
X0107146Y0046822D01*
X0111850Y0046822D01*
X0088600Y0053530D02*
X0085464Y0056666D01*
X0088600Y0053530D01*
X0088600Y0055098D02*
X0085464Y0055098D01*
X0088600Y0055098D01*
X0087032Y0056666D02*
X0087032Y0053530D01*
X0087032Y0056666D01*
X0088600Y0056666D02*
X0085464Y0053530D01*
X0088600Y0056666D01*
X0086900Y0064446D02*
X0086900Y0068366D01*
X0086116Y0069150D01*
X0084548Y0069150D01*
X0083764Y0068366D01*
X0083764Y0064446D01*
X0082296Y0066014D02*
X0080728Y0064446D01*
X0080728Y0069150D01*
X0082296Y0069150D02*
X0079160Y0069150D01*
X0048100Y0068934D02*
X0048100Y0070502D01*
X0047316Y0071286D01*
X0048100Y0072754D02*
X0048100Y0074322D01*
X0048100Y0073538D02*
X0043396Y0073538D01*
X0043396Y0072754D02*
X0043396Y0074322D01*
X0043396Y0075823D02*
X0048100Y0078959D01*
X0043396Y0078959D01*
X0043396Y0075823D02*
X0048100Y0075823D01*
X0044180Y0071286D02*
X0043396Y0070502D01*
X0043396Y0068934D01*
X0044180Y0068150D01*
X0047316Y0068150D01*
X0048100Y0068934D01*
X0070850Y0014154D02*
X0070850Y0009450D01*
X0073986Y0009450D01*
X0075454Y0009450D02*
X0078590Y0009450D01*
X0077022Y0009450D02*
X0077022Y0014154D01*
X0075454Y0012586D01*
D14*
X0051915Y0044500D02*
X0048846Y0044500D01*
X0051915Y0047569D01*
X0051915Y0048337D01*
X0051148Y0049104D01*
X0049613Y0049104D01*
X0048846Y0048337D01*
X0045777Y0049104D02*
X0045777Y0044500D01*
X0047311Y0044500D02*
X0044242Y0044500D01*
X0042707Y0044500D02*
X0041173Y0046035D01*
X0041940Y0046035D02*
X0039638Y0046035D01*
X0039638Y0044500D02*
X0039638Y0049104D01*
X0041940Y0049104D01*
X0042707Y0048337D01*
X0042707Y0046802D01*
X0041940Y0046035D01*
X0044242Y0047569D02*
X0045777Y0049104D01*
X0034415Y0044500D02*
X0031346Y0044500D01*
X0029811Y0044500D02*
X0026742Y0044500D01*
X0025207Y0044500D02*
X0023673Y0046035D01*
X0024440Y0046035D02*
X0022138Y0046035D01*
X0022138Y0044500D02*
X0022138Y0049104D01*
X0024440Y0049104D01*
X0025207Y0048337D01*
X0025207Y0046802D01*
X0024440Y0046035D01*
X0026742Y0047569D02*
X0028277Y0049104D01*
X0028277Y0044500D01*
X0031346Y0047569D02*
X0032881Y0049104D01*
X0032881Y0044500D01*
X0097196Y0047309D02*
X0097963Y0046542D01*
X0101033Y0046542D01*
X0101800Y0047309D01*
X0101800Y0048844D01*
X0101033Y0049611D01*
X0099498Y0051146D02*
X0099498Y0054215D01*
X0101800Y0053448D02*
X0097196Y0053448D01*
X0099498Y0051146D01*
X0097963Y0049611D02*
X0097196Y0048844D01*
X0097196Y0047309D01*
M02*
