G75*
%MOIN*%
%OFA0B0*%
%FSLAX25Y25*%
%IPPOS*%
%LPD*%
%AMOC8*
5,1,8,0,0,1.08239X$1,22.5*
%
%ADD10C,0.01600*%
%ADD11C,0.00500*%
%ADD12C,0.00600*%
D10*
X0008250Y0001800D02*
X0008250Y0119910D01*
X0132266Y0119910D01*
X0132266Y0001800D01*
X0008250Y0001800D01*
D11*
X0021997Y0014946D02*
X0022747Y0014946D01*
X0023498Y0015697D01*
X0023498Y0017198D01*
X0024249Y0017949D01*
X0024999Y0017949D01*
X0025750Y0017198D01*
X0025750Y0015697D01*
X0024999Y0014946D01*
X0024249Y0014946D01*
X0023498Y0015697D01*
X0021997Y0014946D02*
X0021246Y0015697D01*
X0021246Y0017198D01*
X0021997Y0017949D01*
X0022747Y0017949D01*
X0023498Y0017198D01*
X0022747Y0078238D02*
X0021997Y0078238D01*
X0021246Y0078989D01*
X0021246Y0080490D01*
X0021997Y0081241D01*
X0023498Y0080490D02*
X0024249Y0081241D01*
X0024999Y0081241D01*
X0025750Y0080490D01*
X0025750Y0078989D01*
X0024999Y0078238D01*
X0023498Y0078989D02*
X0023498Y0080490D01*
X0023498Y0078989D02*
X0022747Y0078238D01*
X0021246Y0082842D02*
X0024249Y0082842D01*
X0025750Y0084343D01*
X0024249Y0085845D01*
X0021246Y0085845D01*
X0022747Y0087446D02*
X0021246Y0088947D01*
X0025750Y0088947D01*
X0025750Y0087446D02*
X0025750Y0090449D01*
X0015500Y0096385D02*
X0013665Y0098220D01*
X0009995Y0098220D01*
X0010913Y0100075D02*
X0014583Y0100075D01*
X0015500Y0100992D01*
X0015500Y0102827D01*
X0014583Y0103745D01*
X0014583Y0105599D02*
X0015500Y0106517D01*
X0015500Y0108352D01*
X0014583Y0109269D01*
X0014583Y0105599D02*
X0010913Y0105599D01*
X0009995Y0106517D01*
X0009995Y0108352D01*
X0010913Y0109269D01*
X0010913Y0103745D02*
X0009995Y0102827D01*
X0009995Y0100992D01*
X0010913Y0100075D01*
X0015500Y0096385D02*
X0013665Y0094550D01*
X0009995Y0094550D01*
X0007750Y0087449D02*
X0007750Y0084446D01*
X0007750Y0085947D02*
X0003246Y0085947D01*
X0004747Y0084446D01*
X0114496Y0085947D02*
X0119000Y0085947D01*
X0119000Y0084446D02*
X0119000Y0087449D01*
X0115997Y0084446D02*
X0114496Y0085947D01*
X0124995Y0095467D02*
X0125913Y0094550D01*
X0129583Y0094550D01*
X0130500Y0095467D01*
X0130500Y0097302D01*
X0129583Y0098220D01*
X0127748Y0098220D01*
X0127748Y0096385D01*
X0125913Y0098220D02*
X0124995Y0097302D01*
X0124995Y0095467D01*
X0124995Y0100075D02*
X0130500Y0103745D01*
X0124995Y0103745D01*
X0124995Y0105599D02*
X0124995Y0108352D01*
X0125913Y0109269D01*
X0129583Y0109269D01*
X0130500Y0108352D01*
X0130500Y0105599D01*
X0124995Y0105599D01*
X0124995Y0100075D02*
X0130500Y0100075D01*
X0133247Y0090449D02*
X0132496Y0089698D01*
X0132496Y0088197D01*
X0133247Y0087446D01*
X0132496Y0085845D02*
X0135499Y0085845D01*
X0137000Y0084343D01*
X0135499Y0082842D01*
X0132496Y0082842D01*
X0133247Y0081241D02*
X0132496Y0080490D01*
X0132496Y0078989D01*
X0133247Y0078238D01*
X0133997Y0078238D01*
X0134748Y0078989D01*
X0134748Y0080490D01*
X0135499Y0081241D01*
X0136249Y0081241D01*
X0137000Y0080490D01*
X0137000Y0078989D01*
X0136249Y0078238D01*
X0137000Y0087446D02*
X0133997Y0090449D01*
X0133247Y0090449D01*
X0137000Y0090449D02*
X0137000Y0087446D01*
X0136249Y0017949D02*
X0135499Y0017949D01*
X0134748Y0017198D01*
X0134748Y0015697D01*
X0133997Y0014946D01*
X0133247Y0014946D01*
X0132496Y0015697D01*
X0132496Y0017198D01*
X0133247Y0017949D01*
X0133997Y0017949D01*
X0134748Y0017198D01*
X0136249Y0017949D02*
X0137000Y0017198D01*
X0137000Y0015697D01*
X0136249Y0014946D01*
X0135499Y0014946D01*
X0134748Y0015697D01*
D12*
X0130750Y0014300D02*
X0130750Y0019300D01*
X0128250Y0021800D01*
X0130750Y0024300D01*
X0130750Y0029300D01*
X0128250Y0031800D01*
X0130750Y0034300D01*
X0130750Y0039300D01*
X0128250Y0041800D01*
X0130750Y0044300D01*
X0130750Y0049300D01*
X0128250Y0051800D01*
X0130750Y0054300D01*
X0130750Y0059300D01*
X0128250Y0061800D01*
X0130750Y0064300D01*
X0130750Y0069300D01*
X0128250Y0071800D01*
X0130750Y0074300D01*
X0130750Y0079300D01*
X0128250Y0081800D01*
X0130750Y0084300D01*
X0130750Y0089300D01*
X0128250Y0091800D01*
X0123250Y0091800D01*
X0120750Y0089300D01*
X0120750Y0084300D01*
X0123250Y0081800D01*
X0120750Y0079300D01*
X0120750Y0074300D01*
X0123250Y0071800D01*
X0120750Y0069300D01*
X0120750Y0064300D01*
X0123250Y0061800D01*
X0120750Y0059300D01*
X0120750Y0054300D01*
X0123250Y0051800D01*
X0120750Y0049300D01*
X0120750Y0044300D01*
X0123250Y0041800D01*
X0120750Y0039300D01*
X0120750Y0034300D01*
X0123250Y0031800D01*
X0120750Y0029300D01*
X0120750Y0024300D01*
X0123250Y0021800D01*
X0120750Y0019300D01*
X0120750Y0014300D01*
X0123250Y0011800D01*
X0128250Y0011800D01*
X0130750Y0014300D01*
X0113750Y0013800D02*
X0112750Y0013800D01*
X0113750Y0013800D02*
X0113750Y0014800D01*
X0113750Y0018800D02*
X0113750Y0019800D01*
X0112750Y0019800D01*
X0112750Y0023800D02*
X0113750Y0023800D01*
X0113750Y0024800D01*
X0113750Y0028800D02*
X0113750Y0029800D01*
X0112750Y0029800D01*
X0112750Y0033800D02*
X0113750Y0033800D01*
X0113750Y0034800D01*
X0113750Y0038800D02*
X0113750Y0039800D01*
X0112750Y0039800D01*
X0112750Y0043800D02*
X0113750Y0043800D01*
X0113750Y0044800D01*
X0113750Y0048800D02*
X0113750Y0049800D01*
X0112750Y0049800D01*
X0108750Y0049800D02*
X0107750Y0049800D01*
X0107750Y0048800D01*
X0103750Y0048800D02*
X0103750Y0049800D01*
X0102750Y0049800D01*
X0098750Y0049800D02*
X0097750Y0049800D01*
X0097750Y0048800D01*
X0093750Y0048800D02*
X0093750Y0049800D01*
X0092750Y0049800D01*
X0088750Y0049800D02*
X0087750Y0049800D01*
X0087750Y0048800D01*
X0083750Y0048800D02*
X0083750Y0049800D01*
X0082750Y0049800D01*
X0078750Y0049800D02*
X0077750Y0049800D01*
X0077750Y0048800D01*
X0073750Y0048800D02*
X0073750Y0049800D01*
X0072750Y0049800D01*
X0068750Y0049800D02*
X0067750Y0049800D01*
X0067750Y0048800D01*
X0063750Y0048800D02*
X0063750Y0049800D01*
X0062750Y0049800D01*
X0058750Y0049800D02*
X0057750Y0049800D01*
X0057750Y0048800D01*
X0053750Y0048800D02*
X0053750Y0049800D01*
X0052750Y0049800D01*
X0048750Y0049800D02*
X0047750Y0049800D01*
X0047750Y0048800D01*
X0043750Y0048800D02*
X0043750Y0049800D01*
X0042750Y0049800D01*
X0038750Y0049800D02*
X0037750Y0049800D01*
X0037750Y0048800D01*
X0033750Y0048800D02*
X0033750Y0049800D01*
X0032750Y0049800D01*
X0028750Y0049800D02*
X0027750Y0049800D01*
X0027750Y0048800D01*
X0027750Y0044800D02*
X0027750Y0043800D01*
X0028750Y0043800D01*
X0028750Y0039800D02*
X0027750Y0039800D01*
X0027750Y0038800D01*
X0027750Y0034800D02*
X0027750Y0033800D01*
X0028750Y0033800D01*
X0028750Y0029800D02*
X0027750Y0029800D01*
X0027750Y0028800D01*
X0027750Y0024800D02*
X0027750Y0023800D01*
X0028750Y0023800D01*
X0028750Y0019800D02*
X0027750Y0019800D01*
X0027750Y0018800D01*
X0027750Y0014800D02*
X0027750Y0013800D01*
X0028750Y0013800D01*
X0028750Y0009800D02*
X0027750Y0009800D01*
X0027750Y0008800D01*
X0027750Y0004800D02*
X0027750Y0003800D01*
X0028750Y0003800D01*
X0032750Y0003800D02*
X0033750Y0003800D01*
X0033750Y0004800D01*
X0037750Y0004800D02*
X0037750Y0003800D01*
X0038750Y0003800D01*
X0042750Y0003800D02*
X0043750Y0003800D01*
X0043750Y0004800D01*
X0047750Y0004800D02*
X0047750Y0003800D01*
X0048750Y0003800D01*
X0052750Y0003800D02*
X0053750Y0003800D01*
X0053750Y0004800D01*
X0057750Y0004800D02*
X0057750Y0003800D01*
X0058750Y0003800D01*
X0062750Y0003800D02*
X0063750Y0003800D01*
X0063750Y0004800D01*
X0067750Y0004800D02*
X0067750Y0003800D01*
X0068750Y0003800D01*
X0072750Y0003800D02*
X0073750Y0003800D01*
X0073750Y0004800D01*
X0077750Y0004800D02*
X0077750Y0003800D01*
X0078750Y0003800D01*
X0082750Y0003800D02*
X0083750Y0003800D01*
X0083750Y0004800D01*
X0087750Y0004800D02*
X0087750Y0003800D01*
X0088750Y0003800D01*
X0092750Y0003800D02*
X0093750Y0003800D01*
X0093750Y0004800D01*
X0097750Y0004800D02*
X0097750Y0003800D01*
X0098750Y0003800D01*
X0102750Y0003800D02*
X0103750Y0003800D01*
X0103750Y0004800D01*
X0107750Y0004800D02*
X0107750Y0003800D01*
X0108750Y0003800D01*
X0112750Y0003800D02*
X0113750Y0003800D01*
X0113750Y0004800D01*
X0113750Y0008800D02*
X0113750Y0009800D01*
X0112750Y0009800D01*
X0108750Y0009800D02*
X0107750Y0009800D01*
X0107750Y0008800D01*
X0103750Y0008800D02*
X0103750Y0009800D01*
X0102750Y0009800D01*
X0102750Y0013800D02*
X0103750Y0013800D01*
X0103750Y0014800D01*
X0103750Y0018800D02*
X0103750Y0019800D01*
X0102750Y0019800D01*
X0102750Y0023800D02*
X0103750Y0023800D01*
X0103750Y0024800D01*
X0103750Y0028800D02*
X0103750Y0029800D01*
X0102750Y0029800D01*
X0102750Y0033800D02*
X0103750Y0033800D01*
X0103750Y0034800D01*
X0103750Y0038800D02*
X0103750Y0039800D01*
X0102750Y0039800D01*
X0102750Y0043800D02*
X0103750Y0043800D01*
X0103750Y0044800D01*
X0107750Y0044800D02*
X0107750Y0043800D01*
X0108750Y0043800D01*
X0108750Y0039800D02*
X0107750Y0039800D01*
X0107750Y0038800D01*
X0107750Y0034800D02*
X0107750Y0033800D01*
X0108750Y0033800D01*
X0108750Y0029800D02*
X0107750Y0029800D01*
X0107750Y0028800D01*
X0107750Y0024800D02*
X0107750Y0023800D01*
X0108750Y0023800D01*
X0108750Y0019800D02*
X0107750Y0019800D01*
X0107750Y0018800D01*
X0107750Y0014800D02*
X0107750Y0013800D01*
X0108750Y0013800D01*
X0098750Y0013800D02*
X0097750Y0013800D01*
X0097750Y0014800D01*
X0093750Y0014800D02*
X0093750Y0013800D01*
X0092750Y0013800D01*
X0092750Y0009800D02*
X0093750Y0009800D01*
X0093750Y0008800D01*
X0097750Y0008800D02*
X0097750Y0009800D01*
X0098750Y0009800D01*
X0097750Y0018800D02*
X0097750Y0019800D01*
X0098750Y0019800D01*
X0098750Y0023800D02*
X0097750Y0023800D01*
X0097750Y0024800D01*
X0093750Y0024800D02*
X0093750Y0023800D01*
X0092750Y0023800D01*
X0092750Y0019800D02*
X0093750Y0019800D01*
X0093750Y0018800D01*
X0088750Y0019800D02*
X0087750Y0019800D01*
X0087750Y0018800D01*
X0087750Y0014800D02*
X0087750Y0013800D01*
X0088750Y0013800D01*
X0088750Y0009800D02*
X0087750Y0009800D01*
X0087750Y0008800D01*
X0083750Y0008800D02*
X0083750Y0009800D01*
X0082750Y0009800D01*
X0082750Y0013800D02*
X0083750Y0013800D01*
X0083750Y0014800D01*
X0083750Y0018800D02*
X0083750Y0019800D01*
X0082750Y0019800D01*
X0082750Y0023800D02*
X0083750Y0023800D01*
X0083750Y0024800D01*
X0083750Y0028800D02*
X0083750Y0029800D01*
X0082750Y0029800D01*
X0082750Y0033800D02*
X0083750Y0033800D01*
X0083750Y0034800D01*
X0083750Y0038800D02*
X0083750Y0039800D01*
X0082750Y0039800D01*
X0082750Y0043800D02*
X0083750Y0043800D01*
X0083750Y0044800D01*
X0087750Y0044800D02*
X0087750Y0043800D01*
X0088750Y0043800D01*
X0088750Y0039800D02*
X0087750Y0039800D01*
X0087750Y0038800D01*
X0087750Y0034800D02*
X0087750Y0033800D01*
X0088750Y0033800D01*
X0088750Y0029800D02*
X0087750Y0029800D01*
X0087750Y0028800D01*
X0087750Y0024800D02*
X0087750Y0023800D01*
X0088750Y0023800D01*
X0093750Y0028800D02*
X0093750Y0029800D01*
X0092750Y0029800D01*
X0092750Y0033800D02*
X0093750Y0033800D01*
X0093750Y0034800D01*
X0097750Y0034800D02*
X0097750Y0033800D01*
X0098750Y0033800D01*
X0098750Y0029800D02*
X0097750Y0029800D01*
X0097750Y0028800D01*
X0097750Y0038800D02*
X0097750Y0039800D01*
X0098750Y0039800D01*
X0098750Y0043800D02*
X0097750Y0043800D01*
X0097750Y0044800D01*
X0093750Y0044800D02*
X0093750Y0043800D01*
X0092750Y0043800D01*
X0092750Y0039800D02*
X0093750Y0039800D01*
X0093750Y0038800D01*
X0078750Y0039800D02*
X0077750Y0039800D01*
X0077750Y0038800D01*
X0077750Y0034800D02*
X0077750Y0033800D01*
X0078750Y0033800D01*
X0078750Y0029800D02*
X0077750Y0029800D01*
X0077750Y0028800D01*
X0077750Y0024800D02*
X0077750Y0023800D01*
X0078750Y0023800D01*
X0078750Y0019800D02*
X0077750Y0019800D01*
X0077750Y0018800D01*
X0077750Y0014800D02*
X0077750Y0013800D01*
X0078750Y0013800D01*
X0078750Y0009800D02*
X0077750Y0009800D01*
X0077750Y0008800D01*
X0073750Y0008800D02*
X0073750Y0009800D01*
X0072750Y0009800D01*
X0068750Y0009800D02*
X0067750Y0009800D01*
X0067750Y0008800D01*
X0063750Y0008800D02*
X0063750Y0009800D01*
X0062750Y0009800D01*
X0062750Y0013800D02*
X0063750Y0013800D01*
X0063750Y0014800D01*
X0063750Y0018800D02*
X0063750Y0019800D01*
X0062750Y0019800D01*
X0062750Y0023800D02*
X0063750Y0023800D01*
X0063750Y0024800D01*
X0063750Y0028800D02*
X0063750Y0029800D01*
X0062750Y0029800D01*
X0062750Y0033800D02*
X0063750Y0033800D01*
X0063750Y0034800D01*
X0063750Y0038800D02*
X0063750Y0039800D01*
X0062750Y0039800D01*
X0062750Y0043800D02*
X0063750Y0043800D01*
X0063750Y0044800D01*
X0067750Y0044800D02*
X0067750Y0043800D01*
X0068750Y0043800D01*
X0072750Y0043800D02*
X0073750Y0043800D01*
X0073750Y0044800D01*
X0077750Y0044800D02*
X0077750Y0043800D01*
X0078750Y0043800D01*
X0073750Y0039800D02*
X0073750Y0038800D01*
X0073750Y0039800D02*
X0072750Y0039800D01*
X0068750Y0039800D02*
X0067750Y0039800D01*
X0067750Y0038800D01*
X0067750Y0034800D02*
X0067750Y0033800D01*
X0068750Y0033800D01*
X0072750Y0033800D02*
X0073750Y0033800D01*
X0073750Y0034800D01*
X0073750Y0029800D02*
X0072750Y0029800D01*
X0073750Y0029800D02*
X0073750Y0028800D01*
X0073750Y0024800D02*
X0073750Y0023800D01*
X0072750Y0023800D01*
X0068750Y0023800D02*
X0067750Y0023800D01*
X0067750Y0024800D01*
X0067750Y0028800D02*
X0067750Y0029800D01*
X0068750Y0029800D01*
X0068750Y0019800D02*
X0067750Y0019800D01*
X0067750Y0018800D01*
X0067750Y0014800D02*
X0067750Y0013800D01*
X0068750Y0013800D01*
X0072750Y0013800D02*
X0073750Y0013800D01*
X0073750Y0014800D01*
X0073750Y0018800D02*
X0073750Y0019800D01*
X0072750Y0019800D01*
X0058750Y0019800D02*
X0057750Y0019800D01*
X0057750Y0018800D01*
X0057750Y0014800D02*
X0057750Y0013800D01*
X0058750Y0013800D01*
X0058750Y0009800D02*
X0057750Y0009800D01*
X0057750Y0008800D01*
X0053750Y0008800D02*
X0053750Y0009800D01*
X0052750Y0009800D01*
X0052750Y0013800D02*
X0053750Y0013800D01*
X0053750Y0014800D01*
X0053750Y0018800D02*
X0053750Y0019800D01*
X0052750Y0019800D01*
X0052750Y0023800D02*
X0053750Y0023800D01*
X0053750Y0024800D01*
X0053750Y0028800D02*
X0053750Y0029800D01*
X0052750Y0029800D01*
X0052750Y0033800D02*
X0053750Y0033800D01*
X0053750Y0034800D01*
X0053750Y0038800D02*
X0053750Y0039800D01*
X0052750Y0039800D01*
X0052750Y0043800D02*
X0053750Y0043800D01*
X0053750Y0044800D01*
X0057750Y0044800D02*
X0057750Y0043800D01*
X0058750Y0043800D01*
X0058750Y0039800D02*
X0057750Y0039800D01*
X0057750Y0038800D01*
X0057750Y0034800D02*
X0057750Y0033800D01*
X0058750Y0033800D01*
X0058750Y0029800D02*
X0057750Y0029800D01*
X0057750Y0028800D01*
X0057750Y0024800D02*
X0057750Y0023800D01*
X0058750Y0023800D01*
X0048750Y0023800D02*
X0047750Y0023800D01*
X0047750Y0024800D01*
X0047750Y0028800D02*
X0047750Y0029800D01*
X0048750Y0029800D01*
X0048750Y0033800D02*
X0047750Y0033800D01*
X0047750Y0034800D01*
X0047750Y0038800D02*
X0047750Y0039800D01*
X0048750Y0039800D01*
X0048750Y0043800D02*
X0047750Y0043800D01*
X0047750Y0044800D01*
X0043750Y0044800D02*
X0043750Y0043800D01*
X0042750Y0043800D01*
X0042750Y0039800D02*
X0043750Y0039800D01*
X0043750Y0038800D01*
X0043750Y0034800D02*
X0043750Y0033800D01*
X0042750Y0033800D01*
X0042750Y0029800D02*
X0043750Y0029800D01*
X0043750Y0028800D01*
X0043750Y0024800D02*
X0043750Y0023800D01*
X0042750Y0023800D01*
X0042750Y0019800D02*
X0043750Y0019800D01*
X0043750Y0018800D01*
X0043750Y0014800D02*
X0043750Y0013800D01*
X0042750Y0013800D01*
X0042750Y0009800D02*
X0043750Y0009800D01*
X0043750Y0008800D01*
X0047750Y0008800D02*
X0047750Y0009800D01*
X0048750Y0009800D01*
X0048750Y0013800D02*
X0047750Y0013800D01*
X0047750Y0014800D01*
X0047750Y0018800D02*
X0047750Y0019800D01*
X0048750Y0019800D01*
X0038750Y0019800D02*
X0037750Y0019800D01*
X0037750Y0018800D01*
X0033750Y0018800D02*
X0033750Y0019800D01*
X0032750Y0019800D01*
X0032750Y0023800D02*
X0033750Y0023800D01*
X0033750Y0024800D01*
X0037750Y0024800D02*
X0037750Y0023800D01*
X0038750Y0023800D01*
X0037750Y0028800D02*
X0037750Y0029800D01*
X0038750Y0029800D01*
X0038750Y0033800D02*
X0037750Y0033800D01*
X0037750Y0034800D01*
X0033750Y0034800D02*
X0033750Y0033800D01*
X0032750Y0033800D01*
X0032750Y0029800D02*
X0033750Y0029800D01*
X0033750Y0028800D01*
X0033750Y0038800D02*
X0033750Y0039800D01*
X0032750Y0039800D01*
X0032750Y0043800D02*
X0033750Y0043800D01*
X0033750Y0044800D01*
X0037750Y0044800D02*
X0037750Y0043800D01*
X0038750Y0043800D01*
X0038750Y0039800D02*
X0037750Y0039800D01*
X0037750Y0038800D01*
X0037750Y0053800D02*
X0037750Y0054800D01*
X0037750Y0053800D02*
X0038750Y0053800D01*
X0042750Y0053800D02*
X0043750Y0053800D01*
X0043750Y0054800D01*
X0043750Y0058800D02*
X0043750Y0059800D01*
X0042750Y0059800D01*
X0042750Y0063800D02*
X0043750Y0063800D01*
X0043750Y0064800D01*
X0043750Y0068800D02*
X0043750Y0069800D01*
X0042750Y0069800D01*
X0042750Y0073800D02*
X0043750Y0073800D01*
X0043750Y0074800D01*
X0043750Y0078800D02*
X0043750Y0079800D01*
X0042750Y0079800D01*
X0042750Y0083800D02*
X0043750Y0083800D01*
X0043750Y0084800D01*
X0043750Y0088800D02*
X0043750Y0089800D01*
X0042750Y0089800D01*
X0038750Y0089800D02*
X0037750Y0089800D01*
X0037750Y0088800D01*
X0033750Y0088800D02*
X0033750Y0089800D01*
X0032750Y0089800D01*
X0028750Y0089800D02*
X0027750Y0089800D01*
X0027750Y0088800D01*
X0027750Y0084800D02*
X0027750Y0083800D01*
X0028750Y0083800D01*
X0028750Y0079800D02*
X0027750Y0079800D01*
X0027750Y0078800D01*
X0027750Y0074800D02*
X0027750Y0073800D01*
X0028750Y0073800D01*
X0028750Y0069800D02*
X0027750Y0069800D01*
X0027750Y0068800D01*
X0027750Y0064800D02*
X0027750Y0063800D01*
X0028750Y0063800D01*
X0028750Y0059800D02*
X0027750Y0059800D01*
X0027750Y0058800D01*
X0027750Y0054800D02*
X0027750Y0053800D01*
X0028750Y0053800D01*
X0032750Y0053800D02*
X0033750Y0053800D01*
X0033750Y0054800D01*
X0033750Y0058800D02*
X0033750Y0059800D01*
X0032750Y0059800D01*
X0032750Y0063800D02*
X0033750Y0063800D01*
X0033750Y0064800D01*
X0037750Y0064800D02*
X0037750Y0063800D01*
X0038750Y0063800D01*
X0038750Y0059800D02*
X0037750Y0059800D01*
X0037750Y0058800D01*
X0037750Y0068800D02*
X0037750Y0069800D01*
X0038750Y0069800D01*
X0038750Y0073800D02*
X0037750Y0073800D01*
X0037750Y0074800D01*
X0033750Y0074800D02*
X0033750Y0073800D01*
X0032750Y0073800D01*
X0032750Y0069800D02*
X0033750Y0069800D01*
X0033750Y0068800D01*
X0033750Y0078800D02*
X0033750Y0079800D01*
X0032750Y0079800D01*
X0032750Y0083800D02*
X0033750Y0083800D01*
X0033750Y0084800D01*
X0037750Y0084800D02*
X0037750Y0083800D01*
X0038750Y0083800D01*
X0038750Y0079800D02*
X0037750Y0079800D01*
X0037750Y0078800D01*
X0047750Y0078800D02*
X0047750Y0079800D01*
X0048750Y0079800D01*
X0048750Y0083800D02*
X0047750Y0083800D01*
X0047750Y0084800D01*
X0047750Y0088800D02*
X0047750Y0089800D01*
X0048750Y0089800D01*
X0052750Y0089800D02*
X0053750Y0089800D01*
X0053750Y0088800D01*
X0053750Y0084800D02*
X0053750Y0083800D01*
X0052750Y0083800D01*
X0052750Y0079800D02*
X0053750Y0079800D01*
X0053750Y0078800D01*
X0053750Y0074800D02*
X0053750Y0073800D01*
X0052750Y0073800D01*
X0052750Y0069800D02*
X0053750Y0069800D01*
X0053750Y0068800D01*
X0053750Y0064800D02*
X0053750Y0063800D01*
X0052750Y0063800D01*
X0052750Y0059800D02*
X0053750Y0059800D01*
X0053750Y0058800D01*
X0053750Y0054800D02*
X0053750Y0053800D01*
X0052750Y0053800D01*
X0048750Y0053800D02*
X0047750Y0053800D01*
X0047750Y0054800D01*
X0047750Y0058800D02*
X0047750Y0059800D01*
X0048750Y0059800D01*
X0048750Y0063800D02*
X0047750Y0063800D01*
X0047750Y0064800D01*
X0047750Y0068800D02*
X0047750Y0069800D01*
X0048750Y0069800D01*
X0048750Y0073800D02*
X0047750Y0073800D01*
X0047750Y0074800D01*
X0057750Y0074800D02*
X0057750Y0073800D01*
X0058750Y0073800D01*
X0058750Y0069800D02*
X0057750Y0069800D01*
X0057750Y0068800D01*
X0057750Y0064800D02*
X0057750Y0063800D01*
X0058750Y0063800D01*
X0058750Y0059800D02*
X0057750Y0059800D01*
X0057750Y0058800D01*
X0057750Y0054800D02*
X0057750Y0053800D01*
X0058750Y0053800D01*
X0062750Y0053800D02*
X0063750Y0053800D01*
X0063750Y0054800D01*
X0063750Y0058800D02*
X0063750Y0059800D01*
X0062750Y0059800D01*
X0062750Y0063800D02*
X0063750Y0063800D01*
X0063750Y0064800D01*
X0063750Y0068800D02*
X0063750Y0069800D01*
X0062750Y0069800D01*
X0062750Y0073800D02*
X0063750Y0073800D01*
X0063750Y0074800D01*
X0063750Y0078800D02*
X0063750Y0079800D01*
X0062750Y0079800D01*
X0062750Y0083800D02*
X0063750Y0083800D01*
X0063750Y0084800D01*
X0063750Y0088800D02*
X0063750Y0089800D01*
X0062750Y0089800D01*
X0058750Y0089800D02*
X0057750Y0089800D01*
X0057750Y0088800D01*
X0057750Y0084800D02*
X0057750Y0083800D01*
X0058750Y0083800D01*
X0058750Y0079800D02*
X0057750Y0079800D01*
X0057750Y0078800D01*
X0067750Y0078800D02*
X0067750Y0079800D01*
X0068750Y0079800D01*
X0072750Y0079800D02*
X0073750Y0079800D01*
X0073750Y0078800D01*
X0073750Y0074800D02*
X0073750Y0073800D01*
X0072750Y0073800D01*
X0068750Y0073800D02*
X0067750Y0073800D01*
X0067750Y0074800D01*
X0067750Y0069800D02*
X0067750Y0068800D01*
X0067750Y0069800D02*
X0068750Y0069800D01*
X0072750Y0069800D02*
X0073750Y0069800D01*
X0073750Y0068800D01*
X0073750Y0064800D02*
X0073750Y0063800D01*
X0072750Y0063800D01*
X0068750Y0063800D02*
X0067750Y0063800D01*
X0067750Y0064800D01*
X0067750Y0059800D02*
X0067750Y0058800D01*
X0067750Y0059800D02*
X0068750Y0059800D01*
X0072750Y0059800D02*
X0073750Y0059800D01*
X0073750Y0058800D01*
X0073750Y0054800D02*
X0073750Y0053800D01*
X0072750Y0053800D01*
X0068750Y0053800D02*
X0067750Y0053800D01*
X0067750Y0054800D01*
X0077750Y0054800D02*
X0077750Y0053800D01*
X0078750Y0053800D01*
X0082750Y0053800D02*
X0083750Y0053800D01*
X0083750Y0054800D01*
X0083750Y0058800D02*
X0083750Y0059800D01*
X0082750Y0059800D01*
X0082750Y0063800D02*
X0083750Y0063800D01*
X0083750Y0064800D01*
X0083750Y0068800D02*
X0083750Y0069800D01*
X0082750Y0069800D01*
X0082750Y0073800D02*
X0083750Y0073800D01*
X0083750Y0074800D01*
X0083750Y0078800D02*
X0083750Y0079800D01*
X0082750Y0079800D01*
X0082750Y0083800D02*
X0083750Y0083800D01*
X0083750Y0084800D01*
X0083750Y0088800D02*
X0083750Y0089800D01*
X0082750Y0089800D01*
X0078750Y0089800D02*
X0077750Y0089800D01*
X0077750Y0088800D01*
X0077750Y0084800D02*
X0077750Y0083800D01*
X0078750Y0083800D01*
X0078750Y0079800D02*
X0077750Y0079800D01*
X0077750Y0078800D01*
X0077750Y0074800D02*
X0077750Y0073800D01*
X0078750Y0073800D01*
X0078750Y0069800D02*
X0077750Y0069800D01*
X0077750Y0068800D01*
X0077750Y0064800D02*
X0077750Y0063800D01*
X0078750Y0063800D01*
X0078750Y0059800D02*
X0077750Y0059800D01*
X0077750Y0058800D01*
X0087750Y0058800D02*
X0087750Y0059800D01*
X0088750Y0059800D01*
X0088750Y0063800D02*
X0087750Y0063800D01*
X0087750Y0064800D01*
X0087750Y0068800D02*
X0087750Y0069800D01*
X0088750Y0069800D01*
X0088750Y0073800D02*
X0087750Y0073800D01*
X0087750Y0074800D01*
X0087750Y0078800D02*
X0087750Y0079800D01*
X0088750Y0079800D01*
X0088750Y0083800D02*
X0087750Y0083800D01*
X0087750Y0084800D01*
X0087750Y0088800D02*
X0087750Y0089800D01*
X0088750Y0089800D01*
X0092750Y0089800D02*
X0093750Y0089800D01*
X0093750Y0088800D01*
X0097750Y0088800D02*
X0097750Y0089800D01*
X0098750Y0089800D01*
X0102750Y0089800D02*
X0103750Y0089800D01*
X0103750Y0088800D01*
X0103750Y0084800D02*
X0103750Y0083800D01*
X0102750Y0083800D01*
X0102750Y0079800D02*
X0103750Y0079800D01*
X0103750Y0078800D01*
X0103750Y0074800D02*
X0103750Y0073800D01*
X0102750Y0073800D01*
X0102750Y0069800D02*
X0103750Y0069800D01*
X0103750Y0068800D01*
X0103750Y0064800D02*
X0103750Y0063800D01*
X0102750Y0063800D01*
X0102750Y0059800D02*
X0103750Y0059800D01*
X0103750Y0058800D01*
X0103750Y0054800D02*
X0103750Y0053800D01*
X0102750Y0053800D01*
X0098750Y0053800D02*
X0097750Y0053800D01*
X0097750Y0054800D01*
X0093750Y0054800D02*
X0093750Y0053800D01*
X0092750Y0053800D01*
X0088750Y0053800D02*
X0087750Y0053800D01*
X0087750Y0054800D01*
X0092750Y0059800D02*
X0093750Y0059800D01*
X0093750Y0058800D01*
X0097750Y0058800D02*
X0097750Y0059800D01*
X0098750Y0059800D01*
X0098750Y0063800D02*
X0097750Y0063800D01*
X0097750Y0064800D01*
X0093750Y0064800D02*
X0093750Y0063800D01*
X0092750Y0063800D01*
X0093750Y0068800D02*
X0093750Y0069800D01*
X0092750Y0069800D01*
X0092750Y0073800D02*
X0093750Y0073800D01*
X0093750Y0074800D01*
X0097750Y0074800D02*
X0097750Y0073800D01*
X0098750Y0073800D01*
X0098750Y0069800D02*
X0097750Y0069800D01*
X0097750Y0068800D01*
X0097750Y0078800D02*
X0097750Y0079800D01*
X0098750Y0079800D01*
X0098750Y0083800D02*
X0097750Y0083800D01*
X0097750Y0084800D01*
X0093750Y0084800D02*
X0093750Y0083800D01*
X0092750Y0083800D01*
X0092750Y0079800D02*
X0093750Y0079800D01*
X0093750Y0078800D01*
X0107750Y0078800D02*
X0107750Y0079800D01*
X0108750Y0079800D01*
X0108750Y0083800D02*
X0107750Y0083800D01*
X0107750Y0084800D01*
X0107750Y0088800D02*
X0107750Y0089800D01*
X0108750Y0089800D01*
X0112750Y0089800D02*
X0113750Y0089800D01*
X0113750Y0088800D01*
X0113750Y0084800D02*
X0113750Y0083800D01*
X0112750Y0083800D01*
X0112750Y0079800D02*
X0113750Y0079800D01*
X0113750Y0078800D01*
X0113750Y0074800D02*
X0113750Y0073800D01*
X0112750Y0073800D01*
X0112750Y0069800D02*
X0113750Y0069800D01*
X0113750Y0068800D01*
X0113750Y0064800D02*
X0113750Y0063800D01*
X0112750Y0063800D01*
X0112750Y0059800D02*
X0113750Y0059800D01*
X0113750Y0058800D01*
X0113750Y0054800D02*
X0113750Y0053800D01*
X0112750Y0053800D01*
X0108750Y0053800D02*
X0107750Y0053800D01*
X0107750Y0054800D01*
X0107750Y0058800D02*
X0107750Y0059800D01*
X0108750Y0059800D01*
X0108750Y0063800D02*
X0107750Y0063800D01*
X0107750Y0064800D01*
X0107750Y0068800D02*
X0107750Y0069800D01*
X0108750Y0069800D01*
X0108750Y0073800D02*
X0107750Y0073800D01*
X0107750Y0074800D01*
X0107750Y0093800D02*
X0107750Y0094800D01*
X0107750Y0093800D02*
X0108750Y0093800D01*
X0112750Y0093800D02*
X0113750Y0093800D01*
X0113750Y0094800D01*
X0117750Y0094800D02*
X0117750Y0093800D01*
X0118750Y0093800D01*
X0122750Y0093800D02*
X0123750Y0093800D01*
X0123750Y0094800D01*
X0123750Y0098800D02*
X0123750Y0099800D01*
X0122750Y0099800D01*
X0118750Y0099800D02*
X0117750Y0099800D01*
X0117750Y0098800D01*
X0113750Y0098800D02*
X0113750Y0099800D01*
X0112750Y0099800D01*
X0108750Y0099800D02*
X0107750Y0099800D01*
X0107750Y0098800D01*
X0103750Y0098800D02*
X0103750Y0099800D01*
X0102750Y0099800D01*
X0098750Y0099800D02*
X0097750Y0099800D01*
X0097750Y0098800D01*
X0093750Y0098800D02*
X0093750Y0099800D01*
X0092750Y0099800D01*
X0088750Y0099800D02*
X0087750Y0099800D01*
X0087750Y0098800D01*
X0083750Y0098800D02*
X0083750Y0099800D01*
X0082750Y0099800D01*
X0078750Y0099800D02*
X0077750Y0099800D01*
X0077750Y0098800D01*
X0073750Y0098800D02*
X0073750Y0099800D01*
X0072750Y0099800D01*
X0068750Y0099800D02*
X0067750Y0099800D01*
X0067750Y0098800D01*
X0063750Y0098800D02*
X0063750Y0099800D01*
X0062750Y0099800D01*
X0058750Y0099800D02*
X0057750Y0099800D01*
X0057750Y0098800D01*
X0053750Y0098800D02*
X0053750Y0099800D01*
X0052750Y0099800D01*
X0048750Y0099800D02*
X0047750Y0099800D01*
X0047750Y0098800D01*
X0043750Y0098800D02*
X0043750Y0099800D01*
X0042750Y0099800D01*
X0038750Y0099800D02*
X0037750Y0099800D01*
X0037750Y0098800D01*
X0033750Y0098800D02*
X0033750Y0099800D01*
X0032750Y0099800D01*
X0028750Y0099800D02*
X0027750Y0099800D01*
X0027750Y0098800D01*
X0023750Y0098800D02*
X0023750Y0099800D01*
X0022750Y0099800D01*
X0018750Y0099800D02*
X0017750Y0099800D01*
X0017750Y0098800D01*
X0017750Y0094800D02*
X0017750Y0093800D01*
X0018750Y0093800D01*
X0017000Y0091800D02*
X0019500Y0089300D01*
X0019500Y0084300D01*
X0017000Y0081800D01*
X0019500Y0079300D01*
X0019500Y0074300D01*
X0017000Y0071800D01*
X0019500Y0069300D01*
X0019500Y0064300D01*
X0017000Y0061800D01*
X0019500Y0059300D01*
X0019500Y0054300D01*
X0017000Y0051800D01*
X0019500Y0049300D01*
X0019500Y0044300D01*
X0017000Y0041800D01*
X0019500Y0039300D01*
X0019500Y0034300D01*
X0017000Y0031800D01*
X0019500Y0029300D01*
X0019500Y0024300D01*
X0017000Y0021800D01*
X0019500Y0019300D01*
X0019500Y0014300D01*
X0017000Y0011800D01*
X0012000Y0011800D01*
X0009500Y0014300D01*
X0009500Y0019300D01*
X0012000Y0021800D01*
X0009500Y0024300D01*
X0009500Y0029300D01*
X0012000Y0031800D01*
X0009500Y0034300D01*
X0009500Y0039300D01*
X0012000Y0041800D01*
X0009500Y0044300D01*
X0009500Y0049300D01*
X0012000Y0051800D01*
X0009500Y0054300D01*
X0009500Y0059300D01*
X0012000Y0061800D01*
X0009500Y0064300D01*
X0009500Y0069300D01*
X0012000Y0071800D01*
X0009500Y0074300D01*
X0009500Y0079300D01*
X0012000Y0081800D01*
X0009500Y0084300D01*
X0009500Y0089300D01*
X0012000Y0091800D01*
X0017000Y0091800D01*
X0022750Y0093800D02*
X0023750Y0093800D01*
X0023750Y0094800D01*
X0027750Y0094800D02*
X0027750Y0093800D01*
X0028750Y0093800D01*
X0032750Y0093800D02*
X0033750Y0093800D01*
X0033750Y0094800D01*
X0037750Y0094800D02*
X0037750Y0093800D01*
X0038750Y0093800D01*
X0042750Y0093800D02*
X0043750Y0093800D01*
X0043750Y0094800D01*
X0047750Y0094800D02*
X0047750Y0093800D01*
X0048750Y0093800D01*
X0052750Y0093800D02*
X0053750Y0093800D01*
X0053750Y0094800D01*
X0057750Y0094800D02*
X0057750Y0093800D01*
X0058750Y0093800D01*
X0062750Y0093800D02*
X0063750Y0093800D01*
X0063750Y0094800D01*
X0067750Y0094800D02*
X0067750Y0093800D01*
X0068750Y0093800D01*
X0072750Y0093800D02*
X0073750Y0093800D01*
X0073750Y0094800D01*
X0077750Y0094800D02*
X0077750Y0093800D01*
X0078750Y0093800D01*
X0082750Y0093800D02*
X0083750Y0093800D01*
X0083750Y0094800D01*
X0087750Y0094800D02*
X0087750Y0093800D01*
X0088750Y0093800D01*
X0092750Y0093800D02*
X0093750Y0093800D01*
X0093750Y0094800D01*
X0097750Y0094800D02*
X0097750Y0093800D01*
X0098750Y0093800D01*
X0102750Y0093800D02*
X0103750Y0093800D01*
X0103750Y0094800D01*
X0103750Y0103800D02*
X0102750Y0103800D01*
X0103750Y0103800D02*
X0103750Y0104800D01*
X0103750Y0108800D02*
X0103750Y0109800D01*
X0102750Y0109800D01*
X0098750Y0109800D02*
X0097750Y0109800D01*
X0097750Y0108800D01*
X0093750Y0108800D02*
X0093750Y0109800D01*
X0092750Y0109800D01*
X0088750Y0109800D02*
X0087750Y0109800D01*
X0087750Y0108800D01*
X0087750Y0104800D02*
X0087750Y0103800D01*
X0088750Y0103800D01*
X0092750Y0103800D02*
X0093750Y0103800D01*
X0093750Y0104800D01*
X0097750Y0104800D02*
X0097750Y0103800D01*
X0098750Y0103800D01*
X0107750Y0103800D02*
X0107750Y0104800D01*
X0107750Y0103800D02*
X0108750Y0103800D01*
X0112750Y0103800D02*
X0113750Y0103800D01*
X0113750Y0104800D01*
X0113750Y0108800D02*
X0113750Y0109800D01*
X0112750Y0109800D01*
X0108750Y0109800D02*
X0107750Y0109800D01*
X0107750Y0108800D01*
X0117750Y0108800D02*
X0117750Y0109800D01*
X0118750Y0109800D01*
X0122750Y0109800D02*
X0123750Y0109800D01*
X0123750Y0108800D01*
X0123750Y0104800D02*
X0123750Y0103800D01*
X0122750Y0103800D01*
X0118750Y0103800D02*
X0117750Y0103800D01*
X0117750Y0104800D01*
X0083750Y0104800D02*
X0083750Y0103800D01*
X0082750Y0103800D01*
X0078750Y0103800D02*
X0077750Y0103800D01*
X0077750Y0104800D01*
X0077750Y0108800D02*
X0077750Y0109800D01*
X0078750Y0109800D01*
X0082750Y0109800D02*
X0083750Y0109800D01*
X0083750Y0108800D01*
X0073750Y0108800D02*
X0073750Y0109800D01*
X0072750Y0109800D01*
X0068750Y0109800D02*
X0067750Y0109800D01*
X0067750Y0108800D01*
X0067750Y0104800D02*
X0067750Y0103800D01*
X0068750Y0103800D01*
X0072750Y0103800D02*
X0073750Y0103800D01*
X0073750Y0104800D01*
X0063750Y0104800D02*
X0063750Y0103800D01*
X0062750Y0103800D01*
X0058750Y0103800D02*
X0057750Y0103800D01*
X0057750Y0104800D01*
X0057750Y0108800D02*
X0057750Y0109800D01*
X0058750Y0109800D01*
X0062750Y0109800D02*
X0063750Y0109800D01*
X0063750Y0108800D01*
X0053750Y0108800D02*
X0053750Y0109800D01*
X0052750Y0109800D01*
X0048750Y0109800D02*
X0047750Y0109800D01*
X0047750Y0108800D01*
X0047750Y0104800D02*
X0047750Y0103800D01*
X0048750Y0103800D01*
X0052750Y0103800D02*
X0053750Y0103800D01*
X0053750Y0104800D01*
X0043750Y0104800D02*
X0043750Y0103800D01*
X0042750Y0103800D01*
X0038750Y0103800D02*
X0037750Y0103800D01*
X0037750Y0104800D01*
X0033750Y0104800D02*
X0033750Y0103800D01*
X0032750Y0103800D01*
X0028750Y0103800D02*
X0027750Y0103800D01*
X0027750Y0104800D01*
X0027750Y0108800D02*
X0027750Y0109800D01*
X0028750Y0109800D01*
X0032750Y0109800D02*
X0033750Y0109800D01*
X0033750Y0108800D01*
X0037750Y0108800D02*
X0037750Y0109800D01*
X0038750Y0109800D01*
X0042750Y0109800D02*
X0043750Y0109800D01*
X0043750Y0108800D01*
X0023750Y0108800D02*
X0023750Y0109800D01*
X0022750Y0109800D01*
X0018750Y0109800D02*
X0017750Y0109800D01*
X0017750Y0108800D01*
X0017750Y0104800D02*
X0017750Y0103800D01*
X0018750Y0103800D01*
X0022750Y0103800D02*
X0023750Y0103800D01*
X0023750Y0104800D01*
X0067750Y0089800D02*
X0067750Y0088800D01*
X0067750Y0089800D02*
X0068750Y0089800D01*
X0072750Y0089800D02*
X0073750Y0089800D01*
X0073750Y0088800D01*
X0073750Y0084800D02*
X0073750Y0083800D01*
X0072750Y0083800D01*
X0068750Y0083800D02*
X0067750Y0083800D01*
X0067750Y0084800D01*
X0037750Y0014800D02*
X0037750Y0013800D01*
X0038750Y0013800D01*
X0038750Y0009800D02*
X0037750Y0009800D01*
X0037750Y0008800D01*
X0033750Y0008800D02*
X0033750Y0009800D01*
X0032750Y0009800D01*
X0032750Y0013800D02*
X0033750Y0013800D01*
X0033750Y0014800D01*
M02*
