G75*
%MOIN*%
%OFA0B0*%
%FSLAX25Y25*%
%IPPOS*%
%LPD*%
%AMOC8*
5,1,8,0,0,1.08239X$1,22.5*
%
%ADD10C,0.01600*%
%ADD11C,0.06000*%
%ADD12OC8,0.06300*%
%ADD13C,0.06300*%
%ADD14R,0.07100X0.04400*%
%ADD15R,0.06400X0.08600*%
%ADD16R,0.11800X0.29500*%
%ADD17R,0.07800X0.02200*%
%ADD18R,0.05118X0.05906*%
%ADD19R,0.05906X0.05118*%
%ADD20C,0.07050*%
%ADD21OC8,0.06000*%
%ADD22C,0.03962*%
%ADD23C,0.01000*%
D10*
X0008250Y0001800D02*
X0008250Y0119910D01*
X0132266Y0119910D01*
X0132266Y0001800D01*
X0008250Y0001800D01*
X0013850Y0007400D02*
X0013850Y0012000D01*
X0014300Y0012000D01*
X0014300Y0016600D01*
X0014700Y0016600D01*
X0014700Y0017000D01*
X0014300Y0017000D01*
X0014300Y0021600D01*
X0013850Y0021600D01*
X0013850Y0022200D01*
X0018415Y0022200D01*
X0020106Y0022900D01*
X0021400Y0024194D01*
X0022100Y0025885D01*
X0022100Y0027715D01*
X0021400Y0029406D01*
X0020106Y0030700D01*
X0018415Y0031400D01*
X0013850Y0031400D01*
X0013850Y0032200D01*
X0018415Y0032200D01*
X0020106Y0032900D01*
X0021400Y0034194D01*
X0022100Y0035885D01*
X0022100Y0037715D01*
X0021400Y0039406D01*
X0020106Y0040700D01*
X0018415Y0041400D01*
X0013850Y0041400D01*
X0013850Y0042200D01*
X0018415Y0042200D01*
X0020106Y0042900D01*
X0021400Y0044194D01*
X0022100Y0045885D01*
X0022100Y0047715D01*
X0021400Y0049406D01*
X0020106Y0050700D01*
X0018415Y0051400D01*
X0013850Y0051400D01*
X0013850Y0052200D01*
X0018415Y0052200D01*
X0020106Y0052900D01*
X0021400Y0054194D01*
X0022100Y0055885D01*
X0022100Y0057715D01*
X0021400Y0059406D01*
X0020106Y0060700D01*
X0018415Y0061400D01*
X0013850Y0061400D01*
X0013850Y0061800D01*
X0044030Y0061800D01*
X0043630Y0061400D01*
X0042400Y0060170D01*
X0042400Y0058853D01*
X0041288Y0058853D01*
X0040351Y0057915D01*
X0040351Y0056400D01*
X0038649Y0056400D01*
X0038649Y0057915D01*
X0037712Y0058853D01*
X0031268Y0058853D01*
X0030891Y0058476D01*
X0030674Y0058693D01*
X0030264Y0058930D01*
X0029806Y0059053D01*
X0027489Y0059053D01*
X0027489Y0054780D01*
X0026530Y0054780D01*
X0026530Y0059053D01*
X0024214Y0059053D01*
X0023756Y0058930D01*
X0023346Y0058693D01*
X0023010Y0058358D01*
X0022773Y0057948D01*
X0022651Y0057490D01*
X0022651Y0054780D01*
X0026530Y0054780D01*
X0026530Y0053820D01*
X0027489Y0053820D01*
X0027489Y0049547D01*
X0029806Y0049547D01*
X0030264Y0049670D01*
X0030674Y0049907D01*
X0030891Y0050124D01*
X0031268Y0049747D01*
X0037712Y0049747D01*
X0038649Y0050684D01*
X0038649Y0052200D01*
X0040351Y0052200D01*
X0040351Y0050684D01*
X0041288Y0049747D01*
X0047732Y0049747D01*
X0048250Y0050266D01*
X0048768Y0049747D01*
X0050850Y0049747D01*
X0050850Y0049464D01*
X0050214Y0048829D01*
X0049669Y0047512D01*
X0049669Y0046088D01*
X0050214Y0044771D01*
X0051221Y0043764D01*
X0052538Y0043219D01*
X0053962Y0043219D01*
X0055279Y0043764D01*
X0056286Y0044771D01*
X0056831Y0046088D01*
X0056831Y0047512D01*
X0056286Y0048829D01*
X0055814Y0049300D01*
X0082000Y0049300D01*
X0082000Y0007400D01*
X0013850Y0007400D01*
X0013850Y0008194D02*
X0082000Y0008194D01*
X0082000Y0009793D02*
X0013850Y0009793D01*
X0013850Y0011391D02*
X0082000Y0011391D01*
X0082000Y0012990D02*
X0020422Y0012990D01*
X0020627Y0013139D02*
X0021161Y0013673D01*
X0021605Y0014284D01*
X0021948Y0014957D01*
X0022182Y0015676D01*
X0022300Y0016422D01*
X0022300Y0016600D01*
X0014700Y0016600D01*
X0014700Y0012000D01*
X0017878Y0012000D01*
X0018624Y0012118D01*
X0019343Y0012352D01*
X0020016Y0012695D01*
X0020627Y0013139D01*
X0021760Y0014588D02*
X0082000Y0014588D01*
X0080740Y0015945D02*
X0080977Y0016355D01*
X0081100Y0016813D01*
X0081100Y0031000D01*
X0074200Y0031000D01*
X0074200Y0032600D01*
X0081100Y0032600D01*
X0081100Y0046787D01*
X0080977Y0047245D01*
X0080740Y0047655D01*
X0080405Y0047990D01*
X0079995Y0048227D01*
X0079537Y0048350D01*
X0074200Y0048350D01*
X0074200Y0032600D01*
X0072600Y0032600D01*
X0072600Y0048350D01*
X0067263Y0048350D01*
X0066805Y0048227D01*
X0066395Y0047990D01*
X0066060Y0047655D01*
X0065823Y0047245D01*
X0065700Y0046787D01*
X0065700Y0032600D01*
X0072600Y0032600D01*
X0072600Y0031000D01*
X0074200Y0031000D01*
X0074200Y0015250D01*
X0079537Y0015250D01*
X0079995Y0015373D01*
X0080405Y0015610D01*
X0080740Y0015945D01*
X0080880Y0016187D02*
X0082000Y0016187D01*
X0082000Y0017785D02*
X0081100Y0017785D01*
X0081100Y0019384D02*
X0082000Y0019384D01*
X0082000Y0020982D02*
X0081100Y0020982D01*
X0081100Y0022581D02*
X0082000Y0022581D01*
X0082000Y0024179D02*
X0081100Y0024179D01*
X0081100Y0025778D02*
X0082000Y0025778D01*
X0082000Y0027376D02*
X0081100Y0027376D01*
X0081100Y0028975D02*
X0082000Y0028975D01*
X0082000Y0030573D02*
X0081100Y0030573D01*
X0082000Y0032172D02*
X0074200Y0032172D01*
X0074200Y0033770D02*
X0072600Y0033770D01*
X0072600Y0032172D02*
X0013850Y0032172D01*
X0020232Y0030573D02*
X0065700Y0030573D01*
X0065700Y0031000D02*
X0065700Y0016813D01*
X0065823Y0016355D01*
X0066060Y0015945D01*
X0066395Y0015610D01*
X0066805Y0015373D01*
X0067263Y0015250D01*
X0072600Y0015250D01*
X0072600Y0031000D01*
X0065700Y0031000D01*
X0065700Y0028975D02*
X0021578Y0028975D01*
X0022100Y0027376D02*
X0065700Y0027376D01*
X0065700Y0025778D02*
X0046197Y0025778D01*
X0046475Y0025576D02*
X0045844Y0026034D01*
X0045150Y0026387D01*
X0044409Y0026628D01*
X0043640Y0026750D01*
X0043250Y0026750D01*
X0043250Y0021800D01*
X0048200Y0021800D01*
X0048200Y0022190D01*
X0048078Y0022959D01*
X0047837Y0023700D01*
X0047484Y0024394D01*
X0047026Y0025025D01*
X0046475Y0025576D01*
X0047593Y0024179D02*
X0065700Y0024179D01*
X0065700Y0022581D02*
X0048138Y0022581D01*
X0048200Y0021800D02*
X0043250Y0021800D01*
X0043250Y0021800D01*
X0043250Y0021800D01*
X0043250Y0016850D01*
X0043640Y0016850D01*
X0044409Y0016972D01*
X0045150Y0017213D01*
X0045844Y0017566D01*
X0046475Y0018024D01*
X0047026Y0018575D01*
X0047484Y0019206D01*
X0047837Y0019900D01*
X0048078Y0020641D01*
X0048200Y0021410D01*
X0048200Y0021800D01*
X0048132Y0020982D02*
X0065700Y0020982D01*
X0065700Y0019384D02*
X0047574Y0019384D01*
X0046145Y0017785D02*
X0065700Y0017785D01*
X0065920Y0016187D02*
X0022263Y0016187D01*
X0022300Y0017000D02*
X0022300Y0017178D01*
X0022182Y0017924D01*
X0021948Y0018643D01*
X0021605Y0019316D01*
X0021161Y0019927D01*
X0020627Y0020461D01*
X0020016Y0020905D01*
X0019343Y0021248D01*
X0018624Y0021482D01*
X0017878Y0021600D01*
X0014700Y0021600D01*
X0014700Y0017000D01*
X0022300Y0017000D01*
X0022204Y0017785D02*
X0030547Y0017785D01*
X0031282Y0017050D02*
X0035218Y0017050D01*
X0038000Y0019832D01*
X0038000Y0023768D01*
X0035218Y0026550D01*
X0031282Y0026550D01*
X0028500Y0023768D01*
X0028500Y0019832D01*
X0031282Y0017050D01*
X0028949Y0019384D02*
X0021556Y0019384D01*
X0019865Y0020982D02*
X0028500Y0020982D01*
X0028500Y0022581D02*
X0019334Y0022581D01*
X0021385Y0024179D02*
X0028912Y0024179D01*
X0030510Y0025778D02*
X0022056Y0025778D01*
X0014700Y0020982D02*
X0014300Y0020982D01*
X0014300Y0019384D02*
X0014700Y0019384D01*
X0014700Y0017785D02*
X0014300Y0017785D01*
X0014300Y0016187D02*
X0014700Y0016187D01*
X0014700Y0014588D02*
X0014300Y0014588D01*
X0014300Y0012990D02*
X0014700Y0012990D01*
X0035953Y0017785D02*
X0040355Y0017785D01*
X0040656Y0017566D02*
X0040025Y0018024D01*
X0039474Y0018575D01*
X0039016Y0019206D01*
X0038663Y0019900D01*
X0038422Y0020641D01*
X0038300Y0021410D01*
X0038300Y0021800D01*
X0043250Y0021800D01*
X0043250Y0021800D01*
X0043250Y0021800D01*
X0043250Y0026750D01*
X0042860Y0026750D01*
X0042091Y0026628D01*
X0041350Y0026387D01*
X0040656Y0026034D01*
X0040025Y0025576D01*
X0039474Y0025025D01*
X0039016Y0024394D01*
X0038663Y0023700D01*
X0038422Y0022959D01*
X0038300Y0022190D01*
X0038300Y0021800D01*
X0043250Y0021800D01*
X0043250Y0016850D01*
X0042860Y0016850D01*
X0042091Y0016972D01*
X0041350Y0017213D01*
X0040656Y0017566D01*
X0043250Y0017785D02*
X0043250Y0017785D01*
X0043250Y0019384D02*
X0043250Y0019384D01*
X0043250Y0020982D02*
X0043250Y0020982D01*
X0043250Y0022581D02*
X0043250Y0022581D01*
X0043250Y0024179D02*
X0043250Y0024179D01*
X0043250Y0025778D02*
X0043250Y0025778D01*
X0040303Y0025778D02*
X0035990Y0025778D01*
X0037588Y0024179D02*
X0038907Y0024179D01*
X0038362Y0022581D02*
X0038000Y0022581D01*
X0038000Y0020982D02*
X0038368Y0020982D01*
X0038926Y0019384D02*
X0037551Y0019384D01*
X0020976Y0033770D02*
X0065700Y0033770D01*
X0065700Y0035369D02*
X0021886Y0035369D01*
X0022100Y0036967D02*
X0065700Y0036967D01*
X0065700Y0038566D02*
X0021748Y0038566D01*
X0020641Y0040164D02*
X0065700Y0040164D01*
X0065700Y0041763D02*
X0013850Y0041763D01*
X0020567Y0043361D02*
X0052194Y0043361D01*
X0054306Y0043361D02*
X0065700Y0043361D01*
X0065700Y0044960D02*
X0056364Y0044960D01*
X0056831Y0046558D02*
X0065700Y0046558D01*
X0066683Y0048157D02*
X0056564Y0048157D01*
X0053250Y0046800D02*
X0053250Y0053040D01*
X0051990Y0054300D01*
X0048760Y0049755D02*
X0047740Y0049755D01*
X0049936Y0048157D02*
X0021917Y0048157D01*
X0021050Y0049755D02*
X0023608Y0049755D01*
X0023756Y0049670D02*
X0024214Y0049547D01*
X0026530Y0049547D01*
X0026530Y0053820D01*
X0022651Y0053820D01*
X0022651Y0051110D01*
X0022773Y0050652D01*
X0023010Y0050242D01*
X0023346Y0049907D01*
X0023756Y0049670D01*
X0022651Y0051354D02*
X0018526Y0051354D01*
X0020158Y0052952D02*
X0022651Y0052952D01*
X0021547Y0054551D02*
X0026530Y0054551D01*
X0026530Y0056149D02*
X0027489Y0056149D01*
X0027489Y0057748D02*
X0026530Y0057748D01*
X0022720Y0057748D02*
X0022086Y0057748D01*
X0022100Y0056149D02*
X0022651Y0056149D01*
X0026530Y0052952D02*
X0027489Y0052952D01*
X0027489Y0051354D02*
X0026530Y0051354D01*
X0026530Y0049755D02*
X0027489Y0049755D01*
X0030412Y0049755D02*
X0031260Y0049755D01*
X0037720Y0049755D02*
X0041280Y0049755D01*
X0040351Y0051354D02*
X0038649Y0051354D01*
X0038649Y0057748D02*
X0040351Y0057748D01*
X0042400Y0059346D02*
X0021424Y0059346D01*
X0019514Y0060945D02*
X0043175Y0060945D01*
X0049350Y0066787D02*
X0050287Y0065850D01*
X0058713Y0065850D01*
X0059650Y0066787D01*
X0059650Y0066900D01*
X0061148Y0066900D01*
X0061045Y0066840D01*
X0060710Y0066505D01*
X0060473Y0066095D01*
X0060350Y0065637D01*
X0060350Y0064300D01*
X0066050Y0064300D01*
X0071750Y0064300D01*
X0071750Y0065637D01*
X0071627Y0066095D01*
X0071626Y0066096D01*
X0072538Y0065719D01*
X0073962Y0065719D01*
X0075279Y0066264D01*
X0076286Y0067271D01*
X0076831Y0068588D01*
X0076831Y0070012D01*
X0076286Y0071329D01*
X0075279Y0072336D01*
X0073962Y0072881D01*
X0072538Y0072881D01*
X0071439Y0072426D01*
X0071550Y0072537D01*
X0071550Y0076063D01*
X0070613Y0077000D01*
X0061487Y0077000D01*
X0060550Y0076063D01*
X0060550Y0072537D01*
X0061287Y0071800D01*
X0061187Y0071700D01*
X0059650Y0071700D01*
X0059650Y0072513D01*
X0058713Y0073450D01*
X0050287Y0073450D01*
X0049350Y0072513D01*
X0049350Y0066787D01*
X0049350Y0067339D02*
X0022100Y0067339D01*
X0022100Y0067715D02*
X0022100Y0065885D01*
X0021443Y0064300D01*
X0066050Y0064300D01*
X0066050Y0064300D01*
X0079950Y0064300D01*
X0079950Y0066063D01*
X0080687Y0066800D01*
X0079950Y0067537D01*
X0079950Y0071063D01*
X0080687Y0071800D01*
X0079950Y0072537D01*
X0079950Y0076063D01*
X0080887Y0077000D01*
X0090013Y0077000D01*
X0090613Y0076400D01*
X0091620Y0076400D01*
X0092870Y0075150D01*
X0094100Y0073920D01*
X0094100Y0069370D01*
X0094880Y0070150D01*
X0094947Y0070150D01*
X0094947Y0071262D01*
X0095884Y0072199D01*
X0103115Y0072199D01*
X0104053Y0071262D01*
X0104053Y0064818D01*
X0103534Y0064300D01*
X0105950Y0064300D01*
X0105950Y0074063D01*
X0106887Y0075000D01*
X0108350Y0075000D01*
X0108350Y0076636D01*
X0107714Y0077271D01*
X0107169Y0078588D01*
X0107169Y0080012D01*
X0107714Y0081329D01*
X0108721Y0082336D01*
X0110038Y0082881D01*
X0111462Y0082881D01*
X0112779Y0082336D01*
X0113786Y0081329D01*
X0114331Y0080012D01*
X0114331Y0078588D01*
X0113786Y0077271D01*
X0113150Y0076636D01*
X0113150Y0075000D01*
X0114613Y0075000D01*
X0115550Y0074063D01*
X0115550Y0064300D01*
X0118807Y0064300D01*
X0118150Y0065885D01*
X0118150Y0067715D01*
X0118850Y0069406D01*
X0120144Y0070700D01*
X0121835Y0071400D01*
X0126666Y0071400D01*
X0126666Y0072200D01*
X0121835Y0072200D01*
X0120144Y0072900D01*
X0118850Y0074194D01*
X0118150Y0075885D01*
X0118150Y0077715D01*
X0118850Y0079406D01*
X0120144Y0080700D01*
X0121835Y0081400D01*
X0126666Y0081400D01*
X0126666Y0082200D01*
X0121835Y0082200D01*
X0120144Y0082900D01*
X0118850Y0084194D01*
X0118150Y0085885D01*
X0118150Y0087715D01*
X0118850Y0089406D01*
X0120144Y0090700D01*
X0121835Y0091400D01*
X0126666Y0091400D01*
X0126666Y0114310D01*
X0117245Y0114310D01*
X0117850Y0113705D01*
X0117850Y0109895D01*
X0115155Y0107200D01*
X0111345Y0107200D01*
X0108650Y0109895D01*
X0108650Y0113705D01*
X0109255Y0114310D01*
X0107528Y0114310D01*
X0108050Y0113788D01*
X0108050Y0112000D01*
X0103450Y0112000D01*
X0103450Y0111600D01*
X0108050Y0111600D01*
X0108050Y0109812D01*
X0105238Y0107000D01*
X0103450Y0107000D01*
X0103450Y0111600D01*
X0103050Y0111600D01*
X0103050Y0107000D01*
X0101262Y0107000D01*
X0098450Y0109812D01*
X0098450Y0111600D01*
X0103050Y0111600D01*
X0103050Y0112000D01*
X0098450Y0112000D01*
X0098450Y0113788D01*
X0098972Y0114310D01*
X0013850Y0114310D01*
X0013850Y0091400D01*
X0018415Y0091400D01*
X0020106Y0090700D01*
X0021400Y0089406D01*
X0022100Y0087715D01*
X0022100Y0085885D01*
X0021400Y0084194D01*
X0020106Y0082900D01*
X0018415Y0082200D01*
X0013850Y0082200D01*
X0013850Y0081400D01*
X0018415Y0081400D01*
X0020106Y0080700D01*
X0021400Y0079406D01*
X0022100Y0077715D01*
X0022100Y0075885D01*
X0021400Y0074194D01*
X0020106Y0072900D01*
X0018415Y0072200D01*
X0013850Y0072200D01*
X0013850Y0071400D01*
X0018415Y0071400D01*
X0020106Y0070700D01*
X0021400Y0069406D01*
X0022100Y0067715D01*
X0021594Y0068937D02*
X0049350Y0068937D01*
X0049350Y0070536D02*
X0020269Y0070536D01*
X0020938Y0073733D02*
X0060550Y0073733D01*
X0060953Y0072134D02*
X0059650Y0072134D01*
X0060550Y0075332D02*
X0021871Y0075332D01*
X0022100Y0076930D02*
X0061417Y0076930D01*
X0059490Y0078145D02*
X0059727Y0078555D01*
X0059850Y0079013D01*
X0059850Y0081150D01*
X0054800Y0081150D01*
X0054800Y0081750D01*
X0054200Y0081750D01*
X0054200Y0085450D01*
X0050713Y0085450D01*
X0050255Y0085327D01*
X0049845Y0085090D01*
X0049510Y0084755D01*
X0049273Y0084345D01*
X0049150Y0083887D01*
X0049150Y0081750D01*
X0054200Y0081750D01*
X0054200Y0081150D01*
X0054800Y0081150D01*
X0054800Y0077450D01*
X0058287Y0077450D01*
X0058745Y0077573D01*
X0059155Y0077810D01*
X0059490Y0078145D01*
X0059712Y0078529D02*
X0107193Y0078529D01*
X0108056Y0076930D02*
X0090083Y0076930D01*
X0092688Y0075332D02*
X0108350Y0075332D01*
X0105950Y0073733D02*
X0094100Y0073733D01*
X0094100Y0072134D02*
X0095820Y0072134D01*
X0094947Y0070536D02*
X0094100Y0070536D01*
X0103180Y0072134D02*
X0105950Y0072134D01*
X0105950Y0070536D02*
X0104053Y0070536D01*
X0104053Y0068937D02*
X0105950Y0068937D01*
X0105950Y0067339D02*
X0104053Y0067339D01*
X0104053Y0065740D02*
X0105950Y0065740D01*
X0104253Y0061800D02*
X0126666Y0061800D01*
X0126666Y0061400D01*
X0121835Y0061400D01*
X0120144Y0060700D01*
X0118850Y0059406D01*
X0118150Y0057715D01*
X0118150Y0055885D01*
X0118850Y0054194D01*
X0120144Y0052900D01*
X0121835Y0052200D01*
X0126666Y0052200D01*
X0126666Y0051400D01*
X0121835Y0051400D01*
X0120144Y0050700D01*
X0118850Y0049406D01*
X0118150Y0047715D01*
X0118150Y0045885D01*
X0118850Y0044194D01*
X0120144Y0042900D01*
X0121835Y0042200D01*
X0126666Y0042200D01*
X0126666Y0041400D01*
X0121835Y0041400D01*
X0120144Y0040700D01*
X0118850Y0039406D01*
X0118150Y0037715D01*
X0118150Y0035885D01*
X0118850Y0034194D01*
X0120144Y0032900D01*
X0121835Y0032200D01*
X0126666Y0032200D01*
X0126666Y0031400D01*
X0121835Y0031400D01*
X0120144Y0030700D01*
X0118850Y0029406D01*
X0118150Y0027715D01*
X0118150Y0025885D01*
X0118850Y0024194D01*
X0120144Y0022900D01*
X0121835Y0022200D01*
X0126666Y0022200D01*
X0126666Y0021400D01*
X0121835Y0021400D01*
X0120144Y0020700D01*
X0118850Y0019406D01*
X0118150Y0017715D01*
X0118150Y0015885D01*
X0118850Y0014194D01*
X0120144Y0012900D01*
X0121835Y0012200D01*
X0126666Y0012200D01*
X0126666Y0007400D01*
X0084500Y0007400D01*
X0084500Y0051800D01*
X0058250Y0051800D01*
X0058250Y0059700D01*
X0060350Y0059700D01*
X0060350Y0059300D01*
X0066050Y0059300D01*
X0071750Y0059300D01*
X0071750Y0059700D01*
X0079950Y0059700D01*
X0079950Y0057537D01*
X0080887Y0056600D01*
X0090013Y0056600D01*
X0090613Y0057200D01*
X0091620Y0057200D01*
X0095370Y0060950D01*
X0095459Y0061039D01*
X0099020Y0061039D01*
X0099020Y0060080D01*
X0094747Y0060080D01*
X0094747Y0057764D01*
X0094870Y0057306D01*
X0095107Y0056896D01*
X0095442Y0056560D01*
X0095852Y0056323D01*
X0096310Y0056201D01*
X0099020Y0056201D01*
X0099020Y0060080D01*
X0099980Y0060080D01*
X0099980Y0061039D01*
X0104253Y0061039D01*
X0104253Y0061800D01*
X0104253Y0060080D02*
X0104253Y0057764D01*
X0104130Y0057306D01*
X0103893Y0056896D01*
X0103558Y0056560D01*
X0103148Y0056323D01*
X0102690Y0056201D01*
X0099980Y0056201D01*
X0099980Y0060080D01*
X0104253Y0060080D01*
X0104253Y0059346D02*
X0105833Y0059346D01*
X0105873Y0059495D02*
X0105750Y0059037D01*
X0105750Y0055300D01*
X0109950Y0055300D01*
X0109950Y0060600D01*
X0107313Y0060600D01*
X0106855Y0060477D01*
X0106445Y0060240D01*
X0106110Y0059905D01*
X0105873Y0059495D01*
X0105750Y0057748D02*
X0104248Y0057748D01*
X0105750Y0056149D02*
X0058250Y0056149D01*
X0058250Y0054551D02*
X0109950Y0054551D01*
X0109950Y0055300D02*
X0109950Y0053700D01*
X0111550Y0053700D01*
X0111550Y0055300D01*
X0109950Y0055300D01*
X0109950Y0056149D02*
X0111550Y0056149D01*
X0111550Y0055300D02*
X0111550Y0060600D01*
X0114187Y0060600D01*
X0114645Y0060477D01*
X0115055Y0060240D01*
X0115390Y0059905D01*
X0115627Y0059495D01*
X0115750Y0059037D01*
X0115750Y0055300D01*
X0111550Y0055300D01*
X0111550Y0054551D02*
X0118703Y0054551D01*
X0118150Y0056149D02*
X0115750Y0056149D01*
X0115750Y0057748D02*
X0118164Y0057748D01*
X0118826Y0059346D02*
X0115667Y0059346D01*
X0111550Y0059346D02*
X0109950Y0059346D01*
X0109950Y0057748D02*
X0111550Y0057748D01*
X0111550Y0053700D02*
X0115750Y0053700D01*
X0115750Y0049963D01*
X0115627Y0049505D01*
X0115390Y0049095D01*
X0115055Y0048760D01*
X0114645Y0048523D01*
X0114187Y0048400D01*
X0111550Y0048400D01*
X0111550Y0053700D01*
X0111550Y0052952D02*
X0109950Y0052952D01*
X0109950Y0053700D02*
X0109950Y0048400D01*
X0107313Y0048400D01*
X0106855Y0048523D01*
X0106445Y0048760D01*
X0106110Y0049095D01*
X0105873Y0049505D01*
X0105750Y0049963D01*
X0105750Y0053700D01*
X0109950Y0053700D01*
X0109950Y0051354D02*
X0111550Y0051354D01*
X0111550Y0049755D02*
X0109950Y0049755D01*
X0105806Y0049755D02*
X0084500Y0049755D01*
X0084500Y0048157D02*
X0086383Y0048157D01*
X0086505Y0048227D02*
X0086095Y0047990D01*
X0085760Y0047655D01*
X0085523Y0047245D01*
X0085400Y0046787D01*
X0085400Y0032600D01*
X0092300Y0032600D01*
X0092300Y0048350D01*
X0086963Y0048350D01*
X0086505Y0048227D01*
X0085400Y0046558D02*
X0084500Y0046558D01*
X0084500Y0044960D02*
X0085400Y0044960D01*
X0085400Y0043361D02*
X0084500Y0043361D01*
X0084500Y0041763D02*
X0085400Y0041763D01*
X0085400Y0040164D02*
X0084500Y0040164D01*
X0084500Y0038566D02*
X0085400Y0038566D01*
X0085400Y0036967D02*
X0084500Y0036967D01*
X0084500Y0035369D02*
X0085400Y0035369D01*
X0085400Y0033770D02*
X0084500Y0033770D01*
X0084500Y0032172D02*
X0092300Y0032172D01*
X0092300Y0032600D02*
X0092300Y0031000D01*
X0093900Y0031000D01*
X0093900Y0032600D01*
X0100800Y0032600D01*
X0100800Y0046787D01*
X0100677Y0047245D01*
X0100440Y0047655D01*
X0100105Y0047990D01*
X0099695Y0048227D01*
X0099237Y0048350D01*
X0093900Y0048350D01*
X0093900Y0032600D01*
X0092300Y0032600D01*
X0092300Y0033770D02*
X0093900Y0033770D01*
X0093900Y0032172D02*
X0126666Y0032172D01*
X0120018Y0030573D02*
X0100800Y0030573D01*
X0100800Y0031000D02*
X0093900Y0031000D01*
X0093900Y0015250D01*
X0099237Y0015250D01*
X0099695Y0015373D01*
X0100105Y0015610D01*
X0100440Y0015945D01*
X0100677Y0016355D01*
X0100800Y0016813D01*
X0100800Y0031000D01*
X0100800Y0028975D02*
X0118672Y0028975D01*
X0118150Y0027376D02*
X0100800Y0027376D01*
X0100800Y0025778D02*
X0118194Y0025778D01*
X0118865Y0024179D02*
X0100800Y0024179D01*
X0100800Y0022581D02*
X0120916Y0022581D01*
X0120826Y0020982D02*
X0100800Y0020982D01*
X0100800Y0019384D02*
X0118841Y0019384D01*
X0118179Y0017785D02*
X0100800Y0017785D01*
X0100580Y0016187D02*
X0118150Y0016187D01*
X0118687Y0014588D02*
X0084500Y0014588D01*
X0084500Y0012990D02*
X0120055Y0012990D01*
X0126666Y0011391D02*
X0084500Y0011391D01*
X0084500Y0009793D02*
X0126666Y0009793D01*
X0126666Y0008194D02*
X0084500Y0008194D01*
X0086505Y0015373D02*
X0086963Y0015250D01*
X0092300Y0015250D01*
X0092300Y0031000D01*
X0085400Y0031000D01*
X0085400Y0016813D01*
X0085523Y0016355D01*
X0085760Y0015945D01*
X0086095Y0015610D01*
X0086505Y0015373D01*
X0085620Y0016187D02*
X0084500Y0016187D01*
X0084500Y0017785D02*
X0085400Y0017785D01*
X0085400Y0019384D02*
X0084500Y0019384D01*
X0084500Y0020982D02*
X0085400Y0020982D01*
X0085400Y0022581D02*
X0084500Y0022581D01*
X0084500Y0024179D02*
X0085400Y0024179D01*
X0085400Y0025778D02*
X0084500Y0025778D01*
X0084500Y0027376D02*
X0085400Y0027376D01*
X0085400Y0028975D02*
X0084500Y0028975D01*
X0084500Y0030573D02*
X0085400Y0030573D01*
X0082000Y0033770D02*
X0081100Y0033770D01*
X0081100Y0035369D02*
X0082000Y0035369D01*
X0082000Y0036967D02*
X0081100Y0036967D01*
X0081100Y0038566D02*
X0082000Y0038566D01*
X0082000Y0040164D02*
X0081100Y0040164D01*
X0081100Y0041763D02*
X0082000Y0041763D01*
X0082000Y0043361D02*
X0081100Y0043361D01*
X0081100Y0044960D02*
X0082000Y0044960D01*
X0082000Y0046558D02*
X0081100Y0046558D01*
X0082000Y0048157D02*
X0080117Y0048157D01*
X0084500Y0051354D02*
X0105750Y0051354D01*
X0105750Y0052952D02*
X0058250Y0052952D01*
X0061045Y0056760D02*
X0061455Y0056523D01*
X0061913Y0056400D01*
X0066050Y0056400D01*
X0070187Y0056400D01*
X0070645Y0056523D01*
X0071055Y0056760D01*
X0071390Y0057095D01*
X0071627Y0057505D01*
X0071750Y0057963D01*
X0071750Y0059300D01*
X0066050Y0059300D01*
X0066050Y0059300D01*
X0066050Y0056400D01*
X0066050Y0059300D01*
X0066050Y0059300D01*
X0066050Y0059300D01*
X0060350Y0059300D01*
X0060350Y0057963D01*
X0060473Y0057505D01*
X0060710Y0057095D01*
X0061045Y0056760D01*
X0060408Y0057748D02*
X0058250Y0057748D01*
X0058250Y0059346D02*
X0060350Y0059346D01*
X0066050Y0057748D02*
X0066050Y0057748D01*
X0071692Y0057748D02*
X0079950Y0057748D01*
X0079950Y0059346D02*
X0071750Y0059346D01*
X0066050Y0064300D02*
X0066050Y0064300D01*
X0066050Y0069300D02*
X0073250Y0069300D01*
X0076614Y0070536D02*
X0079950Y0070536D01*
X0079950Y0068937D02*
X0076831Y0068937D01*
X0076314Y0067339D02*
X0080148Y0067339D01*
X0079950Y0065740D02*
X0074014Y0065740D01*
X0072486Y0065740D02*
X0071722Y0065740D01*
X0066050Y0069300D02*
X0054850Y0069300D01*
X0054500Y0069650D01*
X0049350Y0072134D02*
X0013850Y0072134D01*
X0021763Y0078529D02*
X0049288Y0078529D01*
X0049273Y0078555D02*
X0049510Y0078145D01*
X0049845Y0077810D01*
X0050255Y0077573D01*
X0050713Y0077450D01*
X0054200Y0077450D01*
X0054200Y0081150D01*
X0049150Y0081150D01*
X0049150Y0079013D01*
X0049273Y0078555D01*
X0049150Y0080127D02*
X0020678Y0080127D01*
X0020529Y0083324D02*
X0049150Y0083324D01*
X0049677Y0084923D02*
X0021701Y0084923D01*
X0022100Y0086521D02*
X0118150Y0086521D01*
X0118318Y0088120D02*
X0021932Y0088120D01*
X0021087Y0089718D02*
X0119163Y0089718D01*
X0121634Y0091317D02*
X0018616Y0091317D01*
X0013850Y0092915D02*
X0126666Y0092915D01*
X0126666Y0094514D02*
X0084237Y0094514D01*
X0083653Y0093930D02*
X0085095Y0095372D01*
X0085875Y0097256D01*
X0085875Y0106344D01*
X0085095Y0108228D01*
X0083653Y0109670D01*
X0081769Y0110450D01*
X0079731Y0110450D01*
X0077847Y0109670D01*
X0076405Y0108228D01*
X0075625Y0106344D01*
X0075625Y0097256D01*
X0076405Y0095372D01*
X0077847Y0093930D01*
X0079731Y0093150D01*
X0081769Y0093150D01*
X0083653Y0093930D01*
X0085401Y0096112D02*
X0126666Y0096112D01*
X0126666Y0097711D02*
X0115666Y0097711D01*
X0115155Y0097200D02*
X0117850Y0099895D01*
X0117850Y0103705D01*
X0115155Y0106400D01*
X0111345Y0106400D01*
X0108650Y0103705D01*
X0108650Y0099895D01*
X0111345Y0097200D01*
X0115155Y0097200D01*
X0117265Y0099309D02*
X0126666Y0099309D01*
X0126666Y0100908D02*
X0117850Y0100908D01*
X0117850Y0102506D02*
X0126666Y0102506D01*
X0126666Y0104105D02*
X0117451Y0104105D01*
X0115852Y0105703D02*
X0126666Y0105703D01*
X0126666Y0107302D02*
X0115257Y0107302D01*
X0116856Y0108900D02*
X0126666Y0108900D01*
X0126666Y0110499D02*
X0117850Y0110499D01*
X0117850Y0112097D02*
X0126666Y0112097D01*
X0126666Y0113696D02*
X0117850Y0113696D01*
X0111243Y0107302D02*
X0105540Y0107302D01*
X0105238Y0106600D02*
X0103450Y0106600D01*
X0103450Y0102000D01*
X0103050Y0102000D01*
X0103050Y0106600D01*
X0101262Y0106600D01*
X0098450Y0103788D01*
X0098450Y0102000D01*
X0103050Y0102000D01*
X0103050Y0101600D01*
X0098450Y0101600D01*
X0098450Y0099812D01*
X0101262Y0097000D01*
X0103050Y0097000D01*
X0103050Y0101600D01*
X0103450Y0101600D01*
X0103450Y0102000D01*
X0108050Y0102000D01*
X0108050Y0103788D01*
X0105238Y0106600D01*
X0106135Y0105703D02*
X0110648Y0105703D01*
X0109049Y0104105D02*
X0107733Y0104105D01*
X0108050Y0102506D02*
X0108650Y0102506D01*
X0108050Y0101600D02*
X0103450Y0101600D01*
X0103450Y0097000D01*
X0105238Y0097000D01*
X0108050Y0099812D01*
X0108050Y0101600D01*
X0108050Y0100908D02*
X0108650Y0100908D01*
X0109235Y0099309D02*
X0107547Y0099309D01*
X0105949Y0097711D02*
X0110834Y0097711D01*
X0103450Y0097711D02*
X0103050Y0097711D01*
X0103050Y0099309D02*
X0103450Y0099309D01*
X0103450Y0100908D02*
X0103050Y0100908D01*
X0103050Y0102506D02*
X0103450Y0102506D01*
X0103450Y0104105D02*
X0103050Y0104105D01*
X0103050Y0105703D02*
X0103450Y0105703D01*
X0103450Y0107302D02*
X0103050Y0107302D01*
X0103050Y0108900D02*
X0103450Y0108900D01*
X0103450Y0110499D02*
X0103050Y0110499D01*
X0100960Y0107302D02*
X0085478Y0107302D01*
X0084423Y0108900D02*
X0099362Y0108900D01*
X0098450Y0110499D02*
X0062059Y0110499D01*
X0061997Y0110519D02*
X0061169Y0110650D01*
X0061125Y0110650D01*
X0061125Y0102175D01*
X0066075Y0102175D01*
X0066075Y0105744D01*
X0065944Y0106572D01*
X0065685Y0107369D01*
X0065304Y0108116D01*
X0064812Y0108794D01*
X0064219Y0109387D01*
X0063541Y0109879D01*
X0062794Y0110260D01*
X0061997Y0110519D01*
X0061125Y0110499D02*
X0060375Y0110499D01*
X0060375Y0110650D02*
X0060331Y0110650D01*
X0059503Y0110519D01*
X0058706Y0110260D01*
X0057959Y0109879D01*
X0057281Y0109387D01*
X0056688Y0108794D01*
X0056196Y0108116D01*
X0055815Y0107369D01*
X0055556Y0106572D01*
X0055425Y0105744D01*
X0055425Y0102175D01*
X0060375Y0102175D01*
X0060375Y0110650D01*
X0059441Y0110499D02*
X0013850Y0110499D01*
X0013850Y0108900D02*
X0056795Y0108900D01*
X0055793Y0107302D02*
X0013850Y0107302D01*
X0013850Y0105703D02*
X0027936Y0105703D01*
X0028782Y0106550D02*
X0026000Y0103768D01*
X0026000Y0099832D01*
X0028782Y0097050D01*
X0032718Y0097050D01*
X0035500Y0099832D01*
X0035500Y0103768D01*
X0032718Y0106550D01*
X0028782Y0106550D01*
X0026337Y0104105D02*
X0013850Y0104105D01*
X0013850Y0102506D02*
X0026000Y0102506D01*
X0026000Y0100908D02*
X0013850Y0100908D01*
X0013850Y0099309D02*
X0026523Y0099309D01*
X0028122Y0097711D02*
X0013850Y0097711D01*
X0013850Y0096112D02*
X0055876Y0096112D01*
X0055815Y0096231D02*
X0056196Y0095484D01*
X0056688Y0094806D01*
X0057281Y0094213D01*
X0057959Y0093721D01*
X0058706Y0093340D01*
X0059503Y0093081D01*
X0060331Y0092950D01*
X0060375Y0092950D01*
X0060375Y0101425D01*
X0061125Y0101425D01*
X0061125Y0102175D01*
X0060375Y0102175D01*
X0060375Y0101425D01*
X0055425Y0101425D01*
X0055425Y0097856D01*
X0055556Y0097028D01*
X0055815Y0096231D01*
X0055448Y0097711D02*
X0043543Y0097711D01*
X0043344Y0097566D02*
X0043975Y0098024D01*
X0044526Y0098575D01*
X0044984Y0099206D01*
X0045337Y0099900D01*
X0045578Y0100641D01*
X0045700Y0101410D01*
X0045700Y0101800D01*
X0045700Y0102190D01*
X0045578Y0102959D01*
X0045337Y0103700D01*
X0044984Y0104394D01*
X0044526Y0105025D01*
X0043975Y0105576D01*
X0043344Y0106034D01*
X0042650Y0106387D01*
X0041909Y0106628D01*
X0041140Y0106750D01*
X0040750Y0106750D01*
X0040750Y0101800D01*
X0045700Y0101800D01*
X0040750Y0101800D01*
X0040750Y0101800D01*
X0040750Y0101800D01*
X0040750Y0096850D01*
X0041140Y0096850D01*
X0041909Y0096972D01*
X0042650Y0097213D01*
X0043344Y0097566D01*
X0040750Y0097711D02*
X0040750Y0097711D01*
X0040750Y0096850D02*
X0040360Y0096850D01*
X0039591Y0096972D01*
X0038850Y0097213D01*
X0038156Y0097566D01*
X0037525Y0098024D01*
X0036974Y0098575D01*
X0036516Y0099206D01*
X0036163Y0099900D01*
X0035922Y0100641D01*
X0035800Y0101410D01*
X0035800Y0101800D01*
X0040750Y0101800D01*
X0040750Y0101800D01*
X0040750Y0101800D01*
X0040750Y0106750D01*
X0040360Y0106750D01*
X0039591Y0106628D01*
X0038850Y0106387D01*
X0038156Y0106034D01*
X0037525Y0105576D01*
X0036974Y0105025D01*
X0036516Y0104394D01*
X0036163Y0103700D01*
X0035922Y0102959D01*
X0035800Y0102190D01*
X0035800Y0101800D01*
X0040750Y0101800D01*
X0040750Y0096850D01*
X0040750Y0099309D02*
X0040750Y0099309D01*
X0040750Y0100908D02*
X0040750Y0100908D01*
X0040750Y0102506D02*
X0040750Y0102506D01*
X0040750Y0104105D02*
X0040750Y0104105D01*
X0040750Y0105703D02*
X0040750Y0105703D01*
X0043799Y0105703D02*
X0055425Y0105703D01*
X0055425Y0104105D02*
X0045131Y0104105D01*
X0045650Y0102506D02*
X0055425Y0102506D01*
X0055425Y0100908D02*
X0045620Y0100908D01*
X0045036Y0099309D02*
X0055425Y0099309D01*
X0060375Y0099309D02*
X0061125Y0099309D01*
X0061125Y0097711D02*
X0060375Y0097711D01*
X0060375Y0096112D02*
X0061125Y0096112D01*
X0061125Y0094514D02*
X0060375Y0094514D01*
X0061125Y0092950D02*
X0061169Y0092950D01*
X0061997Y0093081D01*
X0062794Y0093340D01*
X0063541Y0093721D01*
X0064219Y0094213D01*
X0064812Y0094806D01*
X0065304Y0095484D01*
X0065685Y0096231D01*
X0065944Y0097028D01*
X0066075Y0097856D01*
X0066075Y0101425D01*
X0061125Y0101425D01*
X0061125Y0092950D01*
X0064519Y0094514D02*
X0077263Y0094514D01*
X0076099Y0096112D02*
X0065624Y0096112D01*
X0066052Y0097711D02*
X0075625Y0097711D01*
X0075625Y0099309D02*
X0066075Y0099309D01*
X0066075Y0100908D02*
X0075625Y0100908D01*
X0075625Y0102506D02*
X0066075Y0102506D01*
X0066075Y0104105D02*
X0075625Y0104105D01*
X0075625Y0105703D02*
X0066075Y0105703D01*
X0065707Y0107302D02*
X0076022Y0107302D01*
X0077077Y0108900D02*
X0064705Y0108900D01*
X0061125Y0108900D02*
X0060375Y0108900D01*
X0060375Y0107302D02*
X0061125Y0107302D01*
X0061125Y0105703D02*
X0060375Y0105703D01*
X0060375Y0104105D02*
X0061125Y0104105D01*
X0061125Y0102506D02*
X0060375Y0102506D01*
X0060375Y0100908D02*
X0061125Y0100908D01*
X0056981Y0094514D02*
X0013850Y0094514D01*
X0013850Y0081726D02*
X0054200Y0081726D01*
X0054800Y0081726D02*
X0108111Y0081726D01*
X0107216Y0080127D02*
X0059850Y0080127D01*
X0059850Y0081750D02*
X0059850Y0083887D01*
X0059727Y0084345D01*
X0059490Y0084755D01*
X0059155Y0085090D01*
X0058745Y0085327D01*
X0058287Y0085450D01*
X0054800Y0085450D01*
X0054800Y0081750D01*
X0059850Y0081750D01*
X0059850Y0083324D02*
X0119721Y0083324D01*
X0118549Y0084923D02*
X0059323Y0084923D01*
X0054800Y0084923D02*
X0054200Y0084923D01*
X0054200Y0083324D02*
X0054800Y0083324D01*
X0054800Y0080127D02*
X0054200Y0080127D01*
X0054200Y0078529D02*
X0054800Y0078529D01*
X0060378Y0065740D02*
X0022040Y0065740D01*
X0022100Y0046558D02*
X0049669Y0046558D01*
X0050136Y0044960D02*
X0021717Y0044960D01*
X0070683Y0076930D02*
X0080817Y0076930D01*
X0079950Y0075332D02*
X0071550Y0075332D01*
X0071550Y0073733D02*
X0079950Y0073733D01*
X0080353Y0072134D02*
X0075480Y0072134D01*
X0092168Y0057748D02*
X0094752Y0057748D01*
X0094747Y0059346D02*
X0093766Y0059346D01*
X0095365Y0060945D02*
X0099020Y0060945D01*
X0099980Y0060945D02*
X0120736Y0060945D01*
X0118210Y0065740D02*
X0115550Y0065740D01*
X0115550Y0067339D02*
X0118150Y0067339D01*
X0118656Y0068937D02*
X0115550Y0068937D01*
X0115550Y0070536D02*
X0119981Y0070536D01*
X0119312Y0073733D02*
X0115550Y0073733D01*
X0115550Y0072134D02*
X0126666Y0072134D01*
X0118379Y0075332D02*
X0113150Y0075332D01*
X0113444Y0076930D02*
X0118150Y0076930D01*
X0118487Y0078529D02*
X0114307Y0078529D01*
X0114284Y0080127D02*
X0119572Y0080127D01*
X0113389Y0081726D02*
X0126666Y0081726D01*
X0110750Y0079300D02*
X0110750Y0069100D01*
X0099980Y0059346D02*
X0099020Y0059346D01*
X0099020Y0057748D02*
X0099980Y0057748D01*
X0099817Y0048157D02*
X0118333Y0048157D01*
X0119200Y0049755D02*
X0115694Y0049755D01*
X0115750Y0051354D02*
X0121724Y0051354D01*
X0120092Y0052952D02*
X0115750Y0052952D01*
X0118150Y0046558D02*
X0100800Y0046558D01*
X0100800Y0044960D02*
X0118533Y0044960D01*
X0119683Y0043361D02*
X0100800Y0043361D01*
X0100800Y0041763D02*
X0126666Y0041763D01*
X0119609Y0040164D02*
X0100800Y0040164D01*
X0100800Y0038566D02*
X0118502Y0038566D01*
X0118150Y0036967D02*
X0100800Y0036967D01*
X0100800Y0035369D02*
X0118364Y0035369D01*
X0119274Y0033770D02*
X0100800Y0033770D01*
X0093900Y0035369D02*
X0092300Y0035369D01*
X0092300Y0036967D02*
X0093900Y0036967D01*
X0093900Y0038566D02*
X0092300Y0038566D01*
X0092300Y0040164D02*
X0093900Y0040164D01*
X0093900Y0041763D02*
X0092300Y0041763D01*
X0092300Y0043361D02*
X0093900Y0043361D01*
X0093900Y0044960D02*
X0092300Y0044960D01*
X0092300Y0046558D02*
X0093900Y0046558D01*
X0093900Y0048157D02*
X0092300Y0048157D01*
X0074200Y0048157D02*
X0072600Y0048157D01*
X0072600Y0046558D02*
X0074200Y0046558D01*
X0074200Y0044960D02*
X0072600Y0044960D01*
X0072600Y0043361D02*
X0074200Y0043361D01*
X0074200Y0041763D02*
X0072600Y0041763D01*
X0072600Y0040164D02*
X0074200Y0040164D01*
X0074200Y0038566D02*
X0072600Y0038566D01*
X0072600Y0036967D02*
X0074200Y0036967D01*
X0074200Y0035369D02*
X0072600Y0035369D01*
X0072600Y0030573D02*
X0074200Y0030573D01*
X0074200Y0028975D02*
X0072600Y0028975D01*
X0072600Y0027376D02*
X0074200Y0027376D01*
X0074200Y0025778D02*
X0072600Y0025778D01*
X0072600Y0024179D02*
X0074200Y0024179D01*
X0074200Y0022581D02*
X0072600Y0022581D01*
X0072600Y0020982D02*
X0074200Y0020982D01*
X0074200Y0019384D02*
X0072600Y0019384D01*
X0072600Y0017785D02*
X0074200Y0017785D01*
X0074200Y0016187D02*
X0072600Y0016187D01*
X0092300Y0016187D02*
X0093900Y0016187D01*
X0093900Y0017785D02*
X0092300Y0017785D01*
X0092300Y0019384D02*
X0093900Y0019384D01*
X0093900Y0020982D02*
X0092300Y0020982D01*
X0092300Y0022581D02*
X0093900Y0022581D01*
X0093900Y0024179D02*
X0092300Y0024179D01*
X0092300Y0025778D02*
X0093900Y0025778D01*
X0093900Y0027376D02*
X0092300Y0027376D01*
X0092300Y0028975D02*
X0093900Y0028975D01*
X0093900Y0030573D02*
X0092300Y0030573D01*
X0085875Y0097711D02*
X0100551Y0097711D01*
X0098953Y0099309D02*
X0085875Y0099309D01*
X0085875Y0100908D02*
X0098450Y0100908D01*
X0098450Y0102506D02*
X0085875Y0102506D01*
X0085875Y0104105D02*
X0098767Y0104105D01*
X0100365Y0105703D02*
X0085875Y0105703D01*
X0098450Y0112097D02*
X0013850Y0112097D01*
X0013850Y0113696D02*
X0098450Y0113696D01*
X0107138Y0108900D02*
X0109644Y0108900D01*
X0108650Y0110499D02*
X0108050Y0110499D01*
X0108050Y0112097D02*
X0108650Y0112097D01*
X0108650Y0113696D02*
X0108050Y0113696D01*
X0037957Y0097711D02*
X0033378Y0097711D01*
X0034977Y0099309D02*
X0036464Y0099309D01*
X0035880Y0100908D02*
X0035500Y0100908D01*
X0035500Y0102506D02*
X0035850Y0102506D01*
X0036369Y0104105D02*
X0035163Y0104105D01*
X0033564Y0105703D02*
X0037701Y0105703D01*
D11*
X0017500Y0086800D02*
X0011500Y0086800D01*
X0011500Y0076800D02*
X0017500Y0076800D01*
X0017500Y0066800D02*
X0011500Y0066800D01*
X0011500Y0056800D02*
X0017500Y0056800D01*
X0017500Y0046800D02*
X0011500Y0046800D01*
X0011500Y0036800D02*
X0017500Y0036800D01*
X0017500Y0026800D02*
X0011500Y0026800D01*
X0011500Y0016800D02*
X0017500Y0016800D01*
X0122750Y0016800D02*
X0128750Y0016800D01*
X0128750Y0026800D02*
X0122750Y0026800D01*
X0122750Y0036800D02*
X0128750Y0036800D01*
X0128750Y0046800D02*
X0122750Y0046800D01*
X0122750Y0056800D02*
X0128750Y0056800D01*
X0128750Y0066800D02*
X0122750Y0066800D01*
X0122750Y0076800D02*
X0128750Y0076800D01*
X0128750Y0086800D02*
X0122750Y0086800D01*
D12*
X0033250Y0021800D03*
X0030750Y0101800D03*
D13*
X0040750Y0101800D03*
X0043250Y0021800D03*
D14*
X0054500Y0069650D03*
X0054500Y0081450D03*
D15*
X0110750Y0069100D03*
X0110750Y0054500D03*
D16*
X0093100Y0031800D03*
X0073400Y0031800D03*
D17*
X0066050Y0059300D03*
X0066050Y0064300D03*
X0066050Y0069300D03*
X0066050Y0074300D03*
X0085450Y0074300D03*
X0085450Y0069300D03*
X0085450Y0064300D03*
X0085450Y0059300D03*
D18*
X0051990Y0054300D03*
X0044510Y0054300D03*
X0034490Y0054300D03*
X0027010Y0054300D03*
D19*
X0099500Y0060560D03*
X0099500Y0068040D03*
D20*
X0080750Y0098275D02*
X0080750Y0105325D01*
X0060750Y0105325D02*
X0060750Y0098275D01*
D21*
X0103250Y0101800D03*
X0113250Y0101800D03*
X0113250Y0111800D03*
X0103250Y0111800D03*
D22*
X0110750Y0079300D03*
X0073250Y0069300D03*
X0053250Y0046800D03*
D23*
X0044510Y0054300D02*
X0034490Y0054300D01*
X0044500Y0054310D02*
X0044510Y0054300D01*
X0044500Y0054310D02*
X0044500Y0059300D01*
X0047000Y0061800D01*
X0090750Y0061800D01*
X0092000Y0063050D01*
X0092000Y0073050D01*
X0090750Y0074300D01*
X0085450Y0074300D01*
X0094500Y0066800D02*
X0095750Y0068050D01*
X0099490Y0068050D01*
X0099500Y0068040D01*
X0094500Y0066800D02*
X0094500Y0063050D01*
X0090750Y0059300D01*
X0085450Y0059300D01*
M02*
