G75*
%MOIN*%
%OFA0B0*%
%FSLAX25Y25*%
%IPPOS*%
%LPD*%
%AMOC8*
5,1,8,0,0,1.08239X$1,22.5*
%
%ADD10C,0.01600*%
%ADD11R,0.07874X0.04724*%
%ADD12R,0.04724X0.07874*%
%ADD13R,0.10000X0.10000*%
%ADD14C,0.00000*%
%ADD15C,0.06000*%
%ADD16R,0.05906X0.03543*%
%ADD17C,0.03962*%
%ADD18C,0.01200*%
%ADD19C,0.01000*%
D10*
X0008250Y0005000D02*
X0008250Y0123110D01*
X0132266Y0123110D01*
X0132266Y0005000D01*
X0008250Y0005000D01*
X0014500Y0020000D02*
X0032374Y0037874D01*
X0038250Y0037874D01*
X0043624Y0037874D01*
X0046375Y0040625D01*
X0046375Y0056250D01*
X0050125Y0060000D01*
X0063875Y0060000D01*
X0044244Y0077244D02*
X0047000Y0080000D01*
X0044244Y0077244D02*
X0038250Y0077244D01*
X0047000Y0090000D02*
X0044008Y0092992D01*
X0038250Y0092992D01*
X0032896Y0103504D02*
X0025996Y0103504D01*
X0025750Y0103750D01*
X0038250Y0045748D02*
X0038250Y0045000D01*
X0024854Y0022746D02*
X0025100Y0022500D01*
X0030750Y0022500D01*
X0089500Y0022500D02*
X0089746Y0022746D01*
X0096104Y0022746D01*
X0109500Y0020000D02*
X0112000Y0017500D01*
X0123250Y0017500D01*
X0125750Y0020000D01*
X0109500Y0020000D02*
X0109500Y0037500D01*
X0102404Y0037500D01*
X0102030Y0037874D01*
X0120996Y0103504D02*
X0120750Y0103750D01*
X0120996Y0103504D02*
X0127896Y0103504D01*
D11*
X0102030Y0092992D03*
X0102030Y0085118D03*
X0102030Y0077244D03*
X0102030Y0069370D03*
X0102030Y0061496D03*
X0102030Y0053622D03*
X0102030Y0045748D03*
X0102030Y0037874D03*
X0038250Y0037874D03*
X0038250Y0045748D03*
X0038250Y0053622D03*
X0038250Y0061496D03*
X0038250Y0069370D03*
X0038250Y0077244D03*
X0038250Y0085118D03*
X0038250Y0092992D03*
D12*
X0050061Y0030000D03*
X0057935Y0030000D03*
X0065809Y0030000D03*
X0073683Y0030000D03*
X0081557Y0030000D03*
X0089431Y0030000D03*
D13*
X0082915Y0011693D03*
X0053585Y0011693D03*
D14*
X0056636Y0023622D02*
X0056638Y0023713D01*
X0056644Y0023803D01*
X0056654Y0023894D01*
X0056668Y0023983D01*
X0056686Y0024072D01*
X0056707Y0024161D01*
X0056733Y0024248D01*
X0056762Y0024334D01*
X0056796Y0024418D01*
X0056832Y0024501D01*
X0056873Y0024583D01*
X0056917Y0024662D01*
X0056964Y0024740D01*
X0057015Y0024815D01*
X0057069Y0024888D01*
X0057126Y0024958D01*
X0057186Y0025026D01*
X0057249Y0025092D01*
X0057315Y0025154D01*
X0057384Y0025213D01*
X0057455Y0025270D01*
X0057529Y0025323D01*
X0057605Y0025373D01*
X0057683Y0025420D01*
X0057763Y0025463D01*
X0057844Y0025502D01*
X0057928Y0025538D01*
X0058013Y0025570D01*
X0058099Y0025599D01*
X0058186Y0025623D01*
X0058275Y0025644D01*
X0058364Y0025661D01*
X0058454Y0025674D01*
X0058544Y0025683D01*
X0058635Y0025688D01*
X0058726Y0025689D01*
X0058816Y0025686D01*
X0058907Y0025679D01*
X0058997Y0025668D01*
X0059087Y0025653D01*
X0059176Y0025634D01*
X0059264Y0025612D01*
X0059350Y0025585D01*
X0059436Y0025555D01*
X0059520Y0025521D01*
X0059603Y0025483D01*
X0059684Y0025442D01*
X0059763Y0025397D01*
X0059840Y0025348D01*
X0059914Y0025297D01*
X0059987Y0025242D01*
X0060057Y0025184D01*
X0060124Y0025123D01*
X0060188Y0025059D01*
X0060250Y0024993D01*
X0060309Y0024923D01*
X0060364Y0024852D01*
X0060417Y0024777D01*
X0060466Y0024701D01*
X0060512Y0024623D01*
X0060554Y0024542D01*
X0060593Y0024460D01*
X0060628Y0024376D01*
X0060659Y0024291D01*
X0060686Y0024204D01*
X0060710Y0024117D01*
X0060730Y0024028D01*
X0060746Y0023939D01*
X0060758Y0023849D01*
X0060766Y0023758D01*
X0060770Y0023667D01*
X0060770Y0023577D01*
X0060766Y0023486D01*
X0060758Y0023395D01*
X0060746Y0023305D01*
X0060730Y0023216D01*
X0060710Y0023127D01*
X0060686Y0023040D01*
X0060659Y0022953D01*
X0060628Y0022868D01*
X0060593Y0022784D01*
X0060554Y0022702D01*
X0060512Y0022621D01*
X0060466Y0022543D01*
X0060417Y0022467D01*
X0060364Y0022392D01*
X0060309Y0022321D01*
X0060250Y0022251D01*
X0060188Y0022185D01*
X0060124Y0022121D01*
X0060057Y0022060D01*
X0059987Y0022002D01*
X0059914Y0021947D01*
X0059840Y0021896D01*
X0059763Y0021847D01*
X0059684Y0021802D01*
X0059603Y0021761D01*
X0059520Y0021723D01*
X0059436Y0021689D01*
X0059350Y0021659D01*
X0059264Y0021632D01*
X0059176Y0021610D01*
X0059087Y0021591D01*
X0058997Y0021576D01*
X0058907Y0021565D01*
X0058816Y0021558D01*
X0058726Y0021555D01*
X0058635Y0021556D01*
X0058544Y0021561D01*
X0058454Y0021570D01*
X0058364Y0021583D01*
X0058275Y0021600D01*
X0058186Y0021621D01*
X0058099Y0021645D01*
X0058013Y0021674D01*
X0057928Y0021706D01*
X0057844Y0021742D01*
X0057763Y0021781D01*
X0057683Y0021824D01*
X0057605Y0021871D01*
X0057529Y0021921D01*
X0057455Y0021974D01*
X0057384Y0022031D01*
X0057315Y0022090D01*
X0057249Y0022152D01*
X0057186Y0022218D01*
X0057126Y0022286D01*
X0057069Y0022356D01*
X0057015Y0022429D01*
X0056964Y0022504D01*
X0056917Y0022582D01*
X0056873Y0022661D01*
X0056832Y0022743D01*
X0056796Y0022826D01*
X0056762Y0022910D01*
X0056733Y0022996D01*
X0056707Y0023083D01*
X0056686Y0023172D01*
X0056668Y0023261D01*
X0056654Y0023350D01*
X0056644Y0023441D01*
X0056638Y0023531D01*
X0056636Y0023622D01*
X0075730Y0023622D02*
X0075732Y0023713D01*
X0075738Y0023803D01*
X0075748Y0023894D01*
X0075762Y0023983D01*
X0075780Y0024072D01*
X0075801Y0024161D01*
X0075827Y0024248D01*
X0075856Y0024334D01*
X0075890Y0024418D01*
X0075926Y0024501D01*
X0075967Y0024583D01*
X0076011Y0024662D01*
X0076058Y0024740D01*
X0076109Y0024815D01*
X0076163Y0024888D01*
X0076220Y0024958D01*
X0076280Y0025026D01*
X0076343Y0025092D01*
X0076409Y0025154D01*
X0076478Y0025213D01*
X0076549Y0025270D01*
X0076623Y0025323D01*
X0076699Y0025373D01*
X0076777Y0025420D01*
X0076857Y0025463D01*
X0076938Y0025502D01*
X0077022Y0025538D01*
X0077107Y0025570D01*
X0077193Y0025599D01*
X0077280Y0025623D01*
X0077369Y0025644D01*
X0077458Y0025661D01*
X0077548Y0025674D01*
X0077638Y0025683D01*
X0077729Y0025688D01*
X0077820Y0025689D01*
X0077910Y0025686D01*
X0078001Y0025679D01*
X0078091Y0025668D01*
X0078181Y0025653D01*
X0078270Y0025634D01*
X0078358Y0025612D01*
X0078444Y0025585D01*
X0078530Y0025555D01*
X0078614Y0025521D01*
X0078697Y0025483D01*
X0078778Y0025442D01*
X0078857Y0025397D01*
X0078934Y0025348D01*
X0079008Y0025297D01*
X0079081Y0025242D01*
X0079151Y0025184D01*
X0079218Y0025123D01*
X0079282Y0025059D01*
X0079344Y0024993D01*
X0079403Y0024923D01*
X0079458Y0024852D01*
X0079511Y0024777D01*
X0079560Y0024701D01*
X0079606Y0024623D01*
X0079648Y0024542D01*
X0079687Y0024460D01*
X0079722Y0024376D01*
X0079753Y0024291D01*
X0079780Y0024204D01*
X0079804Y0024117D01*
X0079824Y0024028D01*
X0079840Y0023939D01*
X0079852Y0023849D01*
X0079860Y0023758D01*
X0079864Y0023667D01*
X0079864Y0023577D01*
X0079860Y0023486D01*
X0079852Y0023395D01*
X0079840Y0023305D01*
X0079824Y0023216D01*
X0079804Y0023127D01*
X0079780Y0023040D01*
X0079753Y0022953D01*
X0079722Y0022868D01*
X0079687Y0022784D01*
X0079648Y0022702D01*
X0079606Y0022621D01*
X0079560Y0022543D01*
X0079511Y0022467D01*
X0079458Y0022392D01*
X0079403Y0022321D01*
X0079344Y0022251D01*
X0079282Y0022185D01*
X0079218Y0022121D01*
X0079151Y0022060D01*
X0079081Y0022002D01*
X0079008Y0021947D01*
X0078934Y0021896D01*
X0078857Y0021847D01*
X0078778Y0021802D01*
X0078697Y0021761D01*
X0078614Y0021723D01*
X0078530Y0021689D01*
X0078444Y0021659D01*
X0078358Y0021632D01*
X0078270Y0021610D01*
X0078181Y0021591D01*
X0078091Y0021576D01*
X0078001Y0021565D01*
X0077910Y0021558D01*
X0077820Y0021555D01*
X0077729Y0021556D01*
X0077638Y0021561D01*
X0077548Y0021570D01*
X0077458Y0021583D01*
X0077369Y0021600D01*
X0077280Y0021621D01*
X0077193Y0021645D01*
X0077107Y0021674D01*
X0077022Y0021706D01*
X0076938Y0021742D01*
X0076857Y0021781D01*
X0076777Y0021824D01*
X0076699Y0021871D01*
X0076623Y0021921D01*
X0076549Y0021974D01*
X0076478Y0022031D01*
X0076409Y0022090D01*
X0076343Y0022152D01*
X0076280Y0022218D01*
X0076220Y0022286D01*
X0076163Y0022356D01*
X0076109Y0022429D01*
X0076058Y0022504D01*
X0076011Y0022582D01*
X0075967Y0022661D01*
X0075926Y0022743D01*
X0075890Y0022826D01*
X0075856Y0022910D01*
X0075827Y0022996D01*
X0075801Y0023083D01*
X0075780Y0023172D01*
X0075762Y0023261D01*
X0075748Y0023350D01*
X0075738Y0023441D01*
X0075732Y0023531D01*
X0075730Y0023622D01*
D15*
X0122750Y0020000D02*
X0128750Y0020000D01*
X0128750Y0030000D02*
X0122750Y0030000D01*
X0122750Y0040000D02*
X0128750Y0040000D01*
X0128750Y0050000D02*
X0122750Y0050000D01*
X0122750Y0060000D02*
X0128750Y0060000D01*
X0128750Y0070000D02*
X0122750Y0070000D01*
X0122750Y0080000D02*
X0128750Y0080000D01*
X0128750Y0090000D02*
X0122750Y0090000D01*
X0017500Y0090000D02*
X0011500Y0090000D01*
X0011500Y0080000D02*
X0017500Y0080000D01*
X0017500Y0070000D02*
X0011500Y0070000D01*
X0011500Y0060000D02*
X0017500Y0060000D01*
X0017500Y0050000D02*
X0011500Y0050000D01*
X0011500Y0040000D02*
X0017500Y0040000D01*
X0017500Y0030000D02*
X0011500Y0030000D01*
X0011500Y0020000D02*
X0017500Y0020000D01*
D16*
X0024854Y0022746D03*
X0024854Y0009754D03*
X0044146Y0009754D03*
X0044146Y0022746D03*
X0096104Y0022746D03*
X0096104Y0009754D03*
X0115396Y0009754D03*
X0115396Y0022746D03*
X0108604Y0103504D03*
X0108604Y0116496D03*
X0127896Y0116496D03*
X0127896Y0103504D03*
X0032896Y0103504D03*
X0032896Y0116496D03*
X0013604Y0116496D03*
X0013604Y0103504D03*
D17*
X0015750Y0097500D03*
X0025750Y0103750D03*
X0047000Y0090000D03*
X0047000Y0080000D03*
X0047625Y0073750D03*
X0063875Y0060000D03*
X0079500Y0050000D03*
X0094500Y0046250D03*
X0109500Y0049375D03*
X0109500Y0037500D03*
X0125250Y0050000D03*
X0089500Y0022500D03*
X0087000Y0065625D03*
X0087000Y0074375D03*
X0074500Y0083750D03*
X0114500Y0096250D03*
X0120750Y0103750D03*
X0030750Y0056875D03*
X0030750Y0041250D03*
X0030750Y0022500D03*
X0027000Y0017500D03*
D18*
X0024854Y0015354D01*
X0024854Y0009754D01*
X0038250Y0015650D02*
X0038250Y0027500D01*
X0046375Y0035625D01*
X0053875Y0035625D01*
X0069500Y0051250D01*
X0079500Y0050000D01*
X0080750Y0048125D01*
X0103250Y0025625D01*
X0103250Y0015000D01*
X0108496Y0009754D01*
X0115396Y0009754D01*
X0096104Y0009754D02*
X0095858Y0010000D01*
X0092000Y0010000D01*
X0090750Y0011250D01*
X0090750Y0016250D01*
X0088250Y0018750D01*
X0049500Y0018750D01*
X0045504Y0022746D01*
X0044146Y0022746D01*
X0046299Y0025918D02*
X0040613Y0025918D01*
X0039793Y0025098D01*
X0039793Y0025000D01*
X0038250Y0025000D01*
X0038250Y0034112D01*
X0042767Y0034112D01*
X0043587Y0034932D01*
X0043587Y0035674D01*
X0044535Y0035674D01*
X0047286Y0038425D01*
X0048575Y0039714D01*
X0048575Y0055339D01*
X0051036Y0057800D01*
X0061293Y0057800D01*
X0061960Y0057134D01*
X0063202Y0056619D01*
X0064548Y0056619D01*
X0065790Y0057134D01*
X0066741Y0058085D01*
X0067256Y0059327D01*
X0067256Y0060673D01*
X0066741Y0061915D01*
X0065790Y0062866D01*
X0064548Y0063381D01*
X0063202Y0063381D01*
X0061960Y0062866D01*
X0061293Y0062200D01*
X0049214Y0062200D01*
X0047925Y0060911D01*
X0044175Y0057161D01*
X0044175Y0041536D01*
X0043521Y0040882D01*
X0042767Y0041636D01*
X0038250Y0041636D01*
X0038250Y0041986D01*
X0042767Y0041986D01*
X0043587Y0042806D01*
X0043587Y0048690D01*
X0042767Y0049510D01*
X0038250Y0049510D01*
X0038250Y0049860D01*
X0042767Y0049860D01*
X0043587Y0050680D01*
X0043587Y0056564D01*
X0042767Y0057384D01*
X0038250Y0057384D01*
X0038250Y0057734D01*
X0042767Y0057734D01*
X0043587Y0058554D01*
X0043587Y0064438D01*
X0042767Y0065258D01*
X0038250Y0065258D01*
X0038250Y0065608D01*
X0042767Y0065608D01*
X0043587Y0066428D01*
X0043587Y0072312D01*
X0042767Y0073132D01*
X0038250Y0073132D01*
X0038250Y0073482D01*
X0042767Y0073482D01*
X0043587Y0074302D01*
X0043587Y0075044D01*
X0044501Y0075044D01*
X0044244Y0074423D01*
X0044244Y0073077D01*
X0044759Y0071835D01*
X0045710Y0070884D01*
X0046952Y0070369D01*
X0048298Y0070369D01*
X0049540Y0070884D01*
X0050407Y0071750D01*
X0052828Y0071750D01*
X0062828Y0081750D01*
X0071718Y0081750D01*
X0072585Y0080884D01*
X0073827Y0080369D01*
X0075173Y0080369D01*
X0076415Y0080884D01*
X0077366Y0081835D01*
X0077881Y0083077D01*
X0077881Y0084423D01*
X0077366Y0085665D01*
X0076415Y0086616D01*
X0075173Y0087131D01*
X0073827Y0087131D01*
X0072585Y0086616D01*
X0071718Y0085750D01*
X0061172Y0085750D01*
X0060000Y0084578D01*
X0051172Y0075750D01*
X0050407Y0075750D01*
X0049540Y0076616D01*
X0048603Y0077004D01*
X0048915Y0077134D01*
X0049866Y0078085D01*
X0050381Y0079327D01*
X0050381Y0080673D01*
X0049866Y0081915D01*
X0048915Y0082866D01*
X0047673Y0083381D01*
X0046327Y0083381D01*
X0045085Y0082866D01*
X0044134Y0081915D01*
X0043619Y0080673D01*
X0043619Y0079730D01*
X0043587Y0079698D01*
X0043587Y0080186D01*
X0042767Y0081006D01*
X0038250Y0081006D01*
X0038250Y0081356D01*
X0042767Y0081356D01*
X0043587Y0082176D01*
X0043587Y0088060D01*
X0042767Y0088880D01*
X0038250Y0088880D01*
X0038250Y0089230D01*
X0042767Y0089230D01*
X0043587Y0090050D01*
X0043587Y0090302D01*
X0043619Y0090270D01*
X0043619Y0089327D01*
X0044134Y0088085D01*
X0045085Y0087134D01*
X0046327Y0086619D01*
X0047673Y0086619D01*
X0048915Y0087134D01*
X0049866Y0088085D01*
X0050381Y0089327D01*
X0050381Y0090673D01*
X0049935Y0091750D01*
X0092203Y0091750D01*
X0095453Y0095000D01*
X0096693Y0095000D01*
X0096693Y0090050D01*
X0097513Y0089230D01*
X0103250Y0089230D01*
X0103250Y0088880D01*
X0097513Y0088880D01*
X0096693Y0088060D01*
X0096693Y0082176D01*
X0097513Y0081356D01*
X0103250Y0081356D01*
X0103250Y0081006D01*
X0097513Y0081006D01*
X0096693Y0080186D01*
X0096693Y0074302D01*
X0097513Y0073482D01*
X0103250Y0073482D01*
X0103250Y0073132D01*
X0097805Y0073132D01*
X0097162Y0073775D01*
X0094662Y0076275D01*
X0089873Y0076275D01*
X0089866Y0076290D01*
X0088915Y0077241D01*
X0087673Y0077756D01*
X0086327Y0077756D01*
X0085085Y0077241D01*
X0084134Y0076290D01*
X0083619Y0075048D01*
X0083619Y0073702D01*
X0084134Y0072460D01*
X0085085Y0071509D01*
X0086327Y0070994D01*
X0087673Y0070994D01*
X0088915Y0071509D01*
X0089866Y0072460D01*
X0089873Y0072475D01*
X0093088Y0072475D01*
X0094475Y0071088D01*
X0094475Y0063962D01*
X0090912Y0067525D01*
X0089873Y0067525D01*
X0089866Y0067540D01*
X0088915Y0068491D01*
X0087673Y0069006D01*
X0086327Y0069006D01*
X0085085Y0068491D01*
X0084134Y0067540D01*
X0083619Y0066298D01*
X0083619Y0064952D01*
X0084134Y0063710D01*
X0085085Y0062759D01*
X0086327Y0062244D01*
X0087673Y0062244D01*
X0088915Y0062759D01*
X0089610Y0063453D01*
X0091350Y0061713D01*
X0091350Y0056088D01*
X0092463Y0054975D01*
X0095716Y0051722D01*
X0096693Y0051722D01*
X0096693Y0050680D01*
X0097513Y0049860D01*
X0103250Y0049860D01*
X0103250Y0049510D01*
X0097513Y0049510D01*
X0096767Y0048765D01*
X0096415Y0049116D01*
X0095173Y0049631D01*
X0093827Y0049631D01*
X0092585Y0049116D01*
X0091634Y0048165D01*
X0091119Y0046923D01*
X0091119Y0045577D01*
X0091634Y0044335D01*
X0092585Y0043384D01*
X0093827Y0042869D01*
X0095173Y0042869D01*
X0096415Y0043384D01*
X0096693Y0043661D01*
X0096693Y0042806D01*
X0097513Y0041986D01*
X0103250Y0041986D01*
X0103250Y0041636D01*
X0097513Y0041636D01*
X0096693Y0040816D01*
X0096693Y0034932D01*
X0097513Y0034112D01*
X0103250Y0034112D01*
X0103250Y0025000D01*
X0100457Y0025000D01*
X0100457Y0025098D01*
X0099637Y0025918D01*
X0093193Y0025918D01*
X0093193Y0034517D01*
X0092373Y0035337D01*
X0086489Y0035337D01*
X0085669Y0034517D01*
X0085669Y0025483D01*
X0086152Y0025000D01*
X0084836Y0025000D01*
X0085319Y0025483D01*
X0085319Y0034517D01*
X0084499Y0035337D01*
X0078615Y0035337D01*
X0077795Y0034517D01*
X0077795Y0030289D01*
X0077445Y0030289D01*
X0077445Y0034517D01*
X0076625Y0035337D01*
X0070741Y0035337D01*
X0069921Y0034517D01*
X0069921Y0025483D01*
X0070404Y0025000D01*
X0069088Y0025000D01*
X0069571Y0025483D01*
X0069571Y0034517D01*
X0068751Y0035337D01*
X0062867Y0035337D01*
X0062047Y0034517D01*
X0062047Y0029453D01*
X0061697Y0029598D01*
X0061697Y0034517D01*
X0060877Y0035337D01*
X0054993Y0035337D01*
X0054173Y0034517D01*
X0054173Y0028521D01*
X0053823Y0028171D01*
X0053823Y0034517D01*
X0053003Y0035337D01*
X0047119Y0035337D01*
X0046299Y0034517D01*
X0046299Y0025918D01*
X0046299Y0026573D02*
X0038250Y0026573D01*
X0038250Y0025375D02*
X0040070Y0025375D01*
X0038250Y0027772D02*
X0046299Y0027772D01*
X0046299Y0028970D02*
X0038250Y0028970D01*
X0038250Y0030169D02*
X0046299Y0030169D01*
X0046299Y0031367D02*
X0038250Y0031367D01*
X0038250Y0032566D02*
X0046299Y0032566D01*
X0046299Y0033764D02*
X0038250Y0033764D01*
X0043587Y0034963D02*
X0046745Y0034963D01*
X0045023Y0036161D02*
X0096693Y0036161D01*
X0096693Y0034963D02*
X0092747Y0034963D01*
X0093193Y0033764D02*
X0103250Y0033764D01*
X0103250Y0032566D02*
X0093193Y0032566D01*
X0093193Y0031367D02*
X0103250Y0031367D01*
X0103250Y0030169D02*
X0093193Y0030169D01*
X0093193Y0028970D02*
X0103250Y0028970D01*
X0103250Y0027772D02*
X0093193Y0027772D01*
X0093193Y0026573D02*
X0103250Y0026573D01*
X0103250Y0025375D02*
X0100180Y0025375D01*
X0085777Y0025375D02*
X0085211Y0025375D01*
X0085319Y0026573D02*
X0085669Y0026573D01*
X0085669Y0027772D02*
X0085319Y0027772D01*
X0085319Y0028970D02*
X0085669Y0028970D01*
X0085669Y0030169D02*
X0085319Y0030169D01*
X0085319Y0031367D02*
X0085669Y0031367D01*
X0085669Y0032566D02*
X0085319Y0032566D01*
X0085319Y0033764D02*
X0085669Y0033764D01*
X0086115Y0034963D02*
X0084873Y0034963D01*
X0078241Y0034963D02*
X0076999Y0034963D01*
X0077445Y0033764D02*
X0077795Y0033764D01*
X0077795Y0032566D02*
X0077445Y0032566D01*
X0077445Y0031367D02*
X0077795Y0031367D01*
X0070367Y0034963D02*
X0069125Y0034963D01*
X0069571Y0033764D02*
X0069921Y0033764D01*
X0069921Y0032566D02*
X0069571Y0032566D01*
X0069571Y0031367D02*
X0069921Y0031367D01*
X0069921Y0030169D02*
X0069571Y0030169D01*
X0069571Y0028970D02*
X0069921Y0028970D01*
X0069921Y0027772D02*
X0069571Y0027772D01*
X0069571Y0026573D02*
X0069921Y0026573D01*
X0070029Y0025375D02*
X0069463Y0025375D01*
X0062047Y0030169D02*
X0061697Y0030169D01*
X0061697Y0031367D02*
X0062047Y0031367D01*
X0062047Y0032566D02*
X0061697Y0032566D01*
X0061697Y0033764D02*
X0062047Y0033764D01*
X0062493Y0034963D02*
X0061251Y0034963D01*
X0054619Y0034963D02*
X0053377Y0034963D01*
X0053823Y0033764D02*
X0054173Y0033764D01*
X0054173Y0032566D02*
X0053823Y0032566D01*
X0053823Y0031367D02*
X0054173Y0031367D01*
X0054173Y0030169D02*
X0053823Y0030169D01*
X0053823Y0028970D02*
X0054173Y0028970D01*
X0046221Y0037360D02*
X0096693Y0037360D01*
X0096693Y0038558D02*
X0047420Y0038558D01*
X0048575Y0039757D02*
X0096693Y0039757D01*
X0096832Y0040955D02*
X0048575Y0040955D01*
X0048575Y0042154D02*
X0097345Y0042154D01*
X0096693Y0043352D02*
X0096340Y0043352D01*
X0092660Y0043352D02*
X0048575Y0043352D01*
X0048575Y0044551D02*
X0091544Y0044551D01*
X0091119Y0045749D02*
X0048575Y0045749D01*
X0048575Y0046948D02*
X0091129Y0046948D01*
X0091626Y0048146D02*
X0048575Y0048146D01*
X0048575Y0049345D02*
X0093137Y0049345D01*
X0095863Y0049345D02*
X0097347Y0049345D01*
X0096829Y0050543D02*
X0048575Y0050543D01*
X0048575Y0051742D02*
X0095696Y0051742D01*
X0094498Y0052940D02*
X0048575Y0052940D01*
X0048575Y0054139D02*
X0093299Y0054139D01*
X0092101Y0055337D02*
X0048575Y0055337D01*
X0049772Y0056536D02*
X0091350Y0056536D01*
X0091350Y0057734D02*
X0066391Y0057734D01*
X0067093Y0058933D02*
X0091350Y0058933D01*
X0091350Y0060132D02*
X0067256Y0060132D01*
X0066984Y0061330D02*
X0091350Y0061330D01*
X0090534Y0062529D02*
X0088360Y0062529D01*
X0085640Y0062529D02*
X0066128Y0062529D01*
X0061622Y0062529D02*
X0043587Y0062529D01*
X0043587Y0063727D02*
X0084126Y0063727D01*
X0083630Y0064926D02*
X0043100Y0064926D01*
X0043283Y0066124D02*
X0083619Y0066124D01*
X0084043Y0067323D02*
X0043587Y0067323D01*
X0043587Y0068521D02*
X0085157Y0068521D01*
X0088843Y0068521D02*
X0094475Y0068521D01*
X0094475Y0067323D02*
X0091114Y0067323D01*
X0092313Y0066124D02*
X0094475Y0066124D01*
X0094475Y0064926D02*
X0093511Y0064926D01*
X0094475Y0069720D02*
X0043587Y0069720D01*
X0043587Y0070918D02*
X0045675Y0070918D01*
X0044642Y0072117D02*
X0043587Y0072117D01*
X0044244Y0073315D02*
X0038250Y0073315D01*
X0043587Y0074514D02*
X0044282Y0074514D01*
X0047625Y0073750D02*
X0052000Y0073750D01*
X0062000Y0083750D01*
X0074500Y0083750D01*
X0077518Y0085300D02*
X0096693Y0085300D01*
X0096693Y0084102D02*
X0077881Y0084102D01*
X0077809Y0082903D02*
X0096693Y0082903D01*
X0097164Y0081705D02*
X0077236Y0081705D01*
X0075504Y0080506D02*
X0097013Y0080506D01*
X0096693Y0079308D02*
X0060386Y0079308D01*
X0061585Y0080506D02*
X0073496Y0080506D01*
X0071764Y0081705D02*
X0062783Y0081705D01*
X0059523Y0084102D02*
X0043587Y0084102D01*
X0043587Y0085300D02*
X0060722Y0085300D01*
X0058325Y0082903D02*
X0048826Y0082903D01*
X0049954Y0081705D02*
X0057126Y0081705D01*
X0055928Y0080506D02*
X0050381Y0080506D01*
X0050373Y0079308D02*
X0054729Y0079308D01*
X0053531Y0078109D02*
X0049876Y0078109D01*
X0048830Y0076911D02*
X0052332Y0076911D01*
X0055592Y0074514D02*
X0083619Y0074514D01*
X0083779Y0073315D02*
X0054394Y0073315D01*
X0053195Y0072117D02*
X0084477Y0072117D01*
X0083894Y0075712D02*
X0056791Y0075712D01*
X0057989Y0076911D02*
X0084754Y0076911D01*
X0089246Y0076911D02*
X0096693Y0076911D01*
X0096693Y0078109D02*
X0059188Y0078109D01*
X0050750Y0070000D02*
X0057000Y0063750D01*
X0070750Y0063750D01*
X0080750Y0053750D01*
X0079500Y0050000D01*
X0080750Y0053750D02*
X0080750Y0055000D01*
X0061359Y0057734D02*
X0050971Y0057734D01*
X0047145Y0060132D02*
X0043587Y0060132D01*
X0043587Y0061330D02*
X0048344Y0061330D01*
X0045947Y0058933D02*
X0043587Y0058933D01*
X0042768Y0057734D02*
X0044748Y0057734D01*
X0044175Y0056536D02*
X0043587Y0056536D01*
X0043587Y0055337D02*
X0044175Y0055337D01*
X0044175Y0054139D02*
X0043587Y0054139D01*
X0043587Y0052940D02*
X0044175Y0052940D01*
X0044175Y0051742D02*
X0043587Y0051742D01*
X0043450Y0050543D02*
X0044175Y0050543D01*
X0044175Y0049345D02*
X0042932Y0049345D01*
X0043587Y0048146D02*
X0044175Y0048146D01*
X0044175Y0046948D02*
X0043587Y0046948D01*
X0043587Y0045749D02*
X0044175Y0045749D01*
X0044175Y0044551D02*
X0043587Y0044551D01*
X0043587Y0043352D02*
X0044175Y0043352D01*
X0044175Y0042154D02*
X0042935Y0042154D01*
X0043448Y0040955D02*
X0043594Y0040955D01*
X0030750Y0041250D02*
X0030750Y0044600D01*
X0030750Y0053600D02*
X0030750Y0056875D01*
X0049575Y0070918D02*
X0094475Y0070918D01*
X0093446Y0072117D02*
X0089523Y0072117D01*
X0095225Y0075712D02*
X0096693Y0075712D01*
X0096693Y0074514D02*
X0096423Y0074514D01*
X0097622Y0073315D02*
X0103250Y0073315D01*
X0096693Y0086499D02*
X0076533Y0086499D01*
X0072467Y0086499D02*
X0043587Y0086499D01*
X0043587Y0087697D02*
X0044521Y0087697D01*
X0043798Y0088896D02*
X0038250Y0088896D01*
X0043587Y0090094D02*
X0043619Y0090094D01*
X0049479Y0087697D02*
X0096693Y0087697D01*
X0096693Y0090094D02*
X0050381Y0090094D01*
X0050202Y0088896D02*
X0103250Y0088896D01*
X0096693Y0091293D02*
X0050124Y0091293D01*
X0050750Y0091250D02*
X0044500Y0097500D01*
X0023250Y0097500D01*
X0019500Y0101250D01*
X0019500Y0110600D01*
X0013604Y0116496D01*
X0013604Y0103504D02*
X0013604Y0099646D01*
X0015750Y0097500D01*
X0037000Y0103750D02*
X0040750Y0100000D01*
X0044500Y0100000D01*
X0050750Y0093750D01*
X0091375Y0093750D01*
X0097625Y0100000D01*
X0105100Y0100000D01*
X0108604Y0103504D01*
X0113250Y0101250D02*
X0109500Y0097500D01*
X0098250Y0097500D01*
X0093250Y0092500D01*
X0092945Y0092491D02*
X0096693Y0092491D01*
X0096693Y0093690D02*
X0094143Y0093690D01*
X0095342Y0094888D02*
X0096693Y0094888D01*
X0113250Y0101250D02*
X0113250Y0108750D01*
X0108604Y0113396D01*
X0108604Y0116496D01*
X0117000Y0113750D02*
X0117000Y0098750D01*
X0114500Y0096250D01*
X0117000Y0113750D02*
X0119746Y0116496D01*
X0127896Y0116496D01*
X0045174Y0082903D02*
X0043587Y0082903D01*
X0044046Y0081705D02*
X0043116Y0081705D01*
X0043267Y0080506D02*
X0043619Y0080506D01*
X0037000Y0103750D02*
X0037000Y0112392D01*
X0032896Y0116496D01*
X0038250Y0015650D02*
X0044146Y0009754D01*
D19*
X0014500Y0030000D02*
X0014550Y0030200D01*
X0028950Y0044600D01*
X0030750Y0044600D01*
X0037950Y0044600D01*
X0038250Y0045748D01*
X0037950Y0053600D02*
X0030750Y0053600D01*
X0028050Y0053600D01*
X0014550Y0040100D01*
X0014500Y0040000D01*
X0014550Y0050000D02*
X0014500Y0050000D01*
X0014550Y0050000D02*
X0025350Y0060800D01*
X0037950Y0060800D01*
X0038250Y0061496D01*
X0037950Y0068900D02*
X0038250Y0069370D01*
X0037950Y0068900D02*
X0022650Y0068900D01*
X0014550Y0060800D01*
X0014500Y0060000D01*
X0014500Y0070000D02*
X0014550Y0070700D01*
X0020850Y0077000D01*
X0037950Y0077000D01*
X0038250Y0077244D01*
X0037950Y0085100D02*
X0038250Y0085118D01*
X0037950Y0085100D02*
X0019050Y0085100D01*
X0014550Y0080600D01*
X0014500Y0080000D01*
X0014500Y0090000D02*
X0014550Y0090500D01*
X0016350Y0092300D01*
X0037950Y0092300D01*
X0038250Y0092992D01*
X0087000Y0074375D02*
X0093875Y0074375D01*
X0096375Y0071875D01*
X0096375Y0063750D01*
X0099325Y0060800D01*
X0102750Y0060800D01*
X0103875Y0060800D01*
X0114450Y0060800D01*
X0125250Y0050000D01*
X0125750Y0050000D01*
X0125250Y0040100D02*
X0125750Y0040000D01*
X0125250Y0040100D02*
X0111750Y0053600D01*
X0109500Y0053600D01*
X0109500Y0049375D01*
X0109950Y0045500D02*
X0125250Y0030200D01*
X0125750Y0030000D01*
X0109950Y0045500D02*
X0102750Y0045500D01*
X0102030Y0045748D01*
X0095002Y0045748D01*
X0094500Y0046250D01*
X0096503Y0053622D02*
X0093250Y0056875D01*
X0093250Y0062500D01*
X0090125Y0065625D01*
X0087000Y0065625D01*
X0102030Y0069370D02*
X0102750Y0068900D01*
X0117150Y0068900D01*
X0125250Y0060800D01*
X0125750Y0060000D01*
X0125750Y0070000D02*
X0125250Y0070700D01*
X0118950Y0077000D01*
X0102750Y0077000D01*
X0102030Y0077244D01*
X0102030Y0085118D02*
X0102750Y0085100D01*
X0120750Y0085100D01*
X0125250Y0080600D01*
X0125750Y0080000D01*
X0125750Y0090000D02*
X0123450Y0092300D01*
X0102750Y0092300D01*
X0102030Y0092992D01*
X0102030Y0053622D02*
X0096503Y0053622D01*
X0102750Y0053600D02*
X0109500Y0053600D01*
X0038250Y0053622D02*
X0037950Y0053600D01*
M02*
