%
M48
M72
T01C0.03200
T02C0.04000
%
T01
X30750Y6800
X30750Y16800
X40750Y16800
X50750Y16800
X60750Y16800
X70750Y16800
X80750Y16800
X90750Y16800
X90750Y6800
X80750Y6800
X70750Y6800
X60750Y6800
X50750Y6800
X40750Y6800
X40750Y26800
X50750Y26800
X60750Y26800
X70750Y26800
X80750Y26800
X90750Y26800
X90750Y36800
X80750Y36800
X70750Y36800
X60750Y36800
X50750Y36800
X40750Y36800
X40750Y46800
X50750Y46800
X60750Y46800
X70750Y46800
X80750Y46800
X90750Y46800
X90750Y56800
X80750Y56800
X70750Y56800
X60750Y56800
X50750Y56800
X40750Y56800
X40750Y66800
X50750Y66800
X60750Y66800
X70750Y66800
X80750Y66800
X90750Y66800
X100750Y66800
X110750Y66800
X110750Y56800
X100750Y56800
X100750Y46800
X110750Y46800
X110750Y36800
X100750Y36800
X100750Y26800
X110750Y26800
X110750Y16800
X100750Y16800
X100750Y6800
X110750Y6800
X110750Y76800
X100750Y76800
X100750Y86800
X110750Y86800
X110750Y96800
X100750Y96800
X100750Y106800
X110750Y106800
X120750Y106800
X120750Y96800
X90750Y96800
X80750Y96800
X70750Y96800
X60750Y96800
X50750Y96800
X40750Y96800
X40750Y86800
X50750Y86800
X60750Y86800
X70750Y86800
X80750Y86800
X90750Y86800
X90750Y76800
X80750Y76800
X70750Y76800
X60750Y76800
X50750Y76800
X40750Y76800
X30750Y76800
X30750Y86800
X30750Y96800
X20750Y96800
X20750Y106800
X30750Y106800
X40750Y106800
X50750Y106800
X60750Y106800
X70750Y106800
X80750Y106800
X90750Y106800
X30750Y66800
X30750Y56800
X30750Y46800
X30750Y36800
X30750Y26800
T02
X14500Y16800
X14500Y26800
X14500Y36800
X14500Y46800
X14500Y56800
X14500Y66800
X14500Y76800
X14500Y86800
X125750Y86800
X125750Y76800
X125750Y66800
X125750Y56800
X125750Y46800
X125750Y36800
X125750Y26800
X125750Y16800
M30
