G75*
%MOIN*%
%OFA0B0*%
%FSLAX25Y25*%
%IPPOS*%
%LPD*%
%AMOC8*
5,1,8,0,0,1.08239X$1,22.5*
%
%ADD10C,0.01600*%
%ADD11C,0.06000*%
%ADD12R,0.05906X0.05118*%
%ADD13OC8,0.06000*%
%ADD14R,0.02362X0.08661*%
%ADD15C,0.08600*%
%ADD16C,0.02400*%
%ADD17C,0.01000*%
%ADD18C,0.03962*%
D10*
X0008250Y0002200D02*
X0008250Y0120310D01*
X0132266Y0120310D01*
X0132266Y0002200D01*
X0008250Y0002200D01*
D11*
X0011500Y0017200D02*
X0017500Y0017200D01*
X0017500Y0027200D02*
X0011500Y0027200D01*
X0011500Y0037200D02*
X0017500Y0037200D01*
X0017500Y0047200D02*
X0011500Y0047200D01*
X0011500Y0057200D02*
X0017500Y0057200D01*
X0017500Y0067200D02*
X0011500Y0067200D01*
X0011500Y0077200D02*
X0017500Y0077200D01*
X0017500Y0087200D02*
X0011500Y0087200D01*
X0122750Y0087200D02*
X0128750Y0087200D01*
X0128750Y0077200D02*
X0122750Y0077200D01*
X0122750Y0067200D02*
X0128750Y0067200D01*
X0128750Y0057200D02*
X0122750Y0057200D01*
X0122750Y0047200D02*
X0128750Y0047200D01*
X0128750Y0037200D02*
X0122750Y0037200D01*
X0122750Y0027200D02*
X0128750Y0027200D01*
X0128750Y0017200D02*
X0122750Y0017200D01*
D12*
X0100750Y0083460D03*
X0100750Y0090940D03*
X0082000Y0090940D03*
X0082000Y0083460D03*
X0069500Y0083460D03*
X0069500Y0090940D03*
X0052000Y0090940D03*
X0052000Y0083460D03*
X0039500Y0083460D03*
X0039500Y0090940D03*
D13*
X0103250Y0102200D03*
X0113250Y0102200D03*
X0113250Y0112200D03*
X0103250Y0112200D03*
D14*
X0100750Y0072436D03*
X0105750Y0072436D03*
X0110750Y0072436D03*
X0095750Y0072436D03*
X0080750Y0072436D03*
X0075750Y0072436D03*
X0070750Y0072436D03*
X0065750Y0072436D03*
X0050750Y0072436D03*
X0045750Y0072436D03*
X0040750Y0072436D03*
X0035750Y0072436D03*
X0035750Y0051964D03*
X0040750Y0051964D03*
X0045750Y0051964D03*
X0050750Y0051964D03*
X0065750Y0051964D03*
X0070750Y0051964D03*
X0075750Y0051964D03*
X0080750Y0051964D03*
X0095750Y0051964D03*
X0100750Y0051964D03*
X0105750Y0051964D03*
X0110750Y0051964D03*
D15*
X0105337Y0017200D03*
X0091557Y0017200D03*
X0077837Y0017200D03*
X0064057Y0017200D03*
X0050337Y0017200D03*
X0036557Y0017200D03*
D16*
X0051786Y0062200D02*
X0052869Y0063284D01*
X0053250Y0064203D01*
X0053250Y0066596D01*
X0053931Y0067277D01*
X0053931Y0077595D01*
X0053681Y0077845D01*
X0054119Y0078284D01*
X0054375Y0078901D01*
X0055781Y0078901D01*
X0056953Y0080072D01*
X0056953Y0086847D01*
X0056734Y0087066D01*
X0057003Y0087532D01*
X0057153Y0088091D01*
X0057153Y0090861D01*
X0052080Y0090861D01*
X0052080Y0091020D01*
X0057153Y0091020D01*
X0057153Y0093789D01*
X0057003Y0094348D01*
X0056713Y0094850D01*
X0056304Y0095260D01*
X0055802Y0095549D01*
X0055242Y0095699D01*
X0052080Y0095699D01*
X0052080Y0091020D01*
X0051920Y0091020D01*
X0051920Y0090861D01*
X0046847Y0090861D01*
X0046847Y0088091D01*
X0046997Y0087532D01*
X0047266Y0087066D01*
X0047047Y0086847D01*
X0047047Y0080072D01*
X0048219Y0078901D01*
X0048250Y0078901D01*
X0048250Y0078546D01*
X0047780Y0078817D01*
X0047221Y0078967D01*
X0045750Y0078967D01*
X0045750Y0072436D01*
X0045750Y0065906D01*
X0047221Y0065906D01*
X0047780Y0066055D01*
X0048250Y0066327D01*
X0048250Y0065736D01*
X0047214Y0064700D01*
X0042938Y0064700D01*
X0043250Y0065453D01*
X0043250Y0066327D01*
X0043720Y0066055D01*
X0044279Y0065906D01*
X0045750Y0065906D01*
X0045750Y0072436D01*
X0045750Y0072436D01*
X0045750Y0078967D01*
X0044279Y0078967D01*
X0043720Y0078817D01*
X0043250Y0078546D01*
X0043250Y0078901D01*
X0043281Y0078901D01*
X0044453Y0080072D01*
X0044453Y0086847D01*
X0044234Y0087066D01*
X0044503Y0087532D01*
X0044653Y0088091D01*
X0044653Y0090861D01*
X0039580Y0090861D01*
X0039580Y0091020D01*
X0044653Y0091020D01*
X0044653Y0093789D01*
X0044503Y0094348D01*
X0044213Y0094850D01*
X0043804Y0095260D01*
X0043302Y0095549D01*
X0042742Y0095699D01*
X0039580Y0095699D01*
X0039580Y0091020D01*
X0039420Y0091020D01*
X0039420Y0090861D01*
X0034347Y0090861D01*
X0034347Y0088091D01*
X0034497Y0087532D01*
X0034766Y0087066D01*
X0034547Y0086847D01*
X0034547Y0080072D01*
X0035653Y0078967D01*
X0034279Y0078967D01*
X0033720Y0078817D01*
X0033218Y0078527D01*
X0032808Y0078118D01*
X0032519Y0077616D01*
X0032369Y0077057D01*
X0032369Y0072436D01*
X0032369Y0067816D01*
X0032519Y0067256D01*
X0032551Y0067200D01*
X0022753Y0067200D01*
X0022500Y0067095D01*
X0022500Y0068195D01*
X0021739Y0070032D01*
X0020332Y0071439D01*
X0018495Y0072200D01*
X0020332Y0072961D01*
X0021739Y0074368D01*
X0022500Y0076205D01*
X0022500Y0078195D01*
X0021739Y0080032D01*
X0020332Y0081439D01*
X0018495Y0082200D01*
X0020332Y0082961D01*
X0021739Y0084368D01*
X0022500Y0086205D01*
X0022500Y0088195D01*
X0021739Y0090032D01*
X0020332Y0091439D01*
X0018495Y0092200D01*
X0014250Y0092200D01*
X0014250Y0114310D01*
X0098289Y0114310D01*
X0098250Y0114271D01*
X0098250Y0110129D01*
X0101179Y0107200D01*
X0098250Y0104271D01*
X0098250Y0100129D01*
X0101179Y0097200D01*
X0105321Y0097200D01*
X0108109Y0099988D01*
X0111096Y0097000D01*
X0113250Y0097000D01*
X0115404Y0097000D01*
X0118450Y0100046D01*
X0118450Y0102200D01*
X0118450Y0104354D01*
X0115604Y0107200D01*
X0118450Y0110046D01*
X0118450Y0112200D01*
X0118450Y0114310D01*
X0126266Y0114310D01*
X0126266Y0092200D01*
X0121755Y0092200D01*
X0119918Y0091439D01*
X0118511Y0090032D01*
X0117750Y0088195D01*
X0117750Y0086205D01*
X0118511Y0084368D01*
X0119918Y0082961D01*
X0121755Y0082200D01*
X0119918Y0081439D01*
X0118511Y0080032D01*
X0117750Y0078195D01*
X0117750Y0076205D01*
X0118511Y0074368D01*
X0119918Y0072961D01*
X0121755Y0072200D01*
X0119918Y0071439D01*
X0118511Y0070032D01*
X0117750Y0068195D01*
X0117750Y0066205D01*
X0118511Y0064368D01*
X0119918Y0062961D01*
X0121755Y0062200D01*
X0119918Y0061439D01*
X0118511Y0060032D01*
X0117750Y0058195D01*
X0117750Y0056205D01*
X0118511Y0054368D01*
X0119918Y0052961D01*
X0121755Y0052200D01*
X0119918Y0051439D01*
X0118511Y0050032D01*
X0117750Y0048195D01*
X0117750Y0046205D01*
X0118511Y0044368D01*
X0119918Y0042961D01*
X0121755Y0042200D01*
X0119918Y0041439D01*
X0118511Y0040032D01*
X0117750Y0038195D01*
X0117750Y0036205D01*
X0118511Y0034368D01*
X0119918Y0032961D01*
X0121755Y0032200D01*
X0119918Y0031439D01*
X0118511Y0030032D01*
X0117750Y0028195D01*
X0117750Y0026205D01*
X0118511Y0024368D01*
X0119918Y0022961D01*
X0121568Y0022278D01*
X0121532Y0022272D01*
X0120754Y0022019D01*
X0120025Y0021647D01*
X0119362Y0021166D01*
X0118784Y0020588D01*
X0118303Y0019925D01*
X0117931Y0019196D01*
X0117678Y0018418D01*
X0117550Y0017609D01*
X0117550Y0017200D01*
X0125750Y0017200D01*
X0125750Y0012000D01*
X0126266Y0012000D01*
X0126266Y0008200D01*
X0113250Y0008200D01*
X0113250Y0046124D01*
X0113931Y0046805D01*
X0113931Y0057123D01*
X0113250Y0057804D01*
X0113250Y0062200D01*
X0103880Y0062200D01*
X0104125Y0062445D01*
X0104731Y0063908D01*
X0104731Y0065492D01*
X0104477Y0066106D01*
X0107760Y0066106D01*
X0108250Y0066596D01*
X0108740Y0066106D01*
X0112760Y0066106D01*
X0113931Y0067277D01*
X0113931Y0077595D01*
X0112760Y0078767D01*
X0108740Y0078767D01*
X0108250Y0078276D01*
X0107760Y0078767D01*
X0103740Y0078767D01*
X0103250Y0078276D01*
X0103250Y0078901D01*
X0104531Y0078901D01*
X0105703Y0080072D01*
X0105703Y0086847D01*
X0105484Y0087066D01*
X0105753Y0087532D01*
X0105903Y0088091D01*
X0105903Y0090861D01*
X0100830Y0090861D01*
X0100830Y0091020D01*
X0105903Y0091020D01*
X0105903Y0093789D01*
X0105753Y0094348D01*
X0105463Y0094850D01*
X0105054Y0095260D01*
X0104552Y0095549D01*
X0103992Y0095699D01*
X0100830Y0095699D01*
X0100830Y0091020D01*
X0100670Y0091020D01*
X0100670Y0090861D01*
X0095597Y0090861D01*
X0095597Y0088091D01*
X0095747Y0087532D01*
X0096016Y0087066D01*
X0095797Y0086847D01*
X0095797Y0080072D01*
X0096903Y0078967D01*
X0095750Y0078967D01*
X0095750Y0072436D01*
X0095750Y0065906D01*
X0096940Y0065906D01*
X0096769Y0065492D01*
X0096769Y0063908D01*
X0097375Y0062445D01*
X0097620Y0062200D01*
X0073250Y0062200D01*
X0073250Y0066327D01*
X0073720Y0066055D01*
X0074279Y0065906D01*
X0075750Y0065906D01*
X0077221Y0065906D01*
X0077780Y0066055D01*
X0078282Y0066345D01*
X0078391Y0066455D01*
X0078740Y0066106D01*
X0082760Y0066106D01*
X0083931Y0067277D01*
X0083931Y0068644D01*
X0084958Y0068219D01*
X0086542Y0068219D01*
X0088005Y0068825D01*
X0089125Y0069945D01*
X0089731Y0071408D01*
X0089731Y0072992D01*
X0089125Y0074455D01*
X0088005Y0075575D01*
X0086542Y0076181D01*
X0084958Y0076181D01*
X0083931Y0075756D01*
X0083931Y0077595D01*
X0083681Y0077845D01*
X0084119Y0078284D01*
X0084375Y0078901D01*
X0085781Y0078901D01*
X0086953Y0080072D01*
X0086953Y0086847D01*
X0086734Y0087066D01*
X0087003Y0087532D01*
X0087153Y0088091D01*
X0087153Y0090861D01*
X0082080Y0090861D01*
X0082080Y0091020D01*
X0087153Y0091020D01*
X0087153Y0093789D01*
X0087003Y0094348D01*
X0086713Y0094850D01*
X0086304Y0095260D01*
X0085802Y0095549D01*
X0085242Y0095699D01*
X0082080Y0095699D01*
X0082080Y0091020D01*
X0081920Y0091020D01*
X0081920Y0090861D01*
X0076847Y0090861D01*
X0076847Y0088091D01*
X0076997Y0087532D01*
X0077266Y0087066D01*
X0077047Y0086847D01*
X0077047Y0080072D01*
X0078219Y0078901D01*
X0078250Y0078901D01*
X0078250Y0078546D01*
X0077780Y0078817D01*
X0077221Y0078967D01*
X0075750Y0078967D01*
X0075750Y0072436D01*
X0075750Y0065906D01*
X0075750Y0072436D01*
X0075750Y0072436D01*
X0075750Y0078967D01*
X0074279Y0078967D01*
X0073720Y0078817D01*
X0073250Y0078546D01*
X0073250Y0078901D01*
X0073281Y0078901D01*
X0074453Y0080072D01*
X0074453Y0086847D01*
X0074234Y0087066D01*
X0074503Y0087532D01*
X0074653Y0088091D01*
X0074653Y0090861D01*
X0069580Y0090861D01*
X0069580Y0091020D01*
X0074653Y0091020D01*
X0074653Y0093789D01*
X0074503Y0094348D01*
X0074213Y0094850D01*
X0073804Y0095260D01*
X0073302Y0095549D01*
X0072742Y0095699D01*
X0069580Y0095699D01*
X0069580Y0091020D01*
X0069420Y0091020D01*
X0069420Y0090861D01*
X0064347Y0090861D01*
X0064347Y0088091D01*
X0064497Y0087532D01*
X0064766Y0087066D01*
X0064547Y0086847D01*
X0064547Y0080072D01*
X0065653Y0078967D01*
X0064279Y0078967D01*
X0063720Y0078817D01*
X0063218Y0078527D01*
X0062808Y0078118D01*
X0062519Y0077616D01*
X0062369Y0077057D01*
X0062369Y0072436D01*
X0062369Y0067816D01*
X0062519Y0067256D01*
X0062808Y0066755D01*
X0063218Y0066345D01*
X0063720Y0066055D01*
X0064279Y0065906D01*
X0065750Y0065906D01*
X0067221Y0065906D01*
X0067780Y0066055D01*
X0068250Y0066327D01*
X0068250Y0063236D01*
X0067214Y0062200D01*
X0051786Y0062200D01*
X0053250Y0064561D02*
X0068250Y0064561D01*
X0065750Y0065906D02*
X0065750Y0072436D01*
X0065750Y0072436D01*
X0065750Y0065906D01*
X0065750Y0066960D02*
X0065750Y0066960D01*
X0065750Y0069358D02*
X0065750Y0069358D01*
X0065750Y0071757D02*
X0065750Y0071757D01*
X0065750Y0072436D02*
X0062369Y0072436D01*
X0065750Y0072436D01*
X0065750Y0072436D01*
X0062369Y0071757D02*
X0053931Y0071757D01*
X0053931Y0074155D02*
X0062369Y0074155D01*
X0062369Y0076554D02*
X0053931Y0076554D01*
X0055833Y0078952D02*
X0064225Y0078952D01*
X0064547Y0081351D02*
X0056953Y0081351D01*
X0056953Y0083749D02*
X0064547Y0083749D01*
X0064547Y0086148D02*
X0056953Y0086148D01*
X0057153Y0088546D02*
X0064347Y0088546D01*
X0064347Y0091020D02*
X0069420Y0091020D01*
X0069420Y0095699D01*
X0066258Y0095699D01*
X0065698Y0095549D01*
X0065196Y0095260D01*
X0064787Y0094850D01*
X0064497Y0094348D01*
X0064347Y0093789D01*
X0064347Y0091020D01*
X0064347Y0093343D02*
X0057153Y0093343D01*
X0052080Y0093343D02*
X0051920Y0093343D01*
X0051920Y0091020D02*
X0051920Y0095699D01*
X0048758Y0095699D01*
X0048198Y0095549D01*
X0047696Y0095260D01*
X0047287Y0094850D01*
X0046997Y0094348D01*
X0046847Y0093789D01*
X0046847Y0091020D01*
X0051920Y0091020D01*
X0051920Y0090945D02*
X0039580Y0090945D01*
X0039420Y0090945D02*
X0020826Y0090945D01*
X0022354Y0088546D02*
X0034347Y0088546D01*
X0034547Y0086148D02*
X0022476Y0086148D01*
X0021120Y0083749D02*
X0034547Y0083749D01*
X0034547Y0081351D02*
X0020420Y0081351D01*
X0018495Y0082200D02*
X0014250Y0082200D01*
X0014250Y0082200D01*
X0018495Y0082200D01*
X0022186Y0078952D02*
X0034225Y0078952D01*
X0032369Y0076554D02*
X0022500Y0076554D01*
X0021526Y0074155D02*
X0032369Y0074155D01*
X0032369Y0072436D02*
X0035750Y0072436D01*
X0032369Y0072436D01*
X0032369Y0071757D02*
X0019564Y0071757D01*
X0018495Y0072200D02*
X0014250Y0072200D01*
X0014250Y0072200D01*
X0018495Y0072200D01*
X0022018Y0069358D02*
X0032369Y0069358D01*
X0035750Y0072436D02*
X0035750Y0072436D01*
X0043333Y0078952D02*
X0044225Y0078952D01*
X0045750Y0078952D02*
X0045750Y0078952D01*
X0047275Y0078952D02*
X0048167Y0078952D01*
X0047047Y0081351D02*
X0044453Y0081351D01*
X0044453Y0083749D02*
X0047047Y0083749D01*
X0047047Y0086148D02*
X0044453Y0086148D01*
X0044653Y0088546D02*
X0046847Y0088546D01*
X0046847Y0093343D02*
X0044653Y0093343D01*
X0039580Y0093343D02*
X0039420Y0093343D01*
X0039420Y0091020D02*
X0039420Y0095699D01*
X0036258Y0095699D01*
X0035698Y0095549D01*
X0035196Y0095260D01*
X0034787Y0094850D01*
X0034497Y0094348D01*
X0034347Y0093789D01*
X0034347Y0091020D01*
X0039420Y0091020D01*
X0034347Y0093343D02*
X0014250Y0093343D01*
X0014250Y0095742D02*
X0126266Y0095742D01*
X0126266Y0093343D02*
X0105903Y0093343D01*
X0106261Y0098140D02*
X0109956Y0098140D01*
X0113250Y0098140D02*
X0113250Y0098140D01*
X0113250Y0097000D02*
X0113250Y0102200D01*
X0118450Y0102200D01*
X0113250Y0102200D01*
X0113250Y0102200D01*
X0113250Y0102200D01*
X0113250Y0107000D01*
X0113250Y0112200D01*
X0118450Y0112200D01*
X0113250Y0112200D01*
X0113250Y0112200D01*
X0113250Y0112200D01*
X0113250Y0102200D01*
X0113250Y0102200D01*
X0113250Y0097000D01*
X0116544Y0098140D02*
X0126266Y0098140D01*
X0126266Y0100539D02*
X0118450Y0100539D01*
X0118450Y0102937D02*
X0126266Y0102937D01*
X0126266Y0105336D02*
X0117468Y0105336D01*
X0116138Y0107734D02*
X0126266Y0107734D01*
X0126266Y0110133D02*
X0118450Y0110133D01*
X0118450Y0112532D02*
X0126266Y0112532D01*
X0113250Y0110133D02*
X0113250Y0110133D01*
X0113250Y0107734D02*
X0113250Y0107734D01*
X0110896Y0107200D02*
X0108109Y0104412D01*
X0105321Y0107200D01*
X0101179Y0107200D01*
X0105321Y0107200D01*
X0108109Y0109988D01*
X0110896Y0107200D01*
X0110362Y0107734D02*
X0105856Y0107734D01*
X0107185Y0105336D02*
X0109032Y0105336D01*
X0113250Y0105336D02*
X0113250Y0105336D01*
X0113250Y0102937D02*
X0113250Y0102937D01*
X0113250Y0100539D02*
X0113250Y0100539D01*
X0119424Y0090945D02*
X0100830Y0090945D01*
X0100670Y0090945D02*
X0082080Y0090945D01*
X0081920Y0090945D02*
X0069580Y0090945D01*
X0069420Y0090945D02*
X0052080Y0090945D01*
X0045750Y0076554D02*
X0045750Y0076554D01*
X0045750Y0074155D02*
X0045750Y0074155D01*
X0045750Y0072436D02*
X0045750Y0072436D01*
X0045750Y0071757D02*
X0045750Y0071757D01*
X0045750Y0069358D02*
X0045750Y0069358D01*
X0045750Y0066960D02*
X0045750Y0066960D01*
X0053614Y0066960D02*
X0062690Y0066960D01*
X0062369Y0069358D02*
X0053931Y0069358D01*
X0073250Y0064561D02*
X0096769Y0064561D01*
X0095750Y0065906D02*
X0095750Y0072436D01*
X0095750Y0072436D01*
X0092369Y0072436D01*
X0092369Y0067816D01*
X0092519Y0067256D01*
X0092808Y0066755D01*
X0093218Y0066345D01*
X0093720Y0066055D01*
X0094279Y0065906D01*
X0095750Y0065906D01*
X0095750Y0066960D02*
X0095750Y0066960D01*
X0095750Y0069358D02*
X0095750Y0069358D01*
X0095750Y0071757D02*
X0095750Y0071757D01*
X0095750Y0072436D02*
X0095750Y0072436D01*
X0092369Y0072436D01*
X0092369Y0077057D01*
X0092519Y0077616D01*
X0092808Y0078118D01*
X0093218Y0078527D01*
X0093720Y0078817D01*
X0094279Y0078967D01*
X0095750Y0078967D01*
X0095750Y0072436D01*
X0095750Y0072436D01*
X0095750Y0074155D02*
X0095750Y0074155D01*
X0095750Y0076554D02*
X0095750Y0076554D01*
X0095750Y0078952D02*
X0095750Y0078952D01*
X0094225Y0078952D02*
X0085833Y0078952D01*
X0086953Y0081351D02*
X0095797Y0081351D01*
X0095797Y0083749D02*
X0086953Y0083749D01*
X0086953Y0086148D02*
X0095797Y0086148D01*
X0095597Y0088546D02*
X0087153Y0088546D01*
X0087153Y0093343D02*
X0095597Y0093343D01*
X0095597Y0093789D02*
X0095597Y0091020D01*
X0100670Y0091020D01*
X0100670Y0095699D01*
X0097508Y0095699D01*
X0096948Y0095549D01*
X0096446Y0095260D01*
X0096037Y0094850D01*
X0095747Y0094348D01*
X0095597Y0093789D01*
X0100670Y0093343D02*
X0100830Y0093343D01*
X0100238Y0098140D02*
X0014250Y0098140D01*
X0014250Y0100539D02*
X0098250Y0100539D01*
X0098250Y0102937D02*
X0014250Y0102937D01*
X0014250Y0105336D02*
X0099315Y0105336D01*
X0100644Y0107734D02*
X0014250Y0107734D01*
X0014250Y0110133D02*
X0098250Y0110133D01*
X0098250Y0112532D02*
X0014250Y0112532D01*
X0069420Y0093343D02*
X0069580Y0093343D01*
X0074653Y0093343D02*
X0076847Y0093343D01*
X0076847Y0093789D02*
X0076847Y0091020D01*
X0081920Y0091020D01*
X0081920Y0095699D01*
X0078758Y0095699D01*
X0078198Y0095549D01*
X0077696Y0095260D01*
X0077287Y0094850D01*
X0076997Y0094348D01*
X0076847Y0093789D01*
X0081920Y0093343D02*
X0082080Y0093343D01*
X0076847Y0088546D02*
X0074653Y0088546D01*
X0074453Y0086148D02*
X0077047Y0086148D01*
X0077047Y0083749D02*
X0074453Y0083749D01*
X0074453Y0081351D02*
X0077047Y0081351D01*
X0077275Y0078952D02*
X0078167Y0078952D01*
X0075750Y0078952D02*
X0075750Y0078952D01*
X0074225Y0078952D02*
X0073333Y0078952D01*
X0075750Y0076554D02*
X0075750Y0076554D01*
X0075750Y0074155D02*
X0075750Y0074155D01*
X0075750Y0072436D02*
X0075750Y0072436D01*
X0075750Y0071757D02*
X0075750Y0071757D01*
X0075750Y0069358D02*
X0075750Y0069358D01*
X0075750Y0066960D02*
X0075750Y0066960D01*
X0083614Y0066960D02*
X0092690Y0066960D01*
X0092369Y0069358D02*
X0088538Y0069358D01*
X0089731Y0071757D02*
X0092369Y0071757D01*
X0092369Y0074155D02*
X0089249Y0074155D01*
X0092369Y0076554D02*
X0083931Y0076554D01*
X0104583Y0078952D02*
X0118064Y0078952D01*
X0117750Y0076554D02*
X0113931Y0076554D01*
X0113931Y0074155D02*
X0118724Y0074155D01*
X0120686Y0071757D02*
X0113931Y0071757D01*
X0113931Y0069358D02*
X0118232Y0069358D01*
X0117750Y0066960D02*
X0113614Y0066960D01*
X0118431Y0064561D02*
X0104731Y0064561D01*
X0113250Y0062163D02*
X0121666Y0062163D01*
X0121755Y0062200D02*
X0126266Y0062200D01*
X0126266Y0062200D01*
X0121755Y0062200D01*
X0118400Y0059764D02*
X0113250Y0059764D01*
X0113688Y0057366D02*
X0117750Y0057366D01*
X0118263Y0054967D02*
X0113931Y0054967D01*
X0113931Y0052569D02*
X0120865Y0052569D01*
X0121755Y0052200D02*
X0126266Y0052200D01*
X0126266Y0052200D01*
X0121755Y0052200D01*
X0118649Y0050170D02*
X0113931Y0050170D01*
X0113931Y0047772D02*
X0117750Y0047772D01*
X0118095Y0045373D02*
X0113250Y0045373D01*
X0113250Y0042975D02*
X0119904Y0042975D01*
X0121755Y0042200D02*
X0126266Y0042200D01*
X0126266Y0042200D01*
X0121755Y0042200D01*
X0119055Y0040576D02*
X0113250Y0040576D01*
X0113250Y0038178D02*
X0117750Y0038178D01*
X0117927Y0035779D02*
X0113250Y0035779D01*
X0113250Y0033381D02*
X0119498Y0033381D01*
X0119461Y0030982D02*
X0113250Y0030982D01*
X0113250Y0028584D02*
X0117911Y0028584D01*
X0117758Y0026185D02*
X0113250Y0026185D01*
X0113250Y0023787D02*
X0119092Y0023787D01*
X0119668Y0021388D02*
X0113250Y0021388D01*
X0113250Y0018990D02*
X0117864Y0018990D01*
X0117550Y0017200D02*
X0117550Y0016791D01*
X0117678Y0015982D01*
X0117931Y0015204D01*
X0118303Y0014475D01*
X0118784Y0013812D01*
X0119362Y0013234D01*
X0120025Y0012753D01*
X0120754Y0012381D01*
X0121532Y0012128D01*
X0122341Y0012000D01*
X0125750Y0012000D01*
X0125750Y0017200D01*
X0125750Y0017200D01*
X0125750Y0017200D01*
X0117550Y0017200D01*
X0117582Y0016591D02*
X0113250Y0016591D01*
X0113250Y0014193D02*
X0118507Y0014193D01*
X0113250Y0011794D02*
X0126266Y0011794D01*
X0126266Y0009396D02*
X0113250Y0009396D01*
X0125750Y0014193D02*
X0125750Y0014193D01*
X0125750Y0016591D02*
X0125750Y0016591D01*
X0126266Y0032200D02*
X0121755Y0032200D01*
X0126266Y0032200D01*
X0126266Y0032200D01*
X0126266Y0072200D02*
X0121755Y0072200D01*
X0126266Y0072200D01*
X0126266Y0072200D01*
X0119830Y0081351D02*
X0105703Y0081351D01*
X0105703Y0083749D02*
X0119130Y0083749D01*
X0117774Y0086148D02*
X0105703Y0086148D01*
X0105903Y0088546D02*
X0117896Y0088546D01*
X0121755Y0082200D02*
X0126266Y0082200D01*
X0121755Y0082200D01*
X0126266Y0082200D02*
X0126266Y0082200D01*
D17*
X0100750Y0083460D02*
X0100750Y0072436D01*
X0100750Y0064700D01*
X0093360Y0057200D02*
X0093171Y0056873D01*
X0093069Y0056492D01*
X0093069Y0052054D01*
X0095659Y0052054D01*
X0095659Y0051873D01*
X0093069Y0051873D01*
X0093069Y0047436D01*
X0093171Y0047054D01*
X0093369Y0046712D01*
X0093648Y0046433D01*
X0093990Y0046235D01*
X0094371Y0046133D01*
X0095659Y0046133D01*
X0095659Y0051873D01*
X0095841Y0051873D01*
X0095841Y0052054D01*
X0098431Y0052054D01*
X0100659Y0052054D01*
X0100659Y0051873D01*
X0095841Y0051873D01*
X0095841Y0046133D01*
X0097129Y0046133D01*
X0097510Y0046235D01*
X0097852Y0046433D01*
X0098131Y0046712D01*
X0098250Y0046917D01*
X0098369Y0046712D01*
X0098648Y0046433D01*
X0098990Y0046235D01*
X0099371Y0046133D01*
X0100659Y0046133D01*
X0100659Y0051873D01*
X0100841Y0051873D01*
X0100841Y0046133D01*
X0102000Y0046133D01*
X0102000Y0032200D01*
X0098250Y0032200D01*
X0098250Y0010950D01*
X0087000Y0010950D01*
X0087000Y0013605D01*
X0087133Y0013422D01*
X0087779Y0012776D01*
X0088517Y0012239D01*
X0089331Y0011825D01*
X0090199Y0011543D01*
X0091073Y0011404D01*
X0091073Y0016716D01*
X0092041Y0016716D01*
X0092041Y0011404D01*
X0092915Y0011543D01*
X0093784Y0011825D01*
X0094597Y0012239D01*
X0095336Y0012776D01*
X0095981Y0013422D01*
X0096518Y0014160D01*
X0096932Y0014974D01*
X0097214Y0015842D01*
X0097353Y0016716D01*
X0092041Y0016716D01*
X0092041Y0017684D01*
X0091073Y0017684D01*
X0091073Y0022996D01*
X0090199Y0022857D01*
X0089331Y0022575D01*
X0088517Y0022161D01*
X0087779Y0021624D01*
X0087133Y0020978D01*
X0087000Y0020795D01*
X0087000Y0025950D01*
X0090750Y0025950D01*
X0090750Y0057200D01*
X0093360Y0057200D01*
X0093312Y0057118D02*
X0090750Y0057118D01*
X0090750Y0056120D02*
X0093069Y0056120D01*
X0093069Y0055121D02*
X0090750Y0055121D01*
X0090750Y0054123D02*
X0093069Y0054123D01*
X0093069Y0053124D02*
X0090750Y0053124D01*
X0090750Y0052126D02*
X0093069Y0052126D01*
X0093069Y0051127D02*
X0090750Y0051127D01*
X0090750Y0050129D02*
X0093069Y0050129D01*
X0093069Y0049130D02*
X0090750Y0049130D01*
X0090750Y0048132D02*
X0093069Y0048132D01*
X0093150Y0047133D02*
X0090750Y0047133D01*
X0090750Y0046134D02*
X0094366Y0046134D01*
X0095659Y0046134D02*
X0095841Y0046134D01*
X0095841Y0047133D02*
X0095659Y0047133D01*
X0095659Y0048132D02*
X0095841Y0048132D01*
X0095841Y0049130D02*
X0095659Y0049130D01*
X0095659Y0050129D02*
X0095841Y0050129D01*
X0095841Y0051127D02*
X0095659Y0051127D01*
X0100659Y0051127D02*
X0100841Y0051127D01*
X0100841Y0050129D02*
X0100659Y0050129D01*
X0100659Y0049130D02*
X0100841Y0049130D01*
X0100841Y0048132D02*
X0100659Y0048132D01*
X0100659Y0047133D02*
X0100841Y0047133D01*
X0100841Y0046134D02*
X0100659Y0046134D01*
X0099366Y0046134D02*
X0097134Y0046134D01*
X0102000Y0045136D02*
X0090750Y0045136D01*
X0090750Y0044137D02*
X0102000Y0044137D01*
X0102000Y0043139D02*
X0090750Y0043139D01*
X0090750Y0042140D02*
X0102000Y0042140D01*
X0102000Y0041142D02*
X0090750Y0041142D01*
X0090750Y0040143D02*
X0102000Y0040143D01*
X0102000Y0039145D02*
X0090750Y0039145D01*
X0090750Y0038146D02*
X0102000Y0038146D01*
X0102000Y0037148D02*
X0090750Y0037148D01*
X0090750Y0036149D02*
X0102000Y0036149D01*
X0102000Y0035151D02*
X0090750Y0035151D01*
X0090750Y0034152D02*
X0102000Y0034152D01*
X0102000Y0033154D02*
X0090750Y0033154D01*
X0090750Y0032155D02*
X0098250Y0032155D01*
X0098250Y0031157D02*
X0090750Y0031157D01*
X0090750Y0030158D02*
X0098250Y0030158D01*
X0098250Y0029160D02*
X0090750Y0029160D01*
X0090750Y0028161D02*
X0098250Y0028161D01*
X0098250Y0027163D02*
X0090750Y0027163D01*
X0090750Y0026164D02*
X0098250Y0026164D01*
X0098250Y0025166D02*
X0087000Y0025166D01*
X0087000Y0024167D02*
X0098250Y0024167D01*
X0098250Y0023169D02*
X0087000Y0023169D01*
X0087000Y0022170D02*
X0088536Y0022170D01*
X0087326Y0021172D02*
X0087000Y0021172D01*
X0083250Y0021172D02*
X0082067Y0021172D01*
X0082261Y0020978D02*
X0081615Y0021624D01*
X0080876Y0022161D01*
X0080063Y0022575D01*
X0079195Y0022857D01*
X0078321Y0022996D01*
X0078321Y0017684D01*
X0077352Y0017684D01*
X0077352Y0016716D01*
X0072041Y0016716D01*
X0072179Y0015842D01*
X0072462Y0014974D01*
X0072876Y0014160D01*
X0073413Y0013422D01*
X0074058Y0012776D01*
X0074797Y0012239D01*
X0075610Y0011825D01*
X0076478Y0011543D01*
X0077352Y0011404D01*
X0077352Y0016716D01*
X0078321Y0016716D01*
X0078321Y0011404D01*
X0079195Y0011543D01*
X0080063Y0011825D01*
X0080876Y0012239D01*
X0081615Y0012776D01*
X0082261Y0013422D01*
X0082797Y0014160D01*
X0083212Y0014974D01*
X0083250Y0015091D01*
X0083250Y0010950D01*
X0072000Y0010950D01*
X0072000Y0025950D01*
X0074500Y0025950D01*
X0074500Y0046133D01*
X0075659Y0046133D01*
X0075659Y0051873D01*
X0075841Y0051873D01*
X0075841Y0052054D01*
X0080659Y0052054D01*
X0080659Y0051873D01*
X0078069Y0051873D01*
X0075841Y0051873D01*
X0075841Y0046133D01*
X0077129Y0046133D01*
X0077510Y0046235D01*
X0077852Y0046433D01*
X0078131Y0046712D01*
X0078250Y0046917D01*
X0078369Y0046712D01*
X0078648Y0046433D01*
X0078990Y0046235D01*
X0079371Y0046133D01*
X0080659Y0046133D01*
X0080659Y0051873D01*
X0080841Y0051873D01*
X0080841Y0046133D01*
X0082129Y0046133D01*
X0082510Y0046235D01*
X0082852Y0046433D01*
X0083131Y0046712D01*
X0083250Y0046917D01*
X0083250Y0019308D01*
X0083212Y0019426D01*
X0082797Y0020240D01*
X0082261Y0020978D01*
X0082831Y0020173D02*
X0083250Y0020173D01*
X0083250Y0022170D02*
X0080858Y0022170D01*
X0078321Y0022170D02*
X0077352Y0022170D01*
X0077352Y0022996D02*
X0076478Y0022857D01*
X0075610Y0022575D01*
X0074797Y0022161D01*
X0074058Y0021624D01*
X0073413Y0020978D01*
X0072876Y0020240D01*
X0072462Y0019426D01*
X0072179Y0018558D01*
X0072041Y0017684D01*
X0077352Y0017684D01*
X0077352Y0022996D01*
X0077352Y0021172D02*
X0078321Y0021172D01*
X0078321Y0020173D02*
X0077352Y0020173D01*
X0077352Y0019175D02*
X0078321Y0019175D01*
X0078321Y0018176D02*
X0077352Y0018176D01*
X0077352Y0017178D02*
X0072000Y0017178D01*
X0072000Y0018176D02*
X0072119Y0018176D01*
X0072000Y0019175D02*
X0072380Y0019175D01*
X0072000Y0020173D02*
X0072842Y0020173D01*
X0073606Y0021172D02*
X0072000Y0021172D01*
X0072000Y0022170D02*
X0074816Y0022170D01*
X0072000Y0023169D02*
X0083250Y0023169D01*
X0083250Y0024167D02*
X0072000Y0024167D01*
X0072000Y0025166D02*
X0083250Y0025166D01*
X0083250Y0026164D02*
X0074500Y0026164D01*
X0074500Y0027163D02*
X0083250Y0027163D01*
X0083250Y0028161D02*
X0074500Y0028161D01*
X0074500Y0029160D02*
X0083250Y0029160D01*
X0083250Y0030158D02*
X0074500Y0030158D01*
X0074500Y0031157D02*
X0083250Y0031157D01*
X0083250Y0032155D02*
X0074500Y0032155D01*
X0074500Y0033154D02*
X0083250Y0033154D01*
X0083250Y0034152D02*
X0074500Y0034152D01*
X0074500Y0035151D02*
X0083250Y0035151D01*
X0083250Y0036149D02*
X0074500Y0036149D01*
X0074500Y0037148D02*
X0083250Y0037148D01*
X0083250Y0038146D02*
X0074500Y0038146D01*
X0074500Y0039145D02*
X0083250Y0039145D01*
X0083250Y0040143D02*
X0074500Y0040143D01*
X0074500Y0041142D02*
X0083250Y0041142D01*
X0083250Y0042140D02*
X0074500Y0042140D01*
X0074500Y0043139D02*
X0083250Y0043139D01*
X0083250Y0044137D02*
X0074500Y0044137D01*
X0074500Y0045136D02*
X0083250Y0045136D01*
X0083250Y0046134D02*
X0082134Y0046134D01*
X0080841Y0046134D02*
X0080659Y0046134D01*
X0080659Y0047133D02*
X0080841Y0047133D01*
X0080841Y0048132D02*
X0080659Y0048132D01*
X0080659Y0049130D02*
X0080841Y0049130D01*
X0080841Y0050129D02*
X0080659Y0050129D01*
X0080659Y0051127D02*
X0080841Y0051127D01*
X0080841Y0052054D02*
X0080659Y0052054D01*
X0080659Y0057794D01*
X0079371Y0057794D01*
X0078990Y0057692D01*
X0078648Y0057495D01*
X0078369Y0057216D01*
X0078250Y0057010D01*
X0078131Y0057216D01*
X0077852Y0057495D01*
X0077510Y0057692D01*
X0077129Y0057794D01*
X0075841Y0057794D01*
X0075841Y0052054D01*
X0075659Y0052054D01*
X0075659Y0057794D01*
X0074500Y0057794D01*
X0074500Y0058450D01*
X0083250Y0058450D01*
X0083250Y0057010D01*
X0083131Y0057216D01*
X0082852Y0057495D01*
X0082510Y0057692D01*
X0082129Y0057794D01*
X0080841Y0057794D01*
X0080841Y0052054D01*
X0080841Y0052126D02*
X0080659Y0052126D01*
X0080659Y0053124D02*
X0080841Y0053124D01*
X0080841Y0054123D02*
X0080659Y0054123D01*
X0080659Y0055121D02*
X0080841Y0055121D01*
X0080841Y0056120D02*
X0080659Y0056120D01*
X0080659Y0057118D02*
X0080841Y0057118D01*
X0083188Y0057118D02*
X0083250Y0057118D01*
X0083250Y0058117D02*
X0074500Y0058117D01*
X0075659Y0057118D02*
X0075841Y0057118D01*
X0075841Y0056120D02*
X0075659Y0056120D01*
X0075659Y0055121D02*
X0075841Y0055121D01*
X0075841Y0054123D02*
X0075659Y0054123D01*
X0075659Y0053124D02*
X0075841Y0053124D01*
X0075841Y0052126D02*
X0075659Y0052126D01*
X0075659Y0051127D02*
X0075841Y0051127D01*
X0075841Y0050129D02*
X0075659Y0050129D01*
X0075659Y0049130D02*
X0075841Y0049130D01*
X0075841Y0048132D02*
X0075659Y0048132D01*
X0075659Y0047133D02*
X0075841Y0047133D01*
X0075841Y0046134D02*
X0075659Y0046134D01*
X0077134Y0046134D02*
X0079366Y0046134D01*
X0072000Y0046133D02*
X0072000Y0028450D01*
X0069500Y0028450D01*
X0069500Y0019218D01*
X0069432Y0019426D01*
X0069018Y0020240D01*
X0068481Y0020978D01*
X0067836Y0021624D01*
X0067097Y0022161D01*
X0066284Y0022575D01*
X0065415Y0022857D01*
X0064541Y0022996D01*
X0064541Y0017684D01*
X0063573Y0017684D01*
X0063573Y0022996D01*
X0062699Y0022857D01*
X0061831Y0022575D01*
X0061017Y0022161D01*
X0060279Y0021624D01*
X0059633Y0020978D01*
X0059500Y0020795D01*
X0059500Y0057900D01*
X0068996Y0057900D01*
X0069546Y0058450D01*
X0072000Y0058450D01*
X0072000Y0057794D01*
X0070841Y0057794D01*
X0070841Y0052054D01*
X0070659Y0052054D01*
X0070659Y0051873D01*
X0065841Y0051873D01*
X0065841Y0052054D01*
X0068431Y0052054D01*
X0070659Y0052054D01*
X0070659Y0057794D01*
X0069371Y0057794D01*
X0068990Y0057692D01*
X0068648Y0057495D01*
X0068369Y0057216D01*
X0068250Y0057010D01*
X0068131Y0057216D01*
X0067852Y0057495D01*
X0067510Y0057692D01*
X0067129Y0057794D01*
X0065841Y0057794D01*
X0065841Y0052054D01*
X0065659Y0052054D01*
X0065659Y0051873D01*
X0063069Y0051873D01*
X0063069Y0047436D01*
X0063171Y0047054D01*
X0063369Y0046712D01*
X0063648Y0046433D01*
X0063990Y0046235D01*
X0064371Y0046133D01*
X0065659Y0046133D01*
X0065659Y0051873D01*
X0065841Y0051873D01*
X0065841Y0046133D01*
X0067129Y0046133D01*
X0067510Y0046235D01*
X0067852Y0046433D01*
X0068131Y0046712D01*
X0068250Y0046917D01*
X0068369Y0046712D01*
X0068648Y0046433D01*
X0068990Y0046235D01*
X0069371Y0046133D01*
X0070659Y0046133D01*
X0070659Y0051873D01*
X0070841Y0051873D01*
X0070841Y0046133D01*
X0072000Y0046133D01*
X0072000Y0045136D02*
X0059500Y0045136D01*
X0059500Y0046134D02*
X0064366Y0046134D01*
X0065659Y0046134D02*
X0065841Y0046134D01*
X0065841Y0047133D02*
X0065659Y0047133D01*
X0065659Y0048132D02*
X0065841Y0048132D01*
X0065841Y0049130D02*
X0065659Y0049130D01*
X0065659Y0050129D02*
X0065841Y0050129D01*
X0065841Y0051127D02*
X0065659Y0051127D01*
X0065659Y0052054D02*
X0063069Y0052054D01*
X0063069Y0056492D01*
X0063171Y0056873D01*
X0063369Y0057216D01*
X0063648Y0057495D01*
X0063990Y0057692D01*
X0064371Y0057794D01*
X0065659Y0057794D01*
X0065659Y0052054D01*
X0065659Y0052126D02*
X0065841Y0052126D01*
X0065841Y0053124D02*
X0065659Y0053124D01*
X0065659Y0054123D02*
X0065841Y0054123D01*
X0065841Y0055121D02*
X0065659Y0055121D01*
X0065659Y0056120D02*
X0065841Y0056120D01*
X0065841Y0057118D02*
X0065659Y0057118D01*
X0063312Y0057118D02*
X0059500Y0057118D01*
X0059500Y0056120D02*
X0063069Y0056120D01*
X0063069Y0055121D02*
X0059500Y0055121D01*
X0059500Y0054123D02*
X0063069Y0054123D01*
X0063069Y0053124D02*
X0059500Y0053124D01*
X0059500Y0052126D02*
X0063069Y0052126D01*
X0063069Y0051127D02*
X0059500Y0051127D01*
X0059500Y0050129D02*
X0063069Y0050129D01*
X0063069Y0049130D02*
X0059500Y0049130D01*
X0059500Y0048132D02*
X0063069Y0048132D01*
X0063150Y0047133D02*
X0059500Y0047133D01*
X0059500Y0044137D02*
X0072000Y0044137D01*
X0072000Y0043139D02*
X0059500Y0043139D01*
X0059500Y0042140D02*
X0072000Y0042140D01*
X0072000Y0041142D02*
X0059500Y0041142D01*
X0059500Y0040143D02*
X0072000Y0040143D01*
X0072000Y0039145D02*
X0059500Y0039145D01*
X0059500Y0038146D02*
X0072000Y0038146D01*
X0072000Y0037148D02*
X0059500Y0037148D01*
X0059500Y0036149D02*
X0072000Y0036149D01*
X0072000Y0035151D02*
X0059500Y0035151D01*
X0059500Y0034152D02*
X0072000Y0034152D01*
X0072000Y0033154D02*
X0059500Y0033154D01*
X0059500Y0032155D02*
X0072000Y0032155D01*
X0072000Y0031157D02*
X0059500Y0031157D01*
X0059500Y0030158D02*
X0072000Y0030158D01*
X0072000Y0029160D02*
X0059500Y0029160D01*
X0059500Y0028161D02*
X0069500Y0028161D01*
X0069500Y0027163D02*
X0059500Y0027163D01*
X0059500Y0026164D02*
X0069500Y0026164D01*
X0069500Y0025166D02*
X0059500Y0025166D01*
X0059500Y0024167D02*
X0069500Y0024167D01*
X0069500Y0023169D02*
X0059500Y0023169D01*
X0059500Y0022170D02*
X0061036Y0022170D01*
X0059826Y0021172D02*
X0059500Y0021172D01*
X0055750Y0021172D02*
X0054567Y0021172D01*
X0054761Y0020978D02*
X0054115Y0021624D01*
X0053376Y0022161D01*
X0052563Y0022575D01*
X0051695Y0022857D01*
X0050821Y0022996D01*
X0050821Y0017684D01*
X0049852Y0017684D01*
X0049852Y0016716D01*
X0044541Y0016716D01*
X0044679Y0015842D01*
X0044962Y0014974D01*
X0045376Y0014160D01*
X0045913Y0013422D01*
X0046558Y0012776D01*
X0047297Y0012239D01*
X0048110Y0011825D01*
X0048978Y0011543D01*
X0049852Y0011404D01*
X0049852Y0016716D01*
X0050821Y0016716D01*
X0050821Y0011404D01*
X0051695Y0011543D01*
X0052563Y0011825D01*
X0053376Y0012239D01*
X0054115Y0012776D01*
X0054761Y0013422D01*
X0055297Y0014160D01*
X0055712Y0014974D01*
X0055750Y0015091D01*
X0055750Y0010950D01*
X0044500Y0010950D01*
X0044500Y0046133D01*
X0045659Y0046133D01*
X0045659Y0051873D01*
X0045841Y0051873D01*
X0045841Y0052054D01*
X0050659Y0052054D01*
X0050659Y0051873D01*
X0048069Y0051873D01*
X0045841Y0051873D01*
X0045841Y0046133D01*
X0047129Y0046133D01*
X0047510Y0046235D01*
X0047852Y0046433D01*
X0048131Y0046712D01*
X0048250Y0046917D01*
X0048369Y0046712D01*
X0048648Y0046433D01*
X0048990Y0046235D01*
X0049371Y0046133D01*
X0050659Y0046133D01*
X0050659Y0051873D01*
X0050841Y0051873D01*
X0050841Y0052054D01*
X0053431Y0052054D01*
X0053431Y0056492D01*
X0053329Y0056873D01*
X0053131Y0057216D01*
X0052852Y0057495D01*
X0052510Y0057692D01*
X0052129Y0057794D01*
X0050841Y0057794D01*
X0050841Y0052054D01*
X0050659Y0052054D01*
X0050659Y0057794D01*
X0049371Y0057794D01*
X0048990Y0057692D01*
X0048648Y0057495D01*
X0048369Y0057216D01*
X0048250Y0057010D01*
X0048131Y0057216D01*
X0047852Y0057495D01*
X0047510Y0057692D01*
X0047129Y0057794D01*
X0045841Y0057794D01*
X0045841Y0052054D01*
X0045659Y0052054D01*
X0045659Y0057794D01*
X0044500Y0057794D01*
X0044500Y0057900D01*
X0055750Y0057900D01*
X0055750Y0019308D01*
X0055712Y0019426D01*
X0055297Y0020240D01*
X0054761Y0020978D01*
X0055331Y0020173D02*
X0055750Y0020173D01*
X0055750Y0022170D02*
X0053358Y0022170D01*
X0055750Y0023169D02*
X0044500Y0023169D01*
X0044500Y0024167D02*
X0055750Y0024167D01*
X0055750Y0025166D02*
X0044500Y0025166D01*
X0044500Y0026164D02*
X0055750Y0026164D01*
X0055750Y0027163D02*
X0044500Y0027163D01*
X0044500Y0028161D02*
X0055750Y0028161D01*
X0055750Y0029160D02*
X0044500Y0029160D01*
X0044500Y0030158D02*
X0055750Y0030158D01*
X0055750Y0031157D02*
X0044500Y0031157D01*
X0044500Y0032155D02*
X0055750Y0032155D01*
X0055750Y0033154D02*
X0044500Y0033154D01*
X0044500Y0034152D02*
X0055750Y0034152D01*
X0055750Y0035151D02*
X0044500Y0035151D01*
X0044500Y0036149D02*
X0055750Y0036149D01*
X0055750Y0037148D02*
X0044500Y0037148D01*
X0044500Y0038146D02*
X0055750Y0038146D01*
X0055750Y0039145D02*
X0044500Y0039145D01*
X0044500Y0040143D02*
X0055750Y0040143D01*
X0055750Y0041142D02*
X0044500Y0041142D01*
X0044500Y0042140D02*
X0055750Y0042140D01*
X0055750Y0043139D02*
X0044500Y0043139D01*
X0044500Y0044137D02*
X0055750Y0044137D01*
X0055750Y0045136D02*
X0044500Y0045136D01*
X0045659Y0046134D02*
X0045841Y0046134D01*
X0045841Y0047133D02*
X0045659Y0047133D01*
X0045659Y0048132D02*
X0045841Y0048132D01*
X0045841Y0049130D02*
X0045659Y0049130D01*
X0045659Y0050129D02*
X0045841Y0050129D01*
X0045841Y0051127D02*
X0045659Y0051127D01*
X0045659Y0052126D02*
X0045841Y0052126D01*
X0045841Y0053124D02*
X0045659Y0053124D01*
X0045659Y0054123D02*
X0045841Y0054123D01*
X0045841Y0055121D02*
X0045659Y0055121D01*
X0045659Y0056120D02*
X0045841Y0056120D01*
X0045841Y0057118D02*
X0045659Y0057118D01*
X0048188Y0057118D02*
X0048312Y0057118D01*
X0050659Y0057118D02*
X0050841Y0057118D01*
X0050841Y0056120D02*
X0050659Y0056120D01*
X0050659Y0055121D02*
X0050841Y0055121D01*
X0050841Y0054123D02*
X0050659Y0054123D01*
X0050659Y0053124D02*
X0050841Y0053124D01*
X0050841Y0052126D02*
X0050659Y0052126D01*
X0050841Y0051873D02*
X0053431Y0051873D01*
X0053431Y0047436D01*
X0053329Y0047054D01*
X0053131Y0046712D01*
X0052852Y0046433D01*
X0052510Y0046235D01*
X0052129Y0046133D01*
X0050841Y0046133D01*
X0050841Y0051873D01*
X0050841Y0051127D02*
X0050659Y0051127D01*
X0050659Y0050129D02*
X0050841Y0050129D01*
X0050841Y0049130D02*
X0050659Y0049130D01*
X0050659Y0048132D02*
X0050841Y0048132D01*
X0050841Y0047133D02*
X0050659Y0047133D01*
X0050659Y0046134D02*
X0050841Y0046134D01*
X0052134Y0046134D02*
X0055750Y0046134D01*
X0055750Y0047133D02*
X0053350Y0047133D01*
X0053431Y0048132D02*
X0055750Y0048132D01*
X0055750Y0049130D02*
X0053431Y0049130D01*
X0053431Y0050129D02*
X0055750Y0050129D01*
X0055750Y0051127D02*
X0053431Y0051127D01*
X0053431Y0052126D02*
X0055750Y0052126D01*
X0055750Y0053124D02*
X0053431Y0053124D01*
X0053431Y0054123D02*
X0055750Y0054123D01*
X0055750Y0055121D02*
X0053431Y0055121D01*
X0053431Y0056120D02*
X0055750Y0056120D01*
X0055750Y0057118D02*
X0053188Y0057118D01*
X0048250Y0062200D02*
X0025750Y0062200D01*
X0024500Y0060950D01*
X0024500Y0039700D01*
X0022000Y0037200D01*
X0014500Y0037200D01*
X0014500Y0027200D02*
X0023250Y0027200D01*
X0027000Y0030950D01*
X0027000Y0059700D01*
X0068250Y0059700D01*
X0070750Y0062200D01*
X0070750Y0072436D01*
X0070750Y0078450D01*
X0069500Y0079700D01*
X0069500Y0083460D01*
X0080750Y0078450D02*
X0080750Y0072436D01*
X0085514Y0072436D01*
X0085750Y0072200D01*
X0080750Y0078450D02*
X0082000Y0079700D01*
X0082000Y0083460D01*
X0072000Y0058117D02*
X0069212Y0058117D01*
X0068312Y0057118D02*
X0068188Y0057118D01*
X0070659Y0057118D02*
X0070841Y0057118D01*
X0070841Y0056120D02*
X0070659Y0056120D01*
X0070659Y0055121D02*
X0070841Y0055121D01*
X0070841Y0054123D02*
X0070659Y0054123D01*
X0070659Y0053124D02*
X0070841Y0053124D01*
X0070841Y0052126D02*
X0070659Y0052126D01*
X0070659Y0051127D02*
X0070841Y0051127D01*
X0070841Y0050129D02*
X0070659Y0050129D01*
X0070659Y0049130D02*
X0070841Y0049130D01*
X0070841Y0048132D02*
X0070659Y0048132D01*
X0070659Y0047133D02*
X0070841Y0047133D01*
X0070841Y0046134D02*
X0070659Y0046134D01*
X0069366Y0046134D02*
X0067134Y0046134D01*
X0078188Y0057118D02*
X0078312Y0057118D01*
X0050750Y0064700D02*
X0048250Y0062200D01*
X0050750Y0064700D02*
X0050750Y0072436D01*
X0050750Y0078450D01*
X0052000Y0079700D01*
X0052000Y0083460D01*
X0040750Y0078450D02*
X0040750Y0072436D01*
X0040750Y0065950D01*
X0039500Y0064700D01*
X0023250Y0064700D01*
X0022000Y0063450D01*
X0022000Y0048450D01*
X0020750Y0047200D01*
X0014500Y0047200D01*
X0030750Y0047133D02*
X0033150Y0047133D01*
X0033171Y0047054D02*
X0033369Y0046712D01*
X0033648Y0046433D01*
X0033990Y0046235D01*
X0034371Y0046133D01*
X0035659Y0046133D01*
X0035659Y0051873D01*
X0033069Y0051873D01*
X0033069Y0047436D01*
X0033171Y0047054D01*
X0033069Y0048132D02*
X0030750Y0048132D01*
X0030750Y0049130D02*
X0033069Y0049130D01*
X0033069Y0050129D02*
X0030750Y0050129D01*
X0030750Y0051127D02*
X0033069Y0051127D01*
X0033069Y0052054D02*
X0035659Y0052054D01*
X0035659Y0051873D01*
X0035841Y0051873D01*
X0035841Y0052054D01*
X0038069Y0052054D01*
X0040659Y0052054D01*
X0040659Y0051873D01*
X0035841Y0051873D01*
X0035841Y0046133D01*
X0037129Y0046133D01*
X0037510Y0046235D01*
X0037852Y0046433D01*
X0038131Y0046712D01*
X0038250Y0046917D01*
X0038369Y0046712D01*
X0038648Y0046433D01*
X0038990Y0046235D01*
X0039371Y0046133D01*
X0040659Y0046133D01*
X0040659Y0051873D01*
X0040841Y0051873D01*
X0040841Y0046133D01*
X0042000Y0046133D01*
X0042000Y0019218D01*
X0041932Y0019426D01*
X0041518Y0020240D01*
X0040981Y0020978D01*
X0040336Y0021624D01*
X0039597Y0022161D01*
X0038784Y0022575D01*
X0037915Y0022857D01*
X0037041Y0022996D01*
X0037041Y0017684D01*
X0036073Y0017684D01*
X0036073Y0016716D01*
X0030761Y0016716D01*
X0030900Y0015842D01*
X0031182Y0014974D01*
X0031596Y0014160D01*
X0032133Y0013422D01*
X0032779Y0012776D01*
X0033517Y0012239D01*
X0034331Y0011825D01*
X0035199Y0011543D01*
X0036073Y0011404D01*
X0036073Y0016716D01*
X0037041Y0016716D01*
X0037041Y0011404D01*
X0037915Y0011543D01*
X0038784Y0011825D01*
X0039597Y0012239D01*
X0040336Y0012776D01*
X0040981Y0013422D01*
X0041518Y0014160D01*
X0041932Y0014974D01*
X0042000Y0015182D01*
X0042000Y0010950D01*
X0030750Y0010950D01*
X0030750Y0057900D01*
X0042000Y0057900D01*
X0042000Y0057794D01*
X0040841Y0057794D01*
X0040841Y0052054D01*
X0040659Y0052054D01*
X0040659Y0057794D01*
X0039371Y0057794D01*
X0038990Y0057692D01*
X0038648Y0057495D01*
X0038369Y0057216D01*
X0038250Y0057010D01*
X0038131Y0057216D01*
X0037852Y0057495D01*
X0037510Y0057692D01*
X0037129Y0057794D01*
X0035841Y0057794D01*
X0035841Y0052054D01*
X0035659Y0052054D01*
X0035659Y0057794D01*
X0034371Y0057794D01*
X0033990Y0057692D01*
X0033648Y0057495D01*
X0033369Y0057216D01*
X0033171Y0056873D01*
X0033069Y0056492D01*
X0033069Y0052054D01*
X0033069Y0052126D02*
X0030750Y0052126D01*
X0030750Y0053124D02*
X0033069Y0053124D01*
X0033069Y0054123D02*
X0030750Y0054123D01*
X0030750Y0055121D02*
X0033069Y0055121D01*
X0033069Y0056120D02*
X0030750Y0056120D01*
X0030750Y0057118D02*
X0033312Y0057118D01*
X0035659Y0057118D02*
X0035841Y0057118D01*
X0035841Y0056120D02*
X0035659Y0056120D01*
X0035659Y0055121D02*
X0035841Y0055121D01*
X0035841Y0054123D02*
X0035659Y0054123D01*
X0035659Y0053124D02*
X0035841Y0053124D01*
X0035841Y0052126D02*
X0035659Y0052126D01*
X0035659Y0051127D02*
X0035841Y0051127D01*
X0035841Y0050129D02*
X0035659Y0050129D01*
X0035659Y0049130D02*
X0035841Y0049130D01*
X0035841Y0048132D02*
X0035659Y0048132D01*
X0035659Y0047133D02*
X0035841Y0047133D01*
X0035841Y0046134D02*
X0035659Y0046134D01*
X0034366Y0046134D02*
X0030750Y0046134D01*
X0030750Y0045136D02*
X0042000Y0045136D01*
X0042000Y0044137D02*
X0030750Y0044137D01*
X0030750Y0043139D02*
X0042000Y0043139D01*
X0042000Y0042140D02*
X0030750Y0042140D01*
X0030750Y0041142D02*
X0042000Y0041142D01*
X0042000Y0040143D02*
X0030750Y0040143D01*
X0030750Y0039145D02*
X0042000Y0039145D01*
X0042000Y0038146D02*
X0030750Y0038146D01*
X0030750Y0037148D02*
X0042000Y0037148D01*
X0042000Y0036149D02*
X0030750Y0036149D01*
X0030750Y0035151D02*
X0042000Y0035151D01*
X0042000Y0034152D02*
X0030750Y0034152D01*
X0030750Y0033154D02*
X0042000Y0033154D01*
X0042000Y0032155D02*
X0030750Y0032155D01*
X0030750Y0031157D02*
X0042000Y0031157D01*
X0042000Y0030158D02*
X0030750Y0030158D01*
X0030750Y0029160D02*
X0042000Y0029160D01*
X0042000Y0028161D02*
X0030750Y0028161D01*
X0030750Y0027163D02*
X0042000Y0027163D01*
X0042000Y0026164D02*
X0030750Y0026164D01*
X0030750Y0025166D02*
X0042000Y0025166D01*
X0042000Y0024167D02*
X0030750Y0024167D01*
X0030750Y0023169D02*
X0042000Y0023169D01*
X0042000Y0022170D02*
X0039578Y0022170D01*
X0040788Y0021172D02*
X0042000Y0021172D01*
X0042000Y0020173D02*
X0041552Y0020173D01*
X0044500Y0020173D02*
X0045342Y0020173D01*
X0045376Y0020240D02*
X0044962Y0019426D01*
X0044679Y0018558D01*
X0044541Y0017684D01*
X0049852Y0017684D01*
X0049852Y0022996D01*
X0048978Y0022857D01*
X0048110Y0022575D01*
X0047297Y0022161D01*
X0046558Y0021624D01*
X0045913Y0020978D01*
X0045376Y0020240D01*
X0044880Y0019175D02*
X0044500Y0019175D01*
X0044500Y0018176D02*
X0044619Y0018176D01*
X0044500Y0017178D02*
X0049852Y0017178D01*
X0049852Y0018176D02*
X0050821Y0018176D01*
X0050821Y0019175D02*
X0049852Y0019175D01*
X0049852Y0020173D02*
X0050821Y0020173D01*
X0050821Y0021172D02*
X0049852Y0021172D01*
X0049852Y0022170D02*
X0050821Y0022170D01*
X0047316Y0022170D02*
X0044500Y0022170D01*
X0044500Y0021172D02*
X0046106Y0021172D01*
X0044626Y0016179D02*
X0044500Y0016179D01*
X0044500Y0015181D02*
X0044894Y0015181D01*
X0044500Y0014182D02*
X0045365Y0014182D01*
X0046151Y0013184D02*
X0044500Y0013184D01*
X0044500Y0012185D02*
X0047403Y0012185D01*
X0049852Y0012185D02*
X0050821Y0012185D01*
X0050821Y0013184D02*
X0049852Y0013184D01*
X0049852Y0014182D02*
X0050821Y0014182D01*
X0050821Y0015181D02*
X0049852Y0015181D01*
X0049852Y0016179D02*
X0050821Y0016179D01*
X0054523Y0013184D02*
X0055750Y0013184D01*
X0055750Y0014182D02*
X0055308Y0014182D01*
X0055750Y0012185D02*
X0053270Y0012185D01*
X0055750Y0011187D02*
X0044500Y0011187D01*
X0042000Y0011187D02*
X0030750Y0011187D01*
X0030750Y0012185D02*
X0033624Y0012185D01*
X0032371Y0013184D02*
X0030750Y0013184D01*
X0030750Y0014182D02*
X0031585Y0014182D01*
X0031115Y0015181D02*
X0030750Y0015181D01*
X0030750Y0016179D02*
X0030846Y0016179D01*
X0030750Y0017178D02*
X0036073Y0017178D01*
X0036073Y0017684D02*
X0030761Y0017684D01*
X0030900Y0018558D01*
X0031182Y0019426D01*
X0031596Y0020240D01*
X0032133Y0020978D01*
X0032779Y0021624D01*
X0033517Y0022161D01*
X0034331Y0022575D01*
X0035199Y0022857D01*
X0036073Y0022996D01*
X0036073Y0017684D01*
X0036073Y0018176D02*
X0037041Y0018176D01*
X0037041Y0019175D02*
X0036073Y0019175D01*
X0036073Y0020173D02*
X0037041Y0020173D01*
X0037041Y0021172D02*
X0036073Y0021172D01*
X0036073Y0022170D02*
X0037041Y0022170D01*
X0033536Y0022170D02*
X0030750Y0022170D01*
X0030750Y0021172D02*
X0032326Y0021172D01*
X0031563Y0020173D02*
X0030750Y0020173D01*
X0030750Y0019175D02*
X0031100Y0019175D01*
X0030839Y0018176D02*
X0030750Y0018176D01*
X0036073Y0016179D02*
X0037041Y0016179D01*
X0037041Y0015181D02*
X0036073Y0015181D01*
X0036073Y0014182D02*
X0037041Y0014182D01*
X0037041Y0013184D02*
X0036073Y0013184D01*
X0036073Y0012185D02*
X0037041Y0012185D01*
X0039490Y0012185D02*
X0042000Y0012185D01*
X0042000Y0013184D02*
X0040743Y0013184D01*
X0041529Y0014182D02*
X0042000Y0014182D01*
X0041999Y0015181D02*
X0042000Y0015181D01*
X0059500Y0013605D02*
X0059500Y0010950D01*
X0069500Y0010950D01*
X0069500Y0015182D01*
X0069432Y0014974D01*
X0069018Y0014160D01*
X0068481Y0013422D01*
X0067836Y0012776D01*
X0067097Y0012239D01*
X0066284Y0011825D01*
X0065415Y0011543D01*
X0064541Y0011404D01*
X0064541Y0016716D01*
X0063573Y0016716D01*
X0063573Y0011404D01*
X0062699Y0011543D01*
X0061831Y0011825D01*
X0061017Y0012239D01*
X0060279Y0012776D01*
X0059633Y0013422D01*
X0059500Y0013605D01*
X0059500Y0013184D02*
X0059871Y0013184D01*
X0059500Y0012185D02*
X0061124Y0012185D01*
X0059500Y0011187D02*
X0069500Y0011187D01*
X0069500Y0012185D02*
X0066990Y0012185D01*
X0068243Y0013184D02*
X0069500Y0013184D01*
X0069500Y0014182D02*
X0069029Y0014182D01*
X0069499Y0015181D02*
X0069500Y0015181D01*
X0072000Y0015181D02*
X0072394Y0015181D01*
X0072126Y0016179D02*
X0072000Y0016179D01*
X0072000Y0014182D02*
X0072865Y0014182D01*
X0073651Y0013184D02*
X0072000Y0013184D01*
X0072000Y0012185D02*
X0074903Y0012185D01*
X0077352Y0012185D02*
X0078321Y0012185D01*
X0078321Y0013184D02*
X0077352Y0013184D01*
X0077352Y0014182D02*
X0078321Y0014182D01*
X0078321Y0015181D02*
X0077352Y0015181D01*
X0077352Y0016179D02*
X0078321Y0016179D01*
X0082023Y0013184D02*
X0083250Y0013184D01*
X0083250Y0014182D02*
X0082808Y0014182D01*
X0083250Y0012185D02*
X0080770Y0012185D01*
X0083250Y0011187D02*
X0072000Y0011187D01*
X0064541Y0012185D02*
X0063573Y0012185D01*
X0063573Y0013184D02*
X0064541Y0013184D01*
X0064541Y0014182D02*
X0063573Y0014182D01*
X0063573Y0015181D02*
X0064541Y0015181D01*
X0064541Y0016179D02*
X0063573Y0016179D01*
X0063573Y0018176D02*
X0064541Y0018176D01*
X0064541Y0019175D02*
X0063573Y0019175D01*
X0063573Y0020173D02*
X0064541Y0020173D01*
X0064541Y0021172D02*
X0063573Y0021172D01*
X0063573Y0022170D02*
X0064541Y0022170D01*
X0067078Y0022170D02*
X0069500Y0022170D01*
X0069500Y0021172D02*
X0068288Y0021172D01*
X0069052Y0020173D02*
X0069500Y0020173D01*
X0087000Y0013184D02*
X0087371Y0013184D01*
X0087000Y0012185D02*
X0088624Y0012185D01*
X0087000Y0011187D02*
X0098250Y0011187D01*
X0098250Y0012185D02*
X0094490Y0012185D01*
X0095743Y0013184D02*
X0098250Y0013184D01*
X0098250Y0014182D02*
X0096529Y0014182D01*
X0096999Y0015181D02*
X0098250Y0015181D01*
X0098250Y0016179D02*
X0097268Y0016179D01*
X0098250Y0017178D02*
X0092041Y0017178D01*
X0092041Y0017684D02*
X0097353Y0017684D01*
X0097214Y0018558D01*
X0096932Y0019426D01*
X0096518Y0020240D01*
X0095981Y0020978D01*
X0095336Y0021624D01*
X0094597Y0022161D01*
X0093784Y0022575D01*
X0092915Y0022857D01*
X0092041Y0022996D01*
X0092041Y0017684D01*
X0092041Y0018176D02*
X0091073Y0018176D01*
X0091073Y0019175D02*
X0092041Y0019175D01*
X0092041Y0020173D02*
X0091073Y0020173D01*
X0091073Y0021172D02*
X0092041Y0021172D01*
X0092041Y0022170D02*
X0091073Y0022170D01*
X0094578Y0022170D02*
X0098250Y0022170D01*
X0098250Y0021172D02*
X0095788Y0021172D01*
X0096552Y0020173D02*
X0098250Y0020173D01*
X0098250Y0019175D02*
X0097014Y0019175D01*
X0097275Y0018176D02*
X0098250Y0018176D01*
X0092041Y0016179D02*
X0091073Y0016179D01*
X0091073Y0015181D02*
X0092041Y0015181D01*
X0092041Y0014182D02*
X0091073Y0014182D01*
X0091073Y0013184D02*
X0092041Y0013184D01*
X0092041Y0012185D02*
X0091073Y0012185D01*
X0049366Y0046134D02*
X0047134Y0046134D01*
X0040841Y0046134D02*
X0040659Y0046134D01*
X0040659Y0047133D02*
X0040841Y0047133D01*
X0040841Y0048132D02*
X0040659Y0048132D01*
X0040659Y0049130D02*
X0040841Y0049130D01*
X0040841Y0050129D02*
X0040659Y0050129D01*
X0040659Y0051127D02*
X0040841Y0051127D01*
X0040841Y0052126D02*
X0040659Y0052126D01*
X0040659Y0053124D02*
X0040841Y0053124D01*
X0040841Y0054123D02*
X0040659Y0054123D01*
X0040659Y0055121D02*
X0040841Y0055121D01*
X0040841Y0056120D02*
X0040659Y0056120D01*
X0040659Y0057118D02*
X0040841Y0057118D01*
X0038312Y0057118D02*
X0038188Y0057118D01*
X0037134Y0046134D02*
X0039366Y0046134D01*
X0040750Y0078450D02*
X0039500Y0079700D01*
X0039500Y0083460D01*
D18*
X0085750Y0072200D03*
X0100750Y0064700D03*
M02*
