G75*
%MOIN*%
%OFA0B0*%
%FSLAX25Y25*%
%IPPOS*%
%LPD*%
%AMOC8*
5,1,8,0,0,1.08239X$1,22.5*
%
%ADD10C,0.01600*%
%ADD11C,0.00500*%
%ADD12C,0.00400*%
%ADD13C,0.00200*%
%ADD14C,0.00000*%
%ADD15C,0.00394*%
%ADD16R,0.01969X0.05512*%
%ADD17C,0.00315*%
%ADD18C,0.00300*%
D10*
X0008250Y0005000D02*
X0008250Y0123110D01*
X0132266Y0123110D01*
X0132266Y0005000D01*
X0008250Y0005000D01*
D11*
X0053486Y0005000D02*
X0053486Y0024685D01*
X0055455Y0024685D01*
X0081045Y0024685D02*
X0083014Y0024685D01*
X0083014Y0005000D01*
X0071400Y0044250D02*
X0067250Y0044250D01*
X0071400Y0044250D02*
X0071400Y0047250D01*
X0071400Y0052750D02*
X0071400Y0055750D01*
X0067250Y0055750D01*
X0065100Y0050750D02*
X0065100Y0049250D01*
D12*
X0073960Y0047842D02*
X0074727Y0047075D01*
X0076262Y0047075D01*
X0077029Y0047842D01*
X0077029Y0050912D01*
X0076262Y0051679D01*
X0074727Y0051679D01*
X0073960Y0050912D01*
X0075950Y0050697D02*
X0076467Y0051214D01*
X0078536Y0051214D01*
X0079053Y0050697D01*
X0079053Y0049145D01*
X0075950Y0049145D01*
X0075950Y0050697D01*
X0078564Y0050912D02*
X0079331Y0051679D01*
X0080866Y0051679D01*
X0081633Y0050912D01*
X0081633Y0047842D01*
X0080866Y0047075D01*
X0079331Y0047075D01*
X0078564Y0047842D01*
X0079053Y0047991D02*
X0075950Y0047991D01*
X0079053Y0045923D01*
X0075950Y0045923D01*
X0076467Y0044768D02*
X0077501Y0044768D01*
X0077501Y0043734D01*
X0076467Y0042700D02*
X0075950Y0043217D01*
X0075950Y0044251D01*
X0076467Y0044768D01*
X0076467Y0042700D02*
X0078536Y0042700D01*
X0079053Y0043217D01*
X0079053Y0044251D01*
X0078536Y0044768D01*
X0083168Y0048610D02*
X0083168Y0051679D01*
X0086237Y0051679D02*
X0086237Y0048610D01*
X0084702Y0047075D01*
X0083168Y0048610D01*
X0087771Y0051679D02*
X0089306Y0051679D01*
X0088539Y0051679D02*
X0088539Y0047842D01*
X0089306Y0047075D01*
X0090073Y0047075D01*
X0090841Y0047842D01*
X0090752Y0045373D02*
X0089217Y0045373D01*
X0088450Y0044606D01*
X0088450Y0043071D01*
X0089217Y0042304D01*
X0090752Y0042304D02*
X0091519Y0043839D01*
X0091519Y0044606D01*
X0090752Y0045373D01*
X0093054Y0045373D02*
X0093054Y0042304D01*
X0090752Y0042304D01*
X0090752Y0040769D02*
X0089985Y0040002D01*
X0089985Y0037700D01*
X0088450Y0037700D02*
X0093054Y0037700D01*
X0093054Y0040002D01*
X0092287Y0040769D01*
X0090752Y0040769D01*
X0089985Y0039235D02*
X0088450Y0040769D01*
X0108960Y0047700D02*
X0112029Y0047700D01*
X0108960Y0050769D01*
X0108960Y0051537D01*
X0109727Y0052304D01*
X0111262Y0052304D01*
X0112029Y0051537D01*
X0113564Y0051537D02*
X0114331Y0052304D01*
X0115866Y0052304D01*
X0116633Y0051537D01*
X0116633Y0048467D01*
X0113564Y0051537D01*
X0113564Y0048467D01*
X0114331Y0047700D01*
X0115866Y0047700D01*
X0116633Y0048467D01*
X0118935Y0048467D02*
X0119702Y0047700D01*
X0120469Y0047700D01*
X0121237Y0048467D01*
X0118935Y0048467D02*
X0118935Y0052304D01*
X0119702Y0052304D02*
X0118168Y0052304D01*
X0119702Y0057075D02*
X0118935Y0057842D01*
X0118935Y0061679D01*
X0119702Y0061679D02*
X0118168Y0061679D01*
X0116633Y0060912D02*
X0115866Y0061679D01*
X0114331Y0061679D01*
X0113564Y0060912D01*
X0116633Y0057842D01*
X0115866Y0057075D01*
X0114331Y0057075D01*
X0113564Y0057842D01*
X0113564Y0060912D01*
X0112029Y0059377D02*
X0108960Y0059377D01*
X0109727Y0061679D02*
X0112029Y0059377D01*
X0109727Y0057075D02*
X0109727Y0061679D01*
X0109727Y0066450D02*
X0111262Y0066450D01*
X0112029Y0067217D01*
X0113564Y0067217D02*
X0114331Y0066450D01*
X0115866Y0066450D01*
X0116633Y0067217D01*
X0113564Y0070287D01*
X0113564Y0067217D01*
X0112029Y0068752D02*
X0110494Y0069519D01*
X0109727Y0069519D01*
X0108960Y0068752D01*
X0108960Y0067217D01*
X0109727Y0066450D01*
X0112029Y0068752D02*
X0112029Y0071054D01*
X0108960Y0071054D01*
X0113564Y0070287D02*
X0114331Y0071054D01*
X0115866Y0071054D01*
X0116633Y0070287D01*
X0116633Y0067217D01*
X0118935Y0067217D02*
X0119702Y0066450D01*
X0120469Y0066450D01*
X0121237Y0067217D01*
X0118935Y0067217D02*
X0118935Y0071054D01*
X0119702Y0071054D02*
X0118168Y0071054D01*
X0116633Y0060912D02*
X0116633Y0057842D01*
X0119702Y0057075D02*
X0120469Y0057075D01*
X0121237Y0057842D01*
X0077425Y0070825D02*
X0077425Y0075429D01*
X0075123Y0075429D01*
X0074356Y0074662D01*
X0074356Y0073127D01*
X0075123Y0072360D01*
X0077425Y0072360D01*
X0075890Y0072360D02*
X0074356Y0070825D01*
X0072821Y0071592D02*
X0072054Y0070825D01*
X0070519Y0070825D01*
X0069752Y0071592D01*
X0069752Y0072360D01*
X0070519Y0073127D01*
X0071286Y0073127D01*
X0070519Y0073127D02*
X0069752Y0073894D01*
X0069752Y0074662D01*
X0070519Y0075429D01*
X0072054Y0075429D01*
X0072821Y0074662D01*
X0074356Y0079575D02*
X0075890Y0081110D01*
X0075123Y0081110D02*
X0077425Y0081110D01*
X0077425Y0079575D02*
X0077425Y0084179D01*
X0075123Y0084179D01*
X0074356Y0083412D01*
X0074356Y0081877D01*
X0075123Y0081110D01*
X0072821Y0081877D02*
X0069752Y0081877D01*
X0070519Y0079575D02*
X0070519Y0084179D01*
X0072821Y0081877D01*
X0064758Y0081735D02*
X0062456Y0081735D01*
X0061689Y0082502D01*
X0061689Y0084037D01*
X0062456Y0084804D01*
X0064758Y0084804D01*
X0064758Y0080200D01*
X0063223Y0081735D02*
X0061689Y0080200D01*
X0060154Y0080200D02*
X0057085Y0080200D01*
X0058619Y0080200D02*
X0058619Y0084804D01*
X0060154Y0083269D01*
X0059387Y0074804D02*
X0057852Y0074804D01*
X0057085Y0074037D01*
X0057085Y0073269D01*
X0060154Y0070200D01*
X0057085Y0070200D01*
X0061689Y0070200D02*
X0063223Y0071735D01*
X0062456Y0071735D02*
X0064758Y0071735D01*
X0064758Y0070200D02*
X0064758Y0074804D01*
X0062456Y0074804D01*
X0061689Y0074037D01*
X0061689Y0072502D01*
X0062456Y0071735D01*
X0060154Y0074037D02*
X0059387Y0074804D01*
X0058450Y0066623D02*
X0058450Y0063554D01*
X0061519Y0066623D01*
X0062287Y0066623D01*
X0063054Y0065856D01*
X0063054Y0064321D01*
X0062287Y0063554D01*
X0062287Y0062019D02*
X0063054Y0061252D01*
X0063054Y0059717D01*
X0062287Y0058950D01*
X0059217Y0058950D01*
X0058450Y0059717D01*
X0058450Y0061252D01*
X0059217Y0062019D01*
X0043450Y0049915D02*
X0043450Y0046846D01*
X0043450Y0048381D02*
X0048054Y0048381D01*
X0046519Y0046846D01*
X0047287Y0045311D02*
X0048054Y0044544D01*
X0048054Y0043009D01*
X0047287Y0042242D01*
X0044217Y0042242D01*
X0043450Y0043009D01*
X0043450Y0044544D01*
X0044217Y0045311D01*
X0033054Y0045113D02*
X0033054Y0046648D01*
X0032287Y0047415D01*
X0031519Y0047415D01*
X0030752Y0046648D01*
X0029985Y0047415D01*
X0029217Y0047415D01*
X0028450Y0046648D01*
X0028450Y0045113D01*
X0029217Y0044346D01*
X0030752Y0045881D02*
X0030752Y0046648D01*
X0032287Y0044346D02*
X0033054Y0045113D01*
X0028450Y0042811D02*
X0028450Y0039742D01*
X0028450Y0041277D02*
X0033054Y0041277D01*
X0031519Y0039742D01*
X0033054Y0038207D02*
X0033054Y0036673D01*
X0033054Y0037440D02*
X0029217Y0037440D01*
X0028450Y0036673D01*
X0028450Y0035906D01*
X0029217Y0035138D01*
X0029217Y0058888D02*
X0028450Y0059656D01*
X0028450Y0060423D01*
X0029217Y0061190D01*
X0033054Y0061190D01*
X0033054Y0060423D02*
X0033054Y0061957D01*
X0031519Y0063492D02*
X0033054Y0065027D01*
X0028450Y0065027D01*
X0028450Y0066561D02*
X0028450Y0063492D01*
X0028450Y0068096D02*
X0031519Y0071165D01*
X0032287Y0071165D01*
X0033054Y0070398D01*
X0033054Y0068863D01*
X0032287Y0068096D01*
X0028450Y0068096D02*
X0028450Y0071165D01*
D13*
X0088822Y0014461D02*
X0088822Y0012593D01*
X0090691Y0014461D01*
X0091158Y0014461D01*
X0091625Y0013994D01*
X0091625Y0013060D01*
X0091158Y0012593D01*
X0091158Y0011699D02*
X0091625Y0011232D01*
X0091625Y0010298D01*
X0091158Y0009831D01*
X0090691Y0009831D01*
X0090224Y0010298D01*
X0090224Y0011232D01*
X0089757Y0011699D01*
X0089290Y0011699D01*
X0088822Y0011232D01*
X0088822Y0010298D01*
X0089290Y0009831D01*
X0089290Y0008937D02*
X0091625Y0008937D01*
X0092092Y0010765D02*
X0088355Y0010765D01*
X0089290Y0008937D02*
X0088822Y0008470D01*
X0088822Y0007536D01*
X0089290Y0007069D01*
X0091625Y0007069D01*
D14*
X0075730Y0023622D02*
X0075732Y0023713D01*
X0075738Y0023803D01*
X0075748Y0023894D01*
X0075762Y0023983D01*
X0075780Y0024072D01*
X0075801Y0024161D01*
X0075827Y0024248D01*
X0075856Y0024334D01*
X0075890Y0024418D01*
X0075926Y0024501D01*
X0075967Y0024583D01*
X0076011Y0024662D01*
X0076058Y0024740D01*
X0076109Y0024815D01*
X0076163Y0024888D01*
X0076220Y0024958D01*
X0076280Y0025026D01*
X0076343Y0025092D01*
X0076409Y0025154D01*
X0076478Y0025213D01*
X0076549Y0025270D01*
X0076623Y0025323D01*
X0076699Y0025373D01*
X0076777Y0025420D01*
X0076857Y0025463D01*
X0076938Y0025502D01*
X0077022Y0025538D01*
X0077107Y0025570D01*
X0077193Y0025599D01*
X0077280Y0025623D01*
X0077369Y0025644D01*
X0077458Y0025661D01*
X0077548Y0025674D01*
X0077638Y0025683D01*
X0077729Y0025688D01*
X0077820Y0025689D01*
X0077910Y0025686D01*
X0078001Y0025679D01*
X0078091Y0025668D01*
X0078181Y0025653D01*
X0078270Y0025634D01*
X0078358Y0025612D01*
X0078444Y0025585D01*
X0078530Y0025555D01*
X0078614Y0025521D01*
X0078697Y0025483D01*
X0078778Y0025442D01*
X0078857Y0025397D01*
X0078934Y0025348D01*
X0079008Y0025297D01*
X0079081Y0025242D01*
X0079151Y0025184D01*
X0079218Y0025123D01*
X0079282Y0025059D01*
X0079344Y0024993D01*
X0079403Y0024923D01*
X0079458Y0024852D01*
X0079511Y0024777D01*
X0079560Y0024701D01*
X0079606Y0024623D01*
X0079648Y0024542D01*
X0079687Y0024460D01*
X0079722Y0024376D01*
X0079753Y0024291D01*
X0079780Y0024204D01*
X0079804Y0024117D01*
X0079824Y0024028D01*
X0079840Y0023939D01*
X0079852Y0023849D01*
X0079860Y0023758D01*
X0079864Y0023667D01*
X0079864Y0023577D01*
X0079860Y0023486D01*
X0079852Y0023395D01*
X0079840Y0023305D01*
X0079824Y0023216D01*
X0079804Y0023127D01*
X0079780Y0023040D01*
X0079753Y0022953D01*
X0079722Y0022868D01*
X0079687Y0022784D01*
X0079648Y0022702D01*
X0079606Y0022621D01*
X0079560Y0022543D01*
X0079511Y0022467D01*
X0079458Y0022392D01*
X0079403Y0022321D01*
X0079344Y0022251D01*
X0079282Y0022185D01*
X0079218Y0022121D01*
X0079151Y0022060D01*
X0079081Y0022002D01*
X0079008Y0021947D01*
X0078934Y0021896D01*
X0078857Y0021847D01*
X0078778Y0021802D01*
X0078697Y0021761D01*
X0078614Y0021723D01*
X0078530Y0021689D01*
X0078444Y0021659D01*
X0078358Y0021632D01*
X0078270Y0021610D01*
X0078181Y0021591D01*
X0078091Y0021576D01*
X0078001Y0021565D01*
X0077910Y0021558D01*
X0077820Y0021555D01*
X0077729Y0021556D01*
X0077638Y0021561D01*
X0077548Y0021570D01*
X0077458Y0021583D01*
X0077369Y0021600D01*
X0077280Y0021621D01*
X0077193Y0021645D01*
X0077107Y0021674D01*
X0077022Y0021706D01*
X0076938Y0021742D01*
X0076857Y0021781D01*
X0076777Y0021824D01*
X0076699Y0021871D01*
X0076623Y0021921D01*
X0076549Y0021974D01*
X0076478Y0022031D01*
X0076409Y0022090D01*
X0076343Y0022152D01*
X0076280Y0022218D01*
X0076220Y0022286D01*
X0076163Y0022356D01*
X0076109Y0022429D01*
X0076058Y0022504D01*
X0076011Y0022582D01*
X0075967Y0022661D01*
X0075926Y0022743D01*
X0075890Y0022826D01*
X0075856Y0022910D01*
X0075827Y0022996D01*
X0075801Y0023083D01*
X0075780Y0023172D01*
X0075762Y0023261D01*
X0075748Y0023350D01*
X0075738Y0023441D01*
X0075732Y0023531D01*
X0075730Y0023622D01*
X0056636Y0023622D02*
X0056638Y0023713D01*
X0056644Y0023803D01*
X0056654Y0023894D01*
X0056668Y0023983D01*
X0056686Y0024072D01*
X0056707Y0024161D01*
X0056733Y0024248D01*
X0056762Y0024334D01*
X0056796Y0024418D01*
X0056832Y0024501D01*
X0056873Y0024583D01*
X0056917Y0024662D01*
X0056964Y0024740D01*
X0057015Y0024815D01*
X0057069Y0024888D01*
X0057126Y0024958D01*
X0057186Y0025026D01*
X0057249Y0025092D01*
X0057315Y0025154D01*
X0057384Y0025213D01*
X0057455Y0025270D01*
X0057529Y0025323D01*
X0057605Y0025373D01*
X0057683Y0025420D01*
X0057763Y0025463D01*
X0057844Y0025502D01*
X0057928Y0025538D01*
X0058013Y0025570D01*
X0058099Y0025599D01*
X0058186Y0025623D01*
X0058275Y0025644D01*
X0058364Y0025661D01*
X0058454Y0025674D01*
X0058544Y0025683D01*
X0058635Y0025688D01*
X0058726Y0025689D01*
X0058816Y0025686D01*
X0058907Y0025679D01*
X0058997Y0025668D01*
X0059087Y0025653D01*
X0059176Y0025634D01*
X0059264Y0025612D01*
X0059350Y0025585D01*
X0059436Y0025555D01*
X0059520Y0025521D01*
X0059603Y0025483D01*
X0059684Y0025442D01*
X0059763Y0025397D01*
X0059840Y0025348D01*
X0059914Y0025297D01*
X0059987Y0025242D01*
X0060057Y0025184D01*
X0060124Y0025123D01*
X0060188Y0025059D01*
X0060250Y0024993D01*
X0060309Y0024923D01*
X0060364Y0024852D01*
X0060417Y0024777D01*
X0060466Y0024701D01*
X0060512Y0024623D01*
X0060554Y0024542D01*
X0060593Y0024460D01*
X0060628Y0024376D01*
X0060659Y0024291D01*
X0060686Y0024204D01*
X0060710Y0024117D01*
X0060730Y0024028D01*
X0060746Y0023939D01*
X0060758Y0023849D01*
X0060766Y0023758D01*
X0060770Y0023667D01*
X0060770Y0023577D01*
X0060766Y0023486D01*
X0060758Y0023395D01*
X0060746Y0023305D01*
X0060730Y0023216D01*
X0060710Y0023127D01*
X0060686Y0023040D01*
X0060659Y0022953D01*
X0060628Y0022868D01*
X0060593Y0022784D01*
X0060554Y0022702D01*
X0060512Y0022621D01*
X0060466Y0022543D01*
X0060417Y0022467D01*
X0060364Y0022392D01*
X0060309Y0022321D01*
X0060250Y0022251D01*
X0060188Y0022185D01*
X0060124Y0022121D01*
X0060057Y0022060D01*
X0059987Y0022002D01*
X0059914Y0021947D01*
X0059840Y0021896D01*
X0059763Y0021847D01*
X0059684Y0021802D01*
X0059603Y0021761D01*
X0059520Y0021723D01*
X0059436Y0021689D01*
X0059350Y0021659D01*
X0059264Y0021632D01*
X0059176Y0021610D01*
X0059087Y0021591D01*
X0058997Y0021576D01*
X0058907Y0021565D01*
X0058816Y0021558D01*
X0058726Y0021555D01*
X0058635Y0021556D01*
X0058544Y0021561D01*
X0058454Y0021570D01*
X0058364Y0021583D01*
X0058275Y0021600D01*
X0058186Y0021621D01*
X0058099Y0021645D01*
X0058013Y0021674D01*
X0057928Y0021706D01*
X0057844Y0021742D01*
X0057763Y0021781D01*
X0057683Y0021824D01*
X0057605Y0021871D01*
X0057529Y0021921D01*
X0057455Y0021974D01*
X0057384Y0022031D01*
X0057315Y0022090D01*
X0057249Y0022152D01*
X0057186Y0022218D01*
X0057126Y0022286D01*
X0057069Y0022356D01*
X0057015Y0022429D01*
X0056964Y0022504D01*
X0056917Y0022582D01*
X0056873Y0022661D01*
X0056832Y0022743D01*
X0056796Y0022826D01*
X0056762Y0022910D01*
X0056733Y0022996D01*
X0056707Y0023083D01*
X0056686Y0023172D01*
X0056668Y0023261D01*
X0056654Y0023350D01*
X0056644Y0023441D01*
X0056638Y0023531D01*
X0056636Y0023622D01*
D15*
X0039156Y0014921D02*
X0027344Y0014921D01*
X0027344Y0005079D01*
X0029904Y0005079D01*
X0029904Y0005669D01*
X0029903Y0005669D02*
X0029905Y0005708D01*
X0029911Y0005746D01*
X0029920Y0005783D01*
X0029933Y0005820D01*
X0029950Y0005855D01*
X0029969Y0005888D01*
X0029992Y0005919D01*
X0030018Y0005948D01*
X0030047Y0005974D01*
X0030078Y0005997D01*
X0030111Y0006016D01*
X0030146Y0006033D01*
X0030183Y0006046D01*
X0030220Y0006055D01*
X0030258Y0006061D01*
X0030297Y0006063D01*
X0036203Y0006063D01*
X0036242Y0006061D01*
X0036280Y0006055D01*
X0036317Y0006046D01*
X0036354Y0006033D01*
X0036389Y0006016D01*
X0036422Y0005997D01*
X0036453Y0005974D01*
X0036482Y0005948D01*
X0036508Y0005919D01*
X0036531Y0005888D01*
X0036550Y0005855D01*
X0036567Y0005820D01*
X0036580Y0005783D01*
X0036589Y0005746D01*
X0036595Y0005708D01*
X0036597Y0005669D01*
X0036596Y0005669D02*
X0036596Y0005079D01*
X0039156Y0005079D01*
X0039156Y0014921D01*
X0102344Y0014921D02*
X0102344Y0005079D01*
X0104904Y0005079D01*
X0104904Y0005669D01*
X0104903Y0005669D02*
X0104905Y0005708D01*
X0104911Y0005746D01*
X0104920Y0005783D01*
X0104933Y0005820D01*
X0104950Y0005855D01*
X0104969Y0005888D01*
X0104992Y0005919D01*
X0105018Y0005948D01*
X0105047Y0005974D01*
X0105078Y0005997D01*
X0105111Y0006016D01*
X0105146Y0006033D01*
X0105183Y0006046D01*
X0105220Y0006055D01*
X0105258Y0006061D01*
X0105297Y0006063D01*
X0111203Y0006063D01*
X0111242Y0006061D01*
X0111280Y0006055D01*
X0111317Y0006046D01*
X0111354Y0006033D01*
X0111389Y0006016D01*
X0111422Y0005997D01*
X0111453Y0005974D01*
X0111482Y0005948D01*
X0111508Y0005919D01*
X0111531Y0005888D01*
X0111550Y0005855D01*
X0111567Y0005820D01*
X0111580Y0005783D01*
X0111589Y0005746D01*
X0111595Y0005708D01*
X0111597Y0005669D01*
X0111596Y0005669D02*
X0111596Y0005079D01*
X0114156Y0005079D01*
X0114156Y0014921D01*
X0102344Y0014921D01*
D16*
X0101360Y0010000D03*
X0115140Y0010000D03*
X0040140Y0010000D03*
X0026360Y0010000D03*
D17*
X0029904Y0005079D02*
X0029904Y0003898D01*
X0031478Y0002323D01*
X0035022Y0002323D01*
X0036596Y0003898D01*
X0036596Y0005079D01*
X0104904Y0005079D02*
X0104904Y0003898D01*
X0106478Y0002323D01*
X0110022Y0002323D01*
X0111596Y0003898D01*
X0111596Y0005079D01*
D18*
X0119112Y0004450D02*
X0119112Y0007352D01*
X0119112Y0005901D02*
X0121047Y0005901D01*
X0122058Y0005417D02*
X0122058Y0004934D01*
X0122542Y0004450D01*
X0123509Y0004450D01*
X0123993Y0004934D01*
X0123509Y0005901D02*
X0122542Y0005901D01*
X0122058Y0005417D01*
X0121047Y0004450D02*
X0121047Y0007352D01*
X0122058Y0006869D02*
X0122542Y0007352D01*
X0123509Y0007352D01*
X0123993Y0006869D01*
X0123993Y0006385D01*
X0123509Y0005901D01*
X0125005Y0005901D02*
X0126940Y0005901D01*
X0126940Y0006385D02*
X0125972Y0007352D01*
X0125005Y0006385D01*
X0125005Y0004450D01*
X0126940Y0004450D02*
X0126940Y0006385D01*
X0129886Y0007352D02*
X0129886Y0004450D01*
X0127951Y0004450D01*
X0130898Y0007352D02*
X0132833Y0007352D01*
X0132833Y0004450D01*
X0132833Y0005901D02*
X0131865Y0005901D01*
X0054886Y0005417D02*
X0053435Y0005417D01*
X0052951Y0005901D01*
X0052951Y0006869D01*
X0053435Y0007352D01*
X0054886Y0007352D01*
X0054886Y0004450D01*
X0053919Y0005417D02*
X0052951Y0004450D01*
X0051940Y0004450D02*
X0050005Y0004450D01*
X0048993Y0004934D02*
X0048509Y0004450D01*
X0047542Y0004450D01*
X0047058Y0004934D01*
X0047058Y0005417D01*
X0047542Y0005901D01*
X0048509Y0005901D01*
X0048993Y0006385D01*
X0048993Y0006869D01*
X0048509Y0007352D01*
X0047542Y0007352D01*
X0047058Y0006869D01*
X0046047Y0007352D02*
X0044112Y0007352D01*
X0045079Y0007352D02*
X0045079Y0004450D01*
X0050005Y0007352D02*
X0051940Y0007352D01*
X0051940Y0004450D01*
X0051940Y0005901D02*
X0050972Y0005901D01*
M02*
