G75*
%MOIN*%
%OFA0B0*%
%FSLAX25Y25*%
%IPPOS*%
%LPD*%
%AMOC8*
5,1,8,0,0,1.08239X$1,22.5*
%
%ADD10C,0.01600*%
%ADD11R,0.07874X0.04724*%
%ADD12R,0.04724X0.07874*%
%ADD13C,0.00000*%
%ADD14R,0.05906X0.03543*%
D10*
X0008250Y0005000D02*
X0008250Y0123110D01*
X0132266Y0123110D01*
X0132266Y0005000D01*
X0008250Y0005000D01*
D11*
X0038250Y0037874D03*
X0038250Y0045748D03*
X0038250Y0053622D03*
X0038250Y0061496D03*
X0038250Y0069370D03*
X0038250Y0077244D03*
X0038250Y0085118D03*
X0038250Y0092992D03*
X0102030Y0092992D03*
X0102030Y0085118D03*
X0102030Y0077244D03*
X0102030Y0069370D03*
X0102030Y0061496D03*
X0102030Y0053622D03*
X0102030Y0045748D03*
X0102030Y0037874D03*
D12*
X0089431Y0030000D03*
X0081557Y0030000D03*
X0073683Y0030000D03*
X0065809Y0030000D03*
X0057935Y0030000D03*
X0050061Y0030000D03*
D13*
X0056636Y0023622D02*
X0056638Y0023713D01*
X0056644Y0023803D01*
X0056654Y0023894D01*
X0056668Y0023983D01*
X0056686Y0024072D01*
X0056707Y0024161D01*
X0056733Y0024248D01*
X0056762Y0024334D01*
X0056796Y0024418D01*
X0056832Y0024501D01*
X0056873Y0024583D01*
X0056917Y0024662D01*
X0056964Y0024740D01*
X0057015Y0024815D01*
X0057069Y0024888D01*
X0057126Y0024958D01*
X0057186Y0025026D01*
X0057249Y0025092D01*
X0057315Y0025154D01*
X0057384Y0025213D01*
X0057455Y0025270D01*
X0057529Y0025323D01*
X0057605Y0025373D01*
X0057683Y0025420D01*
X0057763Y0025463D01*
X0057844Y0025502D01*
X0057928Y0025538D01*
X0058013Y0025570D01*
X0058099Y0025599D01*
X0058186Y0025623D01*
X0058275Y0025644D01*
X0058364Y0025661D01*
X0058454Y0025674D01*
X0058544Y0025683D01*
X0058635Y0025688D01*
X0058726Y0025689D01*
X0058816Y0025686D01*
X0058907Y0025679D01*
X0058997Y0025668D01*
X0059087Y0025653D01*
X0059176Y0025634D01*
X0059264Y0025612D01*
X0059350Y0025585D01*
X0059436Y0025555D01*
X0059520Y0025521D01*
X0059603Y0025483D01*
X0059684Y0025442D01*
X0059763Y0025397D01*
X0059840Y0025348D01*
X0059914Y0025297D01*
X0059987Y0025242D01*
X0060057Y0025184D01*
X0060124Y0025123D01*
X0060188Y0025059D01*
X0060250Y0024993D01*
X0060309Y0024923D01*
X0060364Y0024852D01*
X0060417Y0024777D01*
X0060466Y0024701D01*
X0060512Y0024623D01*
X0060554Y0024542D01*
X0060593Y0024460D01*
X0060628Y0024376D01*
X0060659Y0024291D01*
X0060686Y0024204D01*
X0060710Y0024117D01*
X0060730Y0024028D01*
X0060746Y0023939D01*
X0060758Y0023849D01*
X0060766Y0023758D01*
X0060770Y0023667D01*
X0060770Y0023577D01*
X0060766Y0023486D01*
X0060758Y0023395D01*
X0060746Y0023305D01*
X0060730Y0023216D01*
X0060710Y0023127D01*
X0060686Y0023040D01*
X0060659Y0022953D01*
X0060628Y0022868D01*
X0060593Y0022784D01*
X0060554Y0022702D01*
X0060512Y0022621D01*
X0060466Y0022543D01*
X0060417Y0022467D01*
X0060364Y0022392D01*
X0060309Y0022321D01*
X0060250Y0022251D01*
X0060188Y0022185D01*
X0060124Y0022121D01*
X0060057Y0022060D01*
X0059987Y0022002D01*
X0059914Y0021947D01*
X0059840Y0021896D01*
X0059763Y0021847D01*
X0059684Y0021802D01*
X0059603Y0021761D01*
X0059520Y0021723D01*
X0059436Y0021689D01*
X0059350Y0021659D01*
X0059264Y0021632D01*
X0059176Y0021610D01*
X0059087Y0021591D01*
X0058997Y0021576D01*
X0058907Y0021565D01*
X0058816Y0021558D01*
X0058726Y0021555D01*
X0058635Y0021556D01*
X0058544Y0021561D01*
X0058454Y0021570D01*
X0058364Y0021583D01*
X0058275Y0021600D01*
X0058186Y0021621D01*
X0058099Y0021645D01*
X0058013Y0021674D01*
X0057928Y0021706D01*
X0057844Y0021742D01*
X0057763Y0021781D01*
X0057683Y0021824D01*
X0057605Y0021871D01*
X0057529Y0021921D01*
X0057455Y0021974D01*
X0057384Y0022031D01*
X0057315Y0022090D01*
X0057249Y0022152D01*
X0057186Y0022218D01*
X0057126Y0022286D01*
X0057069Y0022356D01*
X0057015Y0022429D01*
X0056964Y0022504D01*
X0056917Y0022582D01*
X0056873Y0022661D01*
X0056832Y0022743D01*
X0056796Y0022826D01*
X0056762Y0022910D01*
X0056733Y0022996D01*
X0056707Y0023083D01*
X0056686Y0023172D01*
X0056668Y0023261D01*
X0056654Y0023350D01*
X0056644Y0023441D01*
X0056638Y0023531D01*
X0056636Y0023622D01*
X0075730Y0023622D02*
X0075732Y0023713D01*
X0075738Y0023803D01*
X0075748Y0023894D01*
X0075762Y0023983D01*
X0075780Y0024072D01*
X0075801Y0024161D01*
X0075827Y0024248D01*
X0075856Y0024334D01*
X0075890Y0024418D01*
X0075926Y0024501D01*
X0075967Y0024583D01*
X0076011Y0024662D01*
X0076058Y0024740D01*
X0076109Y0024815D01*
X0076163Y0024888D01*
X0076220Y0024958D01*
X0076280Y0025026D01*
X0076343Y0025092D01*
X0076409Y0025154D01*
X0076478Y0025213D01*
X0076549Y0025270D01*
X0076623Y0025323D01*
X0076699Y0025373D01*
X0076777Y0025420D01*
X0076857Y0025463D01*
X0076938Y0025502D01*
X0077022Y0025538D01*
X0077107Y0025570D01*
X0077193Y0025599D01*
X0077280Y0025623D01*
X0077369Y0025644D01*
X0077458Y0025661D01*
X0077548Y0025674D01*
X0077638Y0025683D01*
X0077729Y0025688D01*
X0077820Y0025689D01*
X0077910Y0025686D01*
X0078001Y0025679D01*
X0078091Y0025668D01*
X0078181Y0025653D01*
X0078270Y0025634D01*
X0078358Y0025612D01*
X0078444Y0025585D01*
X0078530Y0025555D01*
X0078614Y0025521D01*
X0078697Y0025483D01*
X0078778Y0025442D01*
X0078857Y0025397D01*
X0078934Y0025348D01*
X0079008Y0025297D01*
X0079081Y0025242D01*
X0079151Y0025184D01*
X0079218Y0025123D01*
X0079282Y0025059D01*
X0079344Y0024993D01*
X0079403Y0024923D01*
X0079458Y0024852D01*
X0079511Y0024777D01*
X0079560Y0024701D01*
X0079606Y0024623D01*
X0079648Y0024542D01*
X0079687Y0024460D01*
X0079722Y0024376D01*
X0079753Y0024291D01*
X0079780Y0024204D01*
X0079804Y0024117D01*
X0079824Y0024028D01*
X0079840Y0023939D01*
X0079852Y0023849D01*
X0079860Y0023758D01*
X0079864Y0023667D01*
X0079864Y0023577D01*
X0079860Y0023486D01*
X0079852Y0023395D01*
X0079840Y0023305D01*
X0079824Y0023216D01*
X0079804Y0023127D01*
X0079780Y0023040D01*
X0079753Y0022953D01*
X0079722Y0022868D01*
X0079687Y0022784D01*
X0079648Y0022702D01*
X0079606Y0022621D01*
X0079560Y0022543D01*
X0079511Y0022467D01*
X0079458Y0022392D01*
X0079403Y0022321D01*
X0079344Y0022251D01*
X0079282Y0022185D01*
X0079218Y0022121D01*
X0079151Y0022060D01*
X0079081Y0022002D01*
X0079008Y0021947D01*
X0078934Y0021896D01*
X0078857Y0021847D01*
X0078778Y0021802D01*
X0078697Y0021761D01*
X0078614Y0021723D01*
X0078530Y0021689D01*
X0078444Y0021659D01*
X0078358Y0021632D01*
X0078270Y0021610D01*
X0078181Y0021591D01*
X0078091Y0021576D01*
X0078001Y0021565D01*
X0077910Y0021558D01*
X0077820Y0021555D01*
X0077729Y0021556D01*
X0077638Y0021561D01*
X0077548Y0021570D01*
X0077458Y0021583D01*
X0077369Y0021600D01*
X0077280Y0021621D01*
X0077193Y0021645D01*
X0077107Y0021674D01*
X0077022Y0021706D01*
X0076938Y0021742D01*
X0076857Y0021781D01*
X0076777Y0021824D01*
X0076699Y0021871D01*
X0076623Y0021921D01*
X0076549Y0021974D01*
X0076478Y0022031D01*
X0076409Y0022090D01*
X0076343Y0022152D01*
X0076280Y0022218D01*
X0076220Y0022286D01*
X0076163Y0022356D01*
X0076109Y0022429D01*
X0076058Y0022504D01*
X0076011Y0022582D01*
X0075967Y0022661D01*
X0075926Y0022743D01*
X0075890Y0022826D01*
X0075856Y0022910D01*
X0075827Y0022996D01*
X0075801Y0023083D01*
X0075780Y0023172D01*
X0075762Y0023261D01*
X0075748Y0023350D01*
X0075738Y0023441D01*
X0075732Y0023531D01*
X0075730Y0023622D01*
D14*
X0096104Y0022746D03*
X0096104Y0009754D03*
X0115396Y0009754D03*
X0115396Y0022746D03*
X0044146Y0022746D03*
X0044146Y0009754D03*
X0024854Y0009754D03*
X0024854Y0022746D03*
X0032896Y0103504D03*
X0032896Y0116496D03*
X0013604Y0116496D03*
X0013604Y0103504D03*
X0108604Y0103504D03*
X0108604Y0116496D03*
X0127896Y0116496D03*
X0127896Y0103504D03*
M02*
