G75*
%MOIN*%
%OFA0B0*%
%FSLAX25Y25*%
%IPPOS*%
%LPD*%
%AMOC8*
5,1,8,0,0,1.08239X$1,22.5*
%
%ADD10C,0.01600*%
%ADD11C,0.00500*%
%ADD12C,0.00600*%
%ADD13C,0.00400*%
D10*
X0008250Y0002200D02*
X0008250Y0120310D01*
X0132266Y0120310D01*
X0132266Y0002200D01*
X0008250Y0002200D01*
D11*
X0021997Y0015346D02*
X0022747Y0015346D01*
X0023498Y0016097D01*
X0023498Y0017598D01*
X0024249Y0018349D01*
X0024999Y0018349D01*
X0025750Y0017598D01*
X0025750Y0016097D01*
X0024999Y0015346D01*
X0024249Y0015346D01*
X0023498Y0016097D01*
X0021997Y0015346D02*
X0021246Y0016097D01*
X0021246Y0017598D01*
X0021997Y0018349D01*
X0022747Y0018349D01*
X0023498Y0017598D01*
X0029864Y0008539D02*
X0057423Y0008539D01*
X0057423Y0030586D01*
X0029864Y0030586D01*
X0029864Y0008539D01*
X0029864Y0003027D01*
X0057423Y0003027D01*
X0057423Y0008539D01*
X0057364Y0008539D02*
X0084923Y0008539D01*
X0084923Y0030586D01*
X0057364Y0030586D01*
X0057364Y0008539D01*
X0057364Y0003027D01*
X0084923Y0003027D01*
X0084923Y0008539D01*
X0084864Y0008539D02*
X0112423Y0008539D01*
X0112423Y0030586D01*
X0084864Y0030586D01*
X0084864Y0008539D01*
X0084864Y0003027D01*
X0112423Y0003027D01*
X0112423Y0008539D01*
X0132496Y0016097D02*
X0132496Y0017598D01*
X0133247Y0018349D01*
X0133997Y0018349D01*
X0134748Y0017598D01*
X0134748Y0016097D01*
X0133997Y0015346D01*
X0133247Y0015346D01*
X0132496Y0016097D01*
X0134748Y0016097D02*
X0135499Y0015346D01*
X0136249Y0015346D01*
X0137000Y0016097D01*
X0137000Y0017598D01*
X0136249Y0018349D01*
X0135499Y0018349D01*
X0134748Y0017598D01*
X0133997Y0078638D02*
X0134748Y0079389D01*
X0134748Y0080890D01*
X0135499Y0081641D01*
X0136249Y0081641D01*
X0137000Y0080890D01*
X0137000Y0079389D01*
X0136249Y0078638D01*
X0133997Y0078638D02*
X0133247Y0078638D01*
X0132496Y0079389D01*
X0132496Y0080890D01*
X0133247Y0081641D01*
X0132496Y0083242D02*
X0135499Y0083242D01*
X0137000Y0084743D01*
X0135499Y0086245D01*
X0132496Y0086245D01*
X0133247Y0087846D02*
X0132496Y0088597D01*
X0132496Y0090098D01*
X0133247Y0090849D01*
X0133997Y0090849D01*
X0137000Y0087846D01*
X0137000Y0090849D01*
X0130500Y0095867D02*
X0130500Y0097702D01*
X0129583Y0098620D01*
X0127748Y0098620D01*
X0127748Y0096785D01*
X0129583Y0094950D02*
X0130500Y0095867D01*
X0129583Y0094950D02*
X0125913Y0094950D01*
X0124995Y0095867D01*
X0124995Y0097702D01*
X0125913Y0098620D01*
X0124995Y0100475D02*
X0130500Y0104145D01*
X0124995Y0104145D01*
X0124995Y0105999D02*
X0124995Y0108752D01*
X0125913Y0109669D01*
X0129583Y0109669D01*
X0130500Y0108752D01*
X0130500Y0105999D01*
X0124995Y0105999D01*
X0124995Y0100475D02*
X0130500Y0100475D01*
X0119000Y0087849D02*
X0119000Y0084846D01*
X0119000Y0086347D02*
X0114496Y0086347D01*
X0115997Y0084846D01*
X0025750Y0084743D02*
X0024249Y0086245D01*
X0021246Y0086245D01*
X0022747Y0087846D02*
X0021246Y0089347D01*
X0025750Y0089347D01*
X0025750Y0087846D02*
X0025750Y0090849D01*
X0025750Y0084743D02*
X0024249Y0083242D01*
X0021246Y0083242D01*
X0021997Y0081641D02*
X0021246Y0080890D01*
X0021246Y0079389D01*
X0021997Y0078638D01*
X0022747Y0078638D01*
X0023498Y0079389D01*
X0023498Y0080890D01*
X0024249Y0081641D01*
X0024999Y0081641D01*
X0025750Y0080890D01*
X0025750Y0079389D01*
X0024999Y0078638D01*
X0007750Y0084846D02*
X0007750Y0087849D01*
X0007750Y0086347D02*
X0003246Y0086347D01*
X0004747Y0084846D01*
X0009995Y0094950D02*
X0013665Y0094950D01*
X0015500Y0096785D01*
X0013665Y0098620D01*
X0009995Y0098620D01*
X0010913Y0100475D02*
X0014583Y0100475D01*
X0015500Y0101392D01*
X0015500Y0103227D01*
X0014583Y0104145D01*
X0014583Y0105999D02*
X0015500Y0106917D01*
X0015500Y0108752D01*
X0014583Y0109669D01*
X0014583Y0105999D02*
X0010913Y0105999D01*
X0009995Y0106917D01*
X0009995Y0108752D01*
X0010913Y0109669D01*
X0010913Y0104145D02*
X0009995Y0103227D01*
X0009995Y0101392D01*
X0010913Y0100475D01*
D12*
X0012000Y0092200D02*
X0009500Y0089700D01*
X0009500Y0084700D01*
X0012000Y0082200D01*
X0009500Y0079700D01*
X0009500Y0074700D01*
X0012000Y0072200D01*
X0009500Y0069700D01*
X0009500Y0064700D01*
X0012000Y0062200D01*
X0009500Y0059700D01*
X0009500Y0054700D01*
X0012000Y0052200D01*
X0009500Y0049700D01*
X0009500Y0044700D01*
X0012000Y0042200D01*
X0009500Y0039700D01*
X0009500Y0034700D01*
X0012000Y0032200D01*
X0009500Y0029700D01*
X0009500Y0024700D01*
X0012000Y0022200D01*
X0009500Y0019700D01*
X0009500Y0014700D01*
X0012000Y0012200D01*
X0017000Y0012200D01*
X0019500Y0014700D01*
X0019500Y0019700D01*
X0017000Y0022200D01*
X0019500Y0024700D01*
X0019500Y0029700D01*
X0017000Y0032200D01*
X0019500Y0034700D01*
X0019500Y0039700D01*
X0017000Y0042200D01*
X0019500Y0044700D01*
X0019500Y0049700D01*
X0017000Y0052200D01*
X0019500Y0054700D01*
X0019500Y0059700D01*
X0017000Y0062200D01*
X0019500Y0064700D01*
X0019500Y0069700D01*
X0017000Y0072200D01*
X0019500Y0074700D01*
X0019500Y0079700D01*
X0017000Y0082200D01*
X0019500Y0084700D01*
X0019500Y0089700D01*
X0017000Y0092200D01*
X0012000Y0092200D01*
X0120750Y0089700D02*
X0120750Y0084700D01*
X0123250Y0082200D01*
X0120750Y0079700D01*
X0120750Y0074700D01*
X0123250Y0072200D01*
X0120750Y0069700D01*
X0120750Y0064700D01*
X0123250Y0062200D01*
X0120750Y0059700D01*
X0120750Y0054700D01*
X0123250Y0052200D01*
X0120750Y0049700D01*
X0120750Y0044700D01*
X0123250Y0042200D01*
X0120750Y0039700D01*
X0120750Y0034700D01*
X0123250Y0032200D01*
X0120750Y0029700D01*
X0120750Y0024700D01*
X0123250Y0022200D01*
X0120750Y0019700D01*
X0120750Y0014700D01*
X0123250Y0012200D01*
X0128250Y0012200D01*
X0130750Y0014700D01*
X0130750Y0019700D01*
X0128250Y0022200D01*
X0130750Y0024700D01*
X0130750Y0029700D01*
X0128250Y0032200D01*
X0130750Y0034700D01*
X0130750Y0039700D01*
X0128250Y0042200D01*
X0130750Y0044700D01*
X0130750Y0049700D01*
X0128250Y0052200D01*
X0130750Y0054700D01*
X0130750Y0059700D01*
X0128250Y0062200D01*
X0130750Y0064700D01*
X0130750Y0069700D01*
X0128250Y0072200D01*
X0130750Y0074700D01*
X0130750Y0079700D01*
X0128250Y0082200D01*
X0130750Y0084700D01*
X0130750Y0089700D01*
X0128250Y0092200D01*
X0123250Y0092200D01*
X0120750Y0089700D01*
D13*
X0107959Y0036689D02*
X0106424Y0036689D01*
X0105657Y0035922D01*
X0104122Y0036689D02*
X0102588Y0036689D01*
X0103355Y0036689D02*
X0103355Y0032852D01*
X0102588Y0032085D01*
X0101820Y0032085D01*
X0101053Y0032852D01*
X0105657Y0032852D02*
X0106424Y0032085D01*
X0107959Y0032085D01*
X0108726Y0032852D01*
X0108726Y0033620D01*
X0107959Y0034387D01*
X0107192Y0034387D01*
X0107959Y0034387D02*
X0108726Y0035154D01*
X0108726Y0035922D01*
X0107959Y0036689D01*
X0081226Y0035922D02*
X0080459Y0036689D01*
X0078924Y0036689D01*
X0078157Y0035922D01*
X0076622Y0036689D02*
X0075088Y0036689D01*
X0075855Y0036689D02*
X0075855Y0032852D01*
X0075088Y0032085D01*
X0074320Y0032085D01*
X0073553Y0032852D01*
X0078157Y0032085D02*
X0081226Y0035154D01*
X0081226Y0035922D01*
X0081226Y0032085D02*
X0078157Y0032085D01*
X0053726Y0032085D02*
X0050657Y0032085D01*
X0052192Y0032085D02*
X0052192Y0036689D01*
X0050657Y0035154D01*
X0049122Y0036689D02*
X0047588Y0036689D01*
X0048355Y0036689D02*
X0048355Y0032852D01*
X0047588Y0032085D01*
X0046820Y0032085D01*
X0046053Y0032852D01*
M02*
