%
M48
M72
T01C0.02362
T02C0.03937
T03C0.04000
%
T01
X85750Y72200
X100750Y64700
T02
X105337Y17200
X91557Y17200
X77837Y17200
X64057Y17200
X50337Y17200
X36557Y17200
T03
X14500Y17200
X14500Y27200
X14500Y37200
X14500Y47200
X14500Y57200
X14500Y67200
X14500Y77200
X14500Y87200
X103250Y102200
X113250Y102200
X113250Y112200
X103250Y112200
X125750Y87200
X125750Y77200
X125750Y67200
X125750Y57200
X125750Y47200
X125750Y37200
X125750Y27200
X125750Y17200
M30
