G75*
%MOIN*%
%OFA0B0*%
%FSLAX25Y25*%
%IPPOS*%
%LPD*%
%AMOC8*
5,1,8,0,0,1.08239X$1,22.5*
%
%ADD10C,0.01600*%
%ADD11C,0.06800*%
%ADD12OC8,0.07100*%
%ADD13C,0.07100*%
%ADD14C,0.07850*%
%ADD15OC8,0.06800*%
%ADD16C,0.04762*%
D10*
X0008250Y0001800D02*
X0008250Y0119910D01*
X0132266Y0119910D01*
X0132266Y0001800D01*
X0008250Y0001800D01*
D11*
X0011500Y0016800D02*
X0017500Y0016800D01*
X0017500Y0026800D02*
X0011500Y0026800D01*
X0011500Y0036800D02*
X0017500Y0036800D01*
X0017500Y0046800D02*
X0011500Y0046800D01*
X0011500Y0056800D02*
X0017500Y0056800D01*
X0017500Y0066800D02*
X0011500Y0066800D01*
X0011500Y0076800D02*
X0017500Y0076800D01*
X0017500Y0086800D02*
X0011500Y0086800D01*
X0122750Y0086800D02*
X0128750Y0086800D01*
X0128750Y0076800D02*
X0122750Y0076800D01*
X0122750Y0066800D02*
X0128750Y0066800D01*
X0128750Y0056800D02*
X0122750Y0056800D01*
X0122750Y0046800D02*
X0128750Y0046800D01*
X0128750Y0036800D02*
X0122750Y0036800D01*
X0122750Y0026800D02*
X0128750Y0026800D01*
X0128750Y0016800D02*
X0122750Y0016800D01*
D12*
X0033250Y0021800D03*
X0030750Y0101800D03*
D13*
X0040750Y0101800D03*
X0043250Y0021800D03*
D14*
X0060750Y0098275D02*
X0060750Y0105325D01*
X0080750Y0105325D02*
X0080750Y0098275D01*
D15*
X0103250Y0101800D03*
X0113250Y0101800D03*
X0113250Y0111800D03*
X0103250Y0111800D03*
D16*
X0110750Y0079300D03*
X0073250Y0069300D03*
X0053250Y0046800D03*
M02*
