G75*
%MOIN*%
%OFA0B0*%
%FSLAX25Y25*%
%IPPOS*%
%LPD*%
%AMOC8*
5,1,8,0,0,1.08239X$1,22.5*
%
%ADD10C,0.01600*%
%ADD11C,0.06800*%
%ADD12OC8,0.06800*%
%ADD13C,0.09400*%
%ADD14C,0.04762*%
D10*
X0008250Y0002200D02*
X0008250Y0120310D01*
X0132266Y0120310D01*
X0132266Y0002200D01*
X0008250Y0002200D01*
D11*
X0011500Y0017200D02*
X0017500Y0017200D01*
X0017500Y0027200D02*
X0011500Y0027200D01*
X0011500Y0037200D02*
X0017500Y0037200D01*
X0017500Y0047200D02*
X0011500Y0047200D01*
X0011500Y0057200D02*
X0017500Y0057200D01*
X0017500Y0067200D02*
X0011500Y0067200D01*
X0011500Y0077200D02*
X0017500Y0077200D01*
X0017500Y0087200D02*
X0011500Y0087200D01*
X0122750Y0087200D02*
X0128750Y0087200D01*
X0128750Y0077200D02*
X0122750Y0077200D01*
X0122750Y0067200D02*
X0128750Y0067200D01*
X0128750Y0057200D02*
X0122750Y0057200D01*
X0122750Y0047200D02*
X0128750Y0047200D01*
X0128750Y0037200D02*
X0122750Y0037200D01*
X0122750Y0027200D02*
X0128750Y0027200D01*
X0128750Y0017200D02*
X0122750Y0017200D01*
D12*
X0113250Y0102200D03*
X0103250Y0102200D03*
X0103250Y0112200D03*
X0113250Y0112200D03*
D13*
X0105337Y0017200D03*
X0091557Y0017200D03*
X0077837Y0017200D03*
X0064057Y0017200D03*
X0050337Y0017200D03*
X0036557Y0017200D03*
D14*
X0085750Y0072200D03*
X0100750Y0064700D03*
M02*
