%
M48
M72
T01C0.02362
T02C0.04000
T03C0.04134
T04C0.04724
%
T01
X27000Y17500
X30750Y22500
X30750Y41250
X30750Y56875
X47625Y73750
X47000Y80000
X47000Y90000
X25750Y103750
X15750Y97500
X63875Y60000
X79500Y50000
X94500Y46250
X109500Y49375
X109500Y37500
X125250Y50000
X89500Y22500
X87000Y65625
X87000Y74375
X74500Y83750
X114500Y96250
X120750Y103750
T02
X14500Y20000
X14500Y30000
X14500Y40000
X14500Y50000
X14500Y60000
X14500Y70000
X14500Y80000
X14500Y90000
X125750Y90000
X125750Y80000
X125750Y70000
X125750Y60000
X125750Y50000
X125750Y40000
X125750Y30000
X125750Y20000
T03
X77797Y23622
X58703Y23622
T04
X53585Y11693
X82915Y11693
M30
