G75*
%MOIN*%
%OFA0B0*%
%FSLAX25Y25*%
%IPPOS*%
%LPD*%
%AMOC8*
5,1,8,0,0,1.08239X$1,22.5*
%
%ADD10C,0.01600*%
%ADD11C,0.00500*%
%ADD12C,0.00400*%
%ADD13C,0.00000*%
%ADD14C,0.00600*%
%ADD15C,0.00300*%
D10*
X0008250Y0005000D02*
X0008250Y0123110D01*
X0132266Y0123110D01*
X0132266Y0005000D01*
X0008250Y0005000D01*
D11*
X0024657Y0006407D02*
X0024657Y0022549D01*
X0028201Y0026093D01*
X0029382Y0027274D01*
X0027807Y0028848D01*
X0024657Y0026093D01*
X0028201Y0026093D01*
X0044343Y0026093D01*
X0044343Y0006407D01*
X0024657Y0006407D01*
X0027727Y0016250D02*
X0027729Y0016416D01*
X0027735Y0016582D01*
X0027745Y0016748D01*
X0027760Y0016914D01*
X0027778Y0017079D01*
X0027800Y0017244D01*
X0027827Y0017408D01*
X0027857Y0017571D01*
X0027892Y0017734D01*
X0027930Y0017896D01*
X0027972Y0018056D01*
X0028019Y0018216D01*
X0028069Y0018375D01*
X0028123Y0018532D01*
X0028181Y0018688D01*
X0028243Y0018842D01*
X0028308Y0018995D01*
X0028377Y0019146D01*
X0028450Y0019295D01*
X0028527Y0019443D01*
X0028607Y0019588D01*
X0028691Y0019732D01*
X0028778Y0019874D01*
X0028868Y0020013D01*
X0028962Y0020150D01*
X0029060Y0020285D01*
X0029161Y0020417D01*
X0029264Y0020547D01*
X0029371Y0020674D01*
X0029482Y0020798D01*
X0029595Y0020920D01*
X0029711Y0021039D01*
X0029830Y0021155D01*
X0029952Y0021268D01*
X0030076Y0021379D01*
X0030203Y0021486D01*
X0030333Y0021589D01*
X0030465Y0021690D01*
X0030600Y0021788D01*
X0030737Y0021882D01*
X0030876Y0021972D01*
X0031018Y0022059D01*
X0031162Y0022143D01*
X0031307Y0022223D01*
X0031455Y0022300D01*
X0031604Y0022373D01*
X0031755Y0022442D01*
X0031908Y0022507D01*
X0032062Y0022569D01*
X0032218Y0022627D01*
X0032375Y0022681D01*
X0032534Y0022731D01*
X0032694Y0022778D01*
X0032854Y0022820D01*
X0033016Y0022858D01*
X0033179Y0022893D01*
X0033342Y0022923D01*
X0033506Y0022950D01*
X0033671Y0022972D01*
X0033836Y0022990D01*
X0034002Y0023005D01*
X0034168Y0023015D01*
X0034334Y0023021D01*
X0034500Y0023023D01*
X0034666Y0023021D01*
X0034832Y0023015D01*
X0034998Y0023005D01*
X0035164Y0022990D01*
X0035329Y0022972D01*
X0035494Y0022950D01*
X0035658Y0022923D01*
X0035821Y0022893D01*
X0035984Y0022858D01*
X0036146Y0022820D01*
X0036306Y0022778D01*
X0036466Y0022731D01*
X0036625Y0022681D01*
X0036782Y0022627D01*
X0036938Y0022569D01*
X0037092Y0022507D01*
X0037245Y0022442D01*
X0037396Y0022373D01*
X0037545Y0022300D01*
X0037693Y0022223D01*
X0037838Y0022143D01*
X0037982Y0022059D01*
X0038124Y0021972D01*
X0038263Y0021882D01*
X0038400Y0021788D01*
X0038535Y0021690D01*
X0038667Y0021589D01*
X0038797Y0021486D01*
X0038924Y0021379D01*
X0039048Y0021268D01*
X0039170Y0021155D01*
X0039289Y0021039D01*
X0039405Y0020920D01*
X0039518Y0020798D01*
X0039629Y0020674D01*
X0039736Y0020547D01*
X0039839Y0020417D01*
X0039940Y0020285D01*
X0040038Y0020150D01*
X0040132Y0020013D01*
X0040222Y0019874D01*
X0040309Y0019732D01*
X0040393Y0019588D01*
X0040473Y0019443D01*
X0040550Y0019295D01*
X0040623Y0019146D01*
X0040692Y0018995D01*
X0040757Y0018842D01*
X0040819Y0018688D01*
X0040877Y0018532D01*
X0040931Y0018375D01*
X0040981Y0018216D01*
X0041028Y0018056D01*
X0041070Y0017896D01*
X0041108Y0017734D01*
X0041143Y0017571D01*
X0041173Y0017408D01*
X0041200Y0017244D01*
X0041222Y0017079D01*
X0041240Y0016914D01*
X0041255Y0016748D01*
X0041265Y0016582D01*
X0041271Y0016416D01*
X0041273Y0016250D01*
X0041271Y0016084D01*
X0041265Y0015918D01*
X0041255Y0015752D01*
X0041240Y0015586D01*
X0041222Y0015421D01*
X0041200Y0015256D01*
X0041173Y0015092D01*
X0041143Y0014929D01*
X0041108Y0014766D01*
X0041070Y0014604D01*
X0041028Y0014444D01*
X0040981Y0014284D01*
X0040931Y0014125D01*
X0040877Y0013968D01*
X0040819Y0013812D01*
X0040757Y0013658D01*
X0040692Y0013505D01*
X0040623Y0013354D01*
X0040550Y0013205D01*
X0040473Y0013057D01*
X0040393Y0012912D01*
X0040309Y0012768D01*
X0040222Y0012626D01*
X0040132Y0012487D01*
X0040038Y0012350D01*
X0039940Y0012215D01*
X0039839Y0012083D01*
X0039736Y0011953D01*
X0039629Y0011826D01*
X0039518Y0011702D01*
X0039405Y0011580D01*
X0039289Y0011461D01*
X0039170Y0011345D01*
X0039048Y0011232D01*
X0038924Y0011121D01*
X0038797Y0011014D01*
X0038667Y0010911D01*
X0038535Y0010810D01*
X0038400Y0010712D01*
X0038263Y0010618D01*
X0038124Y0010528D01*
X0037982Y0010441D01*
X0037838Y0010357D01*
X0037693Y0010277D01*
X0037545Y0010200D01*
X0037396Y0010127D01*
X0037245Y0010058D01*
X0037092Y0009993D01*
X0036938Y0009931D01*
X0036782Y0009873D01*
X0036625Y0009819D01*
X0036466Y0009769D01*
X0036306Y0009722D01*
X0036146Y0009680D01*
X0035984Y0009642D01*
X0035821Y0009607D01*
X0035658Y0009577D01*
X0035494Y0009550D01*
X0035329Y0009528D01*
X0035164Y0009510D01*
X0034998Y0009495D01*
X0034832Y0009485D01*
X0034666Y0009479D01*
X0034500Y0009477D01*
X0034334Y0009479D01*
X0034168Y0009485D01*
X0034002Y0009495D01*
X0033836Y0009510D01*
X0033671Y0009528D01*
X0033506Y0009550D01*
X0033342Y0009577D01*
X0033179Y0009607D01*
X0033016Y0009642D01*
X0032854Y0009680D01*
X0032694Y0009722D01*
X0032534Y0009769D01*
X0032375Y0009819D01*
X0032218Y0009873D01*
X0032062Y0009931D01*
X0031908Y0009993D01*
X0031755Y0010058D01*
X0031604Y0010127D01*
X0031455Y0010200D01*
X0031307Y0010277D01*
X0031162Y0010357D01*
X0031018Y0010441D01*
X0030876Y0010528D01*
X0030737Y0010618D01*
X0030600Y0010712D01*
X0030465Y0010810D01*
X0030333Y0010911D01*
X0030203Y0011014D01*
X0030076Y0011121D01*
X0029952Y0011232D01*
X0029830Y0011345D01*
X0029711Y0011461D01*
X0029595Y0011580D01*
X0029482Y0011702D01*
X0029371Y0011826D01*
X0029264Y0011953D01*
X0029161Y0012083D01*
X0029060Y0012215D01*
X0028962Y0012350D01*
X0028868Y0012487D01*
X0028778Y0012626D01*
X0028691Y0012768D01*
X0028607Y0012912D01*
X0028527Y0013057D01*
X0028450Y0013205D01*
X0028377Y0013354D01*
X0028308Y0013505D01*
X0028243Y0013658D01*
X0028181Y0013812D01*
X0028123Y0013968D01*
X0028069Y0014125D01*
X0028019Y0014284D01*
X0027972Y0014444D01*
X0027930Y0014604D01*
X0027892Y0014766D01*
X0027857Y0014929D01*
X0027827Y0015092D01*
X0027800Y0015256D01*
X0027778Y0015421D01*
X0027760Y0015586D01*
X0027745Y0015752D01*
X0027735Y0015918D01*
X0027729Y0016084D01*
X0027727Y0016250D01*
X0025750Y0018897D02*
X0024999Y0018146D01*
X0024249Y0018146D01*
X0023498Y0018897D01*
X0023498Y0020398D01*
X0024249Y0021149D01*
X0024999Y0021149D01*
X0025750Y0020398D01*
X0025750Y0018897D01*
X0023498Y0018897D02*
X0022747Y0018146D01*
X0021997Y0018146D01*
X0021246Y0018897D01*
X0021246Y0020398D01*
X0021997Y0021149D01*
X0022747Y0021149D01*
X0023498Y0020398D01*
X0024657Y0022549D02*
X0024657Y0026093D01*
X0038250Y0030000D02*
X0102030Y0030000D01*
X0102030Y0124882D01*
X0038250Y0124882D01*
X0038250Y0030000D01*
X0095907Y0026093D02*
X0095907Y0022549D01*
X0099451Y0026093D01*
X0100632Y0027274D01*
X0099057Y0028848D01*
X0095907Y0026093D01*
X0099451Y0026093D01*
X0115593Y0026093D01*
X0115593Y0006407D01*
X0095907Y0006407D01*
X0095907Y0022549D01*
X0098977Y0016250D02*
X0098979Y0016416D01*
X0098985Y0016582D01*
X0098995Y0016748D01*
X0099010Y0016914D01*
X0099028Y0017079D01*
X0099050Y0017244D01*
X0099077Y0017408D01*
X0099107Y0017571D01*
X0099142Y0017734D01*
X0099180Y0017896D01*
X0099222Y0018056D01*
X0099269Y0018216D01*
X0099319Y0018375D01*
X0099373Y0018532D01*
X0099431Y0018688D01*
X0099493Y0018842D01*
X0099558Y0018995D01*
X0099627Y0019146D01*
X0099700Y0019295D01*
X0099777Y0019443D01*
X0099857Y0019588D01*
X0099941Y0019732D01*
X0100028Y0019874D01*
X0100118Y0020013D01*
X0100212Y0020150D01*
X0100310Y0020285D01*
X0100411Y0020417D01*
X0100514Y0020547D01*
X0100621Y0020674D01*
X0100732Y0020798D01*
X0100845Y0020920D01*
X0100961Y0021039D01*
X0101080Y0021155D01*
X0101202Y0021268D01*
X0101326Y0021379D01*
X0101453Y0021486D01*
X0101583Y0021589D01*
X0101715Y0021690D01*
X0101850Y0021788D01*
X0101987Y0021882D01*
X0102126Y0021972D01*
X0102268Y0022059D01*
X0102412Y0022143D01*
X0102557Y0022223D01*
X0102705Y0022300D01*
X0102854Y0022373D01*
X0103005Y0022442D01*
X0103158Y0022507D01*
X0103312Y0022569D01*
X0103468Y0022627D01*
X0103625Y0022681D01*
X0103784Y0022731D01*
X0103944Y0022778D01*
X0104104Y0022820D01*
X0104266Y0022858D01*
X0104429Y0022893D01*
X0104592Y0022923D01*
X0104756Y0022950D01*
X0104921Y0022972D01*
X0105086Y0022990D01*
X0105252Y0023005D01*
X0105418Y0023015D01*
X0105584Y0023021D01*
X0105750Y0023023D01*
X0105916Y0023021D01*
X0106082Y0023015D01*
X0106248Y0023005D01*
X0106414Y0022990D01*
X0106579Y0022972D01*
X0106744Y0022950D01*
X0106908Y0022923D01*
X0107071Y0022893D01*
X0107234Y0022858D01*
X0107396Y0022820D01*
X0107556Y0022778D01*
X0107716Y0022731D01*
X0107875Y0022681D01*
X0108032Y0022627D01*
X0108188Y0022569D01*
X0108342Y0022507D01*
X0108495Y0022442D01*
X0108646Y0022373D01*
X0108795Y0022300D01*
X0108943Y0022223D01*
X0109088Y0022143D01*
X0109232Y0022059D01*
X0109374Y0021972D01*
X0109513Y0021882D01*
X0109650Y0021788D01*
X0109785Y0021690D01*
X0109917Y0021589D01*
X0110047Y0021486D01*
X0110174Y0021379D01*
X0110298Y0021268D01*
X0110420Y0021155D01*
X0110539Y0021039D01*
X0110655Y0020920D01*
X0110768Y0020798D01*
X0110879Y0020674D01*
X0110986Y0020547D01*
X0111089Y0020417D01*
X0111190Y0020285D01*
X0111288Y0020150D01*
X0111382Y0020013D01*
X0111472Y0019874D01*
X0111559Y0019732D01*
X0111643Y0019588D01*
X0111723Y0019443D01*
X0111800Y0019295D01*
X0111873Y0019146D01*
X0111942Y0018995D01*
X0112007Y0018842D01*
X0112069Y0018688D01*
X0112127Y0018532D01*
X0112181Y0018375D01*
X0112231Y0018216D01*
X0112278Y0018056D01*
X0112320Y0017896D01*
X0112358Y0017734D01*
X0112393Y0017571D01*
X0112423Y0017408D01*
X0112450Y0017244D01*
X0112472Y0017079D01*
X0112490Y0016914D01*
X0112505Y0016748D01*
X0112515Y0016582D01*
X0112521Y0016416D01*
X0112523Y0016250D01*
X0112521Y0016084D01*
X0112515Y0015918D01*
X0112505Y0015752D01*
X0112490Y0015586D01*
X0112472Y0015421D01*
X0112450Y0015256D01*
X0112423Y0015092D01*
X0112393Y0014929D01*
X0112358Y0014766D01*
X0112320Y0014604D01*
X0112278Y0014444D01*
X0112231Y0014284D01*
X0112181Y0014125D01*
X0112127Y0013968D01*
X0112069Y0013812D01*
X0112007Y0013658D01*
X0111942Y0013505D01*
X0111873Y0013354D01*
X0111800Y0013205D01*
X0111723Y0013057D01*
X0111643Y0012912D01*
X0111559Y0012768D01*
X0111472Y0012626D01*
X0111382Y0012487D01*
X0111288Y0012350D01*
X0111190Y0012215D01*
X0111089Y0012083D01*
X0110986Y0011953D01*
X0110879Y0011826D01*
X0110768Y0011702D01*
X0110655Y0011580D01*
X0110539Y0011461D01*
X0110420Y0011345D01*
X0110298Y0011232D01*
X0110174Y0011121D01*
X0110047Y0011014D01*
X0109917Y0010911D01*
X0109785Y0010810D01*
X0109650Y0010712D01*
X0109513Y0010618D01*
X0109374Y0010528D01*
X0109232Y0010441D01*
X0109088Y0010357D01*
X0108943Y0010277D01*
X0108795Y0010200D01*
X0108646Y0010127D01*
X0108495Y0010058D01*
X0108342Y0009993D01*
X0108188Y0009931D01*
X0108032Y0009873D01*
X0107875Y0009819D01*
X0107716Y0009769D01*
X0107556Y0009722D01*
X0107396Y0009680D01*
X0107234Y0009642D01*
X0107071Y0009607D01*
X0106908Y0009577D01*
X0106744Y0009550D01*
X0106579Y0009528D01*
X0106414Y0009510D01*
X0106248Y0009495D01*
X0106082Y0009485D01*
X0105916Y0009479D01*
X0105750Y0009477D01*
X0105584Y0009479D01*
X0105418Y0009485D01*
X0105252Y0009495D01*
X0105086Y0009510D01*
X0104921Y0009528D01*
X0104756Y0009550D01*
X0104592Y0009577D01*
X0104429Y0009607D01*
X0104266Y0009642D01*
X0104104Y0009680D01*
X0103944Y0009722D01*
X0103784Y0009769D01*
X0103625Y0009819D01*
X0103468Y0009873D01*
X0103312Y0009931D01*
X0103158Y0009993D01*
X0103005Y0010058D01*
X0102854Y0010127D01*
X0102705Y0010200D01*
X0102557Y0010277D01*
X0102412Y0010357D01*
X0102268Y0010441D01*
X0102126Y0010528D01*
X0101987Y0010618D01*
X0101850Y0010712D01*
X0101715Y0010810D01*
X0101583Y0010911D01*
X0101453Y0011014D01*
X0101326Y0011121D01*
X0101202Y0011232D01*
X0101080Y0011345D01*
X0100961Y0011461D01*
X0100845Y0011580D01*
X0100732Y0011702D01*
X0100621Y0011826D01*
X0100514Y0011953D01*
X0100411Y0012083D01*
X0100310Y0012215D01*
X0100212Y0012350D01*
X0100118Y0012487D01*
X0100028Y0012626D01*
X0099941Y0012768D01*
X0099857Y0012912D01*
X0099777Y0013057D01*
X0099700Y0013205D01*
X0099627Y0013354D01*
X0099558Y0013505D01*
X0099493Y0013658D01*
X0099431Y0013812D01*
X0099373Y0013968D01*
X0099319Y0014125D01*
X0099269Y0014284D01*
X0099222Y0014444D01*
X0099180Y0014604D01*
X0099142Y0014766D01*
X0099107Y0014929D01*
X0099077Y0015092D01*
X0099050Y0015256D01*
X0099028Y0015421D01*
X0099010Y0015586D01*
X0098995Y0015752D01*
X0098985Y0015918D01*
X0098979Y0016084D01*
X0098977Y0016250D01*
X0132496Y0018897D02*
X0132496Y0020398D01*
X0133247Y0021149D01*
X0133997Y0021149D01*
X0134748Y0020398D01*
X0134748Y0018897D01*
X0133997Y0018146D01*
X0133247Y0018146D01*
X0132496Y0018897D01*
X0134748Y0018897D02*
X0135499Y0018146D01*
X0136249Y0018146D01*
X0137000Y0018897D01*
X0137000Y0020398D01*
X0136249Y0021149D01*
X0135499Y0021149D01*
X0134748Y0020398D01*
X0133997Y0081438D02*
X0133247Y0081438D01*
X0132496Y0082189D01*
X0132496Y0083690D01*
X0133247Y0084441D01*
X0134748Y0083690D02*
X0134748Y0082189D01*
X0133997Y0081438D01*
X0136249Y0081438D02*
X0137000Y0082189D01*
X0137000Y0083690D01*
X0136249Y0084441D01*
X0135499Y0084441D01*
X0134748Y0083690D01*
X0135499Y0086042D02*
X0132496Y0086042D01*
X0132496Y0089045D02*
X0135499Y0089045D01*
X0137000Y0087543D01*
X0135499Y0086042D01*
X0137000Y0090646D02*
X0133997Y0093649D01*
X0133247Y0093649D01*
X0132496Y0092898D01*
X0132496Y0091397D01*
X0133247Y0090646D01*
X0137000Y0090646D02*
X0137000Y0093649D01*
X0128093Y0100157D02*
X0124943Y0097402D01*
X0123368Y0098976D01*
X0124549Y0100157D01*
X0128093Y0103701D01*
X0128093Y0100157D01*
X0124549Y0100157D01*
X0108407Y0100157D01*
X0108407Y0119843D01*
X0128093Y0119843D01*
X0128093Y0103701D01*
X0111477Y0110000D02*
X0111479Y0110166D01*
X0111485Y0110332D01*
X0111495Y0110498D01*
X0111510Y0110664D01*
X0111528Y0110829D01*
X0111550Y0110994D01*
X0111577Y0111158D01*
X0111607Y0111321D01*
X0111642Y0111484D01*
X0111680Y0111646D01*
X0111722Y0111806D01*
X0111769Y0111966D01*
X0111819Y0112125D01*
X0111873Y0112282D01*
X0111931Y0112438D01*
X0111993Y0112592D01*
X0112058Y0112745D01*
X0112127Y0112896D01*
X0112200Y0113045D01*
X0112277Y0113193D01*
X0112357Y0113338D01*
X0112441Y0113482D01*
X0112528Y0113624D01*
X0112618Y0113763D01*
X0112712Y0113900D01*
X0112810Y0114035D01*
X0112911Y0114167D01*
X0113014Y0114297D01*
X0113121Y0114424D01*
X0113232Y0114548D01*
X0113345Y0114670D01*
X0113461Y0114789D01*
X0113580Y0114905D01*
X0113702Y0115018D01*
X0113826Y0115129D01*
X0113953Y0115236D01*
X0114083Y0115339D01*
X0114215Y0115440D01*
X0114350Y0115538D01*
X0114487Y0115632D01*
X0114626Y0115722D01*
X0114768Y0115809D01*
X0114912Y0115893D01*
X0115057Y0115973D01*
X0115205Y0116050D01*
X0115354Y0116123D01*
X0115505Y0116192D01*
X0115658Y0116257D01*
X0115812Y0116319D01*
X0115968Y0116377D01*
X0116125Y0116431D01*
X0116284Y0116481D01*
X0116444Y0116528D01*
X0116604Y0116570D01*
X0116766Y0116608D01*
X0116929Y0116643D01*
X0117092Y0116673D01*
X0117256Y0116700D01*
X0117421Y0116722D01*
X0117586Y0116740D01*
X0117752Y0116755D01*
X0117918Y0116765D01*
X0118084Y0116771D01*
X0118250Y0116773D01*
X0118416Y0116771D01*
X0118582Y0116765D01*
X0118748Y0116755D01*
X0118914Y0116740D01*
X0119079Y0116722D01*
X0119244Y0116700D01*
X0119408Y0116673D01*
X0119571Y0116643D01*
X0119734Y0116608D01*
X0119896Y0116570D01*
X0120056Y0116528D01*
X0120216Y0116481D01*
X0120375Y0116431D01*
X0120532Y0116377D01*
X0120688Y0116319D01*
X0120842Y0116257D01*
X0120995Y0116192D01*
X0121146Y0116123D01*
X0121295Y0116050D01*
X0121443Y0115973D01*
X0121588Y0115893D01*
X0121732Y0115809D01*
X0121874Y0115722D01*
X0122013Y0115632D01*
X0122150Y0115538D01*
X0122285Y0115440D01*
X0122417Y0115339D01*
X0122547Y0115236D01*
X0122674Y0115129D01*
X0122798Y0115018D01*
X0122920Y0114905D01*
X0123039Y0114789D01*
X0123155Y0114670D01*
X0123268Y0114548D01*
X0123379Y0114424D01*
X0123486Y0114297D01*
X0123589Y0114167D01*
X0123690Y0114035D01*
X0123788Y0113900D01*
X0123882Y0113763D01*
X0123972Y0113624D01*
X0124059Y0113482D01*
X0124143Y0113338D01*
X0124223Y0113193D01*
X0124300Y0113045D01*
X0124373Y0112896D01*
X0124442Y0112745D01*
X0124507Y0112592D01*
X0124569Y0112438D01*
X0124627Y0112282D01*
X0124681Y0112125D01*
X0124731Y0111966D01*
X0124778Y0111806D01*
X0124820Y0111646D01*
X0124858Y0111484D01*
X0124893Y0111321D01*
X0124923Y0111158D01*
X0124950Y0110994D01*
X0124972Y0110829D01*
X0124990Y0110664D01*
X0125005Y0110498D01*
X0125015Y0110332D01*
X0125021Y0110166D01*
X0125023Y0110000D01*
X0125021Y0109834D01*
X0125015Y0109668D01*
X0125005Y0109502D01*
X0124990Y0109336D01*
X0124972Y0109171D01*
X0124950Y0109006D01*
X0124923Y0108842D01*
X0124893Y0108679D01*
X0124858Y0108516D01*
X0124820Y0108354D01*
X0124778Y0108194D01*
X0124731Y0108034D01*
X0124681Y0107875D01*
X0124627Y0107718D01*
X0124569Y0107562D01*
X0124507Y0107408D01*
X0124442Y0107255D01*
X0124373Y0107104D01*
X0124300Y0106955D01*
X0124223Y0106807D01*
X0124143Y0106662D01*
X0124059Y0106518D01*
X0123972Y0106376D01*
X0123882Y0106237D01*
X0123788Y0106100D01*
X0123690Y0105965D01*
X0123589Y0105833D01*
X0123486Y0105703D01*
X0123379Y0105576D01*
X0123268Y0105452D01*
X0123155Y0105330D01*
X0123039Y0105211D01*
X0122920Y0105095D01*
X0122798Y0104982D01*
X0122674Y0104871D01*
X0122547Y0104764D01*
X0122417Y0104661D01*
X0122285Y0104560D01*
X0122150Y0104462D01*
X0122013Y0104368D01*
X0121874Y0104278D01*
X0121732Y0104191D01*
X0121588Y0104107D01*
X0121443Y0104027D01*
X0121295Y0103950D01*
X0121146Y0103877D01*
X0120995Y0103808D01*
X0120842Y0103743D01*
X0120688Y0103681D01*
X0120532Y0103623D01*
X0120375Y0103569D01*
X0120216Y0103519D01*
X0120056Y0103472D01*
X0119896Y0103430D01*
X0119734Y0103392D01*
X0119571Y0103357D01*
X0119408Y0103327D01*
X0119244Y0103300D01*
X0119079Y0103278D01*
X0118914Y0103260D01*
X0118748Y0103245D01*
X0118582Y0103235D01*
X0118416Y0103229D01*
X0118250Y0103227D01*
X0118084Y0103229D01*
X0117918Y0103235D01*
X0117752Y0103245D01*
X0117586Y0103260D01*
X0117421Y0103278D01*
X0117256Y0103300D01*
X0117092Y0103327D01*
X0116929Y0103357D01*
X0116766Y0103392D01*
X0116604Y0103430D01*
X0116444Y0103472D01*
X0116284Y0103519D01*
X0116125Y0103569D01*
X0115968Y0103623D01*
X0115812Y0103681D01*
X0115658Y0103743D01*
X0115505Y0103808D01*
X0115354Y0103877D01*
X0115205Y0103950D01*
X0115057Y0104027D01*
X0114912Y0104107D01*
X0114768Y0104191D01*
X0114626Y0104278D01*
X0114487Y0104368D01*
X0114350Y0104462D01*
X0114215Y0104560D01*
X0114083Y0104661D01*
X0113953Y0104764D01*
X0113826Y0104871D01*
X0113702Y0104982D01*
X0113580Y0105095D01*
X0113461Y0105211D01*
X0113345Y0105330D01*
X0113232Y0105452D01*
X0113121Y0105576D01*
X0113014Y0105703D01*
X0112911Y0105833D01*
X0112810Y0105965D01*
X0112712Y0106100D01*
X0112618Y0106237D01*
X0112528Y0106376D01*
X0112441Y0106518D01*
X0112357Y0106662D01*
X0112277Y0106807D01*
X0112200Y0106955D01*
X0112127Y0107104D01*
X0112058Y0107255D01*
X0111993Y0107408D01*
X0111931Y0107562D01*
X0111873Y0107718D01*
X0111819Y0107875D01*
X0111769Y0108034D01*
X0111722Y0108194D01*
X0111680Y0108354D01*
X0111642Y0108516D01*
X0111607Y0108679D01*
X0111577Y0108842D01*
X0111550Y0109006D01*
X0111528Y0109171D01*
X0111510Y0109336D01*
X0111495Y0109502D01*
X0111485Y0109668D01*
X0111479Y0109834D01*
X0111477Y0110000D01*
X0119000Y0090649D02*
X0119000Y0087646D01*
X0119000Y0089147D02*
X0114496Y0089147D01*
X0115997Y0087646D01*
X0033093Y0100157D02*
X0029943Y0097402D01*
X0028368Y0098976D01*
X0029549Y0100157D01*
X0033093Y0103701D01*
X0033093Y0100157D01*
X0029549Y0100157D01*
X0013407Y0100157D01*
X0013407Y0119843D01*
X0033093Y0119843D01*
X0033093Y0103701D01*
X0016477Y0110000D02*
X0016479Y0110166D01*
X0016485Y0110332D01*
X0016495Y0110498D01*
X0016510Y0110664D01*
X0016528Y0110829D01*
X0016550Y0110994D01*
X0016577Y0111158D01*
X0016607Y0111321D01*
X0016642Y0111484D01*
X0016680Y0111646D01*
X0016722Y0111806D01*
X0016769Y0111966D01*
X0016819Y0112125D01*
X0016873Y0112282D01*
X0016931Y0112438D01*
X0016993Y0112592D01*
X0017058Y0112745D01*
X0017127Y0112896D01*
X0017200Y0113045D01*
X0017277Y0113193D01*
X0017357Y0113338D01*
X0017441Y0113482D01*
X0017528Y0113624D01*
X0017618Y0113763D01*
X0017712Y0113900D01*
X0017810Y0114035D01*
X0017911Y0114167D01*
X0018014Y0114297D01*
X0018121Y0114424D01*
X0018232Y0114548D01*
X0018345Y0114670D01*
X0018461Y0114789D01*
X0018580Y0114905D01*
X0018702Y0115018D01*
X0018826Y0115129D01*
X0018953Y0115236D01*
X0019083Y0115339D01*
X0019215Y0115440D01*
X0019350Y0115538D01*
X0019487Y0115632D01*
X0019626Y0115722D01*
X0019768Y0115809D01*
X0019912Y0115893D01*
X0020057Y0115973D01*
X0020205Y0116050D01*
X0020354Y0116123D01*
X0020505Y0116192D01*
X0020658Y0116257D01*
X0020812Y0116319D01*
X0020968Y0116377D01*
X0021125Y0116431D01*
X0021284Y0116481D01*
X0021444Y0116528D01*
X0021604Y0116570D01*
X0021766Y0116608D01*
X0021929Y0116643D01*
X0022092Y0116673D01*
X0022256Y0116700D01*
X0022421Y0116722D01*
X0022586Y0116740D01*
X0022752Y0116755D01*
X0022918Y0116765D01*
X0023084Y0116771D01*
X0023250Y0116773D01*
X0023416Y0116771D01*
X0023582Y0116765D01*
X0023748Y0116755D01*
X0023914Y0116740D01*
X0024079Y0116722D01*
X0024244Y0116700D01*
X0024408Y0116673D01*
X0024571Y0116643D01*
X0024734Y0116608D01*
X0024896Y0116570D01*
X0025056Y0116528D01*
X0025216Y0116481D01*
X0025375Y0116431D01*
X0025532Y0116377D01*
X0025688Y0116319D01*
X0025842Y0116257D01*
X0025995Y0116192D01*
X0026146Y0116123D01*
X0026295Y0116050D01*
X0026443Y0115973D01*
X0026588Y0115893D01*
X0026732Y0115809D01*
X0026874Y0115722D01*
X0027013Y0115632D01*
X0027150Y0115538D01*
X0027285Y0115440D01*
X0027417Y0115339D01*
X0027547Y0115236D01*
X0027674Y0115129D01*
X0027798Y0115018D01*
X0027920Y0114905D01*
X0028039Y0114789D01*
X0028155Y0114670D01*
X0028268Y0114548D01*
X0028379Y0114424D01*
X0028486Y0114297D01*
X0028589Y0114167D01*
X0028690Y0114035D01*
X0028788Y0113900D01*
X0028882Y0113763D01*
X0028972Y0113624D01*
X0029059Y0113482D01*
X0029143Y0113338D01*
X0029223Y0113193D01*
X0029300Y0113045D01*
X0029373Y0112896D01*
X0029442Y0112745D01*
X0029507Y0112592D01*
X0029569Y0112438D01*
X0029627Y0112282D01*
X0029681Y0112125D01*
X0029731Y0111966D01*
X0029778Y0111806D01*
X0029820Y0111646D01*
X0029858Y0111484D01*
X0029893Y0111321D01*
X0029923Y0111158D01*
X0029950Y0110994D01*
X0029972Y0110829D01*
X0029990Y0110664D01*
X0030005Y0110498D01*
X0030015Y0110332D01*
X0030021Y0110166D01*
X0030023Y0110000D01*
X0030021Y0109834D01*
X0030015Y0109668D01*
X0030005Y0109502D01*
X0029990Y0109336D01*
X0029972Y0109171D01*
X0029950Y0109006D01*
X0029923Y0108842D01*
X0029893Y0108679D01*
X0029858Y0108516D01*
X0029820Y0108354D01*
X0029778Y0108194D01*
X0029731Y0108034D01*
X0029681Y0107875D01*
X0029627Y0107718D01*
X0029569Y0107562D01*
X0029507Y0107408D01*
X0029442Y0107255D01*
X0029373Y0107104D01*
X0029300Y0106955D01*
X0029223Y0106807D01*
X0029143Y0106662D01*
X0029059Y0106518D01*
X0028972Y0106376D01*
X0028882Y0106237D01*
X0028788Y0106100D01*
X0028690Y0105965D01*
X0028589Y0105833D01*
X0028486Y0105703D01*
X0028379Y0105576D01*
X0028268Y0105452D01*
X0028155Y0105330D01*
X0028039Y0105211D01*
X0027920Y0105095D01*
X0027798Y0104982D01*
X0027674Y0104871D01*
X0027547Y0104764D01*
X0027417Y0104661D01*
X0027285Y0104560D01*
X0027150Y0104462D01*
X0027013Y0104368D01*
X0026874Y0104278D01*
X0026732Y0104191D01*
X0026588Y0104107D01*
X0026443Y0104027D01*
X0026295Y0103950D01*
X0026146Y0103877D01*
X0025995Y0103808D01*
X0025842Y0103743D01*
X0025688Y0103681D01*
X0025532Y0103623D01*
X0025375Y0103569D01*
X0025216Y0103519D01*
X0025056Y0103472D01*
X0024896Y0103430D01*
X0024734Y0103392D01*
X0024571Y0103357D01*
X0024408Y0103327D01*
X0024244Y0103300D01*
X0024079Y0103278D01*
X0023914Y0103260D01*
X0023748Y0103245D01*
X0023582Y0103235D01*
X0023416Y0103229D01*
X0023250Y0103227D01*
X0023084Y0103229D01*
X0022918Y0103235D01*
X0022752Y0103245D01*
X0022586Y0103260D01*
X0022421Y0103278D01*
X0022256Y0103300D01*
X0022092Y0103327D01*
X0021929Y0103357D01*
X0021766Y0103392D01*
X0021604Y0103430D01*
X0021444Y0103472D01*
X0021284Y0103519D01*
X0021125Y0103569D01*
X0020968Y0103623D01*
X0020812Y0103681D01*
X0020658Y0103743D01*
X0020505Y0103808D01*
X0020354Y0103877D01*
X0020205Y0103950D01*
X0020057Y0104027D01*
X0019912Y0104107D01*
X0019768Y0104191D01*
X0019626Y0104278D01*
X0019487Y0104368D01*
X0019350Y0104462D01*
X0019215Y0104560D01*
X0019083Y0104661D01*
X0018953Y0104764D01*
X0018826Y0104871D01*
X0018702Y0104982D01*
X0018580Y0105095D01*
X0018461Y0105211D01*
X0018345Y0105330D01*
X0018232Y0105452D01*
X0018121Y0105576D01*
X0018014Y0105703D01*
X0017911Y0105833D01*
X0017810Y0105965D01*
X0017712Y0106100D01*
X0017618Y0106237D01*
X0017528Y0106376D01*
X0017441Y0106518D01*
X0017357Y0106662D01*
X0017277Y0106807D01*
X0017200Y0106955D01*
X0017127Y0107104D01*
X0017058Y0107255D01*
X0016993Y0107408D01*
X0016931Y0107562D01*
X0016873Y0107718D01*
X0016819Y0107875D01*
X0016769Y0108034D01*
X0016722Y0108194D01*
X0016680Y0108354D01*
X0016642Y0108516D01*
X0016607Y0108679D01*
X0016577Y0108842D01*
X0016550Y0109006D01*
X0016528Y0109171D01*
X0016510Y0109336D01*
X0016495Y0109502D01*
X0016485Y0109668D01*
X0016479Y0109834D01*
X0016477Y0110000D01*
X0025750Y0093649D02*
X0025750Y0090646D01*
X0024249Y0089045D02*
X0021246Y0089045D01*
X0022747Y0090646D02*
X0021246Y0092147D01*
X0025750Y0092147D01*
X0024249Y0089045D02*
X0025750Y0087543D01*
X0024249Y0086042D01*
X0021246Y0086042D01*
X0021997Y0084441D02*
X0021246Y0083690D01*
X0021246Y0082189D01*
X0021997Y0081438D01*
X0022747Y0081438D01*
X0023498Y0082189D01*
X0023498Y0083690D01*
X0024249Y0084441D01*
X0024999Y0084441D01*
X0025750Y0083690D01*
X0025750Y0082189D01*
X0024999Y0081438D01*
X0007750Y0087646D02*
X0007750Y0090649D01*
X0007750Y0089147D02*
X0003246Y0089147D01*
X0004747Y0087646D01*
D12*
X0053131Y0053420D02*
X0057735Y0053420D01*
X0057735Y0051886D02*
X0057735Y0054955D01*
X0054666Y0051886D02*
X0053131Y0053420D01*
X0057735Y0050351D02*
X0057735Y0047282D01*
X0053131Y0047282D01*
X0053898Y0045747D02*
X0053131Y0044980D01*
X0053131Y0042678D01*
X0057735Y0042678D01*
X0057735Y0044980D01*
X0056968Y0045747D01*
X0053898Y0045747D01*
X0053131Y0041143D02*
X0057735Y0041143D01*
X0057735Y0038074D02*
X0053131Y0038074D01*
X0054666Y0039609D01*
X0053131Y0041143D01*
D13*
X0056636Y0023622D02*
X0056638Y0023713D01*
X0056644Y0023803D01*
X0056654Y0023894D01*
X0056668Y0023983D01*
X0056686Y0024072D01*
X0056707Y0024161D01*
X0056733Y0024248D01*
X0056762Y0024334D01*
X0056796Y0024418D01*
X0056832Y0024501D01*
X0056873Y0024583D01*
X0056917Y0024662D01*
X0056964Y0024740D01*
X0057015Y0024815D01*
X0057069Y0024888D01*
X0057126Y0024958D01*
X0057186Y0025026D01*
X0057249Y0025092D01*
X0057315Y0025154D01*
X0057384Y0025213D01*
X0057455Y0025270D01*
X0057529Y0025323D01*
X0057605Y0025373D01*
X0057683Y0025420D01*
X0057763Y0025463D01*
X0057844Y0025502D01*
X0057928Y0025538D01*
X0058013Y0025570D01*
X0058099Y0025599D01*
X0058186Y0025623D01*
X0058275Y0025644D01*
X0058364Y0025661D01*
X0058454Y0025674D01*
X0058544Y0025683D01*
X0058635Y0025688D01*
X0058726Y0025689D01*
X0058816Y0025686D01*
X0058907Y0025679D01*
X0058997Y0025668D01*
X0059087Y0025653D01*
X0059176Y0025634D01*
X0059264Y0025612D01*
X0059350Y0025585D01*
X0059436Y0025555D01*
X0059520Y0025521D01*
X0059603Y0025483D01*
X0059684Y0025442D01*
X0059763Y0025397D01*
X0059840Y0025348D01*
X0059914Y0025297D01*
X0059987Y0025242D01*
X0060057Y0025184D01*
X0060124Y0025123D01*
X0060188Y0025059D01*
X0060250Y0024993D01*
X0060309Y0024923D01*
X0060364Y0024852D01*
X0060417Y0024777D01*
X0060466Y0024701D01*
X0060512Y0024623D01*
X0060554Y0024542D01*
X0060593Y0024460D01*
X0060628Y0024376D01*
X0060659Y0024291D01*
X0060686Y0024204D01*
X0060710Y0024117D01*
X0060730Y0024028D01*
X0060746Y0023939D01*
X0060758Y0023849D01*
X0060766Y0023758D01*
X0060770Y0023667D01*
X0060770Y0023577D01*
X0060766Y0023486D01*
X0060758Y0023395D01*
X0060746Y0023305D01*
X0060730Y0023216D01*
X0060710Y0023127D01*
X0060686Y0023040D01*
X0060659Y0022953D01*
X0060628Y0022868D01*
X0060593Y0022784D01*
X0060554Y0022702D01*
X0060512Y0022621D01*
X0060466Y0022543D01*
X0060417Y0022467D01*
X0060364Y0022392D01*
X0060309Y0022321D01*
X0060250Y0022251D01*
X0060188Y0022185D01*
X0060124Y0022121D01*
X0060057Y0022060D01*
X0059987Y0022002D01*
X0059914Y0021947D01*
X0059840Y0021896D01*
X0059763Y0021847D01*
X0059684Y0021802D01*
X0059603Y0021761D01*
X0059520Y0021723D01*
X0059436Y0021689D01*
X0059350Y0021659D01*
X0059264Y0021632D01*
X0059176Y0021610D01*
X0059087Y0021591D01*
X0058997Y0021576D01*
X0058907Y0021565D01*
X0058816Y0021558D01*
X0058726Y0021555D01*
X0058635Y0021556D01*
X0058544Y0021561D01*
X0058454Y0021570D01*
X0058364Y0021583D01*
X0058275Y0021600D01*
X0058186Y0021621D01*
X0058099Y0021645D01*
X0058013Y0021674D01*
X0057928Y0021706D01*
X0057844Y0021742D01*
X0057763Y0021781D01*
X0057683Y0021824D01*
X0057605Y0021871D01*
X0057529Y0021921D01*
X0057455Y0021974D01*
X0057384Y0022031D01*
X0057315Y0022090D01*
X0057249Y0022152D01*
X0057186Y0022218D01*
X0057126Y0022286D01*
X0057069Y0022356D01*
X0057015Y0022429D01*
X0056964Y0022504D01*
X0056917Y0022582D01*
X0056873Y0022661D01*
X0056832Y0022743D01*
X0056796Y0022826D01*
X0056762Y0022910D01*
X0056733Y0022996D01*
X0056707Y0023083D01*
X0056686Y0023172D01*
X0056668Y0023261D01*
X0056654Y0023350D01*
X0056644Y0023441D01*
X0056638Y0023531D01*
X0056636Y0023622D01*
X0075730Y0023622D02*
X0075732Y0023713D01*
X0075738Y0023803D01*
X0075748Y0023894D01*
X0075762Y0023983D01*
X0075780Y0024072D01*
X0075801Y0024161D01*
X0075827Y0024248D01*
X0075856Y0024334D01*
X0075890Y0024418D01*
X0075926Y0024501D01*
X0075967Y0024583D01*
X0076011Y0024662D01*
X0076058Y0024740D01*
X0076109Y0024815D01*
X0076163Y0024888D01*
X0076220Y0024958D01*
X0076280Y0025026D01*
X0076343Y0025092D01*
X0076409Y0025154D01*
X0076478Y0025213D01*
X0076549Y0025270D01*
X0076623Y0025323D01*
X0076699Y0025373D01*
X0076777Y0025420D01*
X0076857Y0025463D01*
X0076938Y0025502D01*
X0077022Y0025538D01*
X0077107Y0025570D01*
X0077193Y0025599D01*
X0077280Y0025623D01*
X0077369Y0025644D01*
X0077458Y0025661D01*
X0077548Y0025674D01*
X0077638Y0025683D01*
X0077729Y0025688D01*
X0077820Y0025689D01*
X0077910Y0025686D01*
X0078001Y0025679D01*
X0078091Y0025668D01*
X0078181Y0025653D01*
X0078270Y0025634D01*
X0078358Y0025612D01*
X0078444Y0025585D01*
X0078530Y0025555D01*
X0078614Y0025521D01*
X0078697Y0025483D01*
X0078778Y0025442D01*
X0078857Y0025397D01*
X0078934Y0025348D01*
X0079008Y0025297D01*
X0079081Y0025242D01*
X0079151Y0025184D01*
X0079218Y0025123D01*
X0079282Y0025059D01*
X0079344Y0024993D01*
X0079403Y0024923D01*
X0079458Y0024852D01*
X0079511Y0024777D01*
X0079560Y0024701D01*
X0079606Y0024623D01*
X0079648Y0024542D01*
X0079687Y0024460D01*
X0079722Y0024376D01*
X0079753Y0024291D01*
X0079780Y0024204D01*
X0079804Y0024117D01*
X0079824Y0024028D01*
X0079840Y0023939D01*
X0079852Y0023849D01*
X0079860Y0023758D01*
X0079864Y0023667D01*
X0079864Y0023577D01*
X0079860Y0023486D01*
X0079852Y0023395D01*
X0079840Y0023305D01*
X0079824Y0023216D01*
X0079804Y0023127D01*
X0079780Y0023040D01*
X0079753Y0022953D01*
X0079722Y0022868D01*
X0079687Y0022784D01*
X0079648Y0022702D01*
X0079606Y0022621D01*
X0079560Y0022543D01*
X0079511Y0022467D01*
X0079458Y0022392D01*
X0079403Y0022321D01*
X0079344Y0022251D01*
X0079282Y0022185D01*
X0079218Y0022121D01*
X0079151Y0022060D01*
X0079081Y0022002D01*
X0079008Y0021947D01*
X0078934Y0021896D01*
X0078857Y0021847D01*
X0078778Y0021802D01*
X0078697Y0021761D01*
X0078614Y0021723D01*
X0078530Y0021689D01*
X0078444Y0021659D01*
X0078358Y0021632D01*
X0078270Y0021610D01*
X0078181Y0021591D01*
X0078091Y0021576D01*
X0078001Y0021565D01*
X0077910Y0021558D01*
X0077820Y0021555D01*
X0077729Y0021556D01*
X0077638Y0021561D01*
X0077548Y0021570D01*
X0077458Y0021583D01*
X0077369Y0021600D01*
X0077280Y0021621D01*
X0077193Y0021645D01*
X0077107Y0021674D01*
X0077022Y0021706D01*
X0076938Y0021742D01*
X0076857Y0021781D01*
X0076777Y0021824D01*
X0076699Y0021871D01*
X0076623Y0021921D01*
X0076549Y0021974D01*
X0076478Y0022031D01*
X0076409Y0022090D01*
X0076343Y0022152D01*
X0076280Y0022218D01*
X0076220Y0022286D01*
X0076163Y0022356D01*
X0076109Y0022429D01*
X0076058Y0022504D01*
X0076011Y0022582D01*
X0075967Y0022661D01*
X0075926Y0022743D01*
X0075890Y0022826D01*
X0075856Y0022910D01*
X0075827Y0022996D01*
X0075801Y0023083D01*
X0075780Y0023172D01*
X0075762Y0023261D01*
X0075748Y0023350D01*
X0075738Y0023441D01*
X0075732Y0023531D01*
X0075730Y0023622D01*
D14*
X0120750Y0022500D02*
X0120750Y0017500D01*
X0123250Y0015000D01*
X0128250Y0015000D01*
X0130750Y0017500D01*
X0130750Y0022500D01*
X0128250Y0025000D01*
X0130750Y0027500D01*
X0130750Y0032500D01*
X0128250Y0035000D01*
X0130750Y0037500D01*
X0130750Y0042500D01*
X0128250Y0045000D01*
X0130750Y0047500D01*
X0130750Y0052500D01*
X0128250Y0055000D01*
X0130750Y0057500D01*
X0130750Y0062500D01*
X0128250Y0065000D01*
X0130750Y0067500D01*
X0130750Y0072500D01*
X0128250Y0075000D01*
X0130750Y0077500D01*
X0130750Y0082500D01*
X0128250Y0085000D01*
X0130750Y0087500D01*
X0130750Y0092500D01*
X0128250Y0095000D01*
X0123250Y0095000D01*
X0120750Y0092500D01*
X0120750Y0087500D01*
X0123250Y0085000D01*
X0120750Y0082500D01*
X0120750Y0077500D01*
X0123250Y0075000D01*
X0120750Y0072500D01*
X0120750Y0067500D01*
X0123250Y0065000D01*
X0120750Y0062500D01*
X0120750Y0057500D01*
X0123250Y0055000D01*
X0120750Y0052500D01*
X0120750Y0047500D01*
X0123250Y0045000D01*
X0120750Y0042500D01*
X0120750Y0037500D01*
X0123250Y0035000D01*
X0120750Y0032500D01*
X0120750Y0027500D01*
X0123250Y0025000D01*
X0120750Y0022500D01*
X0019500Y0022500D02*
X0019500Y0017500D01*
X0017000Y0015000D01*
X0012000Y0015000D01*
X0009500Y0017500D01*
X0009500Y0022500D01*
X0012000Y0025000D01*
X0009500Y0027500D01*
X0009500Y0032500D01*
X0012000Y0035000D01*
X0009500Y0037500D01*
X0009500Y0042500D01*
X0012000Y0045000D01*
X0009500Y0047500D01*
X0009500Y0052500D01*
X0012000Y0055000D01*
X0009500Y0057500D01*
X0009500Y0062500D01*
X0012000Y0065000D01*
X0009500Y0067500D01*
X0009500Y0072500D01*
X0012000Y0075000D01*
X0009500Y0077500D01*
X0009500Y0082500D01*
X0012000Y0085000D01*
X0009500Y0087500D01*
X0009500Y0092500D01*
X0012000Y0095000D01*
X0017000Y0095000D01*
X0019500Y0092500D01*
X0019500Y0087500D01*
X0017000Y0085000D01*
X0019500Y0082500D01*
X0019500Y0077500D01*
X0017000Y0075000D01*
X0019500Y0072500D01*
X0019500Y0067500D01*
X0017000Y0065000D01*
X0019500Y0062500D01*
X0019500Y0057500D01*
X0017000Y0055000D01*
X0019500Y0052500D01*
X0019500Y0047500D01*
X0017000Y0045000D01*
X0019500Y0042500D01*
X0019500Y0037500D01*
X0017000Y0035000D01*
X0019500Y0032500D01*
X0019500Y0027500D01*
X0017000Y0025000D01*
X0019500Y0022500D01*
D15*
X0048398Y0021155D02*
X0048881Y0021638D01*
X0049365Y0021638D01*
X0049849Y0021155D01*
X0050333Y0021638D01*
X0050816Y0021638D01*
X0051300Y0021155D01*
X0051300Y0020187D01*
X0050816Y0019703D01*
X0050816Y0018692D02*
X0048881Y0018692D01*
X0048398Y0018208D01*
X0048398Y0016757D01*
X0051300Y0016757D01*
X0051300Y0018208D01*
X0050816Y0018692D01*
X0048881Y0019703D02*
X0048398Y0020187D01*
X0048398Y0021155D01*
X0049849Y0021155D02*
X0049849Y0020671D01*
X0051300Y0015745D02*
X0051300Y0013810D01*
X0048398Y0013810D01*
X0048398Y0015745D01*
X0049849Y0014778D02*
X0049849Y0013810D01*
X0051300Y0012799D02*
X0051300Y0010864D01*
X0048398Y0010864D01*
X0119648Y0010864D02*
X0122550Y0010864D01*
X0122550Y0012799D01*
X0122550Y0013810D02*
X0122550Y0015745D01*
X0122550Y0016757D02*
X0122550Y0018208D01*
X0122066Y0018692D01*
X0120131Y0018692D01*
X0119648Y0018208D01*
X0119648Y0016757D01*
X0122550Y0016757D01*
X0121099Y0014778D02*
X0121099Y0013810D01*
X0119648Y0013810D02*
X0122550Y0013810D01*
X0119648Y0013810D02*
X0119648Y0015745D01*
X0121099Y0019703D02*
X0121099Y0021638D01*
X0122550Y0021155D02*
X0119648Y0021155D01*
X0121099Y0019703D01*
X0104350Y0103900D02*
X0101448Y0103900D01*
X0104350Y0103900D02*
X0104350Y0105835D01*
X0104350Y0106847D02*
X0104350Y0108781D01*
X0104350Y0109793D02*
X0104350Y0111244D01*
X0103866Y0111728D01*
X0101931Y0111728D01*
X0101448Y0111244D01*
X0101448Y0109793D01*
X0104350Y0109793D01*
X0102899Y0107814D02*
X0102899Y0106847D01*
X0101448Y0106847D02*
X0104350Y0106847D01*
X0101448Y0106847D02*
X0101448Y0108781D01*
X0102415Y0112740D02*
X0101448Y0113707D01*
X0104350Y0113707D01*
X0104350Y0112740D02*
X0104350Y0114675D01*
X0009350Y0114675D02*
X0009350Y0112740D01*
X0007415Y0114675D01*
X0006931Y0114675D01*
X0006448Y0114191D01*
X0006448Y0113223D01*
X0006931Y0112740D01*
X0006931Y0111728D02*
X0006448Y0111244D01*
X0006448Y0109793D01*
X0009350Y0109793D01*
X0009350Y0111244D01*
X0008866Y0111728D01*
X0006931Y0111728D01*
X0006448Y0108781D02*
X0006448Y0106847D01*
X0009350Y0106847D01*
X0009350Y0108781D01*
X0007899Y0107814D02*
X0007899Y0106847D01*
X0009350Y0105835D02*
X0009350Y0103900D01*
X0006448Y0103900D01*
M02*
