G75*
%MOIN*%
%OFA0B0*%
%FSLAX25Y25*%
%IPPOS*%
%LPD*%
%AMOC8*
5,1,8,0,0,1.08239X$1,22.5*
%
%ADD10C,0.01600*%
%ADD11R,0.04724X0.04000*%
%ADD12R,0.01575X0.06890*%
%ADD13R,0.10000X0.10000*%
%ADD14C,0.00000*%
%ADD15C,0.06000*%
%ADD16R,0.05906X0.05118*%
%ADD17R,0.05118X0.05906*%
%ADD18R,0.02362X0.06693*%
%ADD19C,0.03962*%
%ADD20C,0.01200*%
D10*
X0008250Y0005000D02*
X0008250Y0123110D01*
X0132266Y0123110D01*
X0132266Y0005000D01*
X0008250Y0005000D01*
X0022000Y0014360D02*
X0022000Y0085000D01*
X0017000Y0090000D01*
X0014500Y0090000D01*
X0022398Y0097714D02*
X0037000Y0097714D01*
X0037000Y0099312D02*
X0020799Y0099312D01*
X0020411Y0099700D02*
X0018614Y0099700D01*
X0017779Y0100536D01*
X0016462Y0101081D01*
X0015038Y0101081D01*
X0013850Y0100589D01*
X0013850Y0117510D01*
X0037000Y0117510D01*
X0037000Y0093750D01*
X0050485Y0093750D01*
X0050351Y0093615D01*
X0050351Y0092400D01*
X0049664Y0092400D01*
X0049029Y0093036D01*
X0047712Y0093581D01*
X0046288Y0093581D01*
X0044971Y0093036D01*
X0043964Y0092029D01*
X0043419Y0090712D01*
X0043419Y0089288D01*
X0043964Y0087971D01*
X0044971Y0086964D01*
X0046288Y0086419D01*
X0047712Y0086419D01*
X0049029Y0086964D01*
X0049664Y0087600D01*
X0050351Y0087600D01*
X0050351Y0086384D01*
X0051288Y0085447D01*
X0057732Y0085447D01*
X0058250Y0085966D01*
X0058768Y0085447D01*
X0059590Y0085447D01*
X0059590Y0084553D01*
X0058768Y0084553D01*
X0058250Y0084034D01*
X0057732Y0084553D01*
X0051288Y0084553D01*
X0050351Y0083615D01*
X0050351Y0082400D01*
X0049664Y0082400D01*
X0049029Y0083036D01*
X0047712Y0083581D01*
X0046288Y0083581D01*
X0044971Y0083036D01*
X0043964Y0082029D01*
X0043419Y0080712D01*
X0043419Y0079288D01*
X0043964Y0077971D01*
X0044971Y0076964D01*
X0046288Y0076419D01*
X0047712Y0076419D01*
X0049029Y0076964D01*
X0049664Y0077600D01*
X0050351Y0077600D01*
X0050351Y0076384D01*
X0051288Y0075447D01*
X0057732Y0075447D01*
X0058250Y0075966D01*
X0058768Y0075447D01*
X0059590Y0075447D01*
X0059590Y0062400D01*
X0057803Y0062400D01*
X0057803Y0063232D01*
X0057426Y0063609D01*
X0057643Y0063826D01*
X0057880Y0064236D01*
X0058003Y0064694D01*
X0058003Y0067011D01*
X0053730Y0067011D01*
X0053730Y0067970D01*
X0058003Y0067970D01*
X0058003Y0070286D01*
X0057880Y0070744D01*
X0057643Y0071154D01*
X0057308Y0071490D01*
X0056898Y0071727D01*
X0056440Y0071849D01*
X0053730Y0071849D01*
X0053730Y0067970D01*
X0052770Y0067970D01*
X0052770Y0067011D01*
X0048497Y0067011D01*
X0048497Y0064694D01*
X0048620Y0064236D01*
X0048857Y0063826D01*
X0049074Y0063609D01*
X0048697Y0063232D01*
X0048697Y0056788D01*
X0049634Y0055851D01*
X0055824Y0055851D01*
X0055641Y0055775D01*
X0054965Y0055100D01*
X0054965Y0055100D01*
X0054015Y0054149D01*
X0049634Y0054149D01*
X0048697Y0053212D01*
X0048697Y0046768D01*
X0049074Y0046391D01*
X0048857Y0046174D01*
X0048620Y0045764D01*
X0048497Y0045306D01*
X0048497Y0042989D01*
X0052770Y0042989D01*
X0052770Y0042030D01*
X0048497Y0042030D01*
X0048497Y0039714D01*
X0048620Y0039256D01*
X0048857Y0038846D01*
X0049192Y0038510D01*
X0049602Y0038273D01*
X0050060Y0038151D01*
X0052770Y0038151D01*
X0052770Y0042030D01*
X0053730Y0042030D01*
X0053730Y0042989D01*
X0058003Y0042989D01*
X0058003Y0045306D01*
X0057880Y0045764D01*
X0057643Y0046174D01*
X0057426Y0046391D01*
X0057803Y0046768D01*
X0057803Y0051149D01*
X0057994Y0051340D01*
X0060115Y0051340D01*
X0060115Y0051077D01*
X0061052Y0050140D01*
X0067102Y0050140D01*
X0068039Y0051077D01*
X0068039Y0056350D01*
X0074101Y0056350D01*
X0074101Y0055134D01*
X0075038Y0054197D01*
X0078633Y0054197D01*
X0077886Y0053450D01*
X0075598Y0053450D01*
X0075448Y0053600D01*
X0069398Y0053600D01*
X0068461Y0052663D01*
X0068461Y0047337D01*
X0069398Y0046400D01*
X0070968Y0046400D01*
X0070968Y0027860D01*
X0064748Y0027860D01*
X0064614Y0027937D01*
X0064156Y0028060D01*
X0063976Y0028060D01*
X0062593Y0029444D01*
X0060069Y0030489D01*
X0057337Y0030489D01*
X0054813Y0029444D01*
X0052881Y0027512D01*
X0051836Y0024988D01*
X0051836Y0022256D01*
X0052881Y0019732D01*
X0054121Y0018493D01*
X0053966Y0018493D01*
X0053966Y0012074D01*
X0060385Y0012074D01*
X0060385Y0016886D01*
X0062064Y0017582D01*
X0062108Y0017570D01*
X0063132Y0017570D01*
X0064156Y0017570D01*
X0064614Y0017693D01*
X0064748Y0017770D01*
X0073981Y0017770D01*
X0076115Y0016886D01*
X0076115Y0012074D01*
X0082534Y0012074D01*
X0082534Y0011312D01*
X0076115Y0011312D01*
X0076115Y0010600D01*
X0060385Y0010600D01*
X0060385Y0011312D01*
X0053966Y0011312D01*
X0053966Y0012074D01*
X0053204Y0012074D01*
X0053204Y0018493D01*
X0048348Y0018493D01*
X0047890Y0018370D01*
X0047479Y0018133D01*
X0047144Y0017798D01*
X0046907Y0017388D01*
X0046785Y0016930D01*
X0046785Y0012074D01*
X0053203Y0012074D01*
X0053203Y0011312D01*
X0046785Y0011312D01*
X0046785Y0010600D01*
X0043121Y0010600D01*
X0043121Y0013583D01*
X0042998Y0014041D01*
X0042761Y0014452D01*
X0042426Y0014787D01*
X0042016Y0015024D01*
X0041558Y0015146D01*
X0040140Y0015146D01*
X0040140Y0010600D01*
X0040140Y0010600D01*
X0040140Y0015146D01*
X0038722Y0015146D01*
X0038264Y0015024D01*
X0037853Y0014787D01*
X0037518Y0014452D01*
X0037281Y0014041D01*
X0037159Y0013583D01*
X0037159Y0010600D01*
X0029141Y0010600D01*
X0029141Y0014009D01*
X0028787Y0014364D01*
X0029029Y0014464D01*
X0030036Y0015471D01*
X0030581Y0016788D01*
X0030581Y0018212D01*
X0030036Y0019529D01*
X0029029Y0020536D01*
X0027712Y0021081D01*
X0026700Y0021081D01*
X0026700Y0093411D01*
X0025411Y0094700D01*
X0020411Y0099700D01*
X0016874Y0100911D02*
X0037000Y0100911D01*
X0037000Y0102509D02*
X0013850Y0102509D01*
X0013850Y0100911D02*
X0014626Y0100911D01*
X0013850Y0104108D02*
X0037000Y0104108D01*
X0037000Y0105706D02*
X0013850Y0105706D01*
X0013850Y0107305D02*
X0037000Y0107305D01*
X0037000Y0108903D02*
X0013850Y0108903D01*
X0013850Y0110502D02*
X0037000Y0110502D01*
X0037000Y0112100D02*
X0013850Y0112100D01*
X0013850Y0113699D02*
X0037000Y0113699D01*
X0037000Y0115297D02*
X0013850Y0115297D01*
X0013850Y0116896D02*
X0037000Y0116896D01*
X0037000Y0096115D02*
X0023996Y0096115D01*
X0025595Y0094517D02*
X0037000Y0094517D01*
X0043670Y0091320D02*
X0026700Y0091320D01*
X0026700Y0092918D02*
X0044854Y0092918D01*
X0043419Y0089721D02*
X0026700Y0089721D01*
X0026700Y0088123D02*
X0043901Y0088123D01*
X0046034Y0086524D02*
X0026700Y0086524D01*
X0026700Y0084926D02*
X0059590Y0084926D01*
X0064390Y0084926D02*
X0111050Y0084926D01*
X0111050Y0086524D02*
X0066149Y0086524D01*
X0066149Y0086384D02*
X0066149Y0093615D01*
X0066015Y0093750D01*
X0103250Y0093750D01*
X0103250Y0117510D01*
X0126666Y0117510D01*
X0126666Y0094600D01*
X0121835Y0094600D01*
X0120144Y0093900D01*
X0118850Y0092606D01*
X0118150Y0090915D01*
X0118150Y0089085D01*
X0118850Y0087394D01*
X0120144Y0086100D01*
X0121835Y0085400D01*
X0126666Y0085400D01*
X0126666Y0084600D01*
X0121835Y0084600D01*
X0120144Y0083900D01*
X0118850Y0082606D01*
X0118150Y0080915D01*
X0118150Y0079085D01*
X0118850Y0077394D01*
X0120144Y0076100D01*
X0121835Y0075400D01*
X0126666Y0075400D01*
X0126666Y0074600D01*
X0121835Y0074600D01*
X0120144Y0073900D01*
X0118850Y0072606D01*
X0118150Y0070915D01*
X0118150Y0069085D01*
X0118409Y0068460D01*
X0117803Y0068460D01*
X0117803Y0069482D01*
X0117284Y0070000D01*
X0117803Y0070518D01*
X0117803Y0076962D01*
X0116865Y0077899D01*
X0115450Y0077899D01*
X0115450Y0092767D01*
X0116529Y0093214D01*
X0117536Y0094221D01*
X0118081Y0095538D01*
X0118081Y0096962D01*
X0117536Y0098279D01*
X0116529Y0099286D01*
X0115212Y0099831D01*
X0113788Y0099831D01*
X0112471Y0099286D01*
X0111464Y0098279D01*
X0110919Y0096962D01*
X0110919Y0095538D01*
X0111050Y0095221D01*
X0111050Y0077899D01*
X0109634Y0077899D01*
X0108697Y0076962D01*
X0108697Y0070518D01*
X0109216Y0070000D01*
X0108697Y0069482D01*
X0108697Y0063038D01*
X0109634Y0062101D01*
X0116865Y0062101D01*
X0117803Y0063038D01*
X0117803Y0064060D01*
X0118579Y0064060D01*
X0119442Y0063197D01*
X0118850Y0062606D01*
X0118150Y0060915D01*
X0118150Y0059085D01*
X0118850Y0057394D01*
X0120144Y0056100D01*
X0121835Y0055400D01*
X0126666Y0055400D01*
X0126666Y0054600D01*
X0121835Y0054600D01*
X0120144Y0053900D01*
X0118850Y0052606D01*
X0118150Y0050915D01*
X0118150Y0049085D01*
X0118850Y0047394D01*
X0120144Y0046100D01*
X0121835Y0045400D01*
X0126666Y0045400D01*
X0126666Y0044600D01*
X0121835Y0044600D01*
X0120144Y0043900D01*
X0118850Y0042606D01*
X0118150Y0040915D01*
X0118150Y0039085D01*
X0118850Y0037394D01*
X0120144Y0036100D01*
X0121835Y0035400D01*
X0126666Y0035400D01*
X0126666Y0034600D01*
X0121835Y0034600D01*
X0120144Y0033900D01*
X0118850Y0032606D01*
X0118150Y0030915D01*
X0118150Y0029085D01*
X0118850Y0027394D01*
X0120144Y0026100D01*
X0121835Y0025400D01*
X0126666Y0025400D01*
X0126666Y0024800D01*
X0125950Y0024800D01*
X0125950Y0020200D01*
X0125550Y0020200D01*
X0125550Y0024800D01*
X0122372Y0024800D01*
X0121626Y0024682D01*
X0120907Y0024448D01*
X0120234Y0024105D01*
X0119623Y0023661D01*
X0119089Y0023127D01*
X0118645Y0022516D01*
X0118302Y0021843D01*
X0118068Y0021124D01*
X0117950Y0020378D01*
X0117950Y0020200D01*
X0125550Y0020200D01*
X0125550Y0019800D01*
X0125950Y0019800D01*
X0125950Y0015200D01*
X0126666Y0015200D01*
X0126666Y0010600D01*
X0117921Y0010600D01*
X0117921Y0014009D01*
X0116984Y0014946D01*
X0113296Y0014946D01*
X0112497Y0014147D01*
X0111831Y0014813D01*
X0111831Y0015712D01*
X0111286Y0017029D01*
X0110279Y0018036D01*
X0108962Y0018581D01*
X0107538Y0018581D01*
X0106221Y0018036D01*
X0105214Y0017029D01*
X0104669Y0015712D01*
X0104669Y0014288D01*
X0105214Y0012971D01*
X0106221Y0011964D01*
X0107538Y0011419D01*
X0108437Y0011419D01*
X0109256Y0010600D01*
X0104341Y0010600D01*
X0104341Y0013583D01*
X0104219Y0014041D01*
X0103982Y0014452D01*
X0103647Y0014787D01*
X0103236Y0015024D01*
X0102778Y0015146D01*
X0101360Y0015146D01*
X0099942Y0015146D01*
X0099484Y0015024D01*
X0099074Y0014787D01*
X0098739Y0014452D01*
X0098502Y0014041D01*
X0098379Y0013583D01*
X0098379Y0010600D01*
X0089715Y0010600D01*
X0089715Y0011312D01*
X0083297Y0011312D01*
X0083297Y0012074D01*
X0089715Y0012074D01*
X0089715Y0016930D01*
X0089593Y0017388D01*
X0089356Y0017798D01*
X0089021Y0018133D01*
X0088610Y0018370D01*
X0088152Y0018493D01*
X0083296Y0018493D01*
X0083296Y0012074D01*
X0082534Y0012074D01*
X0082534Y0018493D01*
X0082379Y0018493D01*
X0083619Y0019732D01*
X0084664Y0022256D01*
X0084664Y0024988D01*
X0083619Y0027512D01*
X0081687Y0029444D01*
X0079163Y0030489D01*
X0076431Y0030489D01*
X0075768Y0030214D01*
X0075768Y0046720D01*
X0076385Y0047337D01*
X0076385Y0048961D01*
X0076474Y0049050D01*
X0077886Y0049050D01*
X0078721Y0048214D01*
X0079590Y0047854D01*
X0078697Y0046962D01*
X0078697Y0040518D01*
X0079074Y0040141D01*
X0078857Y0039924D01*
X0078620Y0039514D01*
X0078497Y0039056D01*
X0078497Y0036739D01*
X0082770Y0036739D01*
X0082770Y0035780D01*
X0078497Y0035780D01*
X0078497Y0033464D01*
X0078620Y0033006D01*
X0078857Y0032596D01*
X0079192Y0032260D01*
X0079602Y0032023D01*
X0080060Y0031901D01*
X0082770Y0031901D01*
X0082770Y0035780D01*
X0083730Y0035780D01*
X0083730Y0036739D01*
X0088003Y0036739D01*
X0088003Y0039056D01*
X0087880Y0039514D01*
X0087643Y0039924D01*
X0087426Y0040141D01*
X0087803Y0040518D01*
X0087803Y0041340D01*
X0092468Y0041340D01*
X0093350Y0041706D01*
X0094313Y0042669D01*
X0095212Y0042669D01*
X0096529Y0043214D01*
X0097536Y0044221D01*
X0098081Y0045538D01*
X0098081Y0046962D01*
X0097536Y0048279D01*
X0096529Y0049286D01*
X0095212Y0049831D01*
X0093788Y0049831D01*
X0092471Y0049286D01*
X0091464Y0048279D01*
X0090919Y0046962D01*
X0090919Y0046140D01*
X0087803Y0046140D01*
X0087803Y0046962D01*
X0086865Y0047899D01*
X0082018Y0047899D01*
X0082779Y0048214D01*
X0083786Y0049221D01*
X0084331Y0050538D01*
X0084331Y0051962D01*
X0083786Y0053279D01*
X0082867Y0054197D01*
X0088962Y0054197D01*
X0089810Y0055046D01*
X0090919Y0053937D01*
X0090919Y0053038D01*
X0091464Y0051721D01*
X0092471Y0050714D01*
X0093788Y0050169D01*
X0095212Y0050169D01*
X0096529Y0050714D01*
X0097536Y0051721D01*
X0098081Y0053038D01*
X0098081Y0054462D01*
X0097536Y0055779D01*
X0096529Y0056786D01*
X0095212Y0057331D01*
X0094313Y0057331D01*
X0093975Y0057669D01*
X0095212Y0057669D01*
X0096529Y0058214D01*
X0097536Y0059221D01*
X0098081Y0060538D01*
X0098081Y0061962D01*
X0097536Y0063279D01*
X0096529Y0064286D01*
X0095212Y0064831D01*
X0094313Y0064831D01*
X0089899Y0069245D01*
X0089899Y0071115D01*
X0088962Y0072053D01*
X0082518Y0072053D01*
X0082000Y0071534D01*
X0081482Y0072053D01*
X0075038Y0072053D01*
X0074101Y0071115D01*
X0074101Y0063884D01*
X0074860Y0063125D01*
X0074101Y0062365D01*
X0074101Y0061150D01*
X0066650Y0061150D01*
X0066286Y0062029D01*
X0065279Y0063036D01*
X0064390Y0063404D01*
X0064390Y0075447D01*
X0065212Y0075447D01*
X0066149Y0076384D01*
X0066149Y0083615D01*
X0065212Y0084553D01*
X0064390Y0084553D01*
X0064390Y0085447D01*
X0065212Y0085447D01*
X0066149Y0086384D01*
X0066149Y0088123D02*
X0111050Y0088123D01*
X0111050Y0089721D02*
X0066149Y0089721D01*
X0066149Y0091320D02*
X0111050Y0091320D01*
X0111050Y0092918D02*
X0066149Y0092918D01*
X0061990Y0090000D02*
X0061990Y0080000D01*
X0061990Y0061260D01*
X0063250Y0060000D01*
X0054510Y0060000D01*
X0053260Y0061250D01*
X0048697Y0060948D02*
X0026700Y0060948D01*
X0026700Y0062546D02*
X0048697Y0062546D01*
X0048673Y0064145D02*
X0026700Y0064145D01*
X0026700Y0065743D02*
X0048497Y0065743D01*
X0048497Y0067970D02*
X0052770Y0067970D01*
X0052770Y0071849D01*
X0050060Y0071849D01*
X0049602Y0071727D01*
X0049192Y0071490D01*
X0048857Y0071154D01*
X0048620Y0070744D01*
X0048497Y0070286D01*
X0048497Y0067970D01*
X0048497Y0068940D02*
X0026700Y0068940D01*
X0026700Y0067342D02*
X0052770Y0067342D01*
X0053730Y0067342D02*
X0059590Y0067342D01*
X0059590Y0068940D02*
X0058003Y0068940D01*
X0057935Y0070539D02*
X0059590Y0070539D01*
X0059590Y0072137D02*
X0026700Y0072137D01*
X0026700Y0073736D02*
X0059590Y0073736D01*
X0059590Y0075334D02*
X0026700Y0075334D01*
X0026700Y0076933D02*
X0045046Y0076933D01*
X0043732Y0078532D02*
X0026700Y0078532D01*
X0026700Y0080130D02*
X0043419Y0080130D01*
X0043840Y0081729D02*
X0026700Y0081729D01*
X0026700Y0083327D02*
X0045674Y0083327D01*
X0048326Y0083327D02*
X0050351Y0083327D01*
X0050351Y0086524D02*
X0047966Y0086524D01*
X0047000Y0090000D02*
X0054510Y0090000D01*
X0050351Y0092918D02*
X0049146Y0092918D01*
X0047000Y0080000D02*
X0054510Y0080000D01*
X0050351Y0076933D02*
X0048953Y0076933D01*
X0048565Y0070539D02*
X0026700Y0070539D01*
X0026700Y0059349D02*
X0048697Y0059349D01*
X0048697Y0057751D02*
X0026700Y0057751D01*
X0026700Y0056152D02*
X0049333Y0056152D01*
X0048697Y0052955D02*
X0026700Y0052955D01*
X0026700Y0051357D02*
X0048697Y0051357D01*
X0048697Y0049758D02*
X0026700Y0049758D01*
X0026700Y0048160D02*
X0048697Y0048160D01*
X0048904Y0046561D02*
X0026700Y0046561D01*
X0026700Y0044963D02*
X0048497Y0044963D01*
X0048497Y0043364D02*
X0026700Y0043364D01*
X0026700Y0041766D02*
X0048497Y0041766D01*
X0048497Y0040167D02*
X0026700Y0040167D01*
X0026700Y0038569D02*
X0049134Y0038569D01*
X0052770Y0038569D02*
X0053730Y0038569D01*
X0053730Y0038151D02*
X0056440Y0038151D01*
X0056898Y0038273D01*
X0057308Y0038510D01*
X0057643Y0038846D01*
X0057880Y0039256D01*
X0058003Y0039714D01*
X0058003Y0042030D01*
X0053730Y0042030D01*
X0053730Y0038151D01*
X0053730Y0040167D02*
X0052770Y0040167D01*
X0052770Y0041766D02*
X0053730Y0041766D01*
X0058003Y0041766D02*
X0070968Y0041766D01*
X0070968Y0043364D02*
X0068000Y0043364D01*
X0068116Y0043565D02*
X0068239Y0044023D01*
X0068239Y0046060D01*
X0064277Y0046060D01*
X0064277Y0046460D01*
X0068239Y0046460D01*
X0068239Y0048497D01*
X0068116Y0048955D01*
X0067879Y0049365D01*
X0067544Y0049700D01*
X0067134Y0049937D01*
X0066676Y0050060D01*
X0064277Y0050060D01*
X0064277Y0046460D01*
X0063877Y0046460D01*
X0063877Y0050060D01*
X0061478Y0050060D01*
X0061020Y0049937D01*
X0060609Y0049700D01*
X0060274Y0049365D01*
X0060037Y0048955D01*
X0059915Y0048497D01*
X0059915Y0046460D01*
X0063877Y0046460D01*
X0063877Y0046060D01*
X0064277Y0046060D01*
X0064277Y0042460D01*
X0066676Y0042460D01*
X0067134Y0042583D01*
X0067544Y0042819D01*
X0067879Y0043155D01*
X0068116Y0043565D01*
X0068239Y0044963D02*
X0070968Y0044963D01*
X0069237Y0046561D02*
X0068239Y0046561D01*
X0068239Y0048160D02*
X0068461Y0048160D01*
X0068461Y0049758D02*
X0067444Y0049758D01*
X0068039Y0051357D02*
X0068461Y0051357D01*
X0068754Y0052955D02*
X0068039Y0052955D01*
X0068039Y0054554D02*
X0074681Y0054554D01*
X0074101Y0056152D02*
X0068039Y0056152D01*
X0064500Y0058750D02*
X0063250Y0060000D01*
X0063250Y0054567D01*
X0064077Y0053740D01*
X0057000Y0053740D01*
X0053250Y0049990D01*
X0057803Y0049758D02*
X0060710Y0049758D01*
X0059915Y0048160D02*
X0057803Y0048160D01*
X0057596Y0046561D02*
X0059915Y0046561D01*
X0059915Y0046060D02*
X0059915Y0044023D01*
X0060037Y0043565D01*
X0060274Y0043155D01*
X0060609Y0042819D01*
X0061020Y0042583D01*
X0061478Y0042460D01*
X0063877Y0042460D01*
X0063877Y0046060D01*
X0059915Y0046060D01*
X0059915Y0044963D02*
X0058003Y0044963D01*
X0058003Y0043364D02*
X0060153Y0043364D01*
X0063877Y0043364D02*
X0064277Y0043364D01*
X0064277Y0044963D02*
X0063877Y0044963D01*
X0064077Y0046260D02*
X0064077Y0030827D01*
X0063250Y0030000D01*
X0063250Y0022933D01*
X0063132Y0022815D01*
X0063132Y0018340D02*
X0063132Y0017570D01*
X0063132Y0018340D01*
X0063132Y0018340D01*
X0063132Y0017788D02*
X0063132Y0017788D01*
X0060385Y0016190D02*
X0076115Y0016190D01*
X0076115Y0014591D02*
X0060385Y0014591D01*
X0060385Y0012993D02*
X0076115Y0012993D01*
X0082534Y0012993D02*
X0083296Y0012993D01*
X0083296Y0014591D02*
X0082534Y0014591D01*
X0082534Y0016190D02*
X0083296Y0016190D01*
X0083296Y0017788D02*
X0082534Y0017788D01*
X0083273Y0019387D02*
X0117987Y0019387D01*
X0117950Y0019622D02*
X0118068Y0018876D01*
X0118302Y0018157D01*
X0118645Y0017484D01*
X0119089Y0016873D01*
X0119623Y0016339D01*
X0120234Y0015895D01*
X0120907Y0015552D01*
X0121626Y0015318D01*
X0122372Y0015200D01*
X0125550Y0015200D01*
X0125550Y0019800D01*
X0117950Y0019800D01*
X0117950Y0019622D01*
X0118046Y0020985D02*
X0084138Y0020985D01*
X0084664Y0022584D02*
X0118694Y0022584D01*
X0120385Y0024182D02*
X0084664Y0024182D01*
X0084336Y0025781D02*
X0120916Y0025781D01*
X0118865Y0027379D02*
X0083674Y0027379D01*
X0082153Y0028978D02*
X0118194Y0028978D01*
X0118150Y0030576D02*
X0075768Y0030576D01*
X0075768Y0032175D02*
X0079340Y0032175D01*
X0078497Y0033773D02*
X0075768Y0033773D01*
X0075768Y0035372D02*
X0078497Y0035372D01*
X0078497Y0036970D02*
X0075768Y0036970D01*
X0075768Y0038569D02*
X0078497Y0038569D01*
X0079048Y0040167D02*
X0075768Y0040167D01*
X0075768Y0041766D02*
X0078697Y0041766D01*
X0078697Y0043364D02*
X0075768Y0043364D01*
X0075768Y0044963D02*
X0078697Y0044963D01*
X0078697Y0046561D02*
X0075768Y0046561D01*
X0076385Y0048160D02*
X0078853Y0048160D01*
X0082647Y0048160D02*
X0091415Y0048160D01*
X0090919Y0046561D02*
X0087803Y0046561D01*
X0084008Y0049758D02*
X0093612Y0049758D01*
X0095388Y0049758D02*
X0118150Y0049758D01*
X0118333Y0051357D02*
X0097171Y0051357D01*
X0098047Y0052955D02*
X0119200Y0052955D01*
X0121724Y0054554D02*
X0098043Y0054554D01*
X0097162Y0056152D02*
X0120092Y0056152D01*
X0118703Y0057751D02*
X0095410Y0057751D01*
X0097589Y0059349D02*
X0118150Y0059349D01*
X0118164Y0060948D02*
X0098081Y0060948D01*
X0097839Y0062546D02*
X0109189Y0062546D01*
X0108697Y0064145D02*
X0096670Y0064145D01*
X0094500Y0061250D02*
X0088250Y0067500D01*
X0085740Y0067500D01*
X0089899Y0070539D02*
X0108697Y0070539D01*
X0108697Y0068940D02*
X0090204Y0068940D01*
X0091802Y0067342D02*
X0108697Y0067342D01*
X0108697Y0065743D02*
X0093401Y0065743D01*
X0089500Y0058750D02*
X0085740Y0058750D01*
X0089500Y0058750D02*
X0094500Y0053750D01*
X0091829Y0051357D02*
X0084331Y0051357D01*
X0083920Y0052955D02*
X0090953Y0052955D01*
X0090302Y0054554D02*
X0089319Y0054554D01*
X0097585Y0048160D02*
X0118533Y0048160D01*
X0119683Y0046561D02*
X0098081Y0046561D01*
X0097843Y0044963D02*
X0126666Y0044963D01*
X0119609Y0043364D02*
X0096679Y0043364D01*
X0094500Y0046250D02*
X0091990Y0043740D01*
X0083250Y0043740D01*
X0087452Y0040167D02*
X0118150Y0040167D01*
X0118364Y0038569D02*
X0088003Y0038569D01*
X0088003Y0036970D02*
X0119274Y0036970D01*
X0120018Y0033773D02*
X0088003Y0033773D01*
X0088003Y0033464D02*
X0088003Y0035780D01*
X0083730Y0035780D01*
X0083730Y0031901D01*
X0086440Y0031901D01*
X0086898Y0032023D01*
X0087308Y0032260D01*
X0087643Y0032596D01*
X0087880Y0033006D01*
X0088003Y0033464D01*
X0087159Y0032175D02*
X0118672Y0032175D01*
X0126666Y0035372D02*
X0088003Y0035372D01*
X0083730Y0035372D02*
X0082770Y0035372D01*
X0082770Y0033773D02*
X0083730Y0033773D01*
X0083730Y0032175D02*
X0082770Y0032175D01*
X0070968Y0032175D02*
X0026700Y0032175D01*
X0026700Y0033773D02*
X0070968Y0033773D01*
X0070968Y0035372D02*
X0026700Y0035372D01*
X0026700Y0036970D02*
X0070968Y0036970D01*
X0070968Y0038569D02*
X0057366Y0038569D01*
X0058003Y0040167D02*
X0070968Y0040167D01*
X0064277Y0046561D02*
X0063877Y0046561D01*
X0063877Y0048160D02*
X0064277Y0048160D01*
X0064277Y0049758D02*
X0063877Y0049758D01*
X0072423Y0050000D02*
X0073368Y0049055D01*
X0073368Y0022815D01*
X0070968Y0028978D02*
X0063058Y0028978D01*
X0070968Y0030576D02*
X0026700Y0030576D01*
X0026700Y0028978D02*
X0054347Y0028978D01*
X0052826Y0027379D02*
X0026700Y0027379D01*
X0026700Y0025781D02*
X0052164Y0025781D01*
X0051836Y0024182D02*
X0026700Y0024182D01*
X0026700Y0022584D02*
X0051836Y0022584D01*
X0052362Y0020985D02*
X0027944Y0020985D01*
X0030095Y0019387D02*
X0053227Y0019387D01*
X0053204Y0017788D02*
X0053966Y0017788D01*
X0053966Y0016190D02*
X0053204Y0016190D01*
X0053204Y0014591D02*
X0053966Y0014591D01*
X0053966Y0012993D02*
X0053204Y0012993D01*
X0053203Y0011394D02*
X0043121Y0011394D01*
X0043121Y0012993D02*
X0046785Y0012993D01*
X0046785Y0014591D02*
X0042622Y0014591D01*
X0040140Y0014591D02*
X0040140Y0014591D01*
X0040140Y0012993D02*
X0040140Y0012993D01*
X0040140Y0011394D02*
X0040140Y0011394D01*
X0037159Y0011394D02*
X0029141Y0011394D01*
X0029141Y0012993D02*
X0037159Y0012993D01*
X0037658Y0014591D02*
X0029155Y0014591D01*
X0030333Y0016190D02*
X0046785Y0016190D01*
X0047138Y0017788D02*
X0030581Y0017788D01*
X0026360Y0010000D02*
X0022000Y0014360D01*
X0053966Y0011394D02*
X0082534Y0011394D01*
X0083297Y0011394D02*
X0098379Y0011394D01*
X0098379Y0012993D02*
X0089715Y0012993D01*
X0089715Y0014591D02*
X0098878Y0014591D01*
X0101360Y0014591D02*
X0101360Y0014591D01*
X0101360Y0015146D02*
X0101360Y0010600D01*
X0101360Y0010600D01*
X0101360Y0015146D01*
X0101360Y0012993D02*
X0101360Y0012993D01*
X0101360Y0011394D02*
X0101360Y0011394D01*
X0104341Y0011394D02*
X0108462Y0011394D01*
X0105205Y0012993D02*
X0104341Y0012993D01*
X0104669Y0014591D02*
X0103842Y0014591D01*
X0104867Y0016190D02*
X0089715Y0016190D01*
X0089362Y0017788D02*
X0105974Y0017788D01*
X0108250Y0015000D02*
X0113250Y0010000D01*
X0115140Y0010000D01*
X0117921Y0011394D02*
X0126666Y0011394D01*
X0126666Y0012993D02*
X0117921Y0012993D01*
X0117339Y0014591D02*
X0126666Y0014591D01*
X0125950Y0016190D02*
X0125550Y0016190D01*
X0125550Y0017788D02*
X0125950Y0017788D01*
X0125950Y0019387D02*
X0125550Y0019387D01*
X0125550Y0020985D02*
X0125950Y0020985D01*
X0125950Y0022584D02*
X0125550Y0022584D01*
X0125550Y0024182D02*
X0125950Y0024182D01*
X0118490Y0017788D02*
X0110526Y0017788D01*
X0111633Y0016190D02*
X0119828Y0016190D01*
X0112941Y0014591D02*
X0112053Y0014591D01*
X0118502Y0041766D02*
X0093410Y0041766D01*
X0078260Y0058750D02*
X0064500Y0058750D01*
X0063250Y0060000D02*
X0062000Y0061250D01*
X0059590Y0062546D02*
X0057803Y0062546D01*
X0057827Y0064145D02*
X0059590Y0064145D01*
X0059590Y0065743D02*
X0058003Y0065743D01*
X0053730Y0068940D02*
X0052770Y0068940D01*
X0052770Y0070539D02*
X0053730Y0070539D01*
X0064390Y0070539D02*
X0074101Y0070539D01*
X0074101Y0068940D02*
X0064390Y0068940D01*
X0064390Y0067342D02*
X0074101Y0067342D01*
X0074101Y0065743D02*
X0064390Y0065743D01*
X0064390Y0064145D02*
X0074101Y0064145D01*
X0074282Y0062546D02*
X0065768Y0062546D01*
X0078260Y0058750D02*
X0078260Y0067500D01*
X0066149Y0076933D02*
X0108697Y0076933D01*
X0108697Y0075334D02*
X0064390Y0075334D01*
X0064390Y0073736D02*
X0108697Y0073736D01*
X0108697Y0072137D02*
X0064390Y0072137D01*
X0066149Y0078532D02*
X0111050Y0078532D01*
X0111050Y0080130D02*
X0066149Y0080130D01*
X0066149Y0081729D02*
X0111050Y0081729D01*
X0111050Y0083327D02*
X0066149Y0083327D01*
X0103250Y0094517D02*
X0111050Y0094517D01*
X0110919Y0096115D02*
X0103250Y0096115D01*
X0103250Y0097714D02*
X0111230Y0097714D01*
X0112535Y0099312D02*
X0103250Y0099312D01*
X0103250Y0100911D02*
X0126666Y0100911D01*
X0126666Y0102509D02*
X0103250Y0102509D01*
X0103250Y0104108D02*
X0126666Y0104108D01*
X0126666Y0105706D02*
X0103250Y0105706D01*
X0103250Y0107305D02*
X0126666Y0107305D01*
X0126666Y0108903D02*
X0103250Y0108903D01*
X0103250Y0110502D02*
X0126666Y0110502D01*
X0126666Y0112100D02*
X0103250Y0112100D01*
X0103250Y0113699D02*
X0126666Y0113699D01*
X0126666Y0115297D02*
X0103250Y0115297D01*
X0103250Y0116896D02*
X0126666Y0116896D01*
X0126666Y0099312D02*
X0116465Y0099312D01*
X0117770Y0097714D02*
X0126666Y0097714D01*
X0126666Y0096115D02*
X0118081Y0096115D01*
X0117658Y0094517D02*
X0121634Y0094517D01*
X0119163Y0092918D02*
X0115814Y0092918D01*
X0115450Y0091320D02*
X0118318Y0091320D01*
X0118150Y0089721D02*
X0115450Y0089721D01*
X0115450Y0088123D02*
X0118549Y0088123D01*
X0119721Y0086524D02*
X0115450Y0086524D01*
X0115450Y0084926D02*
X0126666Y0084926D01*
X0119572Y0083327D02*
X0115450Y0083327D01*
X0115450Y0081729D02*
X0118487Y0081729D01*
X0118150Y0080130D02*
X0115450Y0080130D01*
X0115450Y0078532D02*
X0118379Y0078532D01*
X0117803Y0076933D02*
X0119312Y0076933D01*
X0117803Y0075334D02*
X0126666Y0075334D01*
X0119981Y0073736D02*
X0117803Y0073736D01*
X0117803Y0072137D02*
X0118656Y0072137D01*
X0118150Y0070539D02*
X0117803Y0070539D01*
X0117803Y0068940D02*
X0118210Y0068940D01*
X0118826Y0062546D02*
X0117311Y0062546D01*
X0054420Y0054554D02*
X0026700Y0054554D01*
D11*
X0064077Y0053740D03*
X0072423Y0050000D03*
X0064077Y0046260D03*
D12*
X0063132Y0022815D03*
X0065691Y0022815D03*
X0068250Y0022815D03*
X0070809Y0022815D03*
X0073368Y0022815D03*
D13*
X0082915Y0011693D03*
X0053585Y0011693D03*
D14*
X0056636Y0023622D02*
X0056638Y0023713D01*
X0056644Y0023803D01*
X0056654Y0023894D01*
X0056668Y0023983D01*
X0056686Y0024072D01*
X0056707Y0024161D01*
X0056733Y0024248D01*
X0056762Y0024334D01*
X0056796Y0024418D01*
X0056832Y0024501D01*
X0056873Y0024583D01*
X0056917Y0024662D01*
X0056964Y0024740D01*
X0057015Y0024815D01*
X0057069Y0024888D01*
X0057126Y0024958D01*
X0057186Y0025026D01*
X0057249Y0025092D01*
X0057315Y0025154D01*
X0057384Y0025213D01*
X0057455Y0025270D01*
X0057529Y0025323D01*
X0057605Y0025373D01*
X0057683Y0025420D01*
X0057763Y0025463D01*
X0057844Y0025502D01*
X0057928Y0025538D01*
X0058013Y0025570D01*
X0058099Y0025599D01*
X0058186Y0025623D01*
X0058275Y0025644D01*
X0058364Y0025661D01*
X0058454Y0025674D01*
X0058544Y0025683D01*
X0058635Y0025688D01*
X0058726Y0025689D01*
X0058816Y0025686D01*
X0058907Y0025679D01*
X0058997Y0025668D01*
X0059087Y0025653D01*
X0059176Y0025634D01*
X0059264Y0025612D01*
X0059350Y0025585D01*
X0059436Y0025555D01*
X0059520Y0025521D01*
X0059603Y0025483D01*
X0059684Y0025442D01*
X0059763Y0025397D01*
X0059840Y0025348D01*
X0059914Y0025297D01*
X0059987Y0025242D01*
X0060057Y0025184D01*
X0060124Y0025123D01*
X0060188Y0025059D01*
X0060250Y0024993D01*
X0060309Y0024923D01*
X0060364Y0024852D01*
X0060417Y0024777D01*
X0060466Y0024701D01*
X0060512Y0024623D01*
X0060554Y0024542D01*
X0060593Y0024460D01*
X0060628Y0024376D01*
X0060659Y0024291D01*
X0060686Y0024204D01*
X0060710Y0024117D01*
X0060730Y0024028D01*
X0060746Y0023939D01*
X0060758Y0023849D01*
X0060766Y0023758D01*
X0060770Y0023667D01*
X0060770Y0023577D01*
X0060766Y0023486D01*
X0060758Y0023395D01*
X0060746Y0023305D01*
X0060730Y0023216D01*
X0060710Y0023127D01*
X0060686Y0023040D01*
X0060659Y0022953D01*
X0060628Y0022868D01*
X0060593Y0022784D01*
X0060554Y0022702D01*
X0060512Y0022621D01*
X0060466Y0022543D01*
X0060417Y0022467D01*
X0060364Y0022392D01*
X0060309Y0022321D01*
X0060250Y0022251D01*
X0060188Y0022185D01*
X0060124Y0022121D01*
X0060057Y0022060D01*
X0059987Y0022002D01*
X0059914Y0021947D01*
X0059840Y0021896D01*
X0059763Y0021847D01*
X0059684Y0021802D01*
X0059603Y0021761D01*
X0059520Y0021723D01*
X0059436Y0021689D01*
X0059350Y0021659D01*
X0059264Y0021632D01*
X0059176Y0021610D01*
X0059087Y0021591D01*
X0058997Y0021576D01*
X0058907Y0021565D01*
X0058816Y0021558D01*
X0058726Y0021555D01*
X0058635Y0021556D01*
X0058544Y0021561D01*
X0058454Y0021570D01*
X0058364Y0021583D01*
X0058275Y0021600D01*
X0058186Y0021621D01*
X0058099Y0021645D01*
X0058013Y0021674D01*
X0057928Y0021706D01*
X0057844Y0021742D01*
X0057763Y0021781D01*
X0057683Y0021824D01*
X0057605Y0021871D01*
X0057529Y0021921D01*
X0057455Y0021974D01*
X0057384Y0022031D01*
X0057315Y0022090D01*
X0057249Y0022152D01*
X0057186Y0022218D01*
X0057126Y0022286D01*
X0057069Y0022356D01*
X0057015Y0022429D01*
X0056964Y0022504D01*
X0056917Y0022582D01*
X0056873Y0022661D01*
X0056832Y0022743D01*
X0056796Y0022826D01*
X0056762Y0022910D01*
X0056733Y0022996D01*
X0056707Y0023083D01*
X0056686Y0023172D01*
X0056668Y0023261D01*
X0056654Y0023350D01*
X0056644Y0023441D01*
X0056638Y0023531D01*
X0056636Y0023622D01*
X0075730Y0023622D02*
X0075732Y0023713D01*
X0075738Y0023803D01*
X0075748Y0023894D01*
X0075762Y0023983D01*
X0075780Y0024072D01*
X0075801Y0024161D01*
X0075827Y0024248D01*
X0075856Y0024334D01*
X0075890Y0024418D01*
X0075926Y0024501D01*
X0075967Y0024583D01*
X0076011Y0024662D01*
X0076058Y0024740D01*
X0076109Y0024815D01*
X0076163Y0024888D01*
X0076220Y0024958D01*
X0076280Y0025026D01*
X0076343Y0025092D01*
X0076409Y0025154D01*
X0076478Y0025213D01*
X0076549Y0025270D01*
X0076623Y0025323D01*
X0076699Y0025373D01*
X0076777Y0025420D01*
X0076857Y0025463D01*
X0076938Y0025502D01*
X0077022Y0025538D01*
X0077107Y0025570D01*
X0077193Y0025599D01*
X0077280Y0025623D01*
X0077369Y0025644D01*
X0077458Y0025661D01*
X0077548Y0025674D01*
X0077638Y0025683D01*
X0077729Y0025688D01*
X0077820Y0025689D01*
X0077910Y0025686D01*
X0078001Y0025679D01*
X0078091Y0025668D01*
X0078181Y0025653D01*
X0078270Y0025634D01*
X0078358Y0025612D01*
X0078444Y0025585D01*
X0078530Y0025555D01*
X0078614Y0025521D01*
X0078697Y0025483D01*
X0078778Y0025442D01*
X0078857Y0025397D01*
X0078934Y0025348D01*
X0079008Y0025297D01*
X0079081Y0025242D01*
X0079151Y0025184D01*
X0079218Y0025123D01*
X0079282Y0025059D01*
X0079344Y0024993D01*
X0079403Y0024923D01*
X0079458Y0024852D01*
X0079511Y0024777D01*
X0079560Y0024701D01*
X0079606Y0024623D01*
X0079648Y0024542D01*
X0079687Y0024460D01*
X0079722Y0024376D01*
X0079753Y0024291D01*
X0079780Y0024204D01*
X0079804Y0024117D01*
X0079824Y0024028D01*
X0079840Y0023939D01*
X0079852Y0023849D01*
X0079860Y0023758D01*
X0079864Y0023667D01*
X0079864Y0023577D01*
X0079860Y0023486D01*
X0079852Y0023395D01*
X0079840Y0023305D01*
X0079824Y0023216D01*
X0079804Y0023127D01*
X0079780Y0023040D01*
X0079753Y0022953D01*
X0079722Y0022868D01*
X0079687Y0022784D01*
X0079648Y0022702D01*
X0079606Y0022621D01*
X0079560Y0022543D01*
X0079511Y0022467D01*
X0079458Y0022392D01*
X0079403Y0022321D01*
X0079344Y0022251D01*
X0079282Y0022185D01*
X0079218Y0022121D01*
X0079151Y0022060D01*
X0079081Y0022002D01*
X0079008Y0021947D01*
X0078934Y0021896D01*
X0078857Y0021847D01*
X0078778Y0021802D01*
X0078697Y0021761D01*
X0078614Y0021723D01*
X0078530Y0021689D01*
X0078444Y0021659D01*
X0078358Y0021632D01*
X0078270Y0021610D01*
X0078181Y0021591D01*
X0078091Y0021576D01*
X0078001Y0021565D01*
X0077910Y0021558D01*
X0077820Y0021555D01*
X0077729Y0021556D01*
X0077638Y0021561D01*
X0077548Y0021570D01*
X0077458Y0021583D01*
X0077369Y0021600D01*
X0077280Y0021621D01*
X0077193Y0021645D01*
X0077107Y0021674D01*
X0077022Y0021706D01*
X0076938Y0021742D01*
X0076857Y0021781D01*
X0076777Y0021824D01*
X0076699Y0021871D01*
X0076623Y0021921D01*
X0076549Y0021974D01*
X0076478Y0022031D01*
X0076409Y0022090D01*
X0076343Y0022152D01*
X0076280Y0022218D01*
X0076220Y0022286D01*
X0076163Y0022356D01*
X0076109Y0022429D01*
X0076058Y0022504D01*
X0076011Y0022582D01*
X0075967Y0022661D01*
X0075926Y0022743D01*
X0075890Y0022826D01*
X0075856Y0022910D01*
X0075827Y0022996D01*
X0075801Y0023083D01*
X0075780Y0023172D01*
X0075762Y0023261D01*
X0075748Y0023350D01*
X0075738Y0023441D01*
X0075732Y0023531D01*
X0075730Y0023622D01*
D15*
X0122750Y0020000D02*
X0128750Y0020000D01*
X0128750Y0030000D02*
X0122750Y0030000D01*
X0122750Y0040000D02*
X0128750Y0040000D01*
X0128750Y0050000D02*
X0122750Y0050000D01*
X0122750Y0060000D02*
X0128750Y0060000D01*
X0128750Y0070000D02*
X0122750Y0070000D01*
X0122750Y0080000D02*
X0128750Y0080000D01*
X0128750Y0090000D02*
X0122750Y0090000D01*
X0017500Y0090000D02*
X0011500Y0090000D01*
X0011500Y0080000D02*
X0017500Y0080000D01*
X0017500Y0070000D02*
X0011500Y0070000D01*
X0011500Y0060000D02*
X0017500Y0060000D01*
X0017500Y0050000D02*
X0011500Y0050000D01*
X0011500Y0040000D02*
X0017500Y0040000D01*
X0017500Y0030000D02*
X0011500Y0030000D01*
X0011500Y0020000D02*
X0017500Y0020000D01*
D16*
X0053250Y0042510D03*
X0053250Y0049990D03*
X0053250Y0060010D03*
X0053250Y0067490D03*
X0083250Y0043740D03*
X0083250Y0036260D03*
X0113250Y0066260D03*
X0113250Y0073740D03*
D17*
X0085740Y0067500D03*
X0078260Y0067500D03*
X0078260Y0058750D03*
X0085740Y0058750D03*
X0061990Y0080000D03*
X0054510Y0080000D03*
X0054510Y0090000D03*
X0061990Y0090000D03*
D18*
X0040140Y0010000D03*
X0026360Y0010000D03*
X0101360Y0010000D03*
X0115140Y0010000D03*
D19*
X0108250Y0015000D03*
X0089500Y0022500D03*
X0109500Y0037500D03*
X0094500Y0046250D03*
X0094500Y0053750D03*
X0094500Y0061250D03*
X0080750Y0051250D03*
X0063250Y0060000D03*
X0047000Y0080000D03*
X0047000Y0090000D03*
X0025750Y0103750D03*
X0015750Y0097500D03*
X0114500Y0096250D03*
X0120750Y0103750D03*
X0030750Y0022500D03*
X0027000Y0017500D03*
D20*
X0024500Y0020000D01*
X0024500Y0092500D01*
X0019500Y0097500D01*
X0015750Y0097500D01*
X0073368Y0049055D02*
X0075563Y0051250D01*
X0080750Y0051250D01*
X0113250Y0066260D02*
X0119490Y0066260D01*
X0125750Y0060000D01*
X0113250Y0073740D02*
X0113250Y0095000D01*
X0114500Y0096250D01*
M02*
